<?xml version="1.0" encoding="utf-8" standalone="no"?>
<!DOCTYPE svg PUBLIC "-//W3C//DTD SVG 1.1//EN"
  "http://www.w3.org/Graphics/SVG/1.1/DTD/svg11.dtd">
<!-- Created with matplotlib (https://matplotlib.org/) -->
<svg height="696.634375pt" version="1.1" viewBox="0 0 1057.980312 696.634375" width="1057.980312pt" xmlns="http://www.w3.org/2000/svg" xmlns:xlink="http://www.w3.org/1999/xlink">
 <metadata>
  <rdf:RDF xmlns:cc="http://creativecommons.org/ns#" xmlns:dc="http://purl.org/dc/elements/1.1/" xmlns:rdf="http://www.w3.org/1999/02/22-rdf-syntax-ns#">
   <cc:Work>
    <dc:type rdf:resource="http://purl.org/dc/dcmitype/StillImage"/>
    <dc:date>2023-12-05T19:07:16.458826</dc:date>
    <dc:format>image/svg+xml</dc:format>
    <dc:creator>
     <cc:Agent>
      <dc:title>Matplotlib v3.3.4, https://matplotlib.org/</dc:title>
     </cc:Agent>
    </dc:creator>
   </cc:Work>
  </rdf:RDF>
 </metadata>
 <defs>
  <style type="text/css">*{stroke-linecap:butt;stroke-linejoin:round;}</style>
 </defs>
 <g id="figure_1">
  <g id="patch_1">
   <path d="M 0 696.634375 
L 1057.980312 696.634375 
L 1057.980312 0 
L 0 0 
z
" style="fill:none;"/>
  </g>
  <g id="axes_1">
   <g id="patch_2">
    <path d="M 35.420313 311.678125 
L 1057.980313 311.678125 
L 1057.980313 15.118125 
L 35.420313 15.118125 
z
" style="fill:none;"/>
   </g>
   <g id="matplotlib.axis_1">
    <g id="xtick_1">
     <g id="line2d_1">
      <path clip-path="url(#p68cba5789b)" d="M 81.900313 311.678125 
L 81.900313 15.118125 
" style="fill:none;stroke:#cccccc;stroke-linecap:round;stroke-width:0.8;"/>
     </g>
     <g id="text_1">
      <!-- 0 -->
      <g style="fill:#262626;" transform="translate(78.719063 326.276563)scale(0.1 -0.1)">
       <defs>
        <path d="M 31.78125 66.40625 
Q 24.171875 66.40625 20.328125 58.90625 
Q 16.5 51.421875 16.5 36.375 
Q 16.5 21.390625 20.328125 13.890625 
Q 24.171875 6.390625 31.78125 6.390625 
Q 39.453125 6.390625 43.28125 13.890625 
Q 47.125 21.390625 47.125 36.375 
Q 47.125 51.421875 43.28125 58.90625 
Q 39.453125 66.40625 31.78125 66.40625 
z
M 31.78125 74.21875 
Q 44.046875 74.21875 50.515625 64.515625 
Q 56.984375 54.828125 56.984375 36.375 
Q 56.984375 17.96875 50.515625 8.265625 
Q 44.046875 -1.421875 31.78125 -1.421875 
Q 19.53125 -1.421875 13.0625 8.265625 
Q 6.59375 17.96875 6.59375 36.375 
Q 6.59375 54.828125 13.0625 64.515625 
Q 19.53125 74.21875 31.78125 74.21875 
z
" id="DejaVuSans-48"/>
       </defs>
       <use xlink:href="#DejaVuSans-48"/>
      </g>
     </g>
    </g>
    <g id="xtick_2">
     <g id="line2d_2">
      <path clip-path="url(#p68cba5789b)" d="M 268.006419 311.678125 
L 268.006419 15.118125 
" style="fill:none;stroke:#cccccc;stroke-linecap:round;stroke-width:0.8;"/>
     </g>
     <g id="text_2">
      <!-- 200 -->
      <g style="fill:#262626;" transform="translate(258.462669 326.276563)scale(0.1 -0.1)">
       <defs>
        <path d="M 19.1875 8.296875 
L 53.609375 8.296875 
L 53.609375 0 
L 7.328125 0 
L 7.328125 8.296875 
Q 12.9375 14.109375 22.625 23.890625 
Q 32.328125 33.6875 34.8125 36.53125 
Q 39.546875 41.84375 41.421875 45.53125 
Q 43.3125 49.21875 43.3125 52.78125 
Q 43.3125 58.59375 39.234375 62.25 
Q 35.15625 65.921875 28.609375 65.921875 
Q 23.96875 65.921875 18.8125 64.3125 
Q 13.671875 62.703125 7.8125 59.421875 
L 7.8125 69.390625 
Q 13.765625 71.78125 18.9375 73 
Q 24.125 74.21875 28.421875 74.21875 
Q 39.75 74.21875 46.484375 68.546875 
Q 53.21875 62.890625 53.21875 53.421875 
Q 53.21875 48.921875 51.53125 44.890625 
Q 49.859375 40.875 45.40625 35.40625 
Q 44.1875 33.984375 37.640625 27.21875 
Q 31.109375 20.453125 19.1875 8.296875 
z
" id="DejaVuSans-50"/>
       </defs>
       <use xlink:href="#DejaVuSans-50"/>
       <use x="63.623047" xlink:href="#DejaVuSans-48"/>
       <use x="127.246094" xlink:href="#DejaVuSans-48"/>
      </g>
     </g>
    </g>
    <g id="xtick_3">
     <g id="line2d_3">
      <path clip-path="url(#p68cba5789b)" d="M 454.112525 311.678125 
L 454.112525 15.118125 
" style="fill:none;stroke:#cccccc;stroke-linecap:round;stroke-width:0.8;"/>
     </g>
     <g id="text_3">
      <!-- 400 -->
      <g style="fill:#262626;" transform="translate(444.568775 326.276563)scale(0.1 -0.1)">
       <defs>
        <path d="M 37.796875 64.3125 
L 12.890625 25.390625 
L 37.796875 25.390625 
z
M 35.203125 72.90625 
L 47.609375 72.90625 
L 47.609375 25.390625 
L 58.015625 25.390625 
L 58.015625 17.1875 
L 47.609375 17.1875 
L 47.609375 0 
L 37.796875 0 
L 37.796875 17.1875 
L 4.890625 17.1875 
L 4.890625 26.703125 
z
" id="DejaVuSans-52"/>
       </defs>
       <use xlink:href="#DejaVuSans-52"/>
       <use x="63.623047" xlink:href="#DejaVuSans-48"/>
       <use x="127.246094" xlink:href="#DejaVuSans-48"/>
      </g>
     </g>
    </g>
    <g id="xtick_4">
     <g id="line2d_4">
      <path clip-path="url(#p68cba5789b)" d="M 640.218631 311.678125 
L 640.218631 15.118125 
" style="fill:none;stroke:#cccccc;stroke-linecap:round;stroke-width:0.8;"/>
     </g>
     <g id="text_4">
      <!-- 600 -->
      <g style="fill:#262626;" transform="translate(630.674881 326.276563)scale(0.1 -0.1)">
       <defs>
        <path d="M 33.015625 40.375 
Q 26.375 40.375 22.484375 35.828125 
Q 18.609375 31.296875 18.609375 23.390625 
Q 18.609375 15.53125 22.484375 10.953125 
Q 26.375 6.390625 33.015625 6.390625 
Q 39.65625 6.390625 43.53125 10.953125 
Q 47.40625 15.53125 47.40625 23.390625 
Q 47.40625 31.296875 43.53125 35.828125 
Q 39.65625 40.375 33.015625 40.375 
z
M 52.59375 71.296875 
L 52.59375 62.3125 
Q 48.875 64.0625 45.09375 64.984375 
Q 41.3125 65.921875 37.59375 65.921875 
Q 27.828125 65.921875 22.671875 59.328125 
Q 17.53125 52.734375 16.796875 39.40625 
Q 19.671875 43.65625 24.015625 45.921875 
Q 28.375 48.1875 33.59375 48.1875 
Q 44.578125 48.1875 50.953125 41.515625 
Q 57.328125 34.859375 57.328125 23.390625 
Q 57.328125 12.15625 50.6875 5.359375 
Q 44.046875 -1.421875 33.015625 -1.421875 
Q 20.359375 -1.421875 13.671875 8.265625 
Q 6.984375 17.96875 6.984375 36.375 
Q 6.984375 53.65625 15.1875 63.9375 
Q 23.390625 74.21875 37.203125 74.21875 
Q 40.921875 74.21875 44.703125 73.484375 
Q 48.484375 72.75 52.59375 71.296875 
z
" id="DejaVuSans-54"/>
       </defs>
       <use xlink:href="#DejaVuSans-54"/>
       <use x="63.623047" xlink:href="#DejaVuSans-48"/>
       <use x="127.246094" xlink:href="#DejaVuSans-48"/>
      </g>
     </g>
    </g>
    <g id="xtick_5">
     <g id="line2d_5">
      <path clip-path="url(#p68cba5789b)" d="M 826.324737 311.678125 
L 826.324737 15.118125 
" style="fill:none;stroke:#cccccc;stroke-linecap:round;stroke-width:0.8;"/>
     </g>
     <g id="text_5">
      <!-- 800 -->
      <g style="fill:#262626;" transform="translate(816.780987 326.276563)scale(0.1 -0.1)">
       <defs>
        <path d="M 31.78125 34.625 
Q 24.75 34.625 20.71875 30.859375 
Q 16.703125 27.09375 16.703125 20.515625 
Q 16.703125 13.921875 20.71875 10.15625 
Q 24.75 6.390625 31.78125 6.390625 
Q 38.8125 6.390625 42.859375 10.171875 
Q 46.921875 13.96875 46.921875 20.515625 
Q 46.921875 27.09375 42.890625 30.859375 
Q 38.875 34.625 31.78125 34.625 
z
M 21.921875 38.8125 
Q 15.578125 40.375 12.03125 44.71875 
Q 8.5 49.078125 8.5 55.328125 
Q 8.5 64.0625 14.71875 69.140625 
Q 20.953125 74.21875 31.78125 74.21875 
Q 42.671875 74.21875 48.875 69.140625 
Q 55.078125 64.0625 55.078125 55.328125 
Q 55.078125 49.078125 51.53125 44.71875 
Q 48 40.375 41.703125 38.8125 
Q 48.828125 37.15625 52.796875 32.3125 
Q 56.78125 27.484375 56.78125 20.515625 
Q 56.78125 9.90625 50.3125 4.234375 
Q 43.84375 -1.421875 31.78125 -1.421875 
Q 19.734375 -1.421875 13.25 4.234375 
Q 6.78125 9.90625 6.78125 20.515625 
Q 6.78125 27.484375 10.78125 32.3125 
Q 14.796875 37.15625 21.921875 38.8125 
z
M 18.3125 54.390625 
Q 18.3125 48.734375 21.84375 45.5625 
Q 25.390625 42.390625 31.78125 42.390625 
Q 38.140625 42.390625 41.71875 45.5625 
Q 45.3125 48.734375 45.3125 54.390625 
Q 45.3125 60.0625 41.71875 63.234375 
Q 38.140625 66.40625 31.78125 66.40625 
Q 25.390625 66.40625 21.84375 63.234375 
Q 18.3125 60.0625 18.3125 54.390625 
z
" id="DejaVuSans-56"/>
       </defs>
       <use xlink:href="#DejaVuSans-56"/>
       <use x="63.623047" xlink:href="#DejaVuSans-48"/>
       <use x="127.246094" xlink:href="#DejaVuSans-48"/>
      </g>
     </g>
    </g>
    <g id="xtick_6">
     <g id="line2d_6">
      <path clip-path="url(#p68cba5789b)" d="M 1012.430843 311.678125 
L 1012.430843 15.118125 
" style="fill:none;stroke:#cccccc;stroke-linecap:round;stroke-width:0.8;"/>
     </g>
     <g id="text_6">
      <!-- 1000 -->
      <g style="fill:#262626;" transform="translate(999.705843 326.276563)scale(0.1 -0.1)">
       <defs>
        <path d="M 12.40625 8.296875 
L 28.515625 8.296875 
L 28.515625 63.921875 
L 10.984375 60.40625 
L 10.984375 69.390625 
L 28.421875 72.90625 
L 38.28125 72.90625 
L 38.28125 8.296875 
L 54.390625 8.296875 
L 54.390625 0 
L 12.40625 0 
z
" id="DejaVuSans-49"/>
       </defs>
       <use xlink:href="#DejaVuSans-49"/>
       <use x="63.623047" xlink:href="#DejaVuSans-48"/>
       <use x="127.246094" xlink:href="#DejaVuSans-48"/>
       <use x="190.869141" xlink:href="#DejaVuSans-48"/>
      </g>
     </g>
    </g>
    <g id="text_7">
     <!-- Latent features -->
     <g style="fill:#262626;" transform="translate(508.441719 339.954688)scale(0.1 -0.1)">
      <defs>
       <path d="M 9.8125 72.90625 
L 19.671875 72.90625 
L 19.671875 8.296875 
L 55.171875 8.296875 
L 55.171875 0 
L 9.8125 0 
z
" id="DejaVuSans-76"/>
       <path d="M 34.28125 27.484375 
Q 23.390625 27.484375 19.1875 25 
Q 14.984375 22.515625 14.984375 16.5 
Q 14.984375 11.71875 18.140625 8.90625 
Q 21.296875 6.109375 26.703125 6.109375 
Q 34.1875 6.109375 38.703125 11.40625 
Q 43.21875 16.703125 43.21875 25.484375 
L 43.21875 27.484375 
z
M 52.203125 31.203125 
L 52.203125 0 
L 43.21875 0 
L 43.21875 8.296875 
Q 40.140625 3.328125 35.546875 0.953125 
Q 30.953125 -1.421875 24.3125 -1.421875 
Q 15.921875 -1.421875 10.953125 3.296875 
Q 6 8.015625 6 15.921875 
Q 6 25.140625 12.171875 29.828125 
Q 18.359375 34.515625 30.609375 34.515625 
L 43.21875 34.515625 
L 43.21875 35.40625 
Q 43.21875 41.609375 39.140625 45 
Q 35.0625 48.390625 27.6875 48.390625 
Q 23 48.390625 18.546875 47.265625 
Q 14.109375 46.140625 10.015625 43.890625 
L 10.015625 52.203125 
Q 14.9375 54.109375 19.578125 55.046875 
Q 24.21875 56 28.609375 56 
Q 40.484375 56 46.34375 49.84375 
Q 52.203125 43.703125 52.203125 31.203125 
z
" id="DejaVuSans-97"/>
       <path d="M 18.3125 70.21875 
L 18.3125 54.6875 
L 36.8125 54.6875 
L 36.8125 47.703125 
L 18.3125 47.703125 
L 18.3125 18.015625 
Q 18.3125 11.328125 20.140625 9.421875 
Q 21.96875 7.515625 27.59375 7.515625 
L 36.8125 7.515625 
L 36.8125 0 
L 27.59375 0 
Q 17.1875 0 13.234375 3.875 
Q 9.28125 7.765625 9.28125 18.015625 
L 9.28125 47.703125 
L 2.6875 47.703125 
L 2.6875 54.6875 
L 9.28125 54.6875 
L 9.28125 70.21875 
z
" id="DejaVuSans-116"/>
       <path d="M 56.203125 29.59375 
L 56.203125 25.203125 
L 14.890625 25.203125 
Q 15.484375 15.921875 20.484375 11.0625 
Q 25.484375 6.203125 34.421875 6.203125 
Q 39.59375 6.203125 44.453125 7.46875 
Q 49.3125 8.734375 54.109375 11.28125 
L 54.109375 2.78125 
Q 49.265625 0.734375 44.1875 -0.34375 
Q 39.109375 -1.421875 33.890625 -1.421875 
Q 20.796875 -1.421875 13.15625 6.1875 
Q 5.515625 13.8125 5.515625 26.8125 
Q 5.515625 40.234375 12.765625 48.109375 
Q 20.015625 56 32.328125 56 
Q 43.359375 56 49.78125 48.890625 
Q 56.203125 41.796875 56.203125 29.59375 
z
M 47.21875 32.234375 
Q 47.125 39.59375 43.09375 43.984375 
Q 39.0625 48.390625 32.421875 48.390625 
Q 24.90625 48.390625 20.390625 44.140625 
Q 15.875 39.890625 15.1875 32.171875 
z
" id="DejaVuSans-101"/>
       <path d="M 54.890625 33.015625 
L 54.890625 0 
L 45.90625 0 
L 45.90625 32.71875 
Q 45.90625 40.484375 42.875 44.328125 
Q 39.84375 48.1875 33.796875 48.1875 
Q 26.515625 48.1875 22.3125 43.546875 
Q 18.109375 38.921875 18.109375 30.90625 
L 18.109375 0 
L 9.078125 0 
L 9.078125 54.6875 
L 18.109375 54.6875 
L 18.109375 46.1875 
Q 21.34375 51.125 25.703125 53.5625 
Q 30.078125 56 35.796875 56 
Q 45.21875 56 50.046875 50.171875 
Q 54.890625 44.34375 54.890625 33.015625 
z
" id="DejaVuSans-110"/>
       <path id="DejaVuSans-32"/>
       <path d="M 37.109375 75.984375 
L 37.109375 68.5 
L 28.515625 68.5 
Q 23.6875 68.5 21.796875 66.546875 
Q 19.921875 64.59375 19.921875 59.515625 
L 19.921875 54.6875 
L 34.71875 54.6875 
L 34.71875 47.703125 
L 19.921875 47.703125 
L 19.921875 0 
L 10.890625 0 
L 10.890625 47.703125 
L 2.296875 47.703125 
L 2.296875 54.6875 
L 10.890625 54.6875 
L 10.890625 58.5 
Q 10.890625 67.625 15.140625 71.796875 
Q 19.390625 75.984375 28.609375 75.984375 
z
" id="DejaVuSans-102"/>
       <path d="M 8.5 21.578125 
L 8.5 54.6875 
L 17.484375 54.6875 
L 17.484375 21.921875 
Q 17.484375 14.15625 20.5 10.265625 
Q 23.53125 6.390625 29.59375 6.390625 
Q 36.859375 6.390625 41.078125 11.03125 
Q 45.3125 15.671875 45.3125 23.6875 
L 45.3125 54.6875 
L 54.296875 54.6875 
L 54.296875 0 
L 45.3125 0 
L 45.3125 8.40625 
Q 42.046875 3.421875 37.71875 1 
Q 33.40625 -1.421875 27.6875 -1.421875 
Q 18.265625 -1.421875 13.375 4.4375 
Q 8.5 10.296875 8.5 21.578125 
z
M 31.109375 56 
z
" id="DejaVuSans-117"/>
       <path d="M 41.109375 46.296875 
Q 39.59375 47.171875 37.8125 47.578125 
Q 36.03125 48 33.890625 48 
Q 26.265625 48 22.1875 43.046875 
Q 18.109375 38.09375 18.109375 28.8125 
L 18.109375 0 
L 9.078125 0 
L 9.078125 54.6875 
L 18.109375 54.6875 
L 18.109375 46.1875 
Q 20.953125 51.171875 25.484375 53.578125 
Q 30.03125 56 36.53125 56 
Q 37.453125 56 38.578125 55.875 
Q 39.703125 55.765625 41.0625 55.515625 
z
" id="DejaVuSans-114"/>
       <path d="M 44.28125 53.078125 
L 44.28125 44.578125 
Q 40.484375 46.53125 36.375 47.5 
Q 32.28125 48.484375 27.875 48.484375 
Q 21.1875 48.484375 17.84375 46.4375 
Q 14.5 44.390625 14.5 40.28125 
Q 14.5 37.15625 16.890625 35.375 
Q 19.28125 33.59375 26.515625 31.984375 
L 29.59375 31.296875 
Q 39.15625 29.25 43.1875 25.515625 
Q 47.21875 21.78125 47.21875 15.09375 
Q 47.21875 7.46875 41.1875 3.015625 
Q 35.15625 -1.421875 24.609375 -1.421875 
Q 20.21875 -1.421875 15.453125 -0.5625 
Q 10.6875 0.296875 5.421875 2 
L 5.421875 11.28125 
Q 10.40625 8.6875 15.234375 7.390625 
Q 20.0625 6.109375 24.8125 6.109375 
Q 31.15625 6.109375 34.5625 8.28125 
Q 37.984375 10.453125 37.984375 14.40625 
Q 37.984375 18.0625 35.515625 20.015625 
Q 33.0625 21.96875 24.703125 23.78125 
L 21.578125 24.515625 
Q 13.234375 26.265625 9.515625 29.90625 
Q 5.8125 33.546875 5.8125 39.890625 
Q 5.8125 47.609375 11.28125 51.796875 
Q 16.75 56 26.8125 56 
Q 31.78125 56 36.171875 55.265625 
Q 40.578125 54.546875 44.28125 53.078125 
z
" id="DejaVuSans-115"/>
      </defs>
      <use xlink:href="#DejaVuSans-76"/>
      <use x="55.712891" xlink:href="#DejaVuSans-97"/>
      <use x="116.992188" xlink:href="#DejaVuSans-116"/>
      <use x="156.201172" xlink:href="#DejaVuSans-101"/>
      <use x="217.724609" xlink:href="#DejaVuSans-110"/>
      <use x="281.103516" xlink:href="#DejaVuSans-116"/>
      <use x="320.3125" xlink:href="#DejaVuSans-32"/>
      <use x="352.099609" xlink:href="#DejaVuSans-102"/>
      <use x="387.304688" xlink:href="#DejaVuSans-101"/>
      <use x="448.828125" xlink:href="#DejaVuSans-97"/>
      <use x="510.107422" xlink:href="#DejaVuSans-116"/>
      <use x="549.316406" xlink:href="#DejaVuSans-117"/>
      <use x="612.695312" xlink:href="#DejaVuSans-114"/>
      <use x="651.558594" xlink:href="#DejaVuSans-101"/>
      <use x="713.082031" xlink:href="#DejaVuSans-115"/>
     </g>
    </g>
   </g>
   <g id="matplotlib.axis_2">
    <g id="ytick_1">
     <g id="line2d_7">
      <path clip-path="url(#p68cba5789b)" d="M 35.420313 292.745121 
L 1057.980313 292.745121 
" style="fill:none;stroke:#cccccc;stroke-linecap:round;stroke-width:0.8;"/>
     </g>
     <g id="text_8">
      <!-- −4 -->
      <g style="fill:#262626;" transform="translate(13.678125 296.54434)scale(0.1 -0.1)">
       <defs>
        <path d="M 10.59375 35.5 
L 73.1875 35.5 
L 73.1875 27.203125 
L 10.59375 27.203125 
z
" id="DejaVuSans-8722"/>
       </defs>
       <use xlink:href="#DejaVuSans-8722"/>
       <use x="83.789062" xlink:href="#DejaVuSans-52"/>
      </g>
     </g>
    </g>
    <g id="ytick_2">
     <g id="line2d_8">
      <path clip-path="url(#p68cba5789b)" d="M 35.420313 256.685926 
L 1057.980313 256.685926 
" style="fill:none;stroke:#cccccc;stroke-linecap:round;stroke-width:0.8;"/>
     </g>
     <g id="text_9">
      <!-- −3 -->
      <g style="fill:#262626;" transform="translate(13.678125 260.485144)scale(0.1 -0.1)">
       <defs>
        <path d="M 40.578125 39.3125 
Q 47.65625 37.796875 51.625 33 
Q 55.609375 28.21875 55.609375 21.1875 
Q 55.609375 10.40625 48.1875 4.484375 
Q 40.765625 -1.421875 27.09375 -1.421875 
Q 22.515625 -1.421875 17.65625 -0.515625 
Q 12.796875 0.390625 7.625 2.203125 
L 7.625 11.71875 
Q 11.71875 9.328125 16.59375 8.109375 
Q 21.484375 6.890625 26.8125 6.890625 
Q 36.078125 6.890625 40.9375 10.546875 
Q 45.796875 14.203125 45.796875 21.1875 
Q 45.796875 27.640625 41.28125 31.265625 
Q 36.765625 34.90625 28.71875 34.90625 
L 20.21875 34.90625 
L 20.21875 43.015625 
L 29.109375 43.015625 
Q 36.375 43.015625 40.234375 45.921875 
Q 44.09375 48.828125 44.09375 54.296875 
Q 44.09375 59.90625 40.109375 62.90625 
Q 36.140625 65.921875 28.71875 65.921875 
Q 24.65625 65.921875 20.015625 65.03125 
Q 15.375 64.15625 9.8125 62.3125 
L 9.8125 71.09375 
Q 15.4375 72.65625 20.34375 73.4375 
Q 25.25 74.21875 29.59375 74.21875 
Q 40.828125 74.21875 47.359375 69.109375 
Q 53.90625 64.015625 53.90625 55.328125 
Q 53.90625 49.265625 50.4375 45.09375 
Q 46.96875 40.921875 40.578125 39.3125 
z
" id="DejaVuSans-51"/>
       </defs>
       <use xlink:href="#DejaVuSans-8722"/>
       <use x="83.789062" xlink:href="#DejaVuSans-51"/>
      </g>
     </g>
    </g>
    <g id="ytick_3">
     <g id="line2d_9">
      <path clip-path="url(#p68cba5789b)" d="M 35.420313 220.62673 
L 1057.980313 220.62673 
" style="fill:none;stroke:#cccccc;stroke-linecap:round;stroke-width:0.8;"/>
     </g>
     <g id="text_10">
      <!-- −2 -->
      <g style="fill:#262626;" transform="translate(13.678125 224.425949)scale(0.1 -0.1)">
       <use xlink:href="#DejaVuSans-8722"/>
       <use x="83.789062" xlink:href="#DejaVuSans-50"/>
      </g>
     </g>
    </g>
    <g id="ytick_4">
     <g id="line2d_10">
      <path clip-path="url(#p68cba5789b)" d="M 35.420313 184.567534 
L 1057.980313 184.567534 
" style="fill:none;stroke:#cccccc;stroke-linecap:round;stroke-width:0.8;"/>
     </g>
     <g id="text_11">
      <!-- −1 -->
      <g style="fill:#262626;" transform="translate(13.678125 188.366753)scale(0.1 -0.1)">
       <use xlink:href="#DejaVuSans-8722"/>
       <use x="83.789062" xlink:href="#DejaVuSans-49"/>
      </g>
     </g>
    </g>
    <g id="ytick_5">
     <g id="line2d_11">
      <path clip-path="url(#p68cba5789b)" d="M 35.420313 148.508338 
L 1057.980313 148.508338 
" style="fill:none;stroke:#cccccc;stroke-linecap:round;stroke-width:0.8;"/>
     </g>
     <g id="text_12">
      <!-- 0 -->
      <g style="fill:#262626;" transform="translate(22.057813 152.307557)scale(0.1 -0.1)">
       <use xlink:href="#DejaVuSans-48"/>
      </g>
     </g>
    </g>
    <g id="ytick_6">
     <g id="line2d_12">
      <path clip-path="url(#p68cba5789b)" d="M 35.420313 112.449143 
L 1057.980313 112.449143 
" style="fill:none;stroke:#cccccc;stroke-linecap:round;stroke-width:0.8;"/>
     </g>
     <g id="text_13">
      <!-- 1 -->
      <g style="fill:#262626;" transform="translate(22.057813 116.248361)scale(0.1 -0.1)">
       <use xlink:href="#DejaVuSans-49"/>
      </g>
     </g>
    </g>
    <g id="ytick_7">
     <g id="line2d_13">
      <path clip-path="url(#p68cba5789b)" d="M 35.420313 76.389947 
L 1057.980313 76.389947 
" style="fill:none;stroke:#cccccc;stroke-linecap:round;stroke-width:0.8;"/>
     </g>
     <g id="text_14">
      <!-- 2 -->
      <g style="fill:#262626;" transform="translate(22.057813 80.189166)scale(0.1 -0.1)">
       <use xlink:href="#DejaVuSans-50"/>
      </g>
     </g>
    </g>
    <g id="ytick_8">
     <g id="line2d_14">
      <path clip-path="url(#p68cba5789b)" d="M 35.420313 40.330751 
L 1057.980313 40.330751 
" style="fill:none;stroke:#cccccc;stroke-linecap:round;stroke-width:0.8;"/>
     </g>
     <g id="text_15">
      <!-- 3 -->
      <g style="fill:#262626;" transform="translate(22.057813 44.12997)scale(0.1 -0.1)">
       <use xlink:href="#DejaVuSans-51"/>
      </g>
     </g>
    </g>
    <g id="text_16">
     <!-- Expression Level -->
     <g style="fill:#262626;" transform="translate(7.598437 205.32625)rotate(-90)scale(0.1 -0.1)">
      <defs>
       <path d="M 9.8125 72.90625 
L 55.90625 72.90625 
L 55.90625 64.59375 
L 19.671875 64.59375 
L 19.671875 43.015625 
L 54.390625 43.015625 
L 54.390625 34.71875 
L 19.671875 34.71875 
L 19.671875 8.296875 
L 56.78125 8.296875 
L 56.78125 0 
L 9.8125 0 
z
" id="DejaVuSans-69"/>
       <path d="M 54.890625 54.6875 
L 35.109375 28.078125 
L 55.90625 0 
L 45.3125 0 
L 29.390625 21.484375 
L 13.484375 0 
L 2.875 0 
L 24.125 28.609375 
L 4.6875 54.6875 
L 15.28125 54.6875 
L 29.78125 35.203125 
L 44.28125 54.6875 
z
" id="DejaVuSans-120"/>
       <path d="M 18.109375 8.203125 
L 18.109375 -20.796875 
L 9.078125 -20.796875 
L 9.078125 54.6875 
L 18.109375 54.6875 
L 18.109375 46.390625 
Q 20.953125 51.265625 25.265625 53.625 
Q 29.59375 56 35.59375 56 
Q 45.5625 56 51.78125 48.09375 
Q 58.015625 40.1875 58.015625 27.296875 
Q 58.015625 14.40625 51.78125 6.484375 
Q 45.5625 -1.421875 35.59375 -1.421875 
Q 29.59375 -1.421875 25.265625 0.953125 
Q 20.953125 3.328125 18.109375 8.203125 
z
M 48.6875 27.296875 
Q 48.6875 37.203125 44.609375 42.84375 
Q 40.53125 48.484375 33.40625 48.484375 
Q 26.265625 48.484375 22.1875 42.84375 
Q 18.109375 37.203125 18.109375 27.296875 
Q 18.109375 17.390625 22.1875 11.75 
Q 26.265625 6.109375 33.40625 6.109375 
Q 40.53125 6.109375 44.609375 11.75 
Q 48.6875 17.390625 48.6875 27.296875 
z
" id="DejaVuSans-112"/>
       <path d="M 9.421875 54.6875 
L 18.40625 54.6875 
L 18.40625 0 
L 9.421875 0 
z
M 9.421875 75.984375 
L 18.40625 75.984375 
L 18.40625 64.59375 
L 9.421875 64.59375 
z
" id="DejaVuSans-105"/>
       <path d="M 30.609375 48.390625 
Q 23.390625 48.390625 19.1875 42.75 
Q 14.984375 37.109375 14.984375 27.296875 
Q 14.984375 17.484375 19.15625 11.84375 
Q 23.34375 6.203125 30.609375 6.203125 
Q 37.796875 6.203125 41.984375 11.859375 
Q 46.1875 17.53125 46.1875 27.296875 
Q 46.1875 37.015625 41.984375 42.703125 
Q 37.796875 48.390625 30.609375 48.390625 
z
M 30.609375 56 
Q 42.328125 56 49.015625 48.375 
Q 55.71875 40.765625 55.71875 27.296875 
Q 55.71875 13.875 49.015625 6.21875 
Q 42.328125 -1.421875 30.609375 -1.421875 
Q 18.84375 -1.421875 12.171875 6.21875 
Q 5.515625 13.875 5.515625 27.296875 
Q 5.515625 40.765625 12.171875 48.375 
Q 18.84375 56 30.609375 56 
z
" id="DejaVuSans-111"/>
       <path d="M 2.984375 54.6875 
L 12.5 54.6875 
L 29.59375 8.796875 
L 46.6875 54.6875 
L 56.203125 54.6875 
L 35.6875 0 
L 23.484375 0 
z
" id="DejaVuSans-118"/>
       <path d="M 9.421875 75.984375 
L 18.40625 75.984375 
L 18.40625 0 
L 9.421875 0 
z
" id="DejaVuSans-108"/>
      </defs>
      <use xlink:href="#DejaVuSans-69"/>
      <use x="63.183594" xlink:href="#DejaVuSans-120"/>
      <use x="122.363281" xlink:href="#DejaVuSans-112"/>
      <use x="185.839844" xlink:href="#DejaVuSans-114"/>
      <use x="224.703125" xlink:href="#DejaVuSans-101"/>
      <use x="286.226562" xlink:href="#DejaVuSans-115"/>
      <use x="338.326172" xlink:href="#DejaVuSans-115"/>
      <use x="390.425781" xlink:href="#DejaVuSans-105"/>
      <use x="418.208984" xlink:href="#DejaVuSans-111"/>
      <use x="479.390625" xlink:href="#DejaVuSans-110"/>
      <use x="542.769531" xlink:href="#DejaVuSans-32"/>
      <use x="574.556641" xlink:href="#DejaVuSans-76"/>
      <use x="628.519531" xlink:href="#DejaVuSans-101"/>
      <use x="690.042969" xlink:href="#DejaVuSans-118"/>
      <use x="749.222656" xlink:href="#DejaVuSans-101"/>
      <use x="810.746094" xlink:href="#DejaVuSans-108"/>
     </g>
    </g>
   </g>
   <g id="line2d_15">
    <path clip-path="url(#p68cba5789b)" d="M 81.900313 90.554716 
L 82.830843 163.860328 
L 83.761374 132.928222 
L 84.691904 155.021339 
L 85.622435 167.421191 
L 86.552965 147.634427 
L 87.483496 141.54338 
L 88.414026 168.916334 
L 89.344557 156.079051 
L 90.275087 110.572232 
L 91.205618 100.082939 
L 92.136148 176.439057 
L 93.066679 144.966926 
L 93.997209 195.859606 
L 94.92774 221.770585 
L 95.85827 197.775011 
L 96.788801 67.345264 
L 97.719332 187.190655 
L 98.649862 141.11025 
L 99.580393 127.466312 
L 100.510923 149.725095 
L 101.441454 203.256811 
L 102.371984 181.42765 
L 103.302515 180.621103 
L 104.233045 158.072637 
L 105.163576 111.94748 
L 106.094106 182.853323 
L 107.024637 145.893383 
L 107.955167 146.203829 
L 109.816228 184.522132 
L 110.746759 144.243974 
L 111.677289 63.507559 
L 112.60782 157.651018 
L 113.538351 147.900386 
L 114.468881 149.159862 
L 115.399412 213.270912 
L 116.329942 167.864744 
L 117.260473 132.312139 
L 118.191003 128.703814 
L 119.121534 111.174821 
L 120.052064 228.155067 
L 120.982595 83.237164 
L 121.913125 182.899281 
L 122.843656 179.598563 
L 123.774186 179.198351 
L 124.704717 64.541121 
L 125.635247 154.769669 
L 126.565778 164.579491 
L 127.496308 139.633271 
L 128.426839 72.164595 
L 129.35737 156.883843 
L 130.2879 171.60147 
L 131.218431 224.981753 
L 132.148961 159.311807 
L 133.079492 128.631496 
L 134.010022 119.911183 
L 134.940553 39.325551 
L 135.871083 75.025007 
L 136.801614 120.320089 
L 137.732144 184.906629 
L 138.662675 148.07915 
L 139.593205 165.441659 
L 140.523736 116.934864 
L 141.454266 117.983594 
L 142.384797 115.429332 
L 143.315328 160.20097 
L 144.245858 144.645289 
L 145.176389 144.087921 
L 146.106919 151.280265 
L 147.03745 139.999268 
L 147.96798 144.559224 
L 148.898511 100.474678 
L 149.829041 146.30226 
L 150.759572 110.497832 
L 152.620633 182.737544 
L 153.551163 151.782616 
L 154.481694 156.471874 
L 155.412224 160.573183 
L 156.342755 114.195387 
L 157.273285 133.717854 
L 158.203816 174.54213 
L 159.134347 106.423838 
L 160.064877 190.922477 
L 160.995408 112.44 
L 161.925938 109.377451 
L 162.856469 199.789765 
L 163.786999 176.946607 
L 164.71753 176.07616 
L 165.64806 236.510308 
L 166.578591 126.288156 
L 167.509121 147.383779 
L 168.439652 111.690269 
L 169.370182 99.673373 
L 170.300713 143.669451 
L 171.231243 180.993069 
L 172.161774 173.021458 
L 173.092304 160.086684 
L 174.022835 129.131068 
L 174.953366 199.560349 
L 175.883896 147.905637 
L 176.814427 169.013547 
L 177.744957 79.245075 
L 178.675488 184.394118 
L 179.606018 190.440901 
L 180.536549 87.047766 
L 181.467079 90.619285 
L 182.39761 194.840402 
L 183.32814 152.54574 
L 184.258671 141.857036 
L 185.189201 104.577885 
L 186.119732 199.171538 
L 187.050262 124.649168 
L 187.980793 67.001695 
L 188.911324 196.250997 
L 189.841854 122.85889 
L 190.772385 111.805605 
L 191.702915 145.667766 
L 192.633446 189.917978 
L 193.563976 126.829849 
L 194.494507 167.782821 
L 195.425037 153.638129 
L 196.355568 152.747482 
L 197.286098 173.234896 
L 198.216629 84.634434 
L 199.147159 125.56762 
L 200.07769 103.224805 
L 201.00822 57.919253 
L 201.938751 126.830262 
L 202.869281 170.683321 
L 203.799812 166.066495 
L 204.730343 172.769045 
L 205.660873 195.251639 
L 206.591404 138.287016 
L 207.521934 120.101308 
L 208.452465 168.614216 
L 209.382995 197.614859 
L 210.313526 188.92257 
L 211.244056 207.922227 
L 212.174587 185.101763 
L 213.105117 114.083048 
L 214.035648 97.931416 
L 214.966178 235.182997 
L 215.896709 148.619804 
L 216.827239 177.561564 
L 217.75777 155.008565 
L 218.6883 169.981314 
L 219.618831 159.658807 
L 220.549362 169.756754 
L 222.410423 132.453688 
L 224.271484 154.36039 
L 225.202014 199.51729 
L 226.132545 151.767092 
L 227.063075 151.944002 
L 227.993606 117.556103 
L 228.924136 200.555654 
L 229.854667 66.328493 
L 230.785197 130.943083 
L 231.715728 147.099632 
L 232.646258 131.609697 
L 233.576789 103.23473 
L 234.50732 179.682192 
L 235.43785 188.267319 
L 236.368381 150.481801 
L 237.298911 156.61301 
L 238.229442 137.260954 
L 240.090503 251.093364 
L 241.021033 161.489886 
L 241.951564 149.560395 
L 242.882094 132.012801 
L 243.812625 174.351986 
L 244.743155 162.689838 
L 245.673686 122.022277 
L 246.604216 171.664688 
L 247.534747 204.869883 
L 248.465277 125.124624 
L 249.395808 146.532526 
L 250.326339 191.312561 
L 251.256869 139.23895 
L 252.1874 131.287867 
L 253.11793 180.692672 
L 254.048461 175.705825 
L 254.978991 178.477157 
L 255.909522 201.776136 
L 256.840052 101.440911 
L 257.770583 135.389089 
L 258.701113 114.335652 
L 259.631644 141.080016 
L 260.562174 124.116628 
L 261.492705 145.699579 
L 262.423235 187.09183 
L 263.353766 153.983444 
L 264.284296 195.899158 
L 265.214827 141.86589 
L 266.145358 198.762368 
L 267.075888 151.517276 
L 268.006419 175.293105 
L 268.936949 110.837463 
L 269.86748 124.054604 
L 270.79801 207.022042 
L 271.728541 151.951005 
L 272.659071 125.850832 
L 273.589602 143.625708 
L 275.450663 79.351659 
L 276.381193 100.705306 
L 277.311724 172.181024 
L 278.242254 110.693323 
L 279.172785 96.885604 
L 280.103316 58.035178 
L 281.033846 139.406677 
L 281.964377 157.835214 
L 282.894907 167.779374 
L 283.825438 126.46411 
L 284.755968 216.859458 
L 285.686499 115.617011 
L 286.617029 149.018415 
L 287.54756 150.005585 
L 288.47809 152.865137 
L 289.408621 158.04229 
L 290.339151 100.381974 
L 291.269682 189.411092 
L 292.200212 176.756113 
L 293.130743 142.916572 
L 294.061273 144.397191 
L 294.991804 67.365915 
L 295.922335 92.545716 
L 296.852865 163.333143 
L 297.783396 166.596397 
L 299.644457 122.131085 
L 300.574987 109.219168 
L 301.505518 158.791306 
L 302.436048 108.276066 
L 303.366579 130.926409 
L 304.297109 135.386691 
L 305.22764 187.334305 
L 306.15817 116.518705 
L 307.088701 170.073345 
L 308.019231 178.839073 
L 308.949762 148.570428 
L 309.880292 175.453799 
L 310.810823 163.181429 
L 311.741354 261.557321 
L 312.671884 167.349618 
L 313.602415 213.633257 
L 314.532945 118.976568 
L 315.463476 130.62351 
L 316.394006 183.366162 
L 317.324537 150.72027 
L 318.255067 154.620213 
L 319.185598 157.36623 
L 320.116128 100.340003 
L 321.046659 168.577592 
L 321.977189 192.606278 
L 322.90772 167.793243 
L 323.83825 186.830106 
L 324.768781 110.790849 
L 325.699311 148.768483 
L 326.629842 103.739466 
L 327.560373 127.500234 
L 328.490903 139.203348 
L 329.421434 200.574194 
L 331.282495 78.108352 
L 332.213025 173.345632 
L 333.143556 137.057607 
L 334.074086 215.914937 
L 335.004617 116.538986 
L 335.935147 128.474697 
L 336.865678 107.36501 
L 337.796208 158.15632 
L 338.726739 106.385107 
L 339.657269 124.066446 
L 340.5878 119.228309 
L 341.518331 142.484315 
L 342.448861 63.946394 
L 343.379392 175.327289 
L 344.309922 143.110758 
L 345.240453 116.696464 
L 346.170983 129.491133 
L 347.101514 185.851334 
L 348.032044 199.165438 
L 348.962575 142.237537 
L 349.893105 115.437661 
L 350.823636 171.078785 
L 351.754166 169.648249 
L 352.684697 110.704061 
L 353.615227 136.330047 
L 354.545758 126.705435 
L 355.476288 176.069308 
L 356.406819 137.257332 
L 357.33735 112.902782 
L 358.26788 178.272647 
L 359.198411 100.596521 
L 360.128941 180.734098 
L 361.059472 160.127476 
L 361.990002 223.505711 
L 362.920533 68.754987 
L 363.851063 100.497056 
L 364.781594 184.265616 
L 365.712124 201.495532 
L 366.642655 152.92529 
L 367.573185 140.523059 
L 368.503716 103.091944 
L 369.434246 151.820192 
L 370.364777 155.42617 
L 372.225838 56.063964 
L 373.156369 236.486631 
L 374.086899 138.970554 
L 375.01743 168.48952 
L 375.94796 88.839191 
L 376.878491 153.184798 
L 377.809021 135.654736 
L 378.739552 137.614561 
L 379.670082 159.757691 
L 380.600613 166.759398 
L 381.531143 145.994762 
L 382.461674 155.996049 
L 383.392204 219.662994 
L 384.322735 136.906151 
L 385.253265 167.13425 
L 386.183796 159.33622 
L 387.114327 124.420225 
L 388.044857 202.909511 
L 388.975388 145.89519 
L 389.905918 242.638568 
L 390.836449 184.354664 
L 391.766979 136.44497 
L 392.69751 169.341778 
L 393.62804 143.427807 
L 394.558571 232.455524 
L 395.489101 113.387239 
L 396.419632 211.013391 
L 397.350162 163.928887 
L 398.280693 123.050842 
L 399.211223 91.527633 
L 400.141754 152.193329 
L 401.072284 164.290101 
L 402.002815 72.634895 
L 402.933346 91.060088 
L 403.863876 171.529278 
L 404.794407 160.044485 
L 405.724937 204.606792 
L 406.655468 214.698044 
L 407.585998 168.15287 
L 408.516529 233.894873 
L 409.447059 119.03268 
L 410.37759 171.423543 
L 411.30812 160.500362 
L 412.238651 154.895979 
L 413.169181 103.371245 
L 414.099712 117.637209 
L 415.030242 176.880834 
L 415.960773 124.210376 
L 416.891303 179.521053 
L 417.821834 176.472765 
L 418.752365 86.896606 
L 420.613426 163.838274 
L 421.543956 81.44117 
L 422.474487 165.221924 
L 423.405017 156.554 
L 424.335548 190.453294 
L 425.266078 146.839487 
L 426.196609 123.708047 
L 427.127139 120.394712 
L 428.05767 92.889638 
L 428.9882 116.224974 
L 429.918731 207.213875 
L 430.849261 77.195052 
L 431.779792 158.887799 
L 432.710323 163.210809 
L 433.640853 127.285999 
L 434.571384 180.242866 
L 435.501914 197.304655 
L 437.362975 125.409859 
L 438.293506 195.013592 
L 439.224036 133.636097 
L 440.154567 125.518042 
L 441.085097 165.186696 
L 442.015628 95.505416 
L 442.946158 244.078072 
L 443.876689 156.709809 
L 444.807219 167.90895 
L 445.73775 162.980829 
L 446.66828 115.023984 
L 447.598811 161.122107 
L 448.529342 101.343904 
L 449.459872 148.071291 
L 450.390403 131.891776 
L 451.320933 209.519661 
L 452.251464 160.483136 
L 453.181994 147.628463 
L 454.112525 207.666933 
L 455.043055 207.3305 
L 455.973586 197.737394 
L 456.904116 158.280586 
L 457.834647 143.272168 
L 458.765177 85.378052 
L 459.695708 98.023703 
L 460.626238 237.370052 
L 461.556769 98.024021 
L 462.487299 135.789118 
L 463.41783 127.405753 
L 464.348361 142.499529 
L 465.278891 246.636645 
L 466.209422 161.928596 
L 467.139952 131.293803 
L 468.070483 89.318226 
L 469.001013 109.302213 
L 469.931544 169.929398 
L 470.862074 62.69467 
L 471.792605 176.01092 
L 472.723135 176.998472 
L 473.653666 176.657247 
L 474.584196 154.864265 
L 476.445257 82.297342 
L 477.375788 154.855118 
L 478.306319 150.256812 
L 479.236849 170.050261 
L 480.16738 151.861444 
L 481.09791 153.301479 
L 482.028441 203.187978 
L 482.958971 185.255218 
L 483.889502 119.287765 
L 484.820032 62.372559 
L 485.750563 135.005819 
L 486.681093 81.976074 
L 487.611624 188.058515 
L 488.542154 141.231911 
L 489.472685 118.238468 
L 490.403215 162.896595 
L 491.333746 160.295786 
L 492.264276 191.753347 
L 493.194807 132.937123 
L 494.125338 147.835479 
L 495.055868 184.508755 
L 495.986399 158.213054 
L 496.916929 298.198125 
L 497.84746 155.949336 
L 498.77799 180.307458 
L 499.708521 122.948187 
L 500.639051 182.544544 
L 501.569582 174.563359 
L 502.500112 182.488804 
L 503.430643 178.031948 
L 504.361173 136.252637 
L 505.291704 181.132792 
L 506.222234 129.674979 
L 507.152765 167.544997 
L 508.083295 234.974034 
L 509.013826 141.845067 
L 509.944357 64.718937 
L 510.874887 125.029389 
L 511.805418 129.107653 
L 512.735948 134.131251 
L 513.666479 155.328035 
L 514.597009 162.761276 
L 515.52754 212.234737 
L 516.45807 156.971596 
L 517.388601 183.325151 
L 518.319131 174.717601 
L 519.249662 142.421332 
L 520.180192 135.000338 
L 521.110723 138.738931 
L 522.041253 175.749804 
L 522.971784 219.07033 
L 523.902315 196.050945 
L 524.832845 224.635897 
L 525.763376 101.235834 
L 526.693906 113.855066 
L 527.624437 155.585411 
L 528.554967 237.585738 
L 529.485498 130.144508 
L 530.416028 119.18185 
L 531.346559 135.902277 
L 532.277089 193.766072 
L 533.20762 137.701863 
L 534.13815 162.020189 
L 535.068681 165.517636 
L 535.999211 220.392994 
L 536.929742 172.737528 
L 537.860272 226.836208 
L 538.790803 122.429182 
L 539.721334 126.234325 
L 540.651864 167.598857 
L 541.582395 174.855334 
L 542.512925 139.845044 
L 543.443456 215.945895 
L 544.373986 91.59605 
L 545.304517 198.279468 
L 546.235047 206.496891 
L 547.165578 231.374807 
L 548.096108 63.685289 
L 549.026639 166.447205 
L 549.957169 74.781861 
L 550.8877 183.994581 
L 551.81823 179.403177 
L 552.748761 136.207152 
L 553.679291 222.779181 
L 554.609822 202.891169 
L 555.540353 126.491292 
L 556.470883 182.195417 
L 557.401414 164.034753 
L 558.331944 119.191556 
L 559.262475 144.89689 
L 560.193005 126.767767 
L 561.123536 148.431028 
L 562.054066 249.369139 
L 562.984597 120.944064 
L 563.915127 193.156424 
L 564.845658 117.536839 
L 565.776188 150.633892 
L 566.706719 175.017608 
L 567.637249 182.701539 
L 568.56778 104.540247 
L 569.49831 153.341366 
L 570.428841 221.65344 
L 571.359372 186.504441 
L 572.289902 139.280139 
L 573.220433 83.548739 
L 574.150963 163.596971 
L 575.081494 168.168166 
L 576.012024 148.631663 
L 576.942555 164.858503 
L 577.873085 143.960255 
L 578.803616 194.269446 
L 579.734146 104.613899 
L 580.664677 179.178887 
L 581.595207 230.339319 
L 582.525738 155.755513 
L 583.456268 179.624313 
L 584.386799 192.90086 
L 585.31733 152.398512 
L 586.24786 138.723627 
L 587.178391 146.686316 
L 588.108921 172.987656 
L 589.039452 181.848882 
L 589.969982 126.224524 
L 590.900513 84.144558 
L 591.831043 140.742735 
L 592.761574 187.130307 
L 593.692104 167.439387 
L 594.622635 185.532065 
L 595.553165 170.423871 
L 596.483696 163.723967 
L 597.414226 121.411095 
L 598.344757 124.457263 
L 599.275287 295.242259 
L 600.205818 152.011785 
L 601.136349 134.468939 
L 602.066879 112.88623 
L 602.99741 104.556598 
L 603.92794 164.048132 
L 604.858471 106.291948 
L 605.789001 195.184663 
L 606.719532 143.483537 
L 607.650062 108.633563 
L 608.580593 196.69334 
L 609.511123 193.180703 
L 610.441654 141.49483 
L 611.372184 154.19435 
L 612.302715 116.745756 
L 613.233245 191.460953 
L 614.163776 133.252043 
L 615.094306 174.092246 
L 616.024837 161.888721 
L 616.955368 167.683236 
L 617.885898 170.58972 
L 618.816429 136.991338 
L 619.746959 158.270115 
L 620.67749 107.143538 
L 621.60802 125.112655 
L 622.538551 77.030097 
L 623.469081 137.152633 
L 624.399612 134.815585 
L 625.330142 169.674208 
L 626.260673 160.200297 
L 627.191203 179.058806 
L 628.121734 99.616103 
L 629.052264 201.305074 
L 629.982795 164.673992 
L 630.913326 109.634202 
L 631.843856 74.92583 
L 632.774387 190.301597 
L 634.635448 142.493923 
L 635.565978 185.61299 
L 636.496509 195.620463 
L 637.427039 171.540751 
L 638.35757 140.896381 
L 639.2881 136.51991 
L 640.218631 155.561808 
L 641.149161 199.549874 
L 642.079692 282.097193 
L 643.010222 124.612651 
L 643.940753 155.942467 
L 644.871283 164.300934 
L 645.801814 152.208074 
L 646.732345 116.13282 
L 647.662875 147.006847 
L 648.593406 128.299639 
L 649.523936 145.58499 
L 650.454467 54.952727 
L 651.384997 184.757046 
L 652.315528 123.839867 
L 653.246058 166.259719 
L 654.176589 142.599402 
L 655.107119 162.61277 
L 656.03765 79.902592 
L 656.96818 210.053064 
L 657.898711 121.304898 
L 658.829241 155.444549 
L 659.759772 143.046452 
L 660.690302 145.373448 
L 661.620833 124.037525 
L 662.551364 193.346267 
L 663.481894 164.619385 
L 664.412425 128.922337 
L 665.342955 109.906363 
L 666.273486 159.588516 
L 667.204016 95.645039 
L 668.134547 133.371422 
L 669.065077 142.186454 
L 669.995608 210.015972 
L 670.926138 205.970877 
L 671.856669 120.412536 
L 672.787199 157.066299 
L 673.71773 119.751086 
L 674.64826 154.373578 
L 675.578791 119.257064 
L 676.509322 188.778163 
L 677.439852 169.223223 
L 678.370383 115.650404 
L 679.300913 166.259289 
L 680.231444 196.696963 
L 681.161974 104.273609 
L 682.092505 126.068395 
L 683.023035 171.895227 
L 683.953566 175.8688 
L 684.884096 83.450078 
L 685.814627 180.608856 
L 686.745157 137.097058 
L 687.675688 77.516109 
L 688.606218 150.841121 
L 689.536749 164.274457 
L 690.467279 172.473328 
L 691.39781 188.138176 
L 692.328341 155.663795 
L 693.258871 144.480932 
L 694.189402 194.710692 
L 695.119932 117.602889 
L 696.050463 142.697848 
L 696.980993 187.625715 
L 697.911524 211.960431 
L 698.842054 129.865383 
L 699.772585 122.733195 
L 700.703115 136.75015 
L 701.633646 170.025933 
L 702.564176 125.933967 
L 703.494707 180.93809 
L 704.425237 85.394042 
L 705.355768 216.009188 
L 706.286298 199.137763 
L 707.216829 161.09729 
L 708.14736 129.120979 
L 709.07789 137.678569 
L 710.008421 200.228299 
L 710.938951 128.466138 
L 711.869482 134.086753 
L 712.800012 109.818826 
L 713.730543 160.815787 
L 714.661073 107.559676 
L 715.591604 144.8102 
L 716.522134 100.716418 
L 717.452665 162.858036 
L 718.383195 214.464416 
L 719.313726 241.198996 
L 720.244256 188.161578 
L 721.174787 150.767998 
L 722.105318 102.442401 
L 723.035848 127.614675 
L 723.966379 120.478451 
L 724.896909 180.297327 
L 725.82744 118.975169 
L 726.75797 207.888053 
L 727.688501 189.095906 
L 728.619031 40.043803 
L 729.549562 177.878634 
L 730.480092 211.121243 
L 731.410623 188.519938 
L 732.341153 168.93603 
L 733.271684 157.811903 
L 734.202214 157.876331 
L 735.132745 170.084629 
L 736.063275 169.109973 
L 736.993806 131.276854 
L 737.924337 129.421554 
L 738.854867 170.493951 
L 739.785398 83.340137 
L 740.715928 72.906257 
L 741.646459 98.034802 
L 742.576989 171.621048 
L 743.50752 105.453353 
L 744.43805 166.249369 
L 745.368581 142.505858 
L 746.299111 131.10274 
L 747.229642 118.110364 
L 748.160172 127.232647 
L 749.090703 157.480831 
L 750.021233 115.935762 
L 750.951764 172.205296 
L 751.882294 164.814552 
L 752.812825 108.110579 
L 753.743356 192.772977 
L 754.673886 164.092932 
L 755.604417 169.956068 
L 756.534947 205.063986 
L 757.465478 142.523155 
L 758.396008 179.778874 
L 759.326539 116.074938 
L 760.257069 105.612706 
L 761.1876 167.514286 
L 762.11813 177.460166 
L 763.048661 37.377335 
L 763.979191 120.6862 
L 764.909722 72.817233 
L 765.840252 114.728948 
L 766.770783 121.120869 
L 767.701314 156.978528 
L 768.631844 173.65486 
L 770.492905 107.184091 
L 771.423436 146.374462 
L 772.353966 179.631574 
L 773.284497 133.769904 
L 774.215027 237.863272 
L 776.076088 173.178077 
L 777.006619 148.441223 
L 777.937149 177.198373 
L 778.86768 132.809466 
L 779.79821 149.394789 
L 780.728741 181.357884 
L 781.659271 172.581059 
L 782.589802 107.486621 
L 783.520333 184.266173 
L 784.450863 201.316513 
L 785.381394 157.656623 
L 786.311924 149.639146 
L 787.242455 138.511377 
L 788.172985 148.980055 
L 789.103516 212.841178 
L 790.034046 204.254119 
L 790.964577 131.112901 
L 791.895107 162.029428 
L 792.825638 197.173337 
L 793.756168 124.756355 
L 794.686699 92.572732 
L 795.617229 166.83827 
L 796.54776 152.476807 
L 797.47829 187.300007 
L 798.408821 170.164647 
L 799.339352 77.246278 
L 800.269882 203.069152 
L 801.200413 55.65111 
L 802.130943 182.440058 
L 803.061474 141.930394 
L 803.992004 151.303157 
L 805.853065 52.338685 
L 806.783596 143.752442 
L 807.714126 163.634458 
L 808.644657 121.544992 
L 809.575187 158.954231 
L 810.505718 219.680679 
L 811.436248 148.437948 
L 812.366779 150.634616 
L 813.297309 158.267258 
L 814.22784 76.93123 
L 815.158371 90.395827 
L 816.088901 141.650228 
L 817.019432 172.017037 
L 817.949962 95.952379 
L 818.880493 202.299356 
L 819.811023 88.645075 
L 820.741554 174.135176 
L 821.672084 28.598125 
L 822.602615 165.170664 
L 823.533145 165.948959 
L 824.463676 161.594091 
L 825.394206 108.680757 
L 826.324737 133.512828 
L 827.255267 126.771468 
L 828.185798 135.884285 
L 829.116329 153.970711 
L 830.046859 167.180984 
L 830.97739 117.922079 
L 831.90792 194.031888 
L 832.838451 140.467601 
L 833.768981 152.941581 
L 834.699512 128.647044 
L 835.630042 125.351974 
L 836.560573 191.84029 
L 837.491103 166.503711 
L 838.421634 156.612579 
L 839.352164 170.649238 
L 840.282695 166.159262 
L 841.213225 83.810347 
L 842.143756 109.934742 
L 843.074286 146.454684 
L 844.004817 135.530797 
L 844.935348 163.229859 
L 845.865878 106.187024 
L 846.796409 189.13826 
L 847.726939 183.977735 
L 848.65747 128.946043 
L 849.588 110.040818 
L 850.518531 195.820347 
L 851.449061 106.255152 
L 852.379592 130.897402 
L 853.310122 127.410471 
L 854.240653 180.885726 
L 855.171183 183.301182 
L 856.101714 164.376691 
L 857.032244 201.404552 
L 857.962775 140.143233 
L 858.893305 123.900609 
L 859.823836 166.046981 
L 860.754367 150.267223 
L 861.684897 91.983331 
L 862.615428 214.46329 
L 863.545958 91.4383 
L 864.476489 128.712544 
L 865.407019 113.311085 
L 866.33755 127.348201 
L 867.26808 73.792351 
L 868.198611 82.620871 
L 869.129141 137.304358 
L 870.059672 131.703188 
L 870.990202 66.718856 
L 871.920733 184.427409 
L 872.851263 158.182586 
L 873.781794 168.708886 
L 874.712325 189.27833 
L 875.642855 195.445579 
L 876.573386 170.032981 
L 877.503916 113.373363 
L 878.434447 153.590127 
L 879.364977 123.528903 
L 880.295508 183.776733 
L 881.226038 172.696214 
L 882.156569 123.23932 
L 883.087099 223.881288 
L 884.01763 130.036452 
L 884.94816 157.866285 
L 885.878691 139.448314 
L 886.809221 134.993573 
L 887.739752 120.52597 
L 888.670282 155.216592 
L 889.600813 113.124873 
L 890.531344 143.245794 
L 891.461874 163.773137 
L 892.392405 130.764122 
L 893.322935 135.591445 
L 894.253466 151.781228 
L 895.183996 96.568092 
L 896.114527 106.184496 
L 897.045057 149.464494 
L 897.975588 152.705488 
L 898.906118 111.436592 
L 899.836649 151.159522 
L 900.767179 169.023992 
L 901.69771 154.453738 
L 902.62824 158.852842 
L 903.558771 103.111193 
L 904.489301 96.153584 
L 905.419832 190.89365 
L 906.350363 136.477388 
L 907.280893 65.066994 
L 908.211424 194.78115 
L 909.141954 169.648498 
L 910.072485 147.831715 
L 911.003015 155.898072 
L 911.933546 126.993785 
L 912.864076 163.826787 
L 913.794607 162.571803 
L 914.725137 152.068171 
L 915.655668 107.720198 
L 916.586198 137.977394 
L 917.516729 147.072412 
L 918.447259 136.182577 
L 919.37779 146.505142 
L 920.308321 184.89868 
L 921.238851 101.365157 
L 922.169382 149.165127 
L 923.099912 123.497012 
L 924.030443 153.474522 
L 924.960973 224.37002 
L 925.891504 93.229871 
L 926.822034 174.863826 
L 927.752565 121.650681 
L 928.683095 128.963238 
L 929.613626 87.268288 
L 930.544156 192.782585 
L 931.474687 211.33922 
L 932.405217 117.810268 
L 933.335748 226.13007 
L 934.266278 144.181535 
L 935.196809 151.349461 
L 936.12734 146.588893 
L 937.05787 194.825305 
L 937.988401 165.606707 
L 938.918931 177.868732 
L 939.849462 110.374002 
L 940.779992 84.882415 
L 941.710523 140.738856 
L 942.641053 109.486863 
L 943.571584 133.190051 
L 944.502114 246.839014 
L 945.432645 132.842118 
L 946.363175 130.378775 
L 947.293706 93.41159 
L 948.224236 122.732636 
L 949.154767 99.749617 
L 950.085297 98.685174 
L 951.015828 138.183056 
L 951.946359 138.184644 
L 952.876889 169.815073 
L 953.80742 155.960676 
L 954.73795 183.867175 
L 955.668481 180.050456 
L 956.599011 69.037129 
L 957.529542 152.701763 
L 958.460072 146.06163 
L 959.390603 143.069962 
L 960.321133 208.935645 
L 961.251664 196.873579 
L 962.182194 176.583843 
L 963.112725 162.699401 
L 964.043255 125.959864 
L 964.973786 203.124105 
L 965.904317 137.426308 
L 966.834847 148.381887 
L 967.765378 167.490349 
L 968.695908 128.61736 
L 969.626439 138.810357 
L 970.556969 173.58729 
L 971.4875 136.877839 
L 972.41803 182.985519 
L 973.348561 157.487456 
L 974.279091 226.942676 
L 975.209622 123.146421 
L 976.140152 152.814995 
L 977.070683 212.560054 
L 978.001213 151.398555 
L 978.931744 98.810186 
L 979.862274 119.918194 
L 980.792805 83.944428 
L 981.723336 109.145895 
L 982.653866 168.428424 
L 983.584397 155.640088 
L 984.514927 158.319672 
L 985.445458 154.148144 
L 986.375988 168.618065 
L 987.306519 187.08509 
L 988.237049 146.698879 
L 989.16758 143.838185 
L 990.09811 169.556656 
L 991.028641 221.341233 
L 991.959171 141.243268 
L 992.889702 135.87419 
L 993.820232 126.702828 
L 994.750763 150.237466 
L 995.681293 110.624799 
L 996.611824 61.771797 
L 997.542355 109.792923 
L 998.472885 166.580499 
L 999.403416 52.388763 
L 1000.333946 194.036256 
L 1001.264477 175.67125 
L 1002.195007 129.188445 
L 1003.125538 97.56463 
L 1004.056068 118.175064 
L 1004.986599 84.431532 
L 1005.917129 184.973003 
L 1006.84766 94.427011 
L 1007.77819 171.309239 
L 1008.708721 65.825033 
L 1009.639251 189.6211 
L 1010.569782 189.053871 
L 1011.500312 122.729539 
L 1011.500312 122.729539 
" style="fill:none;stroke:#1f77b4;stroke-linecap:round;"/>
   </g>
   <g id="patch_3">
    <path d="M 35.420313 311.678125 
L 35.420313 15.118125 
" style="fill:none;stroke:#cccccc;stroke-linecap:square;stroke-linejoin:miter;stroke-width:0.8;"/>
   </g>
   <g id="patch_4">
    <path d="M 1057.980313 311.678125 
L 1057.980313 15.118125 
" style="fill:none;stroke:#cccccc;stroke-linecap:square;stroke-linejoin:miter;stroke-width:0.8;"/>
   </g>
   <g id="patch_5">
    <path d="M 35.420313 311.678125 
L 1057.980313 311.678125 
" style="fill:none;stroke:#cccccc;stroke-linecap:square;stroke-linejoin:miter;stroke-width:0.8;"/>
   </g>
   <g id="patch_6">
    <path d="M 35.420313 15.118125 
L 1057.980313 15.118125 
" style="fill:none;stroke:#cccccc;stroke-linecap:square;stroke-linejoin:miter;stroke-width:0.8;"/>
   </g>
   <g id="text_17">
    <!-- Latent Space Sample 1 -->
    <g style="fill:#262626;" transform="translate(477.159375 9.118125)scale(0.12 -0.12)">
     <defs>
      <path d="M 53.515625 70.515625 
L 53.515625 60.890625 
Q 47.90625 63.578125 42.921875 64.890625 
Q 37.9375 66.21875 33.296875 66.21875 
Q 25.25 66.21875 20.875 63.09375 
Q 16.5 59.96875 16.5 54.203125 
Q 16.5 49.359375 19.40625 46.890625 
Q 22.3125 44.4375 30.421875 42.921875 
L 36.375 41.703125 
Q 47.40625 39.59375 52.65625 34.296875 
Q 57.90625 29 57.90625 20.125 
Q 57.90625 9.515625 50.796875 4.046875 
Q 43.703125 -1.421875 29.984375 -1.421875 
Q 24.8125 -1.421875 18.96875 -0.25 
Q 13.140625 0.921875 6.890625 3.21875 
L 6.890625 13.375 
Q 12.890625 10.015625 18.65625 8.296875 
Q 24.421875 6.59375 29.984375 6.59375 
Q 38.421875 6.59375 43.015625 9.90625 
Q 47.609375 13.234375 47.609375 19.390625 
Q 47.609375 24.75 44.3125 27.78125 
Q 41.015625 30.8125 33.5 32.328125 
L 27.484375 33.5 
Q 16.453125 35.6875 11.515625 40.375 
Q 6.59375 45.0625 6.59375 53.421875 
Q 6.59375 63.09375 13.40625 68.65625 
Q 20.21875 74.21875 32.171875 74.21875 
Q 37.3125 74.21875 42.625 73.28125 
Q 47.953125 72.359375 53.515625 70.515625 
z
" id="DejaVuSans-83"/>
      <path d="M 48.78125 52.59375 
L 48.78125 44.1875 
Q 44.96875 46.296875 41.140625 47.34375 
Q 37.3125 48.390625 33.40625 48.390625 
Q 24.65625 48.390625 19.8125 42.84375 
Q 14.984375 37.3125 14.984375 27.296875 
Q 14.984375 17.28125 19.8125 11.734375 
Q 24.65625 6.203125 33.40625 6.203125 
Q 37.3125 6.203125 41.140625 7.25 
Q 44.96875 8.296875 48.78125 10.40625 
L 48.78125 2.09375 
Q 45.015625 0.34375 40.984375 -0.53125 
Q 36.96875 -1.421875 32.421875 -1.421875 
Q 20.0625 -1.421875 12.78125 6.34375 
Q 5.515625 14.109375 5.515625 27.296875 
Q 5.515625 40.671875 12.859375 48.328125 
Q 20.21875 56 33.015625 56 
Q 37.15625 56 41.109375 55.140625 
Q 45.0625 54.296875 48.78125 52.59375 
z
" id="DejaVuSans-99"/>
      <path d="M 52 44.1875 
Q 55.375 50.25 60.0625 53.125 
Q 64.75 56 71.09375 56 
Q 79.640625 56 84.28125 50.015625 
Q 88.921875 44.046875 88.921875 33.015625 
L 88.921875 0 
L 79.890625 0 
L 79.890625 32.71875 
Q 79.890625 40.578125 77.09375 44.375 
Q 74.3125 48.1875 68.609375 48.1875 
Q 61.625 48.1875 57.5625 43.546875 
Q 53.515625 38.921875 53.515625 30.90625 
L 53.515625 0 
L 44.484375 0 
L 44.484375 32.71875 
Q 44.484375 40.625 41.703125 44.40625 
Q 38.921875 48.1875 33.109375 48.1875 
Q 26.21875 48.1875 22.15625 43.53125 
Q 18.109375 38.875 18.109375 30.90625 
L 18.109375 0 
L 9.078125 0 
L 9.078125 54.6875 
L 18.109375 54.6875 
L 18.109375 46.1875 
Q 21.1875 51.21875 25.484375 53.609375 
Q 29.78125 56 35.6875 56 
Q 41.65625 56 45.828125 52.96875 
Q 50 49.953125 52 44.1875 
z
" id="DejaVuSans-109"/>
     </defs>
     <use xlink:href="#DejaVuSans-76"/>
     <use x="55.712891" xlink:href="#DejaVuSans-97"/>
     <use x="116.992188" xlink:href="#DejaVuSans-116"/>
     <use x="156.201172" xlink:href="#DejaVuSans-101"/>
     <use x="217.724609" xlink:href="#DejaVuSans-110"/>
     <use x="281.103516" xlink:href="#DejaVuSans-116"/>
     <use x="320.3125" xlink:href="#DejaVuSans-32"/>
     <use x="352.099609" xlink:href="#DejaVuSans-83"/>
     <use x="415.576172" xlink:href="#DejaVuSans-112"/>
     <use x="479.052734" xlink:href="#DejaVuSans-97"/>
     <use x="540.332031" xlink:href="#DejaVuSans-99"/>
     <use x="595.3125" xlink:href="#DejaVuSans-101"/>
     <use x="656.835938" xlink:href="#DejaVuSans-32"/>
     <use x="688.623047" xlink:href="#DejaVuSans-83"/>
     <use x="752.099609" xlink:href="#DejaVuSans-97"/>
     <use x="813.378906" xlink:href="#DejaVuSans-109"/>
     <use x="910.791016" xlink:href="#DejaVuSans-112"/>
     <use x="974.267578" xlink:href="#DejaVuSans-108"/>
     <use x="1002.050781" xlink:href="#DejaVuSans-101"/>
     <use x="1063.574219" xlink:href="#DejaVuSans-32"/>
     <use x="1095.361328" xlink:href="#DejaVuSans-49"/>
    </g>
   </g>
  </g>
  <g id="axes_2">
   <g id="patch_7">
    <path d="M 35.420313 666.278125 
L 1057.980313 666.278125 
L 1057.980313 369.718125 
L 35.420313 369.718125 
z
" style="fill:none;"/>
   </g>
   <g id="matplotlib.axis_3">
    <g id="xtick_7">
     <g id="line2d_16">
      <path clip-path="url(#p65eb4216cc)" d="M 81.900313 666.278125 
L 81.900313 369.718125 
" style="fill:none;stroke:#cccccc;stroke-linecap:round;stroke-width:0.8;"/>
     </g>
     <g id="text_18">
      <!-- 0 -->
      <g style="fill:#262626;" transform="translate(78.719063 680.876562)scale(0.1 -0.1)">
       <use xlink:href="#DejaVuSans-48"/>
      </g>
     </g>
    </g>
    <g id="xtick_8">
     <g id="line2d_17">
      <path clip-path="url(#p65eb4216cc)" d="M 268.006419 666.278125 
L 268.006419 369.718125 
" style="fill:none;stroke:#cccccc;stroke-linecap:round;stroke-width:0.8;"/>
     </g>
     <g id="text_19">
      <!-- 200 -->
      <g style="fill:#262626;" transform="translate(258.462669 680.876562)scale(0.1 -0.1)">
       <use xlink:href="#DejaVuSans-50"/>
       <use x="63.623047" xlink:href="#DejaVuSans-48"/>
       <use x="127.246094" xlink:href="#DejaVuSans-48"/>
      </g>
     </g>
    </g>
    <g id="xtick_9">
     <g id="line2d_18">
      <path clip-path="url(#p65eb4216cc)" d="M 454.112525 666.278125 
L 454.112525 369.718125 
" style="fill:none;stroke:#cccccc;stroke-linecap:round;stroke-width:0.8;"/>
     </g>
     <g id="text_20">
      <!-- 400 -->
      <g style="fill:#262626;" transform="translate(444.568775 680.876562)scale(0.1 -0.1)">
       <use xlink:href="#DejaVuSans-52"/>
       <use x="63.623047" xlink:href="#DejaVuSans-48"/>
       <use x="127.246094" xlink:href="#DejaVuSans-48"/>
      </g>
     </g>
    </g>
    <g id="xtick_10">
     <g id="line2d_19">
      <path clip-path="url(#p65eb4216cc)" d="M 640.218631 666.278125 
L 640.218631 369.718125 
" style="fill:none;stroke:#cccccc;stroke-linecap:round;stroke-width:0.8;"/>
     </g>
     <g id="text_21">
      <!-- 600 -->
      <g style="fill:#262626;" transform="translate(630.674881 680.876562)scale(0.1 -0.1)">
       <use xlink:href="#DejaVuSans-54"/>
       <use x="63.623047" xlink:href="#DejaVuSans-48"/>
       <use x="127.246094" xlink:href="#DejaVuSans-48"/>
      </g>
     </g>
    </g>
    <g id="xtick_11">
     <g id="line2d_20">
      <path clip-path="url(#p65eb4216cc)" d="M 826.324737 666.278125 
L 826.324737 369.718125 
" style="fill:none;stroke:#cccccc;stroke-linecap:round;stroke-width:0.8;"/>
     </g>
     <g id="text_22">
      <!-- 800 -->
      <g style="fill:#262626;" transform="translate(816.780987 680.876562)scale(0.1 -0.1)">
       <use xlink:href="#DejaVuSans-56"/>
       <use x="63.623047" xlink:href="#DejaVuSans-48"/>
       <use x="127.246094" xlink:href="#DejaVuSans-48"/>
      </g>
     </g>
    </g>
    <g id="xtick_12">
     <g id="line2d_21">
      <path clip-path="url(#p65eb4216cc)" d="M 1012.430843 666.278125 
L 1012.430843 369.718125 
" style="fill:none;stroke:#cccccc;stroke-linecap:round;stroke-width:0.8;"/>
     </g>
     <g id="text_23">
      <!-- 1000 -->
      <g style="fill:#262626;" transform="translate(999.705843 680.876562)scale(0.1 -0.1)">
       <use xlink:href="#DejaVuSans-49"/>
       <use x="63.623047" xlink:href="#DejaVuSans-48"/>
       <use x="127.246094" xlink:href="#DejaVuSans-48"/>
       <use x="190.869141" xlink:href="#DejaVuSans-48"/>
      </g>
     </g>
    </g>
    <g id="text_24">
     <!-- Latent features -->
     <g style="fill:#262626;" transform="translate(508.441719 694.554688)scale(0.1 -0.1)">
      <use xlink:href="#DejaVuSans-76"/>
      <use x="55.712891" xlink:href="#DejaVuSans-97"/>
      <use x="116.992188" xlink:href="#DejaVuSans-116"/>
      <use x="156.201172" xlink:href="#DejaVuSans-101"/>
      <use x="217.724609" xlink:href="#DejaVuSans-110"/>
      <use x="281.103516" xlink:href="#DejaVuSans-116"/>
      <use x="320.3125" xlink:href="#DejaVuSans-32"/>
      <use x="352.099609" xlink:href="#DejaVuSans-102"/>
      <use x="387.304688" xlink:href="#DejaVuSans-101"/>
      <use x="448.828125" xlink:href="#DejaVuSans-97"/>
      <use x="510.107422" xlink:href="#DejaVuSans-116"/>
      <use x="549.316406" xlink:href="#DejaVuSans-117"/>
      <use x="612.695312" xlink:href="#DejaVuSans-114"/>
      <use x="651.558594" xlink:href="#DejaVuSans-101"/>
      <use x="713.082031" xlink:href="#DejaVuSans-115"/>
     </g>
    </g>
   </g>
   <g id="matplotlib.axis_4">
    <g id="ytick_9">
     <g id="line2d_22">
      <path clip-path="url(#p65eb4216cc)" d="M 35.420313 654.813506 
L 1057.980313 654.813506 
" style="fill:none;stroke:#cccccc;stroke-linecap:round;stroke-width:0.8;"/>
     </g>
     <g id="text_25">
      <!-- −4 -->
      <g style="fill:#262626;" transform="translate(13.678125 658.612725)scale(0.1 -0.1)">
       <use xlink:href="#DejaVuSans-8722"/>
       <use x="83.789062" xlink:href="#DejaVuSans-52"/>
      </g>
     </g>
    </g>
    <g id="ytick_10">
     <g id="line2d_23">
      <path clip-path="url(#p65eb4216cc)" d="M 35.420313 619.124347 
L 1057.980313 619.124347 
" style="fill:none;stroke:#cccccc;stroke-linecap:round;stroke-width:0.8;"/>
     </g>
     <g id="text_26">
      <!-- −3 -->
      <g style="fill:#262626;" transform="translate(13.678125 622.923566)scale(0.1 -0.1)">
       <use xlink:href="#DejaVuSans-8722"/>
       <use x="83.789062" xlink:href="#DejaVuSans-51"/>
      </g>
     </g>
    </g>
    <g id="ytick_11">
     <g id="line2d_24">
      <path clip-path="url(#p65eb4216cc)" d="M 35.420313 583.435189 
L 1057.980313 583.435189 
" style="fill:none;stroke:#cccccc;stroke-linecap:round;stroke-width:0.8;"/>
     </g>
     <g id="text_27">
      <!-- −2 -->
      <g style="fill:#262626;" transform="translate(13.678125 587.234408)scale(0.1 -0.1)">
       <use xlink:href="#DejaVuSans-8722"/>
       <use x="83.789062" xlink:href="#DejaVuSans-50"/>
      </g>
     </g>
    </g>
    <g id="ytick_12">
     <g id="line2d_25">
      <path clip-path="url(#p65eb4216cc)" d="M 35.420313 547.746031 
L 1057.980313 547.746031 
" style="fill:none;stroke:#cccccc;stroke-linecap:round;stroke-width:0.8;"/>
     </g>
     <g id="text_28">
      <!-- −1 -->
      <g style="fill:#262626;" transform="translate(13.678125 551.54525)scale(0.1 -0.1)">
       <use xlink:href="#DejaVuSans-8722"/>
       <use x="83.789062" xlink:href="#DejaVuSans-49"/>
      </g>
     </g>
    </g>
    <g id="ytick_13">
     <g id="line2d_26">
      <path clip-path="url(#p65eb4216cc)" d="M 35.420313 512.056872 
L 1057.980313 512.056872 
" style="fill:none;stroke:#cccccc;stroke-linecap:round;stroke-width:0.8;"/>
     </g>
     <g id="text_29">
      <!-- 0 -->
      <g style="fill:#262626;" transform="translate(22.057813 515.856091)scale(0.1 -0.1)">
       <use xlink:href="#DejaVuSans-48"/>
      </g>
     </g>
    </g>
    <g id="ytick_14">
     <g id="line2d_27">
      <path clip-path="url(#p65eb4216cc)" d="M 35.420313 476.367714 
L 1057.980313 476.367714 
" style="fill:none;stroke:#cccccc;stroke-linecap:round;stroke-width:0.8;"/>
     </g>
     <g id="text_30">
      <!-- 1 -->
      <g style="fill:#262626;" transform="translate(22.057813 480.166933)scale(0.1 -0.1)">
       <use xlink:href="#DejaVuSans-49"/>
      </g>
     </g>
    </g>
    <g id="ytick_15">
     <g id="line2d_28">
      <path clip-path="url(#p65eb4216cc)" d="M 35.420313 440.678556 
L 1057.980313 440.678556 
" style="fill:none;stroke:#cccccc;stroke-linecap:round;stroke-width:0.8;"/>
     </g>
     <g id="text_31">
      <!-- 2 -->
      <g style="fill:#262626;" transform="translate(22.057813 444.477774)scale(0.1 -0.1)">
       <use xlink:href="#DejaVuSans-50"/>
      </g>
     </g>
    </g>
    <g id="ytick_16">
     <g id="line2d_29">
      <path clip-path="url(#p65eb4216cc)" d="M 35.420313 404.989397 
L 1057.980313 404.989397 
" style="fill:none;stroke:#cccccc;stroke-linecap:round;stroke-width:0.8;"/>
     </g>
     <g id="text_32">
      <!-- 3 -->
      <g style="fill:#262626;" transform="translate(22.057813 408.788616)scale(0.1 -0.1)">
       <use xlink:href="#DejaVuSans-51"/>
      </g>
     </g>
    </g>
    <g id="text_33">
     <!-- Expression Level -->
     <g style="fill:#262626;" transform="translate(7.598437 559.92625)rotate(-90)scale(0.1 -0.1)">
      <use xlink:href="#DejaVuSans-69"/>
      <use x="63.183594" xlink:href="#DejaVuSans-120"/>
      <use x="122.363281" xlink:href="#DejaVuSans-112"/>
      <use x="185.839844" xlink:href="#DejaVuSans-114"/>
      <use x="224.703125" xlink:href="#DejaVuSans-101"/>
      <use x="286.226562" xlink:href="#DejaVuSans-115"/>
      <use x="338.326172" xlink:href="#DejaVuSans-115"/>
      <use x="390.425781" xlink:href="#DejaVuSans-105"/>
      <use x="418.208984" xlink:href="#DejaVuSans-111"/>
      <use x="479.390625" xlink:href="#DejaVuSans-110"/>
      <use x="542.769531" xlink:href="#DejaVuSans-32"/>
      <use x="574.556641" xlink:href="#DejaVuSans-76"/>
      <use x="628.519531" xlink:href="#DejaVuSans-101"/>
      <use x="690.042969" xlink:href="#DejaVuSans-118"/>
      <use x="749.222656" xlink:href="#DejaVuSans-101"/>
      <use x="810.746094" xlink:href="#DejaVuSans-108"/>
     </g>
    </g>
   </g>
   <g id="line2d_30">
    <path clip-path="url(#p65eb4216cc)" d="M 81.900313 460.669639 
L 82.830843 472.719336 
L 83.761374 563.594145 
L 84.691904 435.929076 
L 85.622435 488.137593 
L 86.552965 493.450865 
L 87.483496 530.886717 
L 88.414026 448.511673 
L 89.344557 485.348962 
L 90.275087 598.624718 
L 91.205618 510.952275 
L 92.136148 520.909248 
L 93.066679 472.148173 
L 93.997209 544.071837 
L 94.92774 515.713151 
L 95.85827 570.374134 
L 96.788801 552.201632 
L 97.719332 569.457812 
L 98.649862 531.283055 
L 99.580393 546.335175 
L 100.510923 435.617504 
L 101.441454 499.752879 
L 102.371984 523.618621 
L 103.302515 522.18887 
L 104.233045 452.533007 
L 105.163576 559.255193 
L 106.094106 517.47295 
L 107.024637 462.663598 
L 107.955167 539.016631 
L 108.885698 590.889964 
L 109.816228 487.121514 
L 110.746759 531.657071 
L 111.677289 509.724765 
L 112.60782 542.957372 
L 113.538351 443.699691 
L 114.468881 514.283529 
L 115.399412 542.255334 
L 116.329942 469.816654 
L 117.260473 503.975713 
L 118.191003 490.421637 
L 120.052064 517.495572 
L 120.982595 520.577698 
L 121.913125 486.592959 
L 122.843656 565.98477 
L 123.774186 519.359289 
L 124.704717 507.070079 
L 125.635247 539.20253 
L 126.565778 439.365334 
L 127.496308 520.772524 
L 128.426839 456.914253 
L 129.35737 508.204391 
L 130.2879 488.424081 
L 131.218431 504.177922 
L 132.148961 508.699673 
L 133.079492 622.671971 
L 134.010022 551.91836 
L 134.940553 513.763767 
L 135.871083 480.930379 
L 136.801614 452.436762 
L 137.732144 473.197051 
L 138.662675 452.180502 
L 139.593205 486.39704 
L 140.523736 467.879113 
L 141.454266 473.871152 
L 142.384797 493.299488 
L 143.315328 494.497558 
L 144.245858 472.978715 
L 145.176389 614.194512 
L 146.106919 557.548513 
L 147.03745 513.013618 
L 147.96798 483.797324 
L 149.829041 556.836772 
L 150.759572 576.041453 
L 151.690102 483.665022 
L 152.620633 507.236419 
L 153.551163 478.902916 
L 154.481694 505.281895 
L 155.412224 485.288532 
L 156.342755 477.461111 
L 157.273285 396.013774 
L 158.203816 515.14059 
L 159.134347 494.986512 
L 160.064877 462.420808 
L 160.995408 450.984045 
L 161.925938 518.292306 
L 162.856469 484.235371 
L 163.786999 492.214766 
L 164.71753 507.609378 
L 165.64806 536.342588 
L 166.578591 512.100494 
L 167.509121 542.161412 
L 168.439652 526.825561 
L 169.370182 627.086827 
L 171.231243 423.306794 
L 172.161774 557.980917 
L 173.092304 595.397296 
L 174.022835 487.048982 
L 174.953366 485.602593 
L 175.883896 491.71896 
L 176.814427 507.914778 
L 177.744957 487.265945 
L 178.675488 500.215468 
L 179.606018 539.576737 
L 180.536549 451.311878 
L 181.467079 567.865688 
L 182.39761 486.764698 
L 183.32814 548.524452 
L 184.258671 534.46179 
L 185.189201 557.789325 
L 186.119732 564.260447 
L 187.050262 499.920349 
L 187.980793 495.105047 
L 188.911324 484.393017 
L 189.841854 540.49014 
L 190.772385 554.988984 
L 191.702915 487.998397 
L 192.633446 383.198125 
L 193.563976 457.355978 
L 194.494507 522.368923 
L 195.425037 480.533845 
L 196.355568 562.84157 
L 197.286098 559.769049 
L 198.216629 526.507875 
L 199.147159 521.731469 
L 200.07769 521.554134 
L 201.00822 475.09457 
L 201.938751 502.86213 
L 202.869281 487.837182 
L 203.799812 449.996614 
L 204.730343 512.153358 
L 205.660873 520.440894 
L 206.591404 475.63845 
L 207.521934 480.667346 
L 208.452465 507.174086 
L 209.382995 454.21125 
L 210.313526 517.732009 
L 211.244056 560.157976 
L 212.174587 459.44802 
L 213.105117 512.332412 
L 214.035648 507.429393 
L 214.966178 614.047248 
L 215.896709 523.584918 
L 216.827239 488.871967 
L 217.75777 593.519377 
L 218.6883 516.094115 
L 219.618831 485.347541 
L 220.549362 443.69716 
L 221.479892 611.847188 
L 222.410423 459.621446 
L 223.340953 537.790167 
L 224.271484 473.902988 
L 225.202014 594.355918 
L 226.132545 513.820549 
L 227.063075 570.027049 
L 228.924136 461.348977 
L 229.854667 579.288387 
L 230.785197 527.188364 
L 231.715728 585.247895 
L 232.646258 490.814726 
L 233.576789 571.00566 
L 234.50732 502.966899 
L 235.43785 560.314898 
L 236.368381 402.410094 
L 237.298911 595.110654 
L 238.229442 529.922567 
L 239.159972 591.458643 
L 240.090503 573.458069 
L 241.021033 507.909389 
L 241.951564 486.847532 
L 242.882094 502.911428 
L 243.812625 554.280077 
L 244.743155 499.138644 
L 245.673686 539.889905 
L 246.604216 554.89259 
L 247.534747 486.226629 
L 248.465277 520.079422 
L 249.395808 459.893303 
L 250.326339 623.707111 
L 251.256869 515.171652 
L 252.1874 592.037167 
L 253.11793 473.693238 
L 254.048461 482.180162 
L 254.978991 549.731498 
L 255.909522 455.908238 
L 256.840052 543.106415 
L 257.770583 512.575824 
L 258.701113 492.307052 
L 259.631644 458.647013 
L 260.562174 522.087703 
L 261.492705 494.340516 
L 262.423235 492.564916 
L 263.353766 536.441163 
L 264.284296 523.204004 
L 265.214827 476.364319 
L 266.145358 456.820497 
L 267.075888 479.484877 
L 268.006419 490.693099 
L 268.936949 484.935648 
L 269.86748 530.442723 
L 270.79801 535.101444 
L 271.728541 548.800793 
L 272.659071 549.712979 
L 273.589602 434.507306 
L 274.520132 456.112798 
L 275.450663 497.119588 
L 276.381193 466.82673 
L 277.311724 510.866915 
L 278.242254 509.725209 
L 279.172785 530.476576 
L 280.103316 540.049595 
L 281.964377 468.270428 
L 282.894907 437.086082 
L 283.825438 488.707014 
L 284.755968 442.895263 
L 285.686499 552.760794 
L 287.54756 484.988361 
L 288.47809 482.305989 
L 289.408621 460.139714 
L 290.339151 527.072173 
L 291.269682 559.468559 
L 292.200212 495.304046 
L 293.130743 516.235338 
L 294.061273 439.924015 
L 294.991804 510.802069 
L 295.922335 458.276758 
L 296.852865 519.503201 
L 297.783396 510.290136 
L 298.713926 519.327303 
L 299.644457 497.720474 
L 300.574987 490.273594 
L 301.505518 556.937144 
L 302.436048 525.5998 
L 303.366579 486.08326 
L 304.297109 551.862503 
L 305.22764 497.508236 
L 306.15817 509.930617 
L 307.088701 497.873673 
L 308.019231 538.237414 
L 308.949762 498.43949 
L 309.880292 539.301247 
L 310.810823 510.561931 
L 311.741354 503.725632 
L 312.671884 428.522862 
L 313.602415 536.573785 
L 314.532945 553.279147 
L 315.463476 462.247574 
L 316.394006 524.945281 
L 317.324537 485.635174 
L 318.255067 528.21785 
L 319.185598 496.398423 
L 320.116128 490.598294 
L 321.046659 577.675705 
L 321.977189 522.17984 
L 322.90772 557.00856 
L 323.83825 484.664108 
L 324.768781 506.695681 
L 325.699311 546.936291 
L 326.629842 453.837898 
L 327.560373 532.917354 
L 328.490903 464.547648 
L 329.421434 465.385746 
L 330.351964 475.144156 
L 331.282495 505.157474 
L 332.213025 542.39874 
L 333.143556 529.365928 
L 334.074086 477.616987 
L 335.935147 557.453829 
L 336.865678 462.942365 
L 337.796208 540.600884 
L 338.726739 549.480029 
L 339.657269 588.965833 
L 340.5878 487.599633 
L 341.518331 538.309826 
L 342.448861 487.72344 
L 343.379392 499.29726 
L 344.309922 476.693475 
L 345.240453 465.485258 
L 346.170983 536.854996 
L 347.101514 446.517505 
L 348.032044 483.718125 
L 348.962575 501.42806 
L 349.893105 505.852821 
L 350.823636 550.53368 
L 351.754166 537.453254 
L 352.684697 501.627456 
L 353.615227 530.838884 
L 354.545758 522.249827 
L 355.476288 519.953605 
L 356.406819 459.217989 
L 357.33735 493.371863 
L 358.26788 618.222117 
L 359.198411 421.391963 
L 360.128941 521.910285 
L 361.059472 488.155449 
L 361.990002 493.050693 
L 362.920533 466.752463 
L 363.851063 522.776665 
L 364.781594 456.205235 
L 365.712124 498.036455 
L 366.642655 555.958367 
L 367.573185 486.498089 
L 368.503716 507.585574 
L 369.434246 542.192085 
L 370.364777 589.218856 
L 371.295307 522.393347 
L 372.225838 530.696535 
L 373.156369 467.470598 
L 374.086899 496.111959 
L 375.01743 484.195194 
L 375.94796 478.530587 
L 376.878491 551.577581 
L 377.809021 553.938102 
L 378.739552 459.353486 
L 379.670082 507.513492 
L 380.600613 505.882996 
L 381.531143 445.403461 
L 382.461674 528.669018 
L 383.392204 387.653262 
L 384.322735 521.876801 
L 385.253265 449.636698 
L 386.183796 515.887404 
L 387.114327 569.759625 
L 388.044857 508.931916 
L 388.975388 489.865317 
L 389.905918 520.104782 
L 390.836449 542.028938 
L 391.766979 574.963381 
L 392.69751 490.952966 
L 393.62804 486.61939 
L 394.558571 517.845325 
L 395.489101 535.043341 
L 396.419632 536.607179 
L 397.350162 466.355155 
L 398.280693 465.169533 
L 399.211223 498.669702 
L 400.141754 501.619564 
L 401.072284 472.124143 
L 402.002815 517.828266 
L 402.933346 475.059347 
L 403.863876 575.401477 
L 404.794407 524.597496 
L 405.724937 459.326015 
L 406.655468 536.396078 
L 407.585998 519.02102 
L 408.516529 541.468776 
L 409.447059 524.204801 
L 410.37759 529.81596 
L 411.30812 554.018231 
L 412.238651 567.702465 
L 413.169181 488.931451 
L 414.099712 580.16101 
L 415.030242 527.060491 
L 415.960773 441.65144 
L 416.891303 487.164127 
L 417.821834 482.391208 
L 418.752365 527.463671 
L 419.682895 487.308848 
L 420.613426 481.530569 
L 421.543956 468.194715 
L 422.474487 545.460652 
L 423.405017 553.664637 
L 424.335548 499.997579 
L 425.266078 524.015774 
L 426.196609 532.43473 
L 427.127139 477.107823 
L 428.05767 525.090906 
L 428.9882 443.732374 
L 430.849261 568.493637 
L 431.779792 479.164443 
L 432.710323 564.90135 
L 434.571384 506.835561 
L 435.501914 550.402009 
L 436.432445 584.362164 
L 437.362975 571.891264 
L 438.293506 514.846777 
L 439.224036 544.793509 
L 440.154567 552.025913 
L 441.085097 516.196208 
L 442.015628 465.523387 
L 442.946158 547.965932 
L 443.876689 503.613731 
L 444.807219 585.674236 
L 445.73775 461.451689 
L 446.66828 455.502914 
L 447.598811 494.308089 
L 448.529342 397.821698 
L 449.459872 484.178617 
L 450.390403 470.732814 
L 451.320933 530.424238 
L 452.251464 514.923418 
L 453.181994 482.861734 
L 454.112525 473.635211 
L 455.043055 590.302174 
L 455.973586 550.960341 
L 456.904116 556.87134 
L 457.834647 546.029812 
L 458.765177 455.098973 
L 459.695708 517.41441 
L 460.626238 504.875591 
L 461.556769 553.194572 
L 462.487299 533.141116 
L 463.41783 567.975514 
L 464.348361 519.901164 
L 465.278891 530.302309 
L 466.209422 472.817275 
L 467.139952 467.803694 
L 468.070483 494.483491 
L 469.001013 541.722794 
L 469.931544 509.814138 
L 470.862074 501.340334 
L 471.792605 466.628135 
L 472.723135 549.682334 
L 473.653666 498.416591 
L 474.584196 544.152134 
L 475.514727 489.903927 
L 476.445257 541.005653 
L 477.375788 516.13617 
L 478.306319 539.950474 
L 479.236849 520.88541 
L 480.16738 539.466042 
L 481.09791 551.961901 
L 482.028441 517.636295 
L 482.958971 556.264638 
L 483.889502 537.544962 
L 484.820032 449.291251 
L 485.750563 532.373632 
L 487.611624 476.923175 
L 488.542154 579.971269 
L 489.472685 558.956809 
L 490.403215 472.397085 
L 491.333746 497.843033 
L 492.264276 536.741006 
L 493.194807 488.916417 
L 494.125338 543.094024 
L 495.055868 518.625075 
L 495.986399 581.832918 
L 496.916929 531.307419 
L 497.84746 499.758974 
L 498.77799 502.997701 
L 499.708521 567.015784 
L 500.639051 458.061579 
L 501.569582 462.086963 
L 502.500112 471.46201 
L 503.430643 531.07349 
L 504.361173 493.341333 
L 505.291704 504.883533 
L 506.222234 571.83336 
L 507.152765 513.991126 
L 508.083295 552.423924 
L 509.944357 458.883055 
L 510.874887 532.671447 
L 512.735948 482.778474 
L 513.666479 476.655359 
L 514.597009 553.909537 
L 515.52754 520.61804 
L 516.45807 501.53636 
L 517.388601 502.999892 
L 518.319131 511.085026 
L 519.249662 500.350733 
L 520.180192 495.823139 
L 521.110723 577.077304 
L 522.041253 447.557547 
L 522.971784 550.088921 
L 523.902315 542.620964 
L 524.832845 650.46188 
L 525.763376 502.252558 
L 526.693906 617.539716 
L 527.624437 507.130227 
L 528.554967 532.322861 
L 529.485498 488.416357 
L 530.416028 482.24356 
L 531.346559 532.502262 
L 532.277089 487.762384 
L 533.20762 530.74594 
L 534.13815 515.132201 
L 535.068681 525.825503 
L 535.999211 521.14507 
L 536.929742 566.211883 
L 537.860272 586.424335 
L 538.790803 448.081439 
L 539.721334 489.758792 
L 540.651864 502.300088 
L 541.582395 552.507099 
L 543.443456 505.622186 
L 544.373986 475.508424 
L 545.304517 542.701084 
L 546.235047 526.590097 
L 547.165578 501.266061 
L 548.096108 550.989867 
L 549.026639 505.636454 
L 549.957169 526.678745 
L 550.8877 503.691882 
L 551.81823 592.258877 
L 552.748761 534.274531 
L 553.679291 523.916408 
L 554.609822 519.453214 
L 555.540353 516.262665 
L 556.470883 556.400977 
L 557.401414 506.015092 
L 558.331944 526.64946 
L 559.262475 577.434761 
L 560.193005 455.705972 
L 561.123536 458.887735 
L 562.054066 582.360601 
L 562.984597 548.469045 
L 563.915127 503.862606 
L 564.845658 547.02205 
L 565.776188 479.073308 
L 566.706719 542.823775 
L 567.637249 549.644392 
L 568.56778 453.205372 
L 569.49831 519.260432 
L 570.428841 572.203985 
L 571.359372 485.680263 
L 572.289902 565.111666 
L 573.220433 518.534466 
L 574.150963 554.829968 
L 575.081494 513.429555 
L 576.012024 481.152157 
L 576.942555 541.895101 
L 577.873085 589.764144 
L 578.803616 520.907232 
L 579.734146 567.19808 
L 580.664677 476.842708 
L 581.595207 495.896 
L 582.525738 528.98656 
L 583.456268 505.881505 
L 584.386799 467.970414 
L 585.31733 510.706041 
L 586.24786 493.753765 
L 587.178391 472.303678 
L 588.108921 522.493089 
L 589.039452 554.121887 
L 589.969982 502.262355 
L 590.900513 462.463302 
L 591.831043 497.666652 
L 592.761574 585.153335 
L 593.692104 515.290683 
L 594.622635 476.894087 
L 595.553165 482.495619 
L 596.483696 502.941332 
L 597.414226 456.552064 
L 598.344757 617.833453 
L 599.275287 504.299433 
L 600.205818 517.531809 
L 601.136349 464.169429 
L 602.066879 510.25982 
L 602.99741 527.595181 
L 603.92794 551.870927 
L 604.858471 456.241287 
L 605.789001 467.519529 
L 606.719532 540.776919 
L 607.650062 505.97862 
L 608.580593 565.356239 
L 609.511123 517.644325 
L 611.372184 463.085098 
L 612.302715 557.693352 
L 613.233245 514.161585 
L 614.163776 598.431794 
L 615.094306 546.395672 
L 616.024837 485.871795 
L 616.955368 575.975649 
L 617.885898 503.94868 
L 618.816429 530.788457 
L 619.746959 544.060367 
L 620.67749 502.452914 
L 621.60802 523.868885 
L 622.538551 440.012466 
L 623.469081 514.825664 
L 624.399612 504.028214 
L 625.330142 543.4929 
L 626.260673 472.399166 
L 627.191203 501.863055 
L 628.121734 470.515916 
L 629.052264 520.170809 
L 629.982795 554.369472 
L 630.913326 530.522723 
L 631.843856 388.794373 
L 632.774387 467.839147 
L 633.704917 559.294074 
L 634.635448 497.248445 
L 635.565978 518.125949 
L 636.496509 519.030484 
L 637.427039 534.189182 
L 638.35757 442.691439 
L 639.2881 529.761535 
L 640.218631 428.860838 
L 641.149161 555.590976 
L 642.079692 505.920734 
L 643.010222 472.277794 
L 643.940753 490.168434 
L 644.871283 522.581119 
L 645.801814 479.566817 
L 646.732345 605.56459 
L 647.662875 430.101206 
L 648.593406 498.002983 
L 649.523936 514.580255 
L 650.454467 501.612366 
L 651.384997 477.819836 
L 652.315528 475.173252 
L 653.246058 456.058562 
L 654.176589 565.520403 
L 655.107119 408.145549 
L 656.03765 490.55062 
L 656.96818 600.873508 
L 657.898711 494.508154 
L 658.829241 454.949232 
L 660.690302 571.312974 
L 661.620833 506.523117 
L 662.551364 538.08363 
L 663.481894 434.696222 
L 664.412425 534.3777 
L 665.342955 580.14292 
L 666.273486 478.37416 
L 667.204016 509.18583 
L 668.134547 408.2175 
L 669.065077 580.571691 
L 669.995608 489.050015 
L 670.926138 537.238977 
L 671.856669 505.884446 
L 672.787199 517.210908 
L 673.71773 500.499314 
L 674.64826 536.859648 
L 675.578791 535.00943 
L 676.509322 545.551477 
L 677.439852 539.358448 
L 678.370383 448.564475 
L 680.231444 476.364766 
L 681.161974 389.834406 
L 682.092505 522.724932 
L 683.023035 462.697494 
L 683.953566 519.376295 
L 684.884096 502.676496 
L 685.814627 532.670216 
L 686.745157 567.646345 
L 687.675688 569.441569 
L 688.606218 510.853748 
L 689.536749 476.036031 
L 690.467279 530.894149 
L 691.39781 491.439322 
L 692.328341 549.734404 
L 693.258871 464.243491 
L 694.189402 424.774453 
L 695.119932 525.874155 
L 696.050463 520.13877 
L 696.980993 571.662752 
L 697.911524 540.060295 
L 698.842054 520.292398 
L 699.772585 550.417286 
L 700.703115 473.960189 
L 701.633646 548.741694 
L 702.564176 493.291592 
L 703.494707 497.478243 
L 704.425237 652.798125 
L 705.355768 457.262401 
L 707.216829 545.971062 
L 708.14736 568.768629 
L 709.07789 489.842658 
L 710.008421 493.729737 
L 710.938951 528.045854 
L 711.869482 493.431086 
L 712.800012 516.686856 
L 713.730543 500.907759 
L 714.661073 505.568399 
L 715.591604 510.947802 
L 716.522134 534.298511 
L 717.452665 548.608746 
L 718.383195 485.753289 
L 719.313726 585.320817 
L 720.244256 525.39853 
L 721.174787 435.329382 
L 722.105318 519.213246 
L 723.035848 465.012492 
L 723.966379 524.142141 
L 724.896909 453.445427 
L 725.82744 482.14455 
L 726.75797 579.060623 
L 727.688501 484.8013 
L 728.619031 475.645716 
L 729.549562 556.155511 
L 730.480092 548.9893 
L 731.410623 548.320585 
L 732.341153 481.191868 
L 733.271684 525.591522 
L 734.202214 521.697933 
L 735.132745 542.050153 
L 736.063275 504.007933 
L 736.993806 516.634101 
L 737.924337 519.013933 
L 738.854867 498.712122 
L 739.785398 520.447898 
L 740.715928 533.408906 
L 741.646459 560.188098 
L 742.576989 503.694351 
L 743.50752 490.866267 
L 744.43805 468.312262 
L 745.368581 487.750965 
L 746.299111 458.502884 
L 747.229642 584.421982 
L 748.160172 519.633515 
L 749.090703 550.342114 
L 750.021233 523.982004 
L 750.951764 459.350457 
L 751.882294 556.183135 
L 752.812825 473.035129 
L 753.743356 550.346432 
L 754.673886 525.256743 
L 755.604417 512.621104 
L 756.534947 446.646322 
L 757.465478 513.150461 
L 758.396008 540.861045 
L 759.326539 461.624374 
L 760.257069 588.122247 
L 761.1876 508.631557 
L 762.11813 528.641576 
L 763.048661 533.570514 
L 763.979191 516.597237 
L 764.909722 505.011688 
L 765.840252 411.727284 
L 766.770783 500.015933 
L 767.701314 457.946296 
L 768.631844 536.413966 
L 769.562375 458.499237 
L 770.492905 567.038358 
L 771.423436 600.687528 
L 772.353966 550.378239 
L 773.284497 567.180705 
L 774.215027 613.880251 
L 775.145558 536.57019 
L 776.076088 539.695548 
L 777.006619 483.524914 
L 777.937149 501.449521 
L 778.86768 464.928683 
L 779.79821 520.058744 
L 780.728741 501.273418 
L 781.659271 449.168994 
L 782.589802 538.122469 
L 783.520333 457.197728 
L 784.450863 515.996092 
L 785.381394 452.371273 
L 786.311924 538.470026 
L 787.242455 524.116868 
L 788.172985 541.733103 
L 789.103516 587.71197 
L 790.034046 599.57031 
L 790.964577 573.069125 
L 791.895107 518.245317 
L 792.825638 456.225155 
L 793.756168 513.883783 
L 794.686699 442.709963 
L 795.617229 532.756148 
L 796.54776 573.210565 
L 797.47829 536.105218 
L 798.408821 504.608191 
L 799.339352 482.744281 
L 800.269882 548.107989 
L 801.200413 497.986261 
L 802.130943 507.256972 
L 803.061474 528.594077 
L 803.992004 491.937393 
L 804.922535 476.780003 
L 805.853065 521.030182 
L 806.783596 495.235955 
L 807.714126 566.482085 
L 808.644657 537.001816 
L 809.575187 545.92197 
L 810.505718 420.407502 
L 811.436248 535.09017 
L 812.366779 441.957882 
L 813.297309 501.488633 
L 815.158371 417.214073 
L 816.088901 429.426837 
L 817.019432 580.948097 
L 817.949962 492.041986 
L 818.880493 492.675707 
L 819.811023 528.108763 
L 820.741554 503.048466 
L 821.672084 600.098648 
L 822.602615 486.396581 
L 823.533145 486.617639 
L 824.463676 563.370921 
L 825.394206 524.757402 
L 826.324737 593.159516 
L 827.255267 471.916431 
L 828.185798 496.640818 
L 829.116329 478.097436 
L 830.046859 532.135045 
L 830.97739 505.867926 
L 831.90792 462.328273 
L 832.838451 591.856216 
L 833.768981 502.999781 
L 834.699512 540.554365 
L 835.630042 479.152707 
L 836.560573 477.538194 
L 837.491103 479.469102 
L 838.421634 450.082427 
L 839.352164 541.045464 
L 840.282695 647.714176 
L 841.213225 478.293978 
L 842.143756 549.133978 
L 843.074286 571.517155 
L 844.004817 509.132912 
L 844.935348 607.216026 
L 845.865878 515.115543 
L 846.796409 527.453477 
L 847.726939 522.388825 
L 848.65747 488.358485 
L 849.588 506.548029 
L 850.518531 543.523333 
L 851.449061 507.050049 
L 852.379592 518.463867 
L 853.310122 517.360524 
L 854.240653 479.649456 
L 855.171183 540.640489 
L 856.101714 511.109573 
L 857.032244 459.736512 
L 857.962775 558.157439 
L 858.893305 525.942633 
L 859.823836 519.544661 
L 860.754367 568.697188 
L 861.684897 527.266854 
L 862.615428 581.29662 
L 863.545958 516.959075 
L 864.476489 542.628356 
L 865.407019 523.568032 
L 866.33755 507.166671 
L 867.26808 484.190017 
L 868.198611 551.399909 
L 869.129141 451.146995 
L 870.059672 484.620093 
L 870.990202 447.387648 
L 871.920733 533.371828 
L 872.851263 485.650556 
L 873.781794 558.832982 
L 874.712325 545.504622 
L 875.642855 498.981525 
L 876.573386 532.829716 
L 877.503916 505.201026 
L 879.364977 553.475351 
L 880.295508 548.644968 
L 881.226038 484.642546 
L 882.156569 506.74329 
L 883.087099 464.838229 
L 884.01763 497.938932 
L 884.94816 469.488438 
L 885.878691 550.921672 
L 886.809221 543.552261 
L 887.739752 524.956153 
L 888.670282 557.105689 
L 889.600813 524.35812 
L 890.531344 511.674325 
L 891.461874 525.36215 
L 892.392405 552.618422 
L 893.322935 451.152058 
L 894.253466 527.823642 
L 895.183996 485.101305 
L 896.114527 520.589214 
L 897.045057 490.482162 
L 897.975588 563.397511 
L 898.906118 493.623375 
L 900.767179 554.064907 
L 901.69771 514.530573 
L 902.62824 497.66601 
L 903.558771 478.197208 
L 904.489301 490.904984 
L 905.419832 568.684293 
L 906.350363 533.783068 
L 907.280893 478.131525 
L 908.211424 479.194211 
L 909.141954 515.263322 
L 910.072485 492.343547 
L 911.003015 511.330255 
L 911.933546 516.507075 
L 912.864076 526.195088 
L 913.794607 487.667424 
L 914.725137 579.965789 
L 915.655668 506.981261 
L 916.586198 526.173456 
L 917.516729 536.772716 
L 918.447259 439.805273 
L 919.37779 502.550537 
L 920.308321 516.581948 
L 921.238851 542.937182 
L 922.169382 484.182722 
L 923.099912 475.287038 
L 924.030443 521.631415 
L 924.960973 446.840731 
L 925.891504 510.092647 
L 926.822034 535.15527 
L 927.752565 447.585894 
L 928.683095 579.785063 
L 929.613626 544.02421 
L 930.544156 555.947207 
L 932.405217 502.630293 
L 933.335748 455.680215 
L 934.266278 498.294713 
L 935.196809 549.160828 
L 936.12734 540.79482 
L 937.05787 558.557535 
L 937.988401 570.891308 
L 938.918931 512.467099 
L 939.849462 488.416835 
L 940.779992 479.748047 
L 941.710523 532.15674 
L 942.641053 514.120427 
L 943.571584 475.287383 
L 944.502114 538.776042 
L 945.432645 536.673859 
L 946.363175 496.100386 
L 947.293706 481.816098 
L 948.224236 558.331273 
L 949.154767 478.103729 
L 950.085297 471.609245 
L 951.015828 494.733732 
L 951.946359 552.635802 
L 952.876889 565.26473 
L 953.80742 536.841964 
L 954.73795 578.804044 
L 955.668481 487.517258 
L 956.599011 504.141095 
L 957.529542 491.143939 
L 958.460072 488.521547 
L 959.390603 505.584371 
L 960.321133 562.495336 
L 961.251664 540.80833 
L 963.112725 500.945454 
L 964.043255 587.244641 
L 964.973786 507.096514 
L 965.904317 548.145441 
L 966.834847 480.577187 
L 967.765378 536.835627 
L 968.695908 539.309296 
L 969.626439 489.749187 
L 970.556969 517.616534 
L 971.4875 555.001462 
L 972.41803 473.750648 
L 973.348561 569.051229 
L 974.279091 490.380562 
L 975.209622 508.291832 
L 976.140152 546.648539 
L 977.070683 591.152202 
L 978.001213 487.408271 
L 978.931744 528.483189 
L 979.862274 476.14349 
L 980.792805 500.443262 
L 981.723336 493.762574 
L 982.653866 578.381906 
L 983.584397 517.296919 
L 984.514927 510.145024 
L 985.445458 439.023785 
L 986.375988 428.659856 
L 987.306519 497.902614 
L 988.237049 496.642098 
L 989.16758 559.379751 
L 990.09811 513.567381 
L 991.028641 531.188138 
L 991.959171 457.421714 
L 992.889702 437.483016 
L 994.750763 562.102924 
L 995.681293 496.148348 
L 996.611824 533.598175 
L 997.542355 522.306841 
L 998.472885 473.738352 
L 999.403416 515.619622 
L 1000.333946 497.436552 
L 1001.264477 468.681568 
L 1002.195007 516.506292 
L 1003.125538 488.252623 
L 1004.056068 491.55689 
L 1004.986599 522.261447 
L 1005.917129 524.0057 
L 1006.84766 482.36557 
L 1007.77819 489.670564 
L 1008.708721 428.076022 
L 1009.639251 534.818368 
L 1010.569782 563.051418 
L 1011.500312 524.028085 
L 1011.500312 524.028085 
" style="fill:none;stroke:#1f77b4;stroke-linecap:round;"/>
   </g>
   <g id="patch_8">
    <path d="M 35.420313 666.278125 
L 35.420313 369.718125 
" style="fill:none;stroke:#cccccc;stroke-linecap:square;stroke-linejoin:miter;stroke-width:0.8;"/>
   </g>
   <g id="patch_9">
    <path d="M 1057.980313 666.278125 
L 1057.980313 369.718125 
" style="fill:none;stroke:#cccccc;stroke-linecap:square;stroke-linejoin:miter;stroke-width:0.8;"/>
   </g>
   <g id="patch_10">
    <path d="M 35.420313 666.278125 
L 1057.980313 666.278125 
" style="fill:none;stroke:#cccccc;stroke-linecap:square;stroke-linejoin:miter;stroke-width:0.8;"/>
   </g>
   <g id="patch_11">
    <path d="M 35.420313 369.718125 
L 1057.980313 369.718125 
" style="fill:none;stroke:#cccccc;stroke-linecap:square;stroke-linejoin:miter;stroke-width:0.8;"/>
   </g>
   <g id="text_34">
    <!-- Latent Space Sample 2 -->
    <g style="fill:#262626;" transform="translate(477.159375 363.718125)scale(0.12 -0.12)">
     <use xlink:href="#DejaVuSans-76"/>
     <use x="55.712891" xlink:href="#DejaVuSans-97"/>
     <use x="116.992188" xlink:href="#DejaVuSans-116"/>
     <use x="156.201172" xlink:href="#DejaVuSans-101"/>
     <use x="217.724609" xlink:href="#DejaVuSans-110"/>
     <use x="281.103516" xlink:href="#DejaVuSans-116"/>
     <use x="320.3125" xlink:href="#DejaVuSans-32"/>
     <use x="352.099609" xlink:href="#DejaVuSans-83"/>
     <use x="415.576172" xlink:href="#DejaVuSans-112"/>
     <use x="479.052734" xlink:href="#DejaVuSans-97"/>
     <use x="540.332031" xlink:href="#DejaVuSans-99"/>
     <use x="595.3125" xlink:href="#DejaVuSans-101"/>
     <use x="656.835938" xlink:href="#DejaVuSans-32"/>
     <use x="688.623047" xlink:href="#DejaVuSans-83"/>
     <use x="752.099609" xlink:href="#DejaVuSans-97"/>
     <use x="813.378906" xlink:href="#DejaVuSans-109"/>
     <use x="910.791016" xlink:href="#DejaVuSans-112"/>
     <use x="974.267578" xlink:href="#DejaVuSans-108"/>
     <use x="1002.050781" xlink:href="#DejaVuSans-101"/>
     <use x="1063.574219" xlink:href="#DejaVuSans-32"/>
     <use x="1095.361328" xlink:href="#DejaVuSans-50"/>
    </g>
   </g>
  </g>
 </g>
 <defs>
  <clipPath id="p68cba5789b">
   <rect height="296.56" width="1022.56" x="35.420313" y="15.118125"/>
  </clipPath>
  <clipPath id="p65eb4216cc">
   <rect height="296.56" width="1022.56" x="35.420313" y="369.718125"/>
  </clipPath>
 </defs>
</svg>
