<?xml version="1.0" encoding="utf-8" standalone="no"?>
<!DOCTYPE svg PUBLIC "-//W3C//DTD SVG 1.1//EN"
  "http://www.w3.org/Graphics/SVG/1.1/DTD/svg11.dtd">
<!-- Created with matplotlib (https://matplotlib.org/) -->
<svg height="378.114375pt" version="1.1" viewBox="0 0 736.832812 378.114375" width="736.832812pt" xmlns="http://www.w3.org/2000/svg" xmlns:xlink="http://www.w3.org/1999/xlink">
 <metadata>
  <rdf:RDF xmlns:cc="http://creativecommons.org/ns#" xmlns:dc="http://purl.org/dc/elements/1.1/" xmlns:rdf="http://www.w3.org/1999/02/22-rdf-syntax-ns#">
   <cc:Work>
    <dc:type rdf:resource="http://purl.org/dc/dcmitype/StillImage"/>
    <dc:date>2023-12-06T11:47:13.920495</dc:date>
    <dc:format>image/svg+xml</dc:format>
    <dc:creator>
     <cc:Agent>
      <dc:title>Matplotlib v3.3.4, https://matplotlib.org/</dc:title>
     </cc:Agent>
    </dc:creator>
   </cc:Work>
  </rdf:RDF>
 </metadata>
 <defs>
  <style type="text/css">*{stroke-linecap:butt;stroke-linejoin:round;}</style>
 </defs>
 <g id="figure_1">
  <g id="patch_1">
   <path d="M 0 378.114375 
L 736.832812 378.114375 
L 736.832812 0 
L 0 0 
z
" style="fill:none;"/>
  </g>
  <g id="axes_1">
   <g id="patch_2">
    <path d="M 67.232812 347.758125 
L 371.596449 347.758125 
L 371.596449 15.118125 
L 67.232812 15.118125 
z
" style="fill:none;"/>
   </g>
   <g id="matplotlib.axis_1">
    <g id="xtick_1">
     <g id="line2d_1">
      <path clip-path="url(#p373fec29b6)" d="M 81.067523 347.758125 
L 81.067523 15.118125 
" style="fill:none;stroke:#cccccc;stroke-linecap:round;stroke-width:0.8;"/>
     </g>
     <g id="text_1">
      <!-- 0 -->
      <g style="fill:#262626;" transform="translate(77.886273 362.356562)scale(0.1 -0.1)">
       <defs>
        <path d="M 31.78125 66.40625 
Q 24.171875 66.40625 20.328125 58.90625 
Q 16.5 51.421875 16.5 36.375 
Q 16.5 21.390625 20.328125 13.890625 
Q 24.171875 6.390625 31.78125 6.390625 
Q 39.453125 6.390625 43.28125 13.890625 
Q 47.125 21.390625 47.125 36.375 
Q 47.125 51.421875 43.28125 58.90625 
Q 39.453125 66.40625 31.78125 66.40625 
z
M 31.78125 74.21875 
Q 44.046875 74.21875 50.515625 64.515625 
Q 56.984375 54.828125 56.984375 36.375 
Q 56.984375 17.96875 50.515625 8.265625 
Q 44.046875 -1.421875 31.78125 -1.421875 
Q 19.53125 -1.421875 13.0625 8.265625 
Q 6.59375 17.96875 6.59375 36.375 
Q 6.59375 54.828125 13.0625 64.515625 
Q 19.53125 74.21875 31.78125 74.21875 
z
" id="DejaVuSans-48"/>
       </defs>
       <use xlink:href="#DejaVuSans-48"/>
      </g>
     </g>
    </g>
    <g id="xtick_2">
     <g id="line2d_2">
      <path clip-path="url(#p373fec29b6)" d="M 127.337459 347.758125 
L 127.337459 15.118125 
" style="fill:none;stroke:#cccccc;stroke-linecap:round;stroke-width:0.8;"/>
     </g>
     <g id="text_2">
      <!-- 50 -->
      <g style="fill:#262626;" transform="translate(120.974959 362.356562)scale(0.1 -0.1)">
       <defs>
        <path d="M 10.796875 72.90625 
L 49.515625 72.90625 
L 49.515625 64.59375 
L 19.828125 64.59375 
L 19.828125 46.734375 
Q 21.96875 47.46875 24.109375 47.828125 
Q 26.265625 48.1875 28.421875 48.1875 
Q 40.625 48.1875 47.75 41.5 
Q 54.890625 34.8125 54.890625 23.390625 
Q 54.890625 11.625 47.5625 5.09375 
Q 40.234375 -1.421875 26.90625 -1.421875 
Q 22.3125 -1.421875 17.546875 -0.640625 
Q 12.796875 0.140625 7.71875 1.703125 
L 7.71875 11.625 
Q 12.109375 9.234375 16.796875 8.0625 
Q 21.484375 6.890625 26.703125 6.890625 
Q 35.15625 6.890625 40.078125 11.328125 
Q 45.015625 15.765625 45.015625 23.390625 
Q 45.015625 31 40.078125 35.4375 
Q 35.15625 39.890625 26.703125 39.890625 
Q 22.75 39.890625 18.8125 39.015625 
Q 14.890625 38.140625 10.796875 36.28125 
z
" id="DejaVuSans-53"/>
       </defs>
       <use xlink:href="#DejaVuSans-53"/>
       <use x="63.623047" xlink:href="#DejaVuSans-48"/>
      </g>
     </g>
    </g>
    <g id="xtick_3">
     <g id="line2d_3">
      <path clip-path="url(#p373fec29b6)" d="M 173.607394 347.758125 
L 173.607394 15.118125 
" style="fill:none;stroke:#cccccc;stroke-linecap:round;stroke-width:0.8;"/>
     </g>
     <g id="text_3">
      <!-- 100 -->
      <g style="fill:#262626;" transform="translate(164.063644 362.356562)scale(0.1 -0.1)">
       <defs>
        <path d="M 12.40625 8.296875 
L 28.515625 8.296875 
L 28.515625 63.921875 
L 10.984375 60.40625 
L 10.984375 69.390625 
L 28.421875 72.90625 
L 38.28125 72.90625 
L 38.28125 8.296875 
L 54.390625 8.296875 
L 54.390625 0 
L 12.40625 0 
z
" id="DejaVuSans-49"/>
       </defs>
       <use xlink:href="#DejaVuSans-49"/>
       <use x="63.623047" xlink:href="#DejaVuSans-48"/>
       <use x="127.246094" xlink:href="#DejaVuSans-48"/>
      </g>
     </g>
    </g>
    <g id="xtick_4">
     <g id="line2d_4">
      <path clip-path="url(#p373fec29b6)" d="M 219.87733 347.758125 
L 219.87733 15.118125 
" style="fill:none;stroke:#cccccc;stroke-linecap:round;stroke-width:0.8;"/>
     </g>
     <g id="text_4">
      <!-- 150 -->
      <g style="fill:#262626;" transform="translate(210.33358 362.356562)scale(0.1 -0.1)">
       <use xlink:href="#DejaVuSans-49"/>
       <use x="63.623047" xlink:href="#DejaVuSans-53"/>
       <use x="127.246094" xlink:href="#DejaVuSans-48"/>
      </g>
     </g>
    </g>
    <g id="xtick_5">
     <g id="line2d_5">
      <path clip-path="url(#p373fec29b6)" d="M 266.147266 347.758125 
L 266.147266 15.118125 
" style="fill:none;stroke:#cccccc;stroke-linecap:round;stroke-width:0.8;"/>
     </g>
     <g id="text_5">
      <!-- 200 -->
      <g style="fill:#262626;" transform="translate(256.603516 362.356562)scale(0.1 -0.1)">
       <defs>
        <path d="M 19.1875 8.296875 
L 53.609375 8.296875 
L 53.609375 0 
L 7.328125 0 
L 7.328125 8.296875 
Q 12.9375 14.109375 22.625 23.890625 
Q 32.328125 33.6875 34.8125 36.53125 
Q 39.546875 41.84375 41.421875 45.53125 
Q 43.3125 49.21875 43.3125 52.78125 
Q 43.3125 58.59375 39.234375 62.25 
Q 35.15625 65.921875 28.609375 65.921875 
Q 23.96875 65.921875 18.8125 64.3125 
Q 13.671875 62.703125 7.8125 59.421875 
L 7.8125 69.390625 
Q 13.765625 71.78125 18.9375 73 
Q 24.125 74.21875 28.421875 74.21875 
Q 39.75 74.21875 46.484375 68.546875 
Q 53.21875 62.890625 53.21875 53.421875 
Q 53.21875 48.921875 51.53125 44.890625 
Q 49.859375 40.875 45.40625 35.40625 
Q 44.1875 33.984375 37.640625 27.21875 
Q 31.109375 20.453125 19.1875 8.296875 
z
" id="DejaVuSans-50"/>
       </defs>
       <use xlink:href="#DejaVuSans-50"/>
       <use x="63.623047" xlink:href="#DejaVuSans-48"/>
       <use x="127.246094" xlink:href="#DejaVuSans-48"/>
      </g>
     </g>
    </g>
    <g id="xtick_6">
     <g id="line2d_6">
      <path clip-path="url(#p373fec29b6)" d="M 312.417201 347.758125 
L 312.417201 15.118125 
" style="fill:none;stroke:#cccccc;stroke-linecap:round;stroke-width:0.8;"/>
     </g>
     <g id="text_6">
      <!-- 250 -->
      <g style="fill:#262626;" transform="translate(302.873451 362.356562)scale(0.1 -0.1)">
       <use xlink:href="#DejaVuSans-50"/>
       <use x="63.623047" xlink:href="#DejaVuSans-53"/>
       <use x="127.246094" xlink:href="#DejaVuSans-48"/>
      </g>
     </g>
    </g>
    <g id="xtick_7">
     <g id="line2d_7">
      <path clip-path="url(#p373fec29b6)" d="M 358.687137 347.758125 
L 358.687137 15.118125 
" style="fill:none;stroke:#cccccc;stroke-linecap:round;stroke-width:0.8;"/>
     </g>
     <g id="text_7">
      <!-- 300 -->
      <g style="fill:#262626;" transform="translate(349.143387 362.356562)scale(0.1 -0.1)">
       <defs>
        <path d="M 40.578125 39.3125 
Q 47.65625 37.796875 51.625 33 
Q 55.609375 28.21875 55.609375 21.1875 
Q 55.609375 10.40625 48.1875 4.484375 
Q 40.765625 -1.421875 27.09375 -1.421875 
Q 22.515625 -1.421875 17.65625 -0.515625 
Q 12.796875 0.390625 7.625 2.203125 
L 7.625 11.71875 
Q 11.71875 9.328125 16.59375 8.109375 
Q 21.484375 6.890625 26.8125 6.890625 
Q 36.078125 6.890625 40.9375 10.546875 
Q 45.796875 14.203125 45.796875 21.1875 
Q 45.796875 27.640625 41.28125 31.265625 
Q 36.765625 34.90625 28.71875 34.90625 
L 20.21875 34.90625 
L 20.21875 43.015625 
L 29.109375 43.015625 
Q 36.375 43.015625 40.234375 45.921875 
Q 44.09375 48.828125 44.09375 54.296875 
Q 44.09375 59.90625 40.109375 62.90625 
Q 36.140625 65.921875 28.71875 65.921875 
Q 24.65625 65.921875 20.015625 65.03125 
Q 15.375 64.15625 9.8125 62.3125 
L 9.8125 71.09375 
Q 15.4375 72.65625 20.34375 73.4375 
Q 25.25 74.21875 29.59375 74.21875 
Q 40.828125 74.21875 47.359375 69.109375 
Q 53.90625 64.015625 53.90625 55.328125 
Q 53.90625 49.265625 50.4375 45.09375 
Q 46.96875 40.921875 40.578125 39.3125 
z
" id="DejaVuSans-51"/>
       </defs>
       <use xlink:href="#DejaVuSans-51"/>
       <use x="63.623047" xlink:href="#DejaVuSans-48"/>
       <use x="127.246094" xlink:href="#DejaVuSans-48"/>
      </g>
     </g>
    </g>
    <g id="text_8">
     <!-- Epochs -->
     <g style="fill:#262626;" transform="translate(201.499006 376.034688)scale(0.1 -0.1)">
      <defs>
       <path d="M 9.8125 72.90625 
L 55.90625 72.90625 
L 55.90625 64.59375 
L 19.671875 64.59375 
L 19.671875 43.015625 
L 54.390625 43.015625 
L 54.390625 34.71875 
L 19.671875 34.71875 
L 19.671875 8.296875 
L 56.78125 8.296875 
L 56.78125 0 
L 9.8125 0 
z
" id="DejaVuSans-69"/>
       <path d="M 18.109375 8.203125 
L 18.109375 -20.796875 
L 9.078125 -20.796875 
L 9.078125 54.6875 
L 18.109375 54.6875 
L 18.109375 46.390625 
Q 20.953125 51.265625 25.265625 53.625 
Q 29.59375 56 35.59375 56 
Q 45.5625 56 51.78125 48.09375 
Q 58.015625 40.1875 58.015625 27.296875 
Q 58.015625 14.40625 51.78125 6.484375 
Q 45.5625 -1.421875 35.59375 -1.421875 
Q 29.59375 -1.421875 25.265625 0.953125 
Q 20.953125 3.328125 18.109375 8.203125 
z
M 48.6875 27.296875 
Q 48.6875 37.203125 44.609375 42.84375 
Q 40.53125 48.484375 33.40625 48.484375 
Q 26.265625 48.484375 22.1875 42.84375 
Q 18.109375 37.203125 18.109375 27.296875 
Q 18.109375 17.390625 22.1875 11.75 
Q 26.265625 6.109375 33.40625 6.109375 
Q 40.53125 6.109375 44.609375 11.75 
Q 48.6875 17.390625 48.6875 27.296875 
z
" id="DejaVuSans-112"/>
       <path d="M 30.609375 48.390625 
Q 23.390625 48.390625 19.1875 42.75 
Q 14.984375 37.109375 14.984375 27.296875 
Q 14.984375 17.484375 19.15625 11.84375 
Q 23.34375 6.203125 30.609375 6.203125 
Q 37.796875 6.203125 41.984375 11.859375 
Q 46.1875 17.53125 46.1875 27.296875 
Q 46.1875 37.015625 41.984375 42.703125 
Q 37.796875 48.390625 30.609375 48.390625 
z
M 30.609375 56 
Q 42.328125 56 49.015625 48.375 
Q 55.71875 40.765625 55.71875 27.296875 
Q 55.71875 13.875 49.015625 6.21875 
Q 42.328125 -1.421875 30.609375 -1.421875 
Q 18.84375 -1.421875 12.171875 6.21875 
Q 5.515625 13.875 5.515625 27.296875 
Q 5.515625 40.765625 12.171875 48.375 
Q 18.84375 56 30.609375 56 
z
" id="DejaVuSans-111"/>
       <path d="M 48.78125 52.59375 
L 48.78125 44.1875 
Q 44.96875 46.296875 41.140625 47.34375 
Q 37.3125 48.390625 33.40625 48.390625 
Q 24.65625 48.390625 19.8125 42.84375 
Q 14.984375 37.3125 14.984375 27.296875 
Q 14.984375 17.28125 19.8125 11.734375 
Q 24.65625 6.203125 33.40625 6.203125 
Q 37.3125 6.203125 41.140625 7.25 
Q 44.96875 8.296875 48.78125 10.40625 
L 48.78125 2.09375 
Q 45.015625 0.34375 40.984375 -0.53125 
Q 36.96875 -1.421875 32.421875 -1.421875 
Q 20.0625 -1.421875 12.78125 6.34375 
Q 5.515625 14.109375 5.515625 27.296875 
Q 5.515625 40.671875 12.859375 48.328125 
Q 20.21875 56 33.015625 56 
Q 37.15625 56 41.109375 55.140625 
Q 45.0625 54.296875 48.78125 52.59375 
z
" id="DejaVuSans-99"/>
       <path d="M 54.890625 33.015625 
L 54.890625 0 
L 45.90625 0 
L 45.90625 32.71875 
Q 45.90625 40.484375 42.875 44.328125 
Q 39.84375 48.1875 33.796875 48.1875 
Q 26.515625 48.1875 22.3125 43.546875 
Q 18.109375 38.921875 18.109375 30.90625 
L 18.109375 0 
L 9.078125 0 
L 9.078125 75.984375 
L 18.109375 75.984375 
L 18.109375 46.1875 
Q 21.34375 51.125 25.703125 53.5625 
Q 30.078125 56 35.796875 56 
Q 45.21875 56 50.046875 50.171875 
Q 54.890625 44.34375 54.890625 33.015625 
z
" id="DejaVuSans-104"/>
       <path d="M 44.28125 53.078125 
L 44.28125 44.578125 
Q 40.484375 46.53125 36.375 47.5 
Q 32.28125 48.484375 27.875 48.484375 
Q 21.1875 48.484375 17.84375 46.4375 
Q 14.5 44.390625 14.5 40.28125 
Q 14.5 37.15625 16.890625 35.375 
Q 19.28125 33.59375 26.515625 31.984375 
L 29.59375 31.296875 
Q 39.15625 29.25 43.1875 25.515625 
Q 47.21875 21.78125 47.21875 15.09375 
Q 47.21875 7.46875 41.1875 3.015625 
Q 35.15625 -1.421875 24.609375 -1.421875 
Q 20.21875 -1.421875 15.453125 -0.5625 
Q 10.6875 0.296875 5.421875 2 
L 5.421875 11.28125 
Q 10.40625 8.6875 15.234375 7.390625 
Q 20.0625 6.109375 24.8125 6.109375 
Q 31.15625 6.109375 34.5625 8.28125 
Q 37.984375 10.453125 37.984375 14.40625 
Q 37.984375 18.0625 35.515625 20.015625 
Q 33.0625 21.96875 24.703125 23.78125 
L 21.578125 24.515625 
Q 13.234375 26.265625 9.515625 29.90625 
Q 5.8125 33.546875 5.8125 39.890625 
Q 5.8125 47.609375 11.28125 51.796875 
Q 16.75 56 26.8125 56 
Q 31.78125 56 36.171875 55.265625 
Q 40.578125 54.546875 44.28125 53.078125 
z
" id="DejaVuSans-115"/>
      </defs>
      <use xlink:href="#DejaVuSans-69"/>
      <use x="63.183594" xlink:href="#DejaVuSans-112"/>
      <use x="126.660156" xlink:href="#DejaVuSans-111"/>
      <use x="187.841797" xlink:href="#DejaVuSans-99"/>
      <use x="242.822266" xlink:href="#DejaVuSans-104"/>
      <use x="306.201172" xlink:href="#DejaVuSans-115"/>
     </g>
    </g>
   </g>
   <g id="matplotlib.axis_2">
    <g id="ytick_1">
     <g id="line2d_8">
      <path clip-path="url(#p373fec29b6)" d="M 67.232812 320.610844 
L 371.596449 320.610844 
" style="fill:none;stroke:#cccccc;stroke-linecap:round;stroke-width:0.8;"/>
     </g>
     <g id="text_9">
      <!-- −150000 -->
      <g style="fill:#262626;" transform="translate(13.678125 324.410063)scale(0.1 -0.1)">
       <defs>
        <path d="M 10.59375 35.5 
L 73.1875 35.5 
L 73.1875 27.203125 
L 10.59375 27.203125 
z
" id="DejaVuSans-8722"/>
       </defs>
       <use xlink:href="#DejaVuSans-8722"/>
       <use x="83.789062" xlink:href="#DejaVuSans-49"/>
       <use x="147.412109" xlink:href="#DejaVuSans-53"/>
       <use x="211.035156" xlink:href="#DejaVuSans-48"/>
       <use x="274.658203" xlink:href="#DejaVuSans-48"/>
       <use x="338.28125" xlink:href="#DejaVuSans-48"/>
       <use x="401.904297" xlink:href="#DejaVuSans-48"/>
      </g>
     </g>
    </g>
    <g id="ytick_2">
     <g id="line2d_9">
      <path clip-path="url(#p373fec29b6)" d="M 67.232812 280.386905 
L 371.596449 280.386905 
" style="fill:none;stroke:#cccccc;stroke-linecap:round;stroke-width:0.8;"/>
     </g>
     <g id="text_10">
      <!-- −140000 -->
      <g style="fill:#262626;" transform="translate(13.678125 284.186124)scale(0.1 -0.1)">
       <defs>
        <path d="M 37.796875 64.3125 
L 12.890625 25.390625 
L 37.796875 25.390625 
z
M 35.203125 72.90625 
L 47.609375 72.90625 
L 47.609375 25.390625 
L 58.015625 25.390625 
L 58.015625 17.1875 
L 47.609375 17.1875 
L 47.609375 0 
L 37.796875 0 
L 37.796875 17.1875 
L 4.890625 17.1875 
L 4.890625 26.703125 
z
" id="DejaVuSans-52"/>
       </defs>
       <use xlink:href="#DejaVuSans-8722"/>
       <use x="83.789062" xlink:href="#DejaVuSans-49"/>
       <use x="147.412109" xlink:href="#DejaVuSans-52"/>
       <use x="211.035156" xlink:href="#DejaVuSans-48"/>
       <use x="274.658203" xlink:href="#DejaVuSans-48"/>
       <use x="338.28125" xlink:href="#DejaVuSans-48"/>
       <use x="401.904297" xlink:href="#DejaVuSans-48"/>
      </g>
     </g>
    </g>
    <g id="ytick_3">
     <g id="line2d_10">
      <path clip-path="url(#p373fec29b6)" d="M 67.232812 240.162966 
L 371.596449 240.162966 
" style="fill:none;stroke:#cccccc;stroke-linecap:round;stroke-width:0.8;"/>
     </g>
     <g id="text_11">
      <!-- −130000 -->
      <g style="fill:#262626;" transform="translate(13.678125 243.962185)scale(0.1 -0.1)">
       <use xlink:href="#DejaVuSans-8722"/>
       <use x="83.789062" xlink:href="#DejaVuSans-49"/>
       <use x="147.412109" xlink:href="#DejaVuSans-51"/>
       <use x="211.035156" xlink:href="#DejaVuSans-48"/>
       <use x="274.658203" xlink:href="#DejaVuSans-48"/>
       <use x="338.28125" xlink:href="#DejaVuSans-48"/>
       <use x="401.904297" xlink:href="#DejaVuSans-48"/>
      </g>
     </g>
    </g>
    <g id="ytick_4">
     <g id="line2d_11">
      <path clip-path="url(#p373fec29b6)" d="M 67.232812 199.939027 
L 371.596449 199.939027 
" style="fill:none;stroke:#cccccc;stroke-linecap:round;stroke-width:0.8;"/>
     </g>
     <g id="text_12">
      <!-- −120000 -->
      <g style="fill:#262626;" transform="translate(13.678125 203.738246)scale(0.1 -0.1)">
       <use xlink:href="#DejaVuSans-8722"/>
       <use x="83.789062" xlink:href="#DejaVuSans-49"/>
       <use x="147.412109" xlink:href="#DejaVuSans-50"/>
       <use x="211.035156" xlink:href="#DejaVuSans-48"/>
       <use x="274.658203" xlink:href="#DejaVuSans-48"/>
       <use x="338.28125" xlink:href="#DejaVuSans-48"/>
       <use x="401.904297" xlink:href="#DejaVuSans-48"/>
      </g>
     </g>
    </g>
    <g id="ytick_5">
     <g id="line2d_12">
      <path clip-path="url(#p373fec29b6)" d="M 67.232812 159.715088 
L 371.596449 159.715088 
" style="fill:none;stroke:#cccccc;stroke-linecap:round;stroke-width:0.8;"/>
     </g>
     <g id="text_13">
      <!-- −110000 -->
      <g style="fill:#262626;" transform="translate(13.678125 163.514307)scale(0.1 -0.1)">
       <use xlink:href="#DejaVuSans-8722"/>
       <use x="83.789062" xlink:href="#DejaVuSans-49"/>
       <use x="147.412109" xlink:href="#DejaVuSans-49"/>
       <use x="211.035156" xlink:href="#DejaVuSans-48"/>
       <use x="274.658203" xlink:href="#DejaVuSans-48"/>
       <use x="338.28125" xlink:href="#DejaVuSans-48"/>
       <use x="401.904297" xlink:href="#DejaVuSans-48"/>
      </g>
     </g>
    </g>
    <g id="ytick_6">
     <g id="line2d_13">
      <path clip-path="url(#p373fec29b6)" d="M 67.232812 119.491149 
L 371.596449 119.491149 
" style="fill:none;stroke:#cccccc;stroke-linecap:round;stroke-width:0.8;"/>
     </g>
     <g id="text_14">
      <!-- −100000 -->
      <g style="fill:#262626;" transform="translate(13.678125 123.290368)scale(0.1 -0.1)">
       <use xlink:href="#DejaVuSans-8722"/>
       <use x="83.789062" xlink:href="#DejaVuSans-49"/>
       <use x="147.412109" xlink:href="#DejaVuSans-48"/>
       <use x="211.035156" xlink:href="#DejaVuSans-48"/>
       <use x="274.658203" xlink:href="#DejaVuSans-48"/>
       <use x="338.28125" xlink:href="#DejaVuSans-48"/>
       <use x="401.904297" xlink:href="#DejaVuSans-48"/>
      </g>
     </g>
    </g>
    <g id="ytick_7">
     <g id="line2d_14">
      <path clip-path="url(#p373fec29b6)" d="M 67.232812 79.26721 
L 371.596449 79.26721 
" style="fill:none;stroke:#cccccc;stroke-linecap:round;stroke-width:0.8;"/>
     </g>
     <g id="text_15">
      <!-- −90000 -->
      <g style="fill:#262626;" transform="translate(20.040625 83.066429)scale(0.1 -0.1)">
       <defs>
        <path d="M 10.984375 1.515625 
L 10.984375 10.5 
Q 14.703125 8.734375 18.5 7.8125 
Q 22.3125 6.890625 25.984375 6.890625 
Q 35.75 6.890625 40.890625 13.453125 
Q 46.046875 20.015625 46.78125 33.40625 
Q 43.953125 29.203125 39.59375 26.953125 
Q 35.25 24.703125 29.984375 24.703125 
Q 19.046875 24.703125 12.671875 31.3125 
Q 6.296875 37.9375 6.296875 49.421875 
Q 6.296875 60.640625 12.9375 67.421875 
Q 19.578125 74.21875 30.609375 74.21875 
Q 43.265625 74.21875 49.921875 64.515625 
Q 56.59375 54.828125 56.59375 36.375 
Q 56.59375 19.140625 48.40625 8.859375 
Q 40.234375 -1.421875 26.421875 -1.421875 
Q 22.703125 -1.421875 18.890625 -0.6875 
Q 15.09375 0.046875 10.984375 1.515625 
z
M 30.609375 32.421875 
Q 37.25 32.421875 41.125 36.953125 
Q 45.015625 41.5 45.015625 49.421875 
Q 45.015625 57.28125 41.125 61.84375 
Q 37.25 66.40625 30.609375 66.40625 
Q 23.96875 66.40625 20.09375 61.84375 
Q 16.21875 57.28125 16.21875 49.421875 
Q 16.21875 41.5 20.09375 36.953125 
Q 23.96875 32.421875 30.609375 32.421875 
z
" id="DejaVuSans-57"/>
       </defs>
       <use xlink:href="#DejaVuSans-8722"/>
       <use x="83.789062" xlink:href="#DejaVuSans-57"/>
       <use x="147.412109" xlink:href="#DejaVuSans-48"/>
       <use x="211.035156" xlink:href="#DejaVuSans-48"/>
       <use x="274.658203" xlink:href="#DejaVuSans-48"/>
       <use x="338.28125" xlink:href="#DejaVuSans-48"/>
      </g>
     </g>
    </g>
    <g id="ytick_8">
     <g id="line2d_15">
      <path clip-path="url(#p373fec29b6)" d="M 67.232812 39.043271 
L 371.596449 39.043271 
" style="fill:none;stroke:#cccccc;stroke-linecap:round;stroke-width:0.8;"/>
     </g>
     <g id="text_16">
      <!-- −80000 -->
      <g style="fill:#262626;" transform="translate(20.040625 42.84249)scale(0.1 -0.1)">
       <defs>
        <path d="M 31.78125 34.625 
Q 24.75 34.625 20.71875 30.859375 
Q 16.703125 27.09375 16.703125 20.515625 
Q 16.703125 13.921875 20.71875 10.15625 
Q 24.75 6.390625 31.78125 6.390625 
Q 38.8125 6.390625 42.859375 10.171875 
Q 46.921875 13.96875 46.921875 20.515625 
Q 46.921875 27.09375 42.890625 30.859375 
Q 38.875 34.625 31.78125 34.625 
z
M 21.921875 38.8125 
Q 15.578125 40.375 12.03125 44.71875 
Q 8.5 49.078125 8.5 55.328125 
Q 8.5 64.0625 14.71875 69.140625 
Q 20.953125 74.21875 31.78125 74.21875 
Q 42.671875 74.21875 48.875 69.140625 
Q 55.078125 64.0625 55.078125 55.328125 
Q 55.078125 49.078125 51.53125 44.71875 
Q 48 40.375 41.703125 38.8125 
Q 48.828125 37.15625 52.796875 32.3125 
Q 56.78125 27.484375 56.78125 20.515625 
Q 56.78125 9.90625 50.3125 4.234375 
Q 43.84375 -1.421875 31.78125 -1.421875 
Q 19.734375 -1.421875 13.25 4.234375 
Q 6.78125 9.90625 6.78125 20.515625 
Q 6.78125 27.484375 10.78125 32.3125 
Q 14.796875 37.15625 21.921875 38.8125 
z
M 18.3125 54.390625 
Q 18.3125 48.734375 21.84375 45.5625 
Q 25.390625 42.390625 31.78125 42.390625 
Q 38.140625 42.390625 41.71875 45.5625 
Q 45.3125 48.734375 45.3125 54.390625 
Q 45.3125 60.0625 41.71875 63.234375 
Q 38.140625 66.40625 31.78125 66.40625 
Q 25.390625 66.40625 21.84375 63.234375 
Q 18.3125 60.0625 18.3125 54.390625 
z
" id="DejaVuSans-56"/>
       </defs>
       <use xlink:href="#DejaVuSans-8722"/>
       <use x="83.789062" xlink:href="#DejaVuSans-56"/>
       <use x="147.412109" xlink:href="#DejaVuSans-48"/>
       <use x="211.035156" xlink:href="#DejaVuSans-48"/>
       <use x="274.658203" xlink:href="#DejaVuSans-48"/>
       <use x="338.28125" xlink:href="#DejaVuSans-48"/>
      </g>
     </g>
    </g>
    <g id="text_17">
     <!-- ELBO -->
     <g style="fill:#262626;" transform="translate(7.598437 194.662344)rotate(-90)scale(0.1 -0.1)">
      <defs>
       <path d="M 9.8125 72.90625 
L 19.671875 72.90625 
L 19.671875 8.296875 
L 55.171875 8.296875 
L 55.171875 0 
L 9.8125 0 
z
" id="DejaVuSans-76"/>
       <path d="M 19.671875 34.8125 
L 19.671875 8.109375 
L 35.5 8.109375 
Q 43.453125 8.109375 47.28125 11.40625 
Q 51.125 14.703125 51.125 21.484375 
Q 51.125 28.328125 47.28125 31.5625 
Q 43.453125 34.8125 35.5 34.8125 
z
M 19.671875 64.796875 
L 19.671875 42.828125 
L 34.28125 42.828125 
Q 41.5 42.828125 45.03125 45.53125 
Q 48.578125 48.25 48.578125 53.8125 
Q 48.578125 59.328125 45.03125 62.0625 
Q 41.5 64.796875 34.28125 64.796875 
z
M 9.8125 72.90625 
L 35.015625 72.90625 
Q 46.296875 72.90625 52.390625 68.21875 
Q 58.5 63.53125 58.5 54.890625 
Q 58.5 48.1875 55.375 44.234375 
Q 52.25 40.28125 46.1875 39.3125 
Q 53.46875 37.75 57.5 32.78125 
Q 61.53125 27.828125 61.53125 20.40625 
Q 61.53125 10.640625 54.890625 5.3125 
Q 48.25 0 35.984375 0 
L 9.8125 0 
z
" id="DejaVuSans-66"/>
       <path d="M 39.40625 66.21875 
Q 28.65625 66.21875 22.328125 58.203125 
Q 16.015625 50.203125 16.015625 36.375 
Q 16.015625 22.609375 22.328125 14.59375 
Q 28.65625 6.59375 39.40625 6.59375 
Q 50.140625 6.59375 56.421875 14.59375 
Q 62.703125 22.609375 62.703125 36.375 
Q 62.703125 50.203125 56.421875 58.203125 
Q 50.140625 66.21875 39.40625 66.21875 
z
M 39.40625 74.21875 
Q 54.734375 74.21875 63.90625 63.9375 
Q 73.09375 53.65625 73.09375 36.375 
Q 73.09375 19.140625 63.90625 8.859375 
Q 54.734375 -1.421875 39.40625 -1.421875 
Q 24.03125 -1.421875 14.8125 8.828125 
Q 5.609375 19.09375 5.609375 36.375 
Q 5.609375 53.65625 14.8125 63.9375 
Q 24.03125 74.21875 39.40625 74.21875 
z
" id="DejaVuSans-79"/>
      </defs>
      <use xlink:href="#DejaVuSans-69"/>
      <use x="63.183594" xlink:href="#DejaVuSans-76"/>
      <use x="118.896484" xlink:href="#DejaVuSans-66"/>
      <use x="185.75" xlink:href="#DejaVuSans-79"/>
     </g>
    </g>
   </g>
   <g id="line2d_16">
    <path clip-path="url(#p373fec29b6)" d="M 81.067523 332.638125 
L 81.992922 200.50333 
L 82.918321 163.119054 
L 83.843719 142.437483 
L 84.769118 129.664682 
L 85.694517 119.71111 
L 86.619916 111.309948 
L 87.545314 104.159298 
L 88.470713 98.216776 
L 89.396112 93.529234 
L 90.32151 89.673156 
L 92.172308 83.34148 
L 93.097706 80.59801 
L 94.948504 76.007781 
L 96.799301 72.179436 
L 100.500896 66.339317 
L 101.426295 65.303861 
L 102.351694 63.95407 
L 105.12789 60.923639 
L 106.053288 60.16906 
L 106.978687 59.194845 
L 111.605681 55.49381 
L 114.381877 53.661785 
L 115.307276 53.212868 
L 116.232674 52.506645 
L 118.083472 51.608309 
L 119.00887 51.045321 
L 119.934269 50.727563 
L 120.859668 50.180877 
L 127.337459 47.521834 
L 129.188256 46.958654 
L 131.039054 46.25818 
L 131.964452 46.02713 
L 133.81525 45.428147 
L 140.293041 43.684705 
L 150.472427 41.542883 
L 152.323224 41.272042 
L 160.651812 39.9094 
L 168.055002 38.90526 
L 172.681996 38.410048 
L 173.607394 38.194098 
L 174.532793 38.199557 
L 175.458192 38.013581 
L 177.308989 37.870599 
L 181.935983 37.415808 
L 204.145552 35.576695 
L 207.847147 35.381033 
L 209.697944 35.214401 
L 217.101134 34.757439 
L 227.28052 34.211435 
L 230.056716 34.022157 
L 232.832912 33.946792 
L 235.609108 33.779014 
L 239.310703 33.639584 
L 242.086899 33.468671 
L 250.415488 33.141253 
L 255.042481 32.98912 
L 256.893279 32.88456 
L 258.744076 32.806666 
L 264.296468 32.639971 
L 265.221867 32.531162 
L 267.072664 32.559525 
L 268.923462 32.485246 
L 270.774259 32.340661 
L 272.625057 32.361956 
L 274.475854 32.295193 
L 277.25205 32.170328 
L 279.102848 32.139189 
L 280.028246 32.018144 
L 281.879044 32.081389 
L 292.983828 31.693802 
L 297.610822 31.582485 
L 298.536221 31.475837 
L 299.461619 31.573961 
L 305.93941 31.328209 
L 309.641005 31.274078 
L 321.671188 30.962671 
L 323.521986 30.955106 
L 326.298182 30.836065 
L 328.148979 30.834288 
L 331.850574 30.747512 
L 335.552169 30.648657 
L 343.880757 30.459121 
L 345.731555 30.449328 
L 357.761738 30.250665 
L 357.761738 30.250665 
" style="fill:none;stroke:#0047ab;stroke-linecap:round;stroke-width:1.5;"/>
   </g>
   <g id="line2d_17">
    <path clip-path="url(#p373fec29b6)" d="M 81.067523 234.516114 
L 81.992922 175.194939 
L 82.918321 150.177208 
L 83.843719 134.989047 
L 84.769118 124.310325 
L 85.694517 115.140113 
L 86.619916 109.741256 
L 87.545314 101.731259 
L 88.470713 96.20559 
L 89.396112 94.682668 
L 90.32151 90.691454 
L 91.246909 85.52031 
L 92.172308 82.789281 
L 93.097706 80.775178 
L 94.023105 79.394193 
L 94.948504 76.451419 
L 95.873903 75.107958 
L 96.799301 72.857899 
L 98.650099 72.675237 
L 99.575497 69.004006 
L 100.500896 73.330076 
L 101.426295 67.617769 
L 103.277092 64.877928 
L 104.202491 63.678786 
L 105.12789 62.947019 
L 106.053288 62.541447 
L 106.978687 60.875779 
L 107.904086 60.472836 
L 108.829485 59.836922 
L 109.754883 58.868966 
L 110.680282 60.41431 
L 111.605681 57.722885 
L 112.531079 57.312926 
L 113.456478 58.860721 
L 114.381877 55.921639 
L 115.307276 57.48393 
L 116.232674 57.169561 
L 117.158073 54.55536 
L 118.083472 54.828463 
L 119.00887 54.657731 
L 119.934269 53.622491 
L 120.859668 53.164316 
L 121.785067 53.289101 
L 122.710465 52.405738 
L 123.635864 51.702394 
L 124.561263 53.074726 
L 125.486661 52.463606 
L 126.41206 51.243644 
L 127.337459 51.029535 
L 128.262858 51.217873 
L 129.188256 49.922123 
L 130.113655 49.448247 
L 131.039054 50.853306 
L 131.964452 50.031531 
L 132.889851 48.754866 
L 133.81525 49.342607 
L 134.740649 47.99565 
L 135.666047 48.552962 
L 136.591446 49.818992 
L 137.516845 48.277998 
L 138.442243 47.935894 
L 139.367642 48.132345 
L 140.293041 48.03104 
L 141.21844 47.757134 
L 142.143838 47.344922 
L 143.069237 46.731219 
L 143.994636 46.461871 
L 144.920034 46.89722 
L 145.845433 46.073316 
L 146.770832 46.345443 
L 148.621629 45.086166 
L 149.547028 45.390117 
L 150.472427 46.061962 
L 151.397825 45.315408 
L 152.323224 45.761688 
L 153.248623 44.871733 
L 154.174021 44.737927 
L 155.09942 45.682675 
L 156.024819 44.827357 
L 156.950218 44.318565 
L 157.875616 44.093444 
L 158.801015 44.174363 
L 159.726414 45.812096 
L 160.651812 43.229278 
L 161.577211 43.59305 
L 162.50261 43.216001 
L 163.428009 43.883315 
L 164.353407 43.430318 
L 165.278806 44.080485 
L 166.204205 44.202288 
L 167.129603 43.374672 
L 168.055002 43.254291 
L 168.980401 43.649653 
L 169.9058 45.21022 
L 170.831198 42.987803 
L 171.756597 42.871675 
L 173.607394 42.846784 
L 175.458192 43.198379 
L 176.383591 42.095131 
L 177.308989 43.273136 
L 178.234388 41.890786 
L 179.159787 43.188725 
L 180.085185 44.065987 
L 181.010584 42.069602 
L 181.935983 43.29675 
L 182.861382 43.241889 
L 183.78678 41.886631 
L 184.712179 41.416186 
L 185.637578 42.708598 
L 186.562976 41.566604 
L 187.488375 41.860563 
L 190.264571 42.288488 
L 191.18997 40.619137 
L 192.115369 40.757159 
L 193.040767 40.459837 
L 193.966166 42.803364 
L 194.891565 41.384427 
L 195.816964 40.85609 
L 196.742362 41.111791 
L 197.667761 42.215719 
L 199.518558 40.231651 
L 200.443957 40.357756 
L 201.369356 40.863899 
L 202.294755 40.470632 
L 203.220153 41.120212 
L 204.145552 42.889217 
L 205.070951 40.705018 
L 206.921748 39.724775 
L 207.847147 40.329194 
L 209.697944 39.633837 
L 210.623343 40.202765 
L 211.548742 40.332967 
L 212.47414 39.906603 
L 213.399539 42.93947 
L 214.324938 40.262487 
L 215.250336 40.832552 
L 216.175735 40.072713 
L 217.101134 39.458592 
L 219.87733 39.518899 
L 220.802729 42.976925 
L 221.728127 40.176911 
L 222.653526 38.91427 
L 223.578925 39.27127 
L 224.504324 39.810169 
L 225.429722 41.593336 
L 226.355121 38.769861 
L 227.28052 39.772505 
L 228.205918 39.342022 
L 229.131317 38.663237 
L 230.056716 39.029163 
L 230.982115 38.982936 
L 231.907513 39.534806 
L 232.832912 38.713563 
L 233.758311 38.924922 
L 234.683709 38.995401 
L 235.609108 38.917549 
L 236.534507 39.018178 
L 237.459906 40.753649 
L 238.385304 38.838402 
L 239.310703 39.402807 
L 240.236102 38.537047 
L 241.1615 38.399097 
L 242.086899 39.658772 
L 243.012298 39.140731 
L 244.863095 39.231573 
L 245.788494 38.89622 
L 246.713893 38.30379 
L 247.639291 38.851172 
L 248.56469 38.141583 
L 249.490089 38.358088 
L 250.415488 38.338733 
L 251.340886 38.147586 
L 252.266285 38.426908 
L 253.191684 38.267794 
L 254.117082 37.750096 
L 255.042481 39.298496 
L 255.96788 38.031973 
L 256.893279 39.232185 
L 258.744076 38.282104 
L 259.669475 41.419241 
L 260.594873 37.85003 
L 261.520272 37.48952 
L 262.445671 38.023528 
L 263.371069 37.799661 
L 264.296468 38.250844 
L 265.221867 38.419935 
L 266.147266 37.525469 
L 267.998063 37.570008 
L 268.923462 38.861969 
L 269.84886 38.202021 
L 270.774259 37.956423 
L 271.699658 37.304314 
L 272.625057 37.633455 
L 273.550455 37.737855 
L 274.475854 37.654423 
L 275.401253 37.318 
L 276.326651 38.634919 
L 277.25205 38.366647 
L 278.177449 37.796241 
L 279.102848 38.937866 
L 280.028246 37.109229 
L 280.953645 37.615895 
L 281.879044 37.006513 
L 283.729841 37.711128 
L 284.65524 37.222382 
L 285.580639 36.986898 
L 286.506037 37.048045 
L 287.431436 37.726227 
L 288.356835 37.813923 
L 289.282233 37.268644 
L 291.133031 37.121613 
L 292.05843 36.910701 
L 292.983828 37.615961 
L 293.909227 36.98569 
L 294.834626 36.973669 
L 295.760024 36.619403 
L 296.685423 37.082108 
L 297.610822 36.564443 
L 298.536221 37.219531 
L 299.461619 37.104782 
L 300.387018 36.694948 
L 301.312417 36.783556 
L 302.237815 37.113268 
L 303.163214 36.535616 
L 304.088613 37.176749 
L 305.014012 37.149664 
L 306.864809 36.610768 
L 308.715606 36.328319 
L 310.566404 37.340874 
L 311.491803 36.419348 
L 312.417201 36.880382 
L 313.3426 36.749976 
L 314.267999 37.39426 
L 315.193397 36.490348 
L 316.118796 36.895677 
L 317.044195 36.621913 
L 317.969594 37.077088 
L 318.894992 36.416142 
L 319.820391 36.374109 
L 320.74579 36.832432 
L 321.671188 36.828605 
L 322.596587 36.49666 
L 323.521986 36.302454 
L 324.447384 36.344783 
L 325.372783 36.649105 
L 326.298182 36.187544 
L 327.223581 36.135298 
L 328.148979 36.224501 
L 329.074378 37.425804 
L 329.999777 36.149435 
L 330.925175 37.104414 
L 331.850574 36.215082 
L 332.775973 36.195441 
L 333.701372 36.396779 
L 334.62677 36.798822 
L 335.552169 36.592059 
L 337.402966 36.501915 
L 338.328365 37.521015 
L 339.253764 36.308001 
L 340.179163 36.45373 
L 341.104561 36.943827 
L 342.02996 36.747351 
L 342.955359 38.722842 
L 343.880757 35.736865 
L 344.806156 36.031355 
L 345.731555 35.905333 
L 346.656954 35.653732 
L 347.582352 35.789022 
L 348.507751 35.641404 
L 349.43315 36.108359 
L 350.358548 37.070006 
L 352.209346 36.5663 
L 353.134745 35.942534 
L 354.060143 35.905831 
L 354.985542 36.545451 
L 356.836339 36.187605 
L 357.761738 35.722306 
L 357.761738 35.722306 
" style="fill:none;stroke:#ab0000;stroke-linecap:round;stroke-width:1.5;"/>
   </g>
   <g id="patch_3">
    <path d="M 67.232812 347.758125 
L 67.232812 15.118125 
" style="fill:none;stroke:#cccccc;stroke-linecap:square;stroke-linejoin:miter;stroke-width:0.8;"/>
   </g>
   <g id="patch_4">
    <path d="M 371.596449 347.758125 
L 371.596449 15.118125 
" style="fill:none;stroke:#cccccc;stroke-linecap:square;stroke-linejoin:miter;stroke-width:0.8;"/>
   </g>
   <g id="patch_5">
    <path d="M 67.232812 347.758125 
L 371.596449 347.758125 
" style="fill:none;stroke:#cccccc;stroke-linecap:square;stroke-linejoin:miter;stroke-width:0.8;"/>
   </g>
   <g id="patch_6">
    <path d="M 67.232812 15.118125 
L 371.596449 15.118125 
" style="fill:none;stroke:#cccccc;stroke-linecap:square;stroke-linejoin:miter;stroke-width:0.8;"/>
   </g>
   <g id="text_18">
    <!-- ELBO over Epochs -->
    <g style="fill:#262626;" transform="translate(164.852131 9.118125)scale(0.12 -0.12)">
     <defs>
      <path id="DejaVuSans-32"/>
      <path d="M 2.984375 54.6875 
L 12.5 54.6875 
L 29.59375 8.796875 
L 46.6875 54.6875 
L 56.203125 54.6875 
L 35.6875 0 
L 23.484375 0 
z
" id="DejaVuSans-118"/>
      <path d="M 56.203125 29.59375 
L 56.203125 25.203125 
L 14.890625 25.203125 
Q 15.484375 15.921875 20.484375 11.0625 
Q 25.484375 6.203125 34.421875 6.203125 
Q 39.59375 6.203125 44.453125 7.46875 
Q 49.3125 8.734375 54.109375 11.28125 
L 54.109375 2.78125 
Q 49.265625 0.734375 44.1875 -0.34375 
Q 39.109375 -1.421875 33.890625 -1.421875 
Q 20.796875 -1.421875 13.15625 6.1875 
Q 5.515625 13.8125 5.515625 26.8125 
Q 5.515625 40.234375 12.765625 48.109375 
Q 20.015625 56 32.328125 56 
Q 43.359375 56 49.78125 48.890625 
Q 56.203125 41.796875 56.203125 29.59375 
z
M 47.21875 32.234375 
Q 47.125 39.59375 43.09375 43.984375 
Q 39.0625 48.390625 32.421875 48.390625 
Q 24.90625 48.390625 20.390625 44.140625 
Q 15.875 39.890625 15.1875 32.171875 
z
" id="DejaVuSans-101"/>
      <path d="M 41.109375 46.296875 
Q 39.59375 47.171875 37.8125 47.578125 
Q 36.03125 48 33.890625 48 
Q 26.265625 48 22.1875 43.046875 
Q 18.109375 38.09375 18.109375 28.8125 
L 18.109375 0 
L 9.078125 0 
L 9.078125 54.6875 
L 18.109375 54.6875 
L 18.109375 46.1875 
Q 20.953125 51.171875 25.484375 53.578125 
Q 30.03125 56 36.53125 56 
Q 37.453125 56 38.578125 55.875 
Q 39.703125 55.765625 41.0625 55.515625 
z
" id="DejaVuSans-114"/>
     </defs>
     <use xlink:href="#DejaVuSans-69"/>
     <use x="63.183594" xlink:href="#DejaVuSans-76"/>
     <use x="118.896484" xlink:href="#DejaVuSans-66"/>
     <use x="185.75" xlink:href="#DejaVuSans-79"/>
     <use x="264.460938" xlink:href="#DejaVuSans-32"/>
     <use x="296.248047" xlink:href="#DejaVuSans-111"/>
     <use x="357.429688" xlink:href="#DejaVuSans-118"/>
     <use x="416.609375" xlink:href="#DejaVuSans-101"/>
     <use x="478.132812" xlink:href="#DejaVuSans-114"/>
     <use x="519.246094" xlink:href="#DejaVuSans-32"/>
     <use x="551.033203" xlink:href="#DejaVuSans-69"/>
     <use x="614.216797" xlink:href="#DejaVuSans-112"/>
     <use x="677.693359" xlink:href="#DejaVuSans-111"/>
     <use x="738.875" xlink:href="#DejaVuSans-99"/>
     <use x="793.855469" xlink:href="#DejaVuSans-104"/>
     <use x="857.234375" xlink:href="#DejaVuSans-115"/>
    </g>
   </g>
   <g id="legend_1">
    <g id="patch_7">
     <path d="M 253.588636 342.758125 
L 364.596449 342.758125 
Q 366.596449 342.758125 366.596449 340.758125 
L 366.596449 312.401875 
Q 366.596449 310.401875 364.596449 310.401875 
L 253.588636 310.401875 
Q 251.588636 310.401875 251.588636 312.401875 
L 251.588636 340.758125 
Q 251.588636 342.758125 253.588636 342.758125 
z
" style="fill:#ffffff;opacity:0.8;stroke:#cccccc;stroke-linejoin:miter;"/>
    </g>
    <g id="line2d_18">
     <path d="M 255.588636 318.500313 
L 275.588636 318.500313 
" style="fill:none;stroke:#0047ab;stroke-linecap:round;stroke-width:1.5;"/>
    </g>
    <g id="line2d_19"/>
    <g id="text_19">
     <!-- Training ELBO -->
     <g style="fill:#262626;" transform="translate(283.588636 322.000313)scale(0.1 -0.1)">
      <defs>
       <path d="M -0.296875 72.90625 
L 61.375 72.90625 
L 61.375 64.59375 
L 35.5 64.59375 
L 35.5 0 
L 25.59375 0 
L 25.59375 64.59375 
L -0.296875 64.59375 
z
" id="DejaVuSans-84"/>
       <path d="M 34.28125 27.484375 
Q 23.390625 27.484375 19.1875 25 
Q 14.984375 22.515625 14.984375 16.5 
Q 14.984375 11.71875 18.140625 8.90625 
Q 21.296875 6.109375 26.703125 6.109375 
Q 34.1875 6.109375 38.703125 11.40625 
Q 43.21875 16.703125 43.21875 25.484375 
L 43.21875 27.484375 
z
M 52.203125 31.203125 
L 52.203125 0 
L 43.21875 0 
L 43.21875 8.296875 
Q 40.140625 3.328125 35.546875 0.953125 
Q 30.953125 -1.421875 24.3125 -1.421875 
Q 15.921875 -1.421875 10.953125 3.296875 
Q 6 8.015625 6 15.921875 
Q 6 25.140625 12.171875 29.828125 
Q 18.359375 34.515625 30.609375 34.515625 
L 43.21875 34.515625 
L 43.21875 35.40625 
Q 43.21875 41.609375 39.140625 45 
Q 35.0625 48.390625 27.6875 48.390625 
Q 23 48.390625 18.546875 47.265625 
Q 14.109375 46.140625 10.015625 43.890625 
L 10.015625 52.203125 
Q 14.9375 54.109375 19.578125 55.046875 
Q 24.21875 56 28.609375 56 
Q 40.484375 56 46.34375 49.84375 
Q 52.203125 43.703125 52.203125 31.203125 
z
" id="DejaVuSans-97"/>
       <path d="M 9.421875 54.6875 
L 18.40625 54.6875 
L 18.40625 0 
L 9.421875 0 
z
M 9.421875 75.984375 
L 18.40625 75.984375 
L 18.40625 64.59375 
L 9.421875 64.59375 
z
" id="DejaVuSans-105"/>
       <path d="M 54.890625 33.015625 
L 54.890625 0 
L 45.90625 0 
L 45.90625 32.71875 
Q 45.90625 40.484375 42.875 44.328125 
Q 39.84375 48.1875 33.796875 48.1875 
Q 26.515625 48.1875 22.3125 43.546875 
Q 18.109375 38.921875 18.109375 30.90625 
L 18.109375 0 
L 9.078125 0 
L 9.078125 54.6875 
L 18.109375 54.6875 
L 18.109375 46.1875 
Q 21.34375 51.125 25.703125 53.5625 
Q 30.078125 56 35.796875 56 
Q 45.21875 56 50.046875 50.171875 
Q 54.890625 44.34375 54.890625 33.015625 
z
" id="DejaVuSans-110"/>
       <path d="M 45.40625 27.984375 
Q 45.40625 37.75 41.375 43.109375 
Q 37.359375 48.484375 30.078125 48.484375 
Q 22.859375 48.484375 18.828125 43.109375 
Q 14.796875 37.75 14.796875 27.984375 
Q 14.796875 18.265625 18.828125 12.890625 
Q 22.859375 7.515625 30.078125 7.515625 
Q 37.359375 7.515625 41.375 12.890625 
Q 45.40625 18.265625 45.40625 27.984375 
z
M 54.390625 6.78125 
Q 54.390625 -7.171875 48.1875 -13.984375 
Q 42 -20.796875 29.203125 -20.796875 
Q 24.46875 -20.796875 20.265625 -20.09375 
Q 16.0625 -19.390625 12.109375 -17.921875 
L 12.109375 -9.1875 
Q 16.0625 -11.328125 19.921875 -12.34375 
Q 23.78125 -13.375 27.78125 -13.375 
Q 36.625 -13.375 41.015625 -8.765625 
Q 45.40625 -4.15625 45.40625 5.171875 
L 45.40625 9.625 
Q 42.625 4.78125 38.28125 2.390625 
Q 33.9375 0 27.875 0 
Q 17.828125 0 11.671875 7.65625 
Q 5.515625 15.328125 5.515625 27.984375 
Q 5.515625 40.671875 11.671875 48.328125 
Q 17.828125 56 27.875 56 
Q 33.9375 56 38.28125 53.609375 
Q 42.625 51.21875 45.40625 46.390625 
L 45.40625 54.6875 
L 54.390625 54.6875 
z
" id="DejaVuSans-103"/>
      </defs>
      <use xlink:href="#DejaVuSans-84"/>
      <use x="46.333984" xlink:href="#DejaVuSans-114"/>
      <use x="87.447266" xlink:href="#DejaVuSans-97"/>
      <use x="148.726562" xlink:href="#DejaVuSans-105"/>
      <use x="176.509766" xlink:href="#DejaVuSans-110"/>
      <use x="239.888672" xlink:href="#DejaVuSans-105"/>
      <use x="267.671875" xlink:href="#DejaVuSans-110"/>
      <use x="331.050781" xlink:href="#DejaVuSans-103"/>
      <use x="394.527344" xlink:href="#DejaVuSans-32"/>
      <use x="426.314453" xlink:href="#DejaVuSans-69"/>
      <use x="489.498047" xlink:href="#DejaVuSans-76"/>
      <use x="545.210938" xlink:href="#DejaVuSans-66"/>
      <use x="612.064453" xlink:href="#DejaVuSans-79"/>
     </g>
    </g>
    <g id="line2d_20">
     <path d="M 255.588636 333.178437 
L 275.588636 333.178437 
" style="fill:none;stroke:#ab0000;stroke-linecap:round;stroke-width:1.5;"/>
    </g>
    <g id="line2d_21"/>
    <g id="text_20">
     <!-- Validation ELBO -->
     <g style="fill:#262626;" transform="translate(283.588636 336.678437)scale(0.1 -0.1)">
      <defs>
       <path d="M 28.609375 0 
L 0.78125 72.90625 
L 11.078125 72.90625 
L 34.1875 11.53125 
L 57.328125 72.90625 
L 67.578125 72.90625 
L 39.796875 0 
z
" id="DejaVuSans-86"/>
       <path d="M 9.421875 75.984375 
L 18.40625 75.984375 
L 18.40625 0 
L 9.421875 0 
z
" id="DejaVuSans-108"/>
       <path d="M 45.40625 46.390625 
L 45.40625 75.984375 
L 54.390625 75.984375 
L 54.390625 0 
L 45.40625 0 
L 45.40625 8.203125 
Q 42.578125 3.328125 38.25 0.953125 
Q 33.9375 -1.421875 27.875 -1.421875 
Q 17.96875 -1.421875 11.734375 6.484375 
Q 5.515625 14.40625 5.515625 27.296875 
Q 5.515625 40.1875 11.734375 48.09375 
Q 17.96875 56 27.875 56 
Q 33.9375 56 38.25 53.625 
Q 42.578125 51.265625 45.40625 46.390625 
z
M 14.796875 27.296875 
Q 14.796875 17.390625 18.875 11.75 
Q 22.953125 6.109375 30.078125 6.109375 
Q 37.203125 6.109375 41.296875 11.75 
Q 45.40625 17.390625 45.40625 27.296875 
Q 45.40625 37.203125 41.296875 42.84375 
Q 37.203125 48.484375 30.078125 48.484375 
Q 22.953125 48.484375 18.875 42.84375 
Q 14.796875 37.203125 14.796875 27.296875 
z
" id="DejaVuSans-100"/>
       <path d="M 18.3125 70.21875 
L 18.3125 54.6875 
L 36.8125 54.6875 
L 36.8125 47.703125 
L 18.3125 47.703125 
L 18.3125 18.015625 
Q 18.3125 11.328125 20.140625 9.421875 
Q 21.96875 7.515625 27.59375 7.515625 
L 36.8125 7.515625 
L 36.8125 0 
L 27.59375 0 
Q 17.1875 0 13.234375 3.875 
Q 9.28125 7.765625 9.28125 18.015625 
L 9.28125 47.703125 
L 2.6875 47.703125 
L 2.6875 54.6875 
L 9.28125 54.6875 
L 9.28125 70.21875 
z
" id="DejaVuSans-116"/>
      </defs>
      <use xlink:href="#DejaVuSans-86"/>
      <use x="60.658203" xlink:href="#DejaVuSans-97"/>
      <use x="121.9375" xlink:href="#DejaVuSans-108"/>
      <use x="149.720703" xlink:href="#DejaVuSans-105"/>
      <use x="177.503906" xlink:href="#DejaVuSans-100"/>
      <use x="240.980469" xlink:href="#DejaVuSans-97"/>
      <use x="302.259766" xlink:href="#DejaVuSans-116"/>
      <use x="341.46875" xlink:href="#DejaVuSans-105"/>
      <use x="369.251953" xlink:href="#DejaVuSans-111"/>
      <use x="430.433594" xlink:href="#DejaVuSans-110"/>
      <use x="493.8125" xlink:href="#DejaVuSans-32"/>
      <use x="525.599609" xlink:href="#DejaVuSans-69"/>
      <use x="588.783203" xlink:href="#DejaVuSans-76"/>
      <use x="644.496094" xlink:href="#DejaVuSans-66"/>
      <use x="711.349609" xlink:href="#DejaVuSans-79"/>
     </g>
    </g>
   </g>
  </g>
  <g id="axes_2">
   <g id="patch_8">
    <path d="M 432.469176 347.758125 
L 736.832812 347.758125 
L 736.832812 15.118125 
L 432.469176 15.118125 
z
" style="fill:none;"/>
   </g>
   <g id="matplotlib.axis_3">
    <g id="xtick_8">
     <g id="line2d_22">
      <path clip-path="url(#p36a0cc0571)" d="M 446.303887 347.758125 
L 446.303887 15.118125 
" style="fill:none;stroke:#cccccc;stroke-linecap:round;stroke-width:0.8;"/>
     </g>
     <g id="text_21">
      <!-- 0 -->
      <g style="fill:#262626;" transform="translate(443.122637 362.356562)scale(0.1 -0.1)">
       <use xlink:href="#DejaVuSans-48"/>
      </g>
     </g>
    </g>
    <g id="xtick_9">
     <g id="line2d_23">
      <path clip-path="url(#p36a0cc0571)" d="M 492.573822 347.758125 
L 492.573822 15.118125 
" style="fill:none;stroke:#cccccc;stroke-linecap:round;stroke-width:0.8;"/>
     </g>
     <g id="text_22">
      <!-- 50 -->
      <g style="fill:#262626;" transform="translate(486.211322 362.356562)scale(0.1 -0.1)">
       <use xlink:href="#DejaVuSans-53"/>
       <use x="63.623047" xlink:href="#DejaVuSans-48"/>
      </g>
     </g>
    </g>
    <g id="xtick_10">
     <g id="line2d_24">
      <path clip-path="url(#p36a0cc0571)" d="M 538.843758 347.758125 
L 538.843758 15.118125 
" style="fill:none;stroke:#cccccc;stroke-linecap:round;stroke-width:0.8;"/>
     </g>
     <g id="text_23">
      <!-- 100 -->
      <g style="fill:#262626;" transform="translate(529.300008 362.356562)scale(0.1 -0.1)">
       <use xlink:href="#DejaVuSans-49"/>
       <use x="63.623047" xlink:href="#DejaVuSans-48"/>
       <use x="127.246094" xlink:href="#DejaVuSans-48"/>
      </g>
     </g>
    </g>
    <g id="xtick_11">
     <g id="line2d_25">
      <path clip-path="url(#p36a0cc0571)" d="M 585.113694 347.758125 
L 585.113694 15.118125 
" style="fill:none;stroke:#cccccc;stroke-linecap:round;stroke-width:0.8;"/>
     </g>
     <g id="text_24">
      <!-- 150 -->
      <g style="fill:#262626;" transform="translate(575.569944 362.356562)scale(0.1 -0.1)">
       <use xlink:href="#DejaVuSans-49"/>
       <use x="63.623047" xlink:href="#DejaVuSans-53"/>
       <use x="127.246094" xlink:href="#DejaVuSans-48"/>
      </g>
     </g>
    </g>
    <g id="xtick_12">
     <g id="line2d_26">
      <path clip-path="url(#p36a0cc0571)" d="M 631.383629 347.758125 
L 631.383629 15.118125 
" style="fill:none;stroke:#cccccc;stroke-linecap:round;stroke-width:0.8;"/>
     </g>
     <g id="text_25">
      <!-- 200 -->
      <g style="fill:#262626;" transform="translate(621.839879 362.356562)scale(0.1 -0.1)">
       <use xlink:href="#DejaVuSans-50"/>
       <use x="63.623047" xlink:href="#DejaVuSans-48"/>
       <use x="127.246094" xlink:href="#DejaVuSans-48"/>
      </g>
     </g>
    </g>
    <g id="xtick_13">
     <g id="line2d_27">
      <path clip-path="url(#p36a0cc0571)" d="M 677.653565 347.758125 
L 677.653565 15.118125 
" style="fill:none;stroke:#cccccc;stroke-linecap:round;stroke-width:0.8;"/>
     </g>
     <g id="text_26">
      <!-- 250 -->
      <g style="fill:#262626;" transform="translate(668.109815 362.356562)scale(0.1 -0.1)">
       <use xlink:href="#DejaVuSans-50"/>
       <use x="63.623047" xlink:href="#DejaVuSans-53"/>
       <use x="127.246094" xlink:href="#DejaVuSans-48"/>
      </g>
     </g>
    </g>
    <g id="xtick_14">
     <g id="line2d_28">
      <path clip-path="url(#p36a0cc0571)" d="M 723.9235 347.758125 
L 723.9235 15.118125 
" style="fill:none;stroke:#cccccc;stroke-linecap:round;stroke-width:0.8;"/>
     </g>
     <g id="text_27">
      <!-- 300 -->
      <g style="fill:#262626;" transform="translate(714.37975 362.356562)scale(0.1 -0.1)">
       <use xlink:href="#DejaVuSans-51"/>
       <use x="63.623047" xlink:href="#DejaVuSans-48"/>
       <use x="127.246094" xlink:href="#DejaVuSans-48"/>
      </g>
     </g>
    </g>
    <g id="text_28">
     <!-- Epochs -->
     <g style="fill:#262626;" transform="translate(566.735369 376.034688)scale(0.1 -0.1)">
      <use xlink:href="#DejaVuSans-69"/>
      <use x="63.183594" xlink:href="#DejaVuSans-112"/>
      <use x="126.660156" xlink:href="#DejaVuSans-111"/>
      <use x="187.841797" xlink:href="#DejaVuSans-99"/>
      <use x="242.822266" xlink:href="#DejaVuSans-104"/>
      <use x="306.201172" xlink:href="#DejaVuSans-115"/>
     </g>
    </g>
   </g>
   <g id="matplotlib.axis_4">
    <g id="ytick_9">
     <g id="line2d_29">
      <path clip-path="url(#p36a0cc0571)" d="M 432.469176 321.120636 
L 736.832812 321.120636 
" style="fill:none;stroke:#cccccc;stroke-linecap:round;stroke-width:0.8;"/>
     </g>
     <g id="text_29">
      <!-- 350 -->
      <g style="fill:#262626;" transform="translate(406.381676 324.919854)scale(0.1 -0.1)">
       <use xlink:href="#DejaVuSans-51"/>
       <use x="63.623047" xlink:href="#DejaVuSans-53"/>
       <use x="127.246094" xlink:href="#DejaVuSans-48"/>
      </g>
     </g>
    </g>
    <g id="ytick_10">
     <g id="line2d_30">
      <path clip-path="url(#p36a0cc0571)" d="M 432.469176 275.844804 
L 736.832812 275.844804 
" style="fill:none;stroke:#cccccc;stroke-linecap:round;stroke-width:0.8;"/>
     </g>
     <g id="text_30">
      <!-- 400 -->
      <g style="fill:#262626;" transform="translate(406.381676 279.644023)scale(0.1 -0.1)">
       <use xlink:href="#DejaVuSans-52"/>
       <use x="63.623047" xlink:href="#DejaVuSans-48"/>
       <use x="127.246094" xlink:href="#DejaVuSans-48"/>
      </g>
     </g>
    </g>
    <g id="ytick_11">
     <g id="line2d_31">
      <path clip-path="url(#p36a0cc0571)" d="M 432.469176 230.568972 
L 736.832812 230.568972 
" style="fill:none;stroke:#cccccc;stroke-linecap:round;stroke-width:0.8;"/>
     </g>
     <g id="text_31">
      <!-- 450 -->
      <g style="fill:#262626;" transform="translate(406.381676 234.368191)scale(0.1 -0.1)">
       <use xlink:href="#DejaVuSans-52"/>
       <use x="63.623047" xlink:href="#DejaVuSans-53"/>
       <use x="127.246094" xlink:href="#DejaVuSans-48"/>
      </g>
     </g>
    </g>
    <g id="ytick_12">
     <g id="line2d_32">
      <path clip-path="url(#p36a0cc0571)" d="M 432.469176 185.29314 
L 736.832812 185.29314 
" style="fill:none;stroke:#cccccc;stroke-linecap:round;stroke-width:0.8;"/>
     </g>
     <g id="text_32">
      <!-- 500 -->
      <g style="fill:#262626;" transform="translate(406.381676 189.092359)scale(0.1 -0.1)">
       <use xlink:href="#DejaVuSans-53"/>
       <use x="63.623047" xlink:href="#DejaVuSans-48"/>
       <use x="127.246094" xlink:href="#DejaVuSans-48"/>
      </g>
     </g>
    </g>
    <g id="ytick_13">
     <g id="line2d_33">
      <path clip-path="url(#p36a0cc0571)" d="M 432.469176 140.017309 
L 736.832812 140.017309 
" style="fill:none;stroke:#cccccc;stroke-linecap:round;stroke-width:0.8;"/>
     </g>
     <g id="text_33">
      <!-- 550 -->
      <g style="fill:#262626;" transform="translate(406.381676 143.816527)scale(0.1 -0.1)">
       <use xlink:href="#DejaVuSans-53"/>
       <use x="63.623047" xlink:href="#DejaVuSans-53"/>
       <use x="127.246094" xlink:href="#DejaVuSans-48"/>
      </g>
     </g>
    </g>
    <g id="ytick_14">
     <g id="line2d_34">
      <path clip-path="url(#p36a0cc0571)" d="M 432.469176 94.741477 
L 736.832812 94.741477 
" style="fill:none;stroke:#cccccc;stroke-linecap:round;stroke-width:0.8;"/>
     </g>
     <g id="text_34">
      <!-- 600 -->
      <g style="fill:#262626;" transform="translate(406.381676 98.540696)scale(0.1 -0.1)">
       <defs>
        <path d="M 33.015625 40.375 
Q 26.375 40.375 22.484375 35.828125 
Q 18.609375 31.296875 18.609375 23.390625 
Q 18.609375 15.53125 22.484375 10.953125 
Q 26.375 6.390625 33.015625 6.390625 
Q 39.65625 6.390625 43.53125 10.953125 
Q 47.40625 15.53125 47.40625 23.390625 
Q 47.40625 31.296875 43.53125 35.828125 
Q 39.65625 40.375 33.015625 40.375 
z
M 52.59375 71.296875 
L 52.59375 62.3125 
Q 48.875 64.0625 45.09375 64.984375 
Q 41.3125 65.921875 37.59375 65.921875 
Q 27.828125 65.921875 22.671875 59.328125 
Q 17.53125 52.734375 16.796875 39.40625 
Q 19.671875 43.65625 24.015625 45.921875 
Q 28.375 48.1875 33.59375 48.1875 
Q 44.578125 48.1875 50.953125 41.515625 
Q 57.328125 34.859375 57.328125 23.390625 
Q 57.328125 12.15625 50.6875 5.359375 
Q 44.046875 -1.421875 33.015625 -1.421875 
Q 20.359375 -1.421875 13.671875 8.265625 
Q 6.984375 17.96875 6.984375 36.375 
Q 6.984375 53.65625 15.1875 63.9375 
Q 23.390625 74.21875 37.203125 74.21875 
Q 40.921875 74.21875 44.703125 73.484375 
Q 48.484375 72.75 52.59375 71.296875 
z
" id="DejaVuSans-54"/>
       </defs>
       <use xlink:href="#DejaVuSans-54"/>
       <use x="63.623047" xlink:href="#DejaVuSans-48"/>
       <use x="127.246094" xlink:href="#DejaVuSans-48"/>
      </g>
     </g>
    </g>
    <g id="ytick_15">
     <g id="line2d_35">
      <path clip-path="url(#p36a0cc0571)" d="M 432.469176 49.465645 
L 736.832812 49.465645 
" style="fill:none;stroke:#cccccc;stroke-linecap:round;stroke-width:0.8;"/>
     </g>
     <g id="text_35">
      <!-- 650 -->
      <g style="fill:#262626;" transform="translate(406.381676 53.264864)scale(0.1 -0.1)">
       <use xlink:href="#DejaVuSans-54"/>
       <use x="63.623047" xlink:href="#DejaVuSans-53"/>
       <use x="127.246094" xlink:href="#DejaVuSans-48"/>
      </g>
     </g>
    </g>
    <g id="text_36">
     <!-- KL Divergence -->
     <g style="fill:#262626;" transform="translate(400.301989 217.580312)rotate(-90)scale(0.1 -0.1)">
      <defs>
       <path d="M 9.8125 72.90625 
L 19.671875 72.90625 
L 19.671875 42.09375 
L 52.390625 72.90625 
L 65.09375 72.90625 
L 28.90625 38.921875 
L 67.671875 0 
L 54.6875 0 
L 19.671875 35.109375 
L 19.671875 0 
L 9.8125 0 
z
" id="DejaVuSans-75"/>
       <path d="M 19.671875 64.796875 
L 19.671875 8.109375 
L 31.59375 8.109375 
Q 46.6875 8.109375 53.6875 14.9375 
Q 60.6875 21.78125 60.6875 36.53125 
Q 60.6875 51.171875 53.6875 57.984375 
Q 46.6875 64.796875 31.59375 64.796875 
z
M 9.8125 72.90625 
L 30.078125 72.90625 
Q 51.265625 72.90625 61.171875 64.09375 
Q 71.09375 55.28125 71.09375 36.53125 
Q 71.09375 17.671875 61.125 8.828125 
Q 51.171875 0 30.078125 0 
L 9.8125 0 
z
" id="DejaVuSans-68"/>
      </defs>
      <use xlink:href="#DejaVuSans-75"/>
      <use x="65.576172" xlink:href="#DejaVuSans-76"/>
      <use x="121.289062" xlink:href="#DejaVuSans-32"/>
      <use x="153.076172" xlink:href="#DejaVuSans-68"/>
      <use x="230.078125" xlink:href="#DejaVuSans-105"/>
      <use x="257.861328" xlink:href="#DejaVuSans-118"/>
      <use x="317.041016" xlink:href="#DejaVuSans-101"/>
      <use x="378.564453" xlink:href="#DejaVuSans-114"/>
      <use x="417.927734" xlink:href="#DejaVuSans-103"/>
      <use x="481.404297" xlink:href="#DejaVuSans-101"/>
      <use x="542.927734" xlink:href="#DejaVuSans-110"/>
      <use x="606.306641" xlink:href="#DejaVuSans-99"/>
      <use x="661.287109" xlink:href="#DejaVuSans-101"/>
     </g>
    </g>
   </g>
   <g id="line2d_36">
    <path clip-path="url(#p36a0cc0571)" d="M 446.303887 30.238125 
L 447.229286 228.513411 
L 448.154684 201.87593 
L 449.080083 186.453144 
L 450.005482 189.801719 
L 450.93088 190.073799 
L 451.856279 189.934969 
L 452.781678 187.889324 
L 453.707077 189.869239 
L 454.632475 194.070689 
L 455.557874 196.481879 
L 458.33407 205.126112 
L 459.259469 206.513773 
L 460.184868 209.514794 
L 462.035665 213.929692 
L 462.961064 217.231189 
L 463.886462 219.895969 
L 464.811861 221.721077 
L 465.73726 224.0998 
L 466.662659 225.590694 
L 468.513456 230.173498 
L 469.438855 231.320879 
L 470.364253 233.488901 
L 471.289652 234.361485 
L 472.215051 236.692313 
L 474.991247 240.711335 
L 475.916646 243.199183 
L 478.692842 246.796307 
L 479.618241 248.295293 
L 480.543639 249.47654 
L 481.469038 251.132722 
L 482.394437 251.970354 
L 483.319835 253.526877 
L 484.245234 254.784561 
L 485.170633 255.50649 
L 486.096031 257.084088 
L 487.946829 258.68313 
L 488.872228 259.850762 
L 489.797626 260.748794 
L 490.723025 262.284348 
L 491.648424 262.732224 
L 492.573822 263.77834 
L 493.499221 264.482487 
L 496.275417 267.143749 
L 497.200816 267.926286 
L 498.126215 268.889644 
L 499.051613 269.630459 
L 500.902411 271.455583 
L 501.82781 272.023295 
L 503.678607 273.866458 
L 504.604006 274.517996 
L 506.454803 275.446852 
L 507.380202 276.480107 
L 511.081797 278.855977 
L 512.007195 279.180999 
L 512.932594 280.008325 
L 513.857993 280.423901 
L 514.783392 281.07093 
L 515.70879 281.859764 
L 516.634189 282.414665 
L 517.559588 283.221918 
L 518.484986 283.260616 
L 521.261183 285.548404 
L 522.186581 285.782573 
L 523.11198 286.379395 
L 524.037379 286.598057 
L 524.962777 287.560217 
L 525.888176 287.657912 
L 526.813575 288.367532 
L 527.738974 288.756771 
L 528.664372 289.561711 
L 529.589771 289.904694 
L 530.51517 290.372286 
L 531.440568 290.36364 
L 533.291366 291.559781 
L 535.142163 292.716511 
L 536.992961 293.306338 
L 537.918359 294.264282 
L 538.843758 293.98655 
L 539.769157 294.466531 
L 540.694556 295.103444 
L 541.619954 294.938533 
L 542.545353 295.292304 
L 543.470752 296.091006 
L 544.39615 296.731081 
L 546.246948 296.839392 
L 547.172346 297.622629 
L 548.097745 297.543153 
L 549.023144 298.463557 
L 549.948543 298.600452 
L 550.873941 298.868171 
L 551.79934 299.435994 
L 553.650137 299.692033 
L 554.575536 300.547555 
L 555.500935 300.426197 
L 557.351732 301.104734 
L 558.277131 301.635841 
L 559.20253 301.589484 
L 560.127928 302.218699 
L 561.053327 302.62757 
L 561.978726 302.737212 
L 562.904125 302.654452 
L 566.605719 304.275534 
L 567.531118 304.266443 
L 568.456517 304.598387 
L 569.381916 305.306176 
L 570.307314 305.156957 
L 571.232713 305.526474 
L 572.158112 305.713698 
L 574.008909 306.337791 
L 574.934308 306.954562 
L 575.859707 306.483302 
L 576.785105 307.370769 
L 577.710504 307.2395 
L 579.561301 308.089211 
L 580.4867 307.895075 
L 581.412099 308.538384 
L 582.337498 308.521995 
L 583.262896 308.700725 
L 584.188295 309.244897 
L 586.039092 309.511854 
L 586.964491 309.889211 
L 587.88989 309.908366 
L 589.740687 310.095966 
L 590.666086 310.772029 
L 591.591485 311.005847 
L 592.516883 310.61682 
L 594.367681 311.978338 
L 595.29308 311.698544 
L 596.218478 311.934512 
L 598.069276 312.162578 
L 598.994674 312.396561 
L 599.920073 312.771755 
L 600.845472 312.800598 
L 601.77087 313.279548 
L 602.696269 313.253737 
L 604.547067 313.554145 
L 605.472465 314.150741 
L 606.397864 314.154869 
L 607.323263 314.425224 
L 608.248661 314.840029 
L 609.17406 314.322146 
L 611.024858 315.07744 
L 612.875655 315.521131 
L 613.801054 315.774094 
L 614.726452 315.685663 
L 615.651851 316.037081 
L 617.502649 316.294017 
L 618.428047 316.801641 
L 619.353446 316.605156 
L 620.278845 317.001754 
L 622.129642 316.869873 
L 623.055041 317.253241 
L 624.905838 317.649452 
L 625.831237 317.646421 
L 626.756636 318.096168 
L 627.682034 318.116097 
L 628.607433 318.509587 
L 629.532832 318.283051 
L 630.458231 318.405058 
L 631.383629 318.395773 
L 633.234427 318.976847 
L 634.159825 318.912882 
L 635.085224 319.258048 
L 636.010623 319.323976 
L 636.936022 319.524107 
L 638.786819 319.5958 
L 639.712218 320.080648 
L 643.413813 320.440471 
L 645.26461 320.697094 
L 646.190009 320.777491 
L 647.115407 321.077127 
L 648.040806 321.158119 
L 648.966205 320.806958 
L 649.891604 321.530385 
L 650.817002 321.658401 
L 651.742401 321.504519 
L 652.6678 321.643837 
L 653.593198 321.536162 
L 655.443996 321.915284 
L 656.369394 322.449631 
L 658.220192 322.436945 
L 659.145591 322.903197 
L 660.070989 322.378579 
L 660.996388 322.892191 
L 661.921787 322.744857 
L 662.847185 323.318682 
L 663.772584 322.920151 
L 664.697983 323.137492 
L 665.623382 323.767505 
L 666.54878 323.754803 
L 667.474179 323.429472 
L 668.399578 323.629323 
L 669.324976 324.134087 
L 670.250375 324.301572 
L 671.175774 323.902539 
L 672.101173 324.344876 
L 673.026571 324.19252 
L 673.95197 324.344407 
L 674.877369 324.847502 
L 676.728166 324.504382 
L 678.578964 324.820321 
L 679.504362 324.915404 
L 680.429761 325.152802 
L 681.35516 325.010681 
L 683.205957 325.866393 
L 684.131356 325.599435 
L 685.056755 325.842655 
L 685.982153 325.817528 
L 688.758349 326.199285 
L 689.683748 326.550975 
L 690.609147 326.125316 
L 691.534546 326.411133 
L 692.459944 326.832582 
L 693.385343 326.505562 
L 694.310742 326.77326 
L 697.086938 327.050943 
L 698.012337 327.150358 
L 698.937735 327.462256 
L 699.863134 327.250402 
L 700.788533 327.248374 
L 701.713931 327.682876 
L 702.63933 327.506477 
L 703.564729 327.949431 
L 704.490128 327.800036 
L 705.415526 327.803091 
L 706.340925 328.047692 
L 707.266324 328.419745 
L 708.191722 328.141117 
L 709.117121 328.401226 
L 710.04252 328.522646 
L 710.967919 328.174706 
L 711.893317 328.652238 
L 712.818716 328.63423 
L 713.744115 329.009618 
L 714.669513 328.690584 
L 715.594912 329.000243 
L 716.520311 328.815456 
L 717.445709 328.900013 
L 718.371108 329.238391 
L 719.296507 329.177218 
L 720.221906 329.360493 
L 721.147304 329.409758 
L 722.072703 329.728382 
L 722.998102 329.411961 
L 722.998102 329.411961 
" style="fill:none;stroke:#0047ab;stroke-linecap:round;stroke-width:1.5;"/>
   </g>
   <g id="line2d_37">
    <path clip-path="url(#p36a0cc0571)" d="M 446.303887 223.859842 
L 447.229286 220.899029 
L 448.154684 201.214033 
L 449.080083 185.027066 
L 450.005482 197.35286 
L 450.93088 190.995901 
L 451.856279 202.929337 
L 452.781678 189.21258 
L 453.707077 196.556871 
L 454.632475 194.106554 
L 455.557874 204.858557 
L 456.483273 203.631685 
L 457.408671 206.623148 
L 458.33407 211.37556 
L 459.259469 207.108301 
L 460.184868 212.267053 
L 461.110266 204.392728 
L 462.035665 212.872523 
L 462.961064 226.398172 
L 463.886462 232.437436 
L 464.811861 219.878448 
L 465.73726 214.89293 
L 467.588057 231.411453 
L 468.513456 231.96715 
L 469.438855 230.667858 
L 470.364253 232.667779 
L 471.289652 243.188669 
L 472.215051 238.38827 
L 473.14045 245.709808 
L 474.065848 241.407236 
L 474.991247 241.282609 
L 475.916646 244.275956 
L 476.842044 246.291476 
L 477.767443 246.778305 
L 478.692842 243.410036 
L 479.618241 251.379482 
L 480.543639 246.035918 
L 481.469038 258.387435 
L 482.394437 253.301967 
L 483.319835 260.424205 
L 484.245234 261.910013 
L 485.170633 255.839835 
L 486.096031 259.042072 
L 487.02143 261.401749 
L 487.946829 268.05523 
L 488.872228 262.902344 
L 489.797626 259.195871 
L 490.723025 272.68481 
L 491.648424 263.858039 
L 492.573822 257.202692 
L 493.499221 258.80146 
L 494.42462 267.948047 
L 495.350019 265.693822 
L 496.275417 260.99571 
L 498.126215 268.763998 
L 499.051613 269.899209 
L 499.977012 269.777907 
L 500.902411 278.139069 
L 501.82781 269.413039 
L 502.753208 273.87084 
L 503.678607 277.580358 
L 504.604006 273.724516 
L 505.529404 279.780068 
L 506.454803 272.816497 
L 507.380202 273.526652 
L 508.305601 277.827116 
L 509.230999 270.999372 
L 510.156398 277.545355 
L 511.081797 282.068618 
L 512.007195 280.704754 
L 512.932594 284.273997 
L 513.857993 281.045127 
L 514.783392 282.762692 
L 515.70879 285.091269 
L 516.634189 281.459691 
L 517.559588 282.831181 
L 518.484986 287.305705 
L 519.410385 284.319982 
L 520.335784 292.925447 
L 521.261183 288.058923 
L 522.186581 286.006819 
L 523.11198 284.520143 
L 524.037379 289.885847 
L 524.962777 293.58258 
L 525.888176 292.331487 
L 526.813575 287.299756 
L 527.738974 293.37544 
L 528.664372 282.593136 
L 529.589771 290.716756 
L 530.51517 290.569119 
L 531.440568 291.062221 
L 532.365967 288.185986 
L 533.291366 291.841454 
L 534.216765 298.497319 
L 535.142163 286.911221 
L 536.067562 295.943489 
L 536.992961 296.536438 
L 537.918359 292.005609 
L 538.843758 296.550786 
L 539.769157 298.610415 
L 541.619954 292.322448 
L 542.545353 297.844006 
L 543.470752 298.735886 
L 544.39615 303.926745 
L 545.321549 295.975977 
L 546.246948 295.646681 
L 547.172346 291.380659 
L 548.097745 307.297724 
L 549.023144 298.312864 
L 549.948543 300.124429 
L 550.873941 292.895119 
L 551.79934 304.423012 
L 552.724739 297.951312 
L 553.650137 296.486462 
L 554.575536 300.868249 
L 555.500935 299.039265 
L 556.426334 301.555651 
L 557.351732 302.154004 
L 558.277131 302.479788 
L 559.20253 310.376833 
L 560.127928 302.703414 
L 561.053327 300.896664 
L 561.978726 306.078421 
L 562.904125 300.489005 
L 563.829523 301.795727 
L 564.754922 304.988329 
L 565.680321 302.704344 
L 566.605719 303.50871 
L 567.531118 304.660159 
L 568.456517 309.175292 
L 569.381916 317.932936 
L 570.307314 300.987585 
L 571.232713 300.836181 
L 572.158112 304.670859 
L 573.08351 306.036063 
L 574.008909 308.440744 
L 574.934308 308.557325 
L 575.859707 311.751589 
L 576.785105 314.516001 
L 577.710504 311.133148 
L 578.635903 305.01895 
L 579.561301 308.582274 
L 580.4867 310.258963 
L 581.412099 309.623955 
L 582.337498 310.542036 
L 583.262896 307.841726 
L 584.188295 313.858667 
L 585.113694 310.728294 
L 586.039092 318.592189 
L 586.964491 308.243164 
L 588.815289 310.63794 
L 589.740687 315.111251 
L 590.666086 316.004476 
L 591.591485 311.687953 
L 592.516883 311.365409 
L 593.442282 313.208299 
L 594.367681 309.527973 
L 595.29308 314.284947 
L 596.218478 313.986849 
L 597.143877 315.181067 
L 598.069276 317.56476 
L 598.994674 312.449487 
L 599.920073 315.172788 
L 600.845472 310.769943 
L 601.77087 312.357573 
L 602.696269 314.592174 
L 603.621668 316.448076 
L 604.547067 319.975514 
L 606.397864 313.861029 
L 607.323263 313.412058 
L 608.248661 316.411548 
L 609.17406 311.138431 
L 611.024858 315.405057 
L 611.950256 318.04512 
L 612.875655 315.132341 
L 613.801054 316.783821 
L 614.726452 317.263884 
L 615.651851 316.883878 
L 616.57725 317.769699 
L 617.502649 318.210818 
L 618.428047 316.333598 
L 619.353446 318.004478 
L 620.278845 320.751897 
L 621.204243 321.929988 
L 622.129642 315.541664 
L 623.055041 314.929085 
L 623.98044 319.691786 
L 624.905838 323.394188 
L 625.831237 316.63594 
L 626.756636 319.227419 
L 627.682034 320.365527 
L 628.607433 320.538288 
L 629.532832 321.977501 
L 630.458231 318.427271 
L 631.383629 320.329094 
L 632.309028 320.509325 
L 633.234427 320.320835 
L 634.159825 324.324424 
L 635.085224 322.027465 
L 636.010623 323.926705 
L 636.936022 316.21176 
L 637.86142 320.504739 
L 639.712218 319.744721 
L 640.637616 322.54327 
L 641.563015 316.3557 
L 642.488414 325.451635 
L 643.413813 321.134736 
L 644.339211 324.740917 
L 645.26461 322.650785 
L 646.190009 325.31733 
L 647.115407 322.45805 
L 648.040806 323.551341 
L 648.966205 323.505961 
L 649.891604 324.368569 
L 650.817002 323.64363 
L 651.742401 323.466194 
L 652.6678 320.388059 
L 653.593198 320.307391 
L 654.518597 318.046137 
L 655.443996 323.34112 
L 656.369394 321.589131 
L 657.294793 326.511956 
L 658.220192 326.298969 
L 659.145591 322.020199 
L 660.070989 322.625359 
L 660.996388 324.739335 
L 661.921787 325.149403 
L 663.772584 322.942104 
L 664.697983 324.616448 
L 665.623382 324.777887 
L 666.54878 323.032755 
L 667.474179 324.46427 
L 668.399578 324.412763 
L 669.324976 327.23968 
L 670.250375 325.175426 
L 671.175774 322.40365 
L 672.101173 328.400852 
L 673.026571 323.640156 
L 673.95197 324.786201 
L 674.877369 325.49904 
L 676.728166 323.89431 
L 677.653565 326.516578 
L 678.578964 325.371491 
L 679.504362 322.586311 
L 680.429761 326.414844 
L 681.35516 325.726051 
L 682.280558 323.311643 
L 683.205957 327.307751 
L 684.131356 325.311421 
L 685.056755 328.552575 
L 685.982153 322.238549 
L 686.907552 327.668352 
L 687.832951 326.770031 
L 688.758349 328.238867 
L 689.683748 328.861413 
L 691.534546 325.555996 
L 692.459944 326.243866 
L 693.385343 328.287864 
L 694.310742 326.165729 
L 695.23614 324.449048 
L 696.161539 329.613872 
L 697.086938 330.440473 
L 698.012337 325.465797 
L 698.937735 325.23571 
L 699.863134 332.638125 
L 700.788533 327.697269 
L 701.713931 328.355538 
L 702.63933 328.685032 
L 703.564729 332.065355 
L 704.490128 327.26376 
L 705.415526 330.4544 
L 706.340925 332.62572 
L 707.266324 327.772182 
L 708.191722 323.542849 
L 709.117121 328.815193 
L 710.04252 327.957128 
L 710.967919 329.220917 
L 711.893317 328.987004 
L 712.818716 331.34504 
L 713.744115 327.208829 
L 714.669513 327.339619 
L 715.594912 330.799943 
L 716.520311 328.532542 
L 717.445709 330.200329 
L 718.371108 328.68587 
L 719.296507 331.028319 
L 720.221906 329.115667 
L 721.147304 330.896526 
L 722.072703 331.751661 
L 722.998102 328.867953 
L 722.998102 328.867953 
" style="fill:none;stroke:#ab0000;stroke-linecap:round;stroke-width:1.5;"/>
   </g>
   <g id="patch_9">
    <path d="M 432.469176 347.758125 
L 432.469176 15.118125 
" style="fill:none;stroke:#cccccc;stroke-linecap:square;stroke-linejoin:miter;stroke-width:0.8;"/>
   </g>
   <g id="patch_10">
    <path d="M 736.832812 347.758125 
L 736.832812 15.118125 
" style="fill:none;stroke:#cccccc;stroke-linecap:square;stroke-linejoin:miter;stroke-width:0.8;"/>
   </g>
   <g id="patch_11">
    <path d="M 432.469176 347.758125 
L 736.832813 347.758125 
" style="fill:none;stroke:#cccccc;stroke-linecap:square;stroke-linejoin:miter;stroke-width:0.8;"/>
   </g>
   <g id="patch_12">
    <path d="M 432.469176 15.118125 
L 736.832813 15.118125 
" style="fill:none;stroke:#cccccc;stroke-linecap:square;stroke-linejoin:miter;stroke-width:0.8;"/>
   </g>
   <g id="text_37">
    <!-- KL Divergence over Epochs -->
    <g style="fill:#262626;" transform="translate(502.586932 9.118125)scale(0.12 -0.12)">
     <use xlink:href="#DejaVuSans-75"/>
     <use x="65.576172" xlink:href="#DejaVuSans-76"/>
     <use x="121.289062" xlink:href="#DejaVuSans-32"/>
     <use x="153.076172" xlink:href="#DejaVuSans-68"/>
     <use x="230.078125" xlink:href="#DejaVuSans-105"/>
     <use x="257.861328" xlink:href="#DejaVuSans-118"/>
     <use x="317.041016" xlink:href="#DejaVuSans-101"/>
     <use x="378.564453" xlink:href="#DejaVuSans-114"/>
     <use x="417.927734" xlink:href="#DejaVuSans-103"/>
     <use x="481.404297" xlink:href="#DejaVuSans-101"/>
     <use x="542.927734" xlink:href="#DejaVuSans-110"/>
     <use x="606.306641" xlink:href="#DejaVuSans-99"/>
     <use x="661.287109" xlink:href="#DejaVuSans-101"/>
     <use x="722.810547" xlink:href="#DejaVuSans-32"/>
     <use x="754.597656" xlink:href="#DejaVuSans-111"/>
     <use x="815.779297" xlink:href="#DejaVuSans-118"/>
     <use x="874.958984" xlink:href="#DejaVuSans-101"/>
     <use x="936.482422" xlink:href="#DejaVuSans-114"/>
     <use x="977.595703" xlink:href="#DejaVuSans-32"/>
     <use x="1009.382812" xlink:href="#DejaVuSans-69"/>
     <use x="1072.566406" xlink:href="#DejaVuSans-112"/>
     <use x="1136.042969" xlink:href="#DejaVuSans-111"/>
     <use x="1197.224609" xlink:href="#DejaVuSans-99"/>
     <use x="1252.205078" xlink:href="#DejaVuSans-104"/>
     <use x="1315.583984" xlink:href="#DejaVuSans-115"/>
    </g>
   </g>
   <g id="legend_2">
    <g id="patch_13">
     <path d="M 572.989062 52.474375 
L 729.832812 52.474375 
Q 731.832812 52.474375 731.832812 50.474375 
L 731.832812 22.118125 
Q 731.832812 20.118125 729.832812 20.118125 
L 572.989062 20.118125 
Q 570.989062 20.118125 570.989062 22.118125 
L 570.989062 50.474375 
Q 570.989062 52.474375 572.989062 52.474375 
z
" style="fill:#ffffff;opacity:0.8;stroke:#cccccc;stroke-linejoin:miter;"/>
    </g>
    <g id="line2d_38">
     <path d="M 574.989062 28.216562 
L 594.989062 28.216562 
" style="fill:none;stroke:#0047ab;stroke-linecap:round;stroke-width:1.5;"/>
    </g>
    <g id="line2d_39"/>
    <g id="text_38">
     <!-- Training KL Divergence -->
     <g style="fill:#262626;" transform="translate(602.989062 31.716562)scale(0.1 -0.1)">
      <use xlink:href="#DejaVuSans-84"/>
      <use x="46.333984" xlink:href="#DejaVuSans-114"/>
      <use x="87.447266" xlink:href="#DejaVuSans-97"/>
      <use x="148.726562" xlink:href="#DejaVuSans-105"/>
      <use x="176.509766" xlink:href="#DejaVuSans-110"/>
      <use x="239.888672" xlink:href="#DejaVuSans-105"/>
      <use x="267.671875" xlink:href="#DejaVuSans-110"/>
      <use x="331.050781" xlink:href="#DejaVuSans-103"/>
      <use x="394.527344" xlink:href="#DejaVuSans-32"/>
      <use x="426.314453" xlink:href="#DejaVuSans-75"/>
      <use x="491.890625" xlink:href="#DejaVuSans-76"/>
      <use x="547.603516" xlink:href="#DejaVuSans-32"/>
      <use x="579.390625" xlink:href="#DejaVuSans-68"/>
      <use x="656.392578" xlink:href="#DejaVuSans-105"/>
      <use x="684.175781" xlink:href="#DejaVuSans-118"/>
      <use x="743.355469" xlink:href="#DejaVuSans-101"/>
      <use x="804.878906" xlink:href="#DejaVuSans-114"/>
      <use x="844.242188" xlink:href="#DejaVuSans-103"/>
      <use x="907.71875" xlink:href="#DejaVuSans-101"/>
      <use x="969.242188" xlink:href="#DejaVuSans-110"/>
      <use x="1032.621094" xlink:href="#DejaVuSans-99"/>
      <use x="1087.601562" xlink:href="#DejaVuSans-101"/>
     </g>
    </g>
    <g id="line2d_40">
     <path d="M 574.989062 42.894687 
L 594.989062 42.894687 
" style="fill:none;stroke:#ab0000;stroke-linecap:round;stroke-width:1.5;"/>
    </g>
    <g id="line2d_41"/>
    <g id="text_39">
     <!-- Validation KL Divergence -->
     <g style="fill:#262626;" transform="translate(602.989062 46.394687)scale(0.1 -0.1)">
      <use xlink:href="#DejaVuSans-86"/>
      <use x="60.658203" xlink:href="#DejaVuSans-97"/>
      <use x="121.9375" xlink:href="#DejaVuSans-108"/>
      <use x="149.720703" xlink:href="#DejaVuSans-105"/>
      <use x="177.503906" xlink:href="#DejaVuSans-100"/>
      <use x="240.980469" xlink:href="#DejaVuSans-97"/>
      <use x="302.259766" xlink:href="#DejaVuSans-116"/>
      <use x="341.46875" xlink:href="#DejaVuSans-105"/>
      <use x="369.251953" xlink:href="#DejaVuSans-111"/>
      <use x="430.433594" xlink:href="#DejaVuSans-110"/>
      <use x="493.8125" xlink:href="#DejaVuSans-32"/>
      <use x="525.599609" xlink:href="#DejaVuSans-75"/>
      <use x="591.175781" xlink:href="#DejaVuSans-76"/>
      <use x="646.888672" xlink:href="#DejaVuSans-32"/>
      <use x="678.675781" xlink:href="#DejaVuSans-68"/>
      <use x="755.677734" xlink:href="#DejaVuSans-105"/>
      <use x="783.460938" xlink:href="#DejaVuSans-118"/>
      <use x="842.640625" xlink:href="#DejaVuSans-101"/>
      <use x="904.164062" xlink:href="#DejaVuSans-114"/>
      <use x="943.527344" xlink:href="#DejaVuSans-103"/>
      <use x="1007.003906" xlink:href="#DejaVuSans-101"/>
      <use x="1068.527344" xlink:href="#DejaVuSans-110"/>
      <use x="1131.90625" xlink:href="#DejaVuSans-99"/>
      <use x="1186.886719" xlink:href="#DejaVuSans-101"/>
     </g>
    </g>
   </g>
  </g>
 </g>
 <defs>
  <clipPath id="p373fec29b6">
   <rect height="332.64" width="304.363636" x="67.232812" y="15.118125"/>
  </clipPath>
  <clipPath id="p36a0cc0571">
   <rect height="332.64" width="304.363636" x="432.469176" y="15.118125"/>
  </clipPath>
 </defs>
</svg>
