<?xml version="1.0" encoding="utf-8" standalone="no"?>
<!DOCTYPE svg PUBLIC "-//W3C//DTD SVG 1.1//EN"
  "http://www.w3.org/Graphics/SVG/1.1/DTD/svg11.dtd">
<!-- Created with matplotlib (https://matplotlib.org/) -->
<svg height="378.114375pt" version="1.1" viewBox="0 0 736.832812 378.114375" width="736.832812pt" xmlns="http://www.w3.org/2000/svg" xmlns:xlink="http://www.w3.org/1999/xlink">
 <metadata>
  <rdf:RDF xmlns:cc="http://creativecommons.org/ns#" xmlns:dc="http://purl.org/dc/elements/1.1/" xmlns:rdf="http://www.w3.org/1999/02/22-rdf-syntax-ns#">
   <cc:Work>
    <dc:type rdf:resource="http://purl.org/dc/dcmitype/StillImage"/>
    <dc:date>2023-12-05T19:07:13.116062</dc:date>
    <dc:format>image/svg+xml</dc:format>
    <dc:creator>
     <cc:Agent>
      <dc:title>Matplotlib v3.3.4, https://matplotlib.org/</dc:title>
     </cc:Agent>
    </dc:creator>
   </cc:Work>
  </rdf:RDF>
 </metadata>
 <defs>
  <style type="text/css">*{stroke-linecap:butt;stroke-linejoin:round;}</style>
 </defs>
 <g id="figure_1">
  <g id="patch_1">
   <path d="M 0 378.114375 
L 736.832812 378.114375 
L 736.832812 0 
L 0 0 
z
" style="fill:none;"/>
  </g>
  <g id="axes_1">
   <g id="patch_2">
    <path d="M 67.232812 347.758125 
L 371.596449 347.758125 
L 371.596449 15.118125 
L 67.232812 15.118125 
z
" style="fill:none;"/>
   </g>
   <g id="matplotlib.axis_1">
    <g id="xtick_1">
     <g id="line2d_1">
      <path clip-path="url(#pc403580f0e)" d="M 81.067523 347.758125 
L 81.067523 15.118125 
" style="fill:none;stroke:#cccccc;stroke-linecap:round;stroke-width:0.8;"/>
     </g>
     <g id="text_1">
      <!-- 0 -->
      <g style="fill:#262626;" transform="translate(77.886273 362.356562)scale(0.1 -0.1)">
       <defs>
        <path d="M 31.78125 66.40625 
Q 24.171875 66.40625 20.328125 58.90625 
Q 16.5 51.421875 16.5 36.375 
Q 16.5 21.390625 20.328125 13.890625 
Q 24.171875 6.390625 31.78125 6.390625 
Q 39.453125 6.390625 43.28125 13.890625 
Q 47.125 21.390625 47.125 36.375 
Q 47.125 51.421875 43.28125 58.90625 
Q 39.453125 66.40625 31.78125 66.40625 
z
M 31.78125 74.21875 
Q 44.046875 74.21875 50.515625 64.515625 
Q 56.984375 54.828125 56.984375 36.375 
Q 56.984375 17.96875 50.515625 8.265625 
Q 44.046875 -1.421875 31.78125 -1.421875 
Q 19.53125 -1.421875 13.0625 8.265625 
Q 6.59375 17.96875 6.59375 36.375 
Q 6.59375 54.828125 13.0625 64.515625 
Q 19.53125 74.21875 31.78125 74.21875 
z
" id="DejaVuSans-48"/>
       </defs>
       <use xlink:href="#DejaVuSans-48"/>
      </g>
     </g>
    </g>
    <g id="xtick_2">
     <g id="line2d_2">
      <path clip-path="url(#pc403580f0e)" d="M 136.965344 347.758125 
L 136.965344 15.118125 
" style="fill:none;stroke:#cccccc;stroke-linecap:round;stroke-width:0.8;"/>
     </g>
     <g id="text_2">
      <!-- 20 -->
      <g style="fill:#262626;" transform="translate(130.602844 362.356562)scale(0.1 -0.1)">
       <defs>
        <path d="M 19.1875 8.296875 
L 53.609375 8.296875 
L 53.609375 0 
L 7.328125 0 
L 7.328125 8.296875 
Q 12.9375 14.109375 22.625 23.890625 
Q 32.328125 33.6875 34.8125 36.53125 
Q 39.546875 41.84375 41.421875 45.53125 
Q 43.3125 49.21875 43.3125 52.78125 
Q 43.3125 58.59375 39.234375 62.25 
Q 35.15625 65.921875 28.609375 65.921875 
Q 23.96875 65.921875 18.8125 64.3125 
Q 13.671875 62.703125 7.8125 59.421875 
L 7.8125 69.390625 
Q 13.765625 71.78125 18.9375 73 
Q 24.125 74.21875 28.421875 74.21875 
Q 39.75 74.21875 46.484375 68.546875 
Q 53.21875 62.890625 53.21875 53.421875 
Q 53.21875 48.921875 51.53125 44.890625 
Q 49.859375 40.875 45.40625 35.40625 
Q 44.1875 33.984375 37.640625 27.21875 
Q 31.109375 20.453125 19.1875 8.296875 
z
" id="DejaVuSans-50"/>
       </defs>
       <use xlink:href="#DejaVuSans-50"/>
       <use x="63.623047" xlink:href="#DejaVuSans-48"/>
      </g>
     </g>
    </g>
    <g id="xtick_3">
     <g id="line2d_3">
      <path clip-path="url(#pc403580f0e)" d="M 192.863166 347.758125 
L 192.863166 15.118125 
" style="fill:none;stroke:#cccccc;stroke-linecap:round;stroke-width:0.8;"/>
     </g>
     <g id="text_3">
      <!-- 40 -->
      <g style="fill:#262626;" transform="translate(186.500666 362.356562)scale(0.1 -0.1)">
       <defs>
        <path d="M 37.796875 64.3125 
L 12.890625 25.390625 
L 37.796875 25.390625 
z
M 35.203125 72.90625 
L 47.609375 72.90625 
L 47.609375 25.390625 
L 58.015625 25.390625 
L 58.015625 17.1875 
L 47.609375 17.1875 
L 47.609375 0 
L 37.796875 0 
L 37.796875 17.1875 
L 4.890625 17.1875 
L 4.890625 26.703125 
z
" id="DejaVuSans-52"/>
       </defs>
       <use xlink:href="#DejaVuSans-52"/>
       <use x="63.623047" xlink:href="#DejaVuSans-48"/>
      </g>
     </g>
    </g>
    <g id="xtick_4">
     <g id="line2d_4">
      <path clip-path="url(#pc403580f0e)" d="M 248.760987 347.758125 
L 248.760987 15.118125 
" style="fill:none;stroke:#cccccc;stroke-linecap:round;stroke-width:0.8;"/>
     </g>
     <g id="text_4">
      <!-- 60 -->
      <g style="fill:#262626;" transform="translate(242.398487 362.356562)scale(0.1 -0.1)">
       <defs>
        <path d="M 33.015625 40.375 
Q 26.375 40.375 22.484375 35.828125 
Q 18.609375 31.296875 18.609375 23.390625 
Q 18.609375 15.53125 22.484375 10.953125 
Q 26.375 6.390625 33.015625 6.390625 
Q 39.65625 6.390625 43.53125 10.953125 
Q 47.40625 15.53125 47.40625 23.390625 
Q 47.40625 31.296875 43.53125 35.828125 
Q 39.65625 40.375 33.015625 40.375 
z
M 52.59375 71.296875 
L 52.59375 62.3125 
Q 48.875 64.0625 45.09375 64.984375 
Q 41.3125 65.921875 37.59375 65.921875 
Q 27.828125 65.921875 22.671875 59.328125 
Q 17.53125 52.734375 16.796875 39.40625 
Q 19.671875 43.65625 24.015625 45.921875 
Q 28.375 48.1875 33.59375 48.1875 
Q 44.578125 48.1875 50.953125 41.515625 
Q 57.328125 34.859375 57.328125 23.390625 
Q 57.328125 12.15625 50.6875 5.359375 
Q 44.046875 -1.421875 33.015625 -1.421875 
Q 20.359375 -1.421875 13.671875 8.265625 
Q 6.984375 17.96875 6.984375 36.375 
Q 6.984375 53.65625 15.1875 63.9375 
Q 23.390625 74.21875 37.203125 74.21875 
Q 40.921875 74.21875 44.703125 73.484375 
Q 48.484375 72.75 52.59375 71.296875 
z
" id="DejaVuSans-54"/>
       </defs>
       <use xlink:href="#DejaVuSans-54"/>
       <use x="63.623047" xlink:href="#DejaVuSans-48"/>
      </g>
     </g>
    </g>
    <g id="xtick_5">
     <g id="line2d_5">
      <path clip-path="url(#pc403580f0e)" d="M 304.658808 347.758125 
L 304.658808 15.118125 
" style="fill:none;stroke:#cccccc;stroke-linecap:round;stroke-width:0.8;"/>
     </g>
     <g id="text_5">
      <!-- 80 -->
      <g style="fill:#262626;" transform="translate(298.296308 362.356562)scale(0.1 -0.1)">
       <defs>
        <path d="M 31.78125 34.625 
Q 24.75 34.625 20.71875 30.859375 
Q 16.703125 27.09375 16.703125 20.515625 
Q 16.703125 13.921875 20.71875 10.15625 
Q 24.75 6.390625 31.78125 6.390625 
Q 38.8125 6.390625 42.859375 10.171875 
Q 46.921875 13.96875 46.921875 20.515625 
Q 46.921875 27.09375 42.890625 30.859375 
Q 38.875 34.625 31.78125 34.625 
z
M 21.921875 38.8125 
Q 15.578125 40.375 12.03125 44.71875 
Q 8.5 49.078125 8.5 55.328125 
Q 8.5 64.0625 14.71875 69.140625 
Q 20.953125 74.21875 31.78125 74.21875 
Q 42.671875 74.21875 48.875 69.140625 
Q 55.078125 64.0625 55.078125 55.328125 
Q 55.078125 49.078125 51.53125 44.71875 
Q 48 40.375 41.703125 38.8125 
Q 48.828125 37.15625 52.796875 32.3125 
Q 56.78125 27.484375 56.78125 20.515625 
Q 56.78125 9.90625 50.3125 4.234375 
Q 43.84375 -1.421875 31.78125 -1.421875 
Q 19.734375 -1.421875 13.25 4.234375 
Q 6.78125 9.90625 6.78125 20.515625 
Q 6.78125 27.484375 10.78125 32.3125 
Q 14.796875 37.15625 21.921875 38.8125 
z
M 18.3125 54.390625 
Q 18.3125 48.734375 21.84375 45.5625 
Q 25.390625 42.390625 31.78125 42.390625 
Q 38.140625 42.390625 41.71875 45.5625 
Q 45.3125 48.734375 45.3125 54.390625 
Q 45.3125 60.0625 41.71875 63.234375 
Q 38.140625 66.40625 31.78125 66.40625 
Q 25.390625 66.40625 21.84375 63.234375 
Q 18.3125 60.0625 18.3125 54.390625 
z
" id="DejaVuSans-56"/>
       </defs>
       <use xlink:href="#DejaVuSans-56"/>
       <use x="63.623047" xlink:href="#DejaVuSans-48"/>
      </g>
     </g>
    </g>
    <g id="xtick_6">
     <g id="line2d_6">
      <path clip-path="url(#pc403580f0e)" d="M 360.556629 347.758125 
L 360.556629 15.118125 
" style="fill:none;stroke:#cccccc;stroke-linecap:round;stroke-width:0.8;"/>
     </g>
     <g id="text_6">
      <!-- 100 -->
      <g style="fill:#262626;" transform="translate(351.012879 362.356562)scale(0.1 -0.1)">
       <defs>
        <path d="M 12.40625 8.296875 
L 28.515625 8.296875 
L 28.515625 63.921875 
L 10.984375 60.40625 
L 10.984375 69.390625 
L 28.421875 72.90625 
L 38.28125 72.90625 
L 38.28125 8.296875 
L 54.390625 8.296875 
L 54.390625 0 
L 12.40625 0 
z
" id="DejaVuSans-49"/>
       </defs>
       <use xlink:href="#DejaVuSans-49"/>
       <use x="63.623047" xlink:href="#DejaVuSans-48"/>
       <use x="127.246094" xlink:href="#DejaVuSans-48"/>
      </g>
     </g>
    </g>
    <g id="text_7">
     <!-- Epochs -->
     <g style="fill:#262626;" transform="translate(201.499006 376.034688)scale(0.1 -0.1)">
      <defs>
       <path d="M 9.8125 72.90625 
L 55.90625 72.90625 
L 55.90625 64.59375 
L 19.671875 64.59375 
L 19.671875 43.015625 
L 54.390625 43.015625 
L 54.390625 34.71875 
L 19.671875 34.71875 
L 19.671875 8.296875 
L 56.78125 8.296875 
L 56.78125 0 
L 9.8125 0 
z
" id="DejaVuSans-69"/>
       <path d="M 18.109375 8.203125 
L 18.109375 -20.796875 
L 9.078125 -20.796875 
L 9.078125 54.6875 
L 18.109375 54.6875 
L 18.109375 46.390625 
Q 20.953125 51.265625 25.265625 53.625 
Q 29.59375 56 35.59375 56 
Q 45.5625 56 51.78125 48.09375 
Q 58.015625 40.1875 58.015625 27.296875 
Q 58.015625 14.40625 51.78125 6.484375 
Q 45.5625 -1.421875 35.59375 -1.421875 
Q 29.59375 -1.421875 25.265625 0.953125 
Q 20.953125 3.328125 18.109375 8.203125 
z
M 48.6875 27.296875 
Q 48.6875 37.203125 44.609375 42.84375 
Q 40.53125 48.484375 33.40625 48.484375 
Q 26.265625 48.484375 22.1875 42.84375 
Q 18.109375 37.203125 18.109375 27.296875 
Q 18.109375 17.390625 22.1875 11.75 
Q 26.265625 6.109375 33.40625 6.109375 
Q 40.53125 6.109375 44.609375 11.75 
Q 48.6875 17.390625 48.6875 27.296875 
z
" id="DejaVuSans-112"/>
       <path d="M 30.609375 48.390625 
Q 23.390625 48.390625 19.1875 42.75 
Q 14.984375 37.109375 14.984375 27.296875 
Q 14.984375 17.484375 19.15625 11.84375 
Q 23.34375 6.203125 30.609375 6.203125 
Q 37.796875 6.203125 41.984375 11.859375 
Q 46.1875 17.53125 46.1875 27.296875 
Q 46.1875 37.015625 41.984375 42.703125 
Q 37.796875 48.390625 30.609375 48.390625 
z
M 30.609375 56 
Q 42.328125 56 49.015625 48.375 
Q 55.71875 40.765625 55.71875 27.296875 
Q 55.71875 13.875 49.015625 6.21875 
Q 42.328125 -1.421875 30.609375 -1.421875 
Q 18.84375 -1.421875 12.171875 6.21875 
Q 5.515625 13.875 5.515625 27.296875 
Q 5.515625 40.765625 12.171875 48.375 
Q 18.84375 56 30.609375 56 
z
" id="DejaVuSans-111"/>
       <path d="M 48.78125 52.59375 
L 48.78125 44.1875 
Q 44.96875 46.296875 41.140625 47.34375 
Q 37.3125 48.390625 33.40625 48.390625 
Q 24.65625 48.390625 19.8125 42.84375 
Q 14.984375 37.3125 14.984375 27.296875 
Q 14.984375 17.28125 19.8125 11.734375 
Q 24.65625 6.203125 33.40625 6.203125 
Q 37.3125 6.203125 41.140625 7.25 
Q 44.96875 8.296875 48.78125 10.40625 
L 48.78125 2.09375 
Q 45.015625 0.34375 40.984375 -0.53125 
Q 36.96875 -1.421875 32.421875 -1.421875 
Q 20.0625 -1.421875 12.78125 6.34375 
Q 5.515625 14.109375 5.515625 27.296875 
Q 5.515625 40.671875 12.859375 48.328125 
Q 20.21875 56 33.015625 56 
Q 37.15625 56 41.109375 55.140625 
Q 45.0625 54.296875 48.78125 52.59375 
z
" id="DejaVuSans-99"/>
       <path d="M 54.890625 33.015625 
L 54.890625 0 
L 45.90625 0 
L 45.90625 32.71875 
Q 45.90625 40.484375 42.875 44.328125 
Q 39.84375 48.1875 33.796875 48.1875 
Q 26.515625 48.1875 22.3125 43.546875 
Q 18.109375 38.921875 18.109375 30.90625 
L 18.109375 0 
L 9.078125 0 
L 9.078125 75.984375 
L 18.109375 75.984375 
L 18.109375 46.1875 
Q 21.34375 51.125 25.703125 53.5625 
Q 30.078125 56 35.796875 56 
Q 45.21875 56 50.046875 50.171875 
Q 54.890625 44.34375 54.890625 33.015625 
z
" id="DejaVuSans-104"/>
       <path d="M 44.28125 53.078125 
L 44.28125 44.578125 
Q 40.484375 46.53125 36.375 47.5 
Q 32.28125 48.484375 27.875 48.484375 
Q 21.1875 48.484375 17.84375 46.4375 
Q 14.5 44.390625 14.5 40.28125 
Q 14.5 37.15625 16.890625 35.375 
Q 19.28125 33.59375 26.515625 31.984375 
L 29.59375 31.296875 
Q 39.15625 29.25 43.1875 25.515625 
Q 47.21875 21.78125 47.21875 15.09375 
Q 47.21875 7.46875 41.1875 3.015625 
Q 35.15625 -1.421875 24.609375 -1.421875 
Q 20.21875 -1.421875 15.453125 -0.5625 
Q 10.6875 0.296875 5.421875 2 
L 5.421875 11.28125 
Q 10.40625 8.6875 15.234375 7.390625 
Q 20.0625 6.109375 24.8125 6.109375 
Q 31.15625 6.109375 34.5625 8.28125 
Q 37.984375 10.453125 37.984375 14.40625 
Q 37.984375 18.0625 35.515625 20.015625 
Q 33.0625 21.96875 24.703125 23.78125 
L 21.578125 24.515625 
Q 13.234375 26.265625 9.515625 29.90625 
Q 5.8125 33.546875 5.8125 39.890625 
Q 5.8125 47.609375 11.28125 51.796875 
Q 16.75 56 26.8125 56 
Q 31.78125 56 36.171875 55.265625 
Q 40.578125 54.546875 44.28125 53.078125 
z
" id="DejaVuSans-115"/>
      </defs>
      <use xlink:href="#DejaVuSans-69"/>
      <use x="63.183594" xlink:href="#DejaVuSans-112"/>
      <use x="126.660156" xlink:href="#DejaVuSans-111"/>
      <use x="187.841797" xlink:href="#DejaVuSans-99"/>
      <use x="242.822266" xlink:href="#DejaVuSans-104"/>
      <use x="306.201172" xlink:href="#DejaVuSans-115"/>
     </g>
    </g>
   </g>
   <g id="matplotlib.axis_2">
    <g id="ytick_1">
     <g id="line2d_7">
      <path clip-path="url(#pc403580f0e)" d="M 67.232812 328.031731 
L 371.596449 328.031731 
" style="fill:none;stroke:#cccccc;stroke-linecap:round;stroke-width:0.8;"/>
     </g>
     <g id="text_8">
      <!-- −140000 -->
      <g style="fill:#262626;" transform="translate(13.678125 331.83095)scale(0.1 -0.1)">
       <defs>
        <path d="M 10.59375 35.5 
L 73.1875 35.5 
L 73.1875 27.203125 
L 10.59375 27.203125 
z
" id="DejaVuSans-8722"/>
       </defs>
       <use xlink:href="#DejaVuSans-8722"/>
       <use x="83.789062" xlink:href="#DejaVuSans-49"/>
       <use x="147.412109" xlink:href="#DejaVuSans-52"/>
       <use x="211.035156" xlink:href="#DejaVuSans-48"/>
       <use x="274.658203" xlink:href="#DejaVuSans-48"/>
       <use x="338.28125" xlink:href="#DejaVuSans-48"/>
       <use x="401.904297" xlink:href="#DejaVuSans-48"/>
      </g>
     </g>
    </g>
    <g id="ytick_2">
     <g id="line2d_8">
      <path clip-path="url(#pc403580f0e)" d="M 67.232812 278.672713 
L 371.596449 278.672713 
" style="fill:none;stroke:#cccccc;stroke-linecap:round;stroke-width:0.8;"/>
     </g>
     <g id="text_9">
      <!-- −130000 -->
      <g style="fill:#262626;" transform="translate(13.678125 282.471932)scale(0.1 -0.1)">
       <defs>
        <path d="M 40.578125 39.3125 
Q 47.65625 37.796875 51.625 33 
Q 55.609375 28.21875 55.609375 21.1875 
Q 55.609375 10.40625 48.1875 4.484375 
Q 40.765625 -1.421875 27.09375 -1.421875 
Q 22.515625 -1.421875 17.65625 -0.515625 
Q 12.796875 0.390625 7.625 2.203125 
L 7.625 11.71875 
Q 11.71875 9.328125 16.59375 8.109375 
Q 21.484375 6.890625 26.8125 6.890625 
Q 36.078125 6.890625 40.9375 10.546875 
Q 45.796875 14.203125 45.796875 21.1875 
Q 45.796875 27.640625 41.28125 31.265625 
Q 36.765625 34.90625 28.71875 34.90625 
L 20.21875 34.90625 
L 20.21875 43.015625 
L 29.109375 43.015625 
Q 36.375 43.015625 40.234375 45.921875 
Q 44.09375 48.828125 44.09375 54.296875 
Q 44.09375 59.90625 40.109375 62.90625 
Q 36.140625 65.921875 28.71875 65.921875 
Q 24.65625 65.921875 20.015625 65.03125 
Q 15.375 64.15625 9.8125 62.3125 
L 9.8125 71.09375 
Q 15.4375 72.65625 20.34375 73.4375 
Q 25.25 74.21875 29.59375 74.21875 
Q 40.828125 74.21875 47.359375 69.109375 
Q 53.90625 64.015625 53.90625 55.328125 
Q 53.90625 49.265625 50.4375 45.09375 
Q 46.96875 40.921875 40.578125 39.3125 
z
" id="DejaVuSans-51"/>
       </defs>
       <use xlink:href="#DejaVuSans-8722"/>
       <use x="83.789062" xlink:href="#DejaVuSans-49"/>
       <use x="147.412109" xlink:href="#DejaVuSans-51"/>
       <use x="211.035156" xlink:href="#DejaVuSans-48"/>
       <use x="274.658203" xlink:href="#DejaVuSans-48"/>
       <use x="338.28125" xlink:href="#DejaVuSans-48"/>
       <use x="401.904297" xlink:href="#DejaVuSans-48"/>
      </g>
     </g>
    </g>
    <g id="ytick_3">
     <g id="line2d_9">
      <path clip-path="url(#pc403580f0e)" d="M 67.232812 229.313696 
L 371.596449 229.313696 
" style="fill:none;stroke:#cccccc;stroke-linecap:round;stroke-width:0.8;"/>
     </g>
     <g id="text_10">
      <!-- −120000 -->
      <g style="fill:#262626;" transform="translate(13.678125 233.112915)scale(0.1 -0.1)">
       <use xlink:href="#DejaVuSans-8722"/>
       <use x="83.789062" xlink:href="#DejaVuSans-49"/>
       <use x="147.412109" xlink:href="#DejaVuSans-50"/>
       <use x="211.035156" xlink:href="#DejaVuSans-48"/>
       <use x="274.658203" xlink:href="#DejaVuSans-48"/>
       <use x="338.28125" xlink:href="#DejaVuSans-48"/>
       <use x="401.904297" xlink:href="#DejaVuSans-48"/>
      </g>
     </g>
    </g>
    <g id="ytick_4">
     <g id="line2d_10">
      <path clip-path="url(#pc403580f0e)" d="M 67.232812 179.954678 
L 371.596449 179.954678 
" style="fill:none;stroke:#cccccc;stroke-linecap:round;stroke-width:0.8;"/>
     </g>
     <g id="text_11">
      <!-- −110000 -->
      <g style="fill:#262626;" transform="translate(13.678125 183.753897)scale(0.1 -0.1)">
       <use xlink:href="#DejaVuSans-8722"/>
       <use x="83.789062" xlink:href="#DejaVuSans-49"/>
       <use x="147.412109" xlink:href="#DejaVuSans-49"/>
       <use x="211.035156" xlink:href="#DejaVuSans-48"/>
       <use x="274.658203" xlink:href="#DejaVuSans-48"/>
       <use x="338.28125" xlink:href="#DejaVuSans-48"/>
       <use x="401.904297" xlink:href="#DejaVuSans-48"/>
      </g>
     </g>
    </g>
    <g id="ytick_5">
     <g id="line2d_11">
      <path clip-path="url(#pc403580f0e)" d="M 67.232812 130.595661 
L 371.596449 130.595661 
" style="fill:none;stroke:#cccccc;stroke-linecap:round;stroke-width:0.8;"/>
     </g>
     <g id="text_12">
      <!-- −100000 -->
      <g style="fill:#262626;" transform="translate(13.678125 134.39488)scale(0.1 -0.1)">
       <use xlink:href="#DejaVuSans-8722"/>
       <use x="83.789062" xlink:href="#DejaVuSans-49"/>
       <use x="147.412109" xlink:href="#DejaVuSans-48"/>
       <use x="211.035156" xlink:href="#DejaVuSans-48"/>
       <use x="274.658203" xlink:href="#DejaVuSans-48"/>
       <use x="338.28125" xlink:href="#DejaVuSans-48"/>
       <use x="401.904297" xlink:href="#DejaVuSans-48"/>
      </g>
     </g>
    </g>
    <g id="ytick_6">
     <g id="line2d_12">
      <path clip-path="url(#pc403580f0e)" d="M 67.232812 81.236643 
L 371.596449 81.236643 
" style="fill:none;stroke:#cccccc;stroke-linecap:round;stroke-width:0.8;"/>
     </g>
     <g id="text_13">
      <!-- −90000 -->
      <g style="fill:#262626;" transform="translate(20.040625 85.035862)scale(0.1 -0.1)">
       <defs>
        <path d="M 10.984375 1.515625 
L 10.984375 10.5 
Q 14.703125 8.734375 18.5 7.8125 
Q 22.3125 6.890625 25.984375 6.890625 
Q 35.75 6.890625 40.890625 13.453125 
Q 46.046875 20.015625 46.78125 33.40625 
Q 43.953125 29.203125 39.59375 26.953125 
Q 35.25 24.703125 29.984375 24.703125 
Q 19.046875 24.703125 12.671875 31.3125 
Q 6.296875 37.9375 6.296875 49.421875 
Q 6.296875 60.640625 12.9375 67.421875 
Q 19.578125 74.21875 30.609375 74.21875 
Q 43.265625 74.21875 49.921875 64.515625 
Q 56.59375 54.828125 56.59375 36.375 
Q 56.59375 19.140625 48.40625 8.859375 
Q 40.234375 -1.421875 26.421875 -1.421875 
Q 22.703125 -1.421875 18.890625 -0.6875 
Q 15.09375 0.046875 10.984375 1.515625 
z
M 30.609375 32.421875 
Q 37.25 32.421875 41.125 36.953125 
Q 45.015625 41.5 45.015625 49.421875 
Q 45.015625 57.28125 41.125 61.84375 
Q 37.25 66.40625 30.609375 66.40625 
Q 23.96875 66.40625 20.09375 61.84375 
Q 16.21875 57.28125 16.21875 49.421875 
Q 16.21875 41.5 20.09375 36.953125 
Q 23.96875 32.421875 30.609375 32.421875 
z
" id="DejaVuSans-57"/>
       </defs>
       <use xlink:href="#DejaVuSans-8722"/>
       <use x="83.789062" xlink:href="#DejaVuSans-57"/>
       <use x="147.412109" xlink:href="#DejaVuSans-48"/>
       <use x="211.035156" xlink:href="#DejaVuSans-48"/>
       <use x="274.658203" xlink:href="#DejaVuSans-48"/>
       <use x="338.28125" xlink:href="#DejaVuSans-48"/>
      </g>
     </g>
    </g>
    <g id="ytick_7">
     <g id="line2d_13">
      <path clip-path="url(#pc403580f0e)" d="M 67.232812 31.877626 
L 371.596449 31.877626 
" style="fill:none;stroke:#cccccc;stroke-linecap:round;stroke-width:0.8;"/>
     </g>
     <g id="text_14">
      <!-- −80000 -->
      <g style="fill:#262626;" transform="translate(20.040625 35.676845)scale(0.1 -0.1)">
       <use xlink:href="#DejaVuSans-8722"/>
       <use x="83.789062" xlink:href="#DejaVuSans-56"/>
       <use x="147.412109" xlink:href="#DejaVuSans-48"/>
       <use x="211.035156" xlink:href="#DejaVuSans-48"/>
       <use x="274.658203" xlink:href="#DejaVuSans-48"/>
       <use x="338.28125" xlink:href="#DejaVuSans-48"/>
      </g>
     </g>
    </g>
    <g id="text_15">
     <!-- ELBO -->
     <g style="fill:#262626;" transform="translate(7.598437 194.662344)rotate(-90)scale(0.1 -0.1)">
      <defs>
       <path d="M 9.8125 72.90625 
L 19.671875 72.90625 
L 19.671875 8.296875 
L 55.171875 8.296875 
L 55.171875 0 
L 9.8125 0 
z
" id="DejaVuSans-76"/>
       <path d="M 19.671875 34.8125 
L 19.671875 8.109375 
L 35.5 8.109375 
Q 43.453125 8.109375 47.28125 11.40625 
Q 51.125 14.703125 51.125 21.484375 
Q 51.125 28.328125 47.28125 31.5625 
Q 43.453125 34.8125 35.5 34.8125 
z
M 19.671875 64.796875 
L 19.671875 42.828125 
L 34.28125 42.828125 
Q 41.5 42.828125 45.03125 45.53125 
Q 48.578125 48.25 48.578125 53.8125 
Q 48.578125 59.328125 45.03125 62.0625 
Q 41.5 64.796875 34.28125 64.796875 
z
M 9.8125 72.90625 
L 35.015625 72.90625 
Q 46.296875 72.90625 52.390625 68.21875 
Q 58.5 63.53125 58.5 54.890625 
Q 58.5 48.1875 55.375 44.234375 
Q 52.25 40.28125 46.1875 39.3125 
Q 53.46875 37.75 57.5 32.78125 
Q 61.53125 27.828125 61.53125 20.40625 
Q 61.53125 10.640625 54.890625 5.3125 
Q 48.25 0 35.984375 0 
L 9.8125 0 
z
" id="DejaVuSans-66"/>
       <path d="M 39.40625 66.21875 
Q 28.65625 66.21875 22.328125 58.203125 
Q 16.015625 50.203125 16.015625 36.375 
Q 16.015625 22.609375 22.328125 14.59375 
Q 28.65625 6.59375 39.40625 6.59375 
Q 50.140625 6.59375 56.421875 14.59375 
Q 62.703125 22.609375 62.703125 36.375 
Q 62.703125 50.203125 56.421875 58.203125 
Q 50.140625 66.21875 39.40625 66.21875 
z
M 39.40625 74.21875 
Q 54.734375 74.21875 63.90625 63.9375 
Q 73.09375 53.65625 73.09375 36.375 
Q 73.09375 19.140625 63.90625 8.859375 
Q 54.734375 -1.421875 39.40625 -1.421875 
Q 24.03125 -1.421875 14.8125 8.828125 
Q 5.609375 19.09375 5.609375 36.375 
Q 5.609375 53.65625 14.8125 63.9375 
Q 24.03125 74.21875 39.40625 74.21875 
z
" id="DejaVuSans-79"/>
      </defs>
      <use xlink:href="#DejaVuSans-69"/>
      <use x="63.183594" xlink:href="#DejaVuSans-76"/>
      <use x="118.896484" xlink:href="#DejaVuSans-66"/>
      <use x="185.75" xlink:href="#DejaVuSans-79"/>
     </g>
    </g>
   </g>
   <g id="line2d_14">
    <path clip-path="url(#pc403580f0e)" d="M 81.067523 332.638125 
L 83.862414 202.370276 
L 86.657305 172.312235 
L 89.452196 151.433188 
L 92.247087 136.193786 
L 95.041979 124.089748 
L 97.83687 114.141572 
L 100.631761 106.271545 
L 103.426652 100.257535 
L 106.221543 95.115007 
L 109.016434 90.746857 
L 111.811325 86.772705 
L 114.606216 83.332747 
L 117.401107 80.012355 
L 120.195998 77.279931 
L 122.990889 74.79893 
L 125.78578 72.462539 
L 128.580671 70.30054 
L 131.375562 68.619174 
L 134.170453 66.440594 
L 136.965344 65.181537 
L 139.760235 63.539239 
L 142.555127 62.065468 
L 145.350018 60.742922 
L 148.144909 59.509797 
L 150.9398 58.215582 
L 153.734691 57.228187 
L 156.529582 56.104705 
L 159.324473 55.043106 
L 162.119364 54.154012 
L 164.914255 53.188827 
L 167.709146 52.313829 
L 170.504037 51.613655 
L 173.298928 50.721214 
L 176.093819 50.141841 
L 178.88871 49.134579 
L 181.683601 48.613079 
L 184.478492 47.98419 
L 187.273383 47.204732 
L 190.068275 46.684604 
L 192.863166 46.136051 
L 195.658057 45.58024 
L 198.452948 44.878114 
L 201.247839 44.387791 
L 204.04273 44.038778 
L 206.837621 43.470766 
L 209.632512 42.890722 
L 212.427403 42.486136 
L 215.222294 42.150916 
L 218.017185 41.664328 
L 220.812076 41.234219 
L 223.606967 41.004056 
L 226.401858 40.459977 
L 229.196749 40.165838 
L 231.99164 39.70336 
L 234.786532 39.349833 
L 237.581423 39.091308 
L 240.376314 38.792871 
L 243.171205 38.476095 
L 245.966096 38.118763 
L 248.760987 37.81758 
L 251.555878 37.54359 
L 254.350769 37.240837 
L 257.14566 36.945303 
L 259.940551 36.721325 
L 262.735442 36.550626 
L 265.530333 36.099093 
L 268.325224 35.903693 
L 271.120115 35.70042 
L 273.915006 35.473688 
L 276.709897 35.167433 
L 279.504788 35.083207 
L 282.29968 34.740609 
L 285.094571 34.509401 
L 287.889462 34.439946 
L 290.684353 34.121152 
L 293.479244 33.994621 
L 296.274135 33.77085 
L 299.069026 33.544166 
L 301.863917 33.423263 
L 304.658808 33.20666 
L 307.453699 32.976672 
L 310.24859 32.824471 
L 313.043481 32.628857 
L 315.838372 32.511466 
L 318.633263 32.374005 
L 321.428154 32.093767 
L 324.223045 31.947969 
L 327.017936 31.798479 
L 329.812828 31.719146 
L 332.607719 31.525427 
L 335.40261 31.351254 
L 338.197501 31.283379 
L 340.992392 31.12226 
L 343.787283 30.870608 
L 346.582174 30.85784 
L 349.377065 30.675692 
L 352.171956 30.533254 
L 354.966847 30.414613 
L 357.761738 30.238125 
" style="fill:none;stroke:#0047ab;stroke-linecap:round;stroke-width:1.5;"/>
   </g>
   <g id="line2d_15">
    <path clip-path="url(#pc403580f0e)" d="M 81.067523 225.871598 
L 83.862414 182.506126 
L 86.657305 159.367422 
L 89.452196 142.978986 
L 92.247087 129.757327 
L 95.041979 119.573142 
L 97.83687 110.1369 
L 100.631761 103.939594 
L 103.426652 97.31602 
L 106.221543 93.383858 
L 109.016434 88.338416 
L 111.811325 94.437245 
L 114.606216 85.263651 
L 117.401107 84.473339 
L 120.195998 76.552754 
L 122.990889 74.820257 
L 125.78578 71.48604 
L 128.580671 71.057544 
L 131.375562 68.382959 
L 134.170453 67.436128 
L 136.965344 65.246852 
L 139.760235 65.485685 
L 142.555127 62.325748 
L 145.350018 62.311146 
L 148.144909 70.362706 
L 150.9398 59.87754 
L 153.734691 59.349302 
L 156.529582 58.772239 
L 159.324473 56.642344 
L 162.119364 55.106347 
L 164.914255 55.70209 
L 167.709146 53.753463 
L 170.504037 53.080194 
L 173.298928 52.878227 
L 176.093819 53.638975 
L 178.88871 50.99724 
L 181.683601 52.725254 
L 184.478492 49.862534 
L 187.273383 54.825902 
L 190.068275 49.546586 
L 192.863166 48.974757 
L 195.658057 47.680156 
L 198.452948 48.00326 
L 201.247839 47.118809 
L 204.04273 46.322656 
L 206.837621 47.409422 
L 209.632512 46.754348 
L 212.427403 45.522173 
L 215.222294 44.7729 
L 218.017185 44.361871 
L 220.812076 43.857159 
L 223.606967 44.535538 
L 226.401858 43.401522 
L 229.196749 43.370656 
L 231.99164 42.797189 
L 234.786532 42.959902 
L 237.581423 42.989585 
L 240.376314 43.200099 
L 243.171205 42.543704 
L 245.966096 41.272095 
L 248.760987 41.506621 
L 251.555878 41.083469 
L 254.350769 40.353074 
L 257.14566 40.395436 
L 259.940551 40.827445 
L 262.735442 39.581442 
L 265.530333 41.052213 
L 268.325224 40.392127 
L 271.120115 41.264278 
L 273.915006 39.039595 
L 276.709897 38.959626 
L 279.504788 38.898769 
L 282.29968 40.702653 
L 285.094571 38.577777 
L 287.889462 38.027434 
L 290.684353 38.468916 
L 293.479244 37.509733 
L 296.274135 40.61891 
L 299.069026 37.209707 
L 301.863917 37.99871 
L 304.658808 37.32062 
L 307.453699 36.561972 
L 310.24859 36.792742 
L 313.043481 36.565111 
L 315.838372 36.769847 
L 318.633263 37.552977 
L 321.428154 36.741891 
L 324.223045 36.592567 
L 327.017936 36.435033 
L 329.812828 35.980015 
L 332.607719 35.778524 
L 335.40261 35.639804 
L 338.197501 36.049841 
L 340.992392 35.338831 
L 343.787283 36.310834 
L 346.582174 37.392184 
L 349.377065 35.071428 
L 352.171956 35.925468 
L 354.966847 35.632811 
L 357.761738 36.35988 
" style="fill:none;stroke:#ab0000;stroke-linecap:round;stroke-width:1.5;"/>
   </g>
   <g id="patch_3">
    <path d="M 67.232812 347.758125 
L 67.232812 15.118125 
" style="fill:none;stroke:#cccccc;stroke-linecap:square;stroke-linejoin:miter;stroke-width:0.8;"/>
   </g>
   <g id="patch_4">
    <path d="M 371.596449 347.758125 
L 371.596449 15.118125 
" style="fill:none;stroke:#cccccc;stroke-linecap:square;stroke-linejoin:miter;stroke-width:0.8;"/>
   </g>
   <g id="patch_5">
    <path d="M 67.232812 347.758125 
L 371.596449 347.758125 
" style="fill:none;stroke:#cccccc;stroke-linecap:square;stroke-linejoin:miter;stroke-width:0.8;"/>
   </g>
   <g id="patch_6">
    <path d="M 67.232812 15.118125 
L 371.596449 15.118125 
" style="fill:none;stroke:#cccccc;stroke-linecap:square;stroke-linejoin:miter;stroke-width:0.8;"/>
   </g>
   <g id="text_16">
    <!-- ELBO over Epochs -->
    <g style="fill:#262626;" transform="translate(164.852131 9.118125)scale(0.12 -0.12)">
     <defs>
      <path id="DejaVuSans-32"/>
      <path d="M 2.984375 54.6875 
L 12.5 54.6875 
L 29.59375 8.796875 
L 46.6875 54.6875 
L 56.203125 54.6875 
L 35.6875 0 
L 23.484375 0 
z
" id="DejaVuSans-118"/>
      <path d="M 56.203125 29.59375 
L 56.203125 25.203125 
L 14.890625 25.203125 
Q 15.484375 15.921875 20.484375 11.0625 
Q 25.484375 6.203125 34.421875 6.203125 
Q 39.59375 6.203125 44.453125 7.46875 
Q 49.3125 8.734375 54.109375 11.28125 
L 54.109375 2.78125 
Q 49.265625 0.734375 44.1875 -0.34375 
Q 39.109375 -1.421875 33.890625 -1.421875 
Q 20.796875 -1.421875 13.15625 6.1875 
Q 5.515625 13.8125 5.515625 26.8125 
Q 5.515625 40.234375 12.765625 48.109375 
Q 20.015625 56 32.328125 56 
Q 43.359375 56 49.78125 48.890625 
Q 56.203125 41.796875 56.203125 29.59375 
z
M 47.21875 32.234375 
Q 47.125 39.59375 43.09375 43.984375 
Q 39.0625 48.390625 32.421875 48.390625 
Q 24.90625 48.390625 20.390625 44.140625 
Q 15.875 39.890625 15.1875 32.171875 
z
" id="DejaVuSans-101"/>
      <path d="M 41.109375 46.296875 
Q 39.59375 47.171875 37.8125 47.578125 
Q 36.03125 48 33.890625 48 
Q 26.265625 48 22.1875 43.046875 
Q 18.109375 38.09375 18.109375 28.8125 
L 18.109375 0 
L 9.078125 0 
L 9.078125 54.6875 
L 18.109375 54.6875 
L 18.109375 46.1875 
Q 20.953125 51.171875 25.484375 53.578125 
Q 30.03125 56 36.53125 56 
Q 37.453125 56 38.578125 55.875 
Q 39.703125 55.765625 41.0625 55.515625 
z
" id="DejaVuSans-114"/>
     </defs>
     <use xlink:href="#DejaVuSans-69"/>
     <use x="63.183594" xlink:href="#DejaVuSans-76"/>
     <use x="118.896484" xlink:href="#DejaVuSans-66"/>
     <use x="185.75" xlink:href="#DejaVuSans-79"/>
     <use x="264.460938" xlink:href="#DejaVuSans-32"/>
     <use x="296.248047" xlink:href="#DejaVuSans-111"/>
     <use x="357.429688" xlink:href="#DejaVuSans-118"/>
     <use x="416.609375" xlink:href="#DejaVuSans-101"/>
     <use x="478.132812" xlink:href="#DejaVuSans-114"/>
     <use x="519.246094" xlink:href="#DejaVuSans-32"/>
     <use x="551.033203" xlink:href="#DejaVuSans-69"/>
     <use x="614.216797" xlink:href="#DejaVuSans-112"/>
     <use x="677.693359" xlink:href="#DejaVuSans-111"/>
     <use x="738.875" xlink:href="#DejaVuSans-99"/>
     <use x="793.855469" xlink:href="#DejaVuSans-104"/>
     <use x="857.234375" xlink:href="#DejaVuSans-115"/>
    </g>
   </g>
   <g id="legend_1">
    <g id="patch_7">
     <path d="M 253.588636 342.758125 
L 364.596449 342.758125 
Q 366.596449 342.758125 366.596449 340.758125 
L 366.596449 312.401875 
Q 366.596449 310.401875 364.596449 310.401875 
L 253.588636 310.401875 
Q 251.588636 310.401875 251.588636 312.401875 
L 251.588636 340.758125 
Q 251.588636 342.758125 253.588636 342.758125 
z
" style="fill:#ffffff;opacity:0.8;stroke:#cccccc;stroke-linejoin:miter;"/>
    </g>
    <g id="line2d_16">
     <path d="M 255.588636 318.500313 
L 275.588636 318.500313 
" style="fill:none;stroke:#0047ab;stroke-linecap:round;stroke-width:1.5;"/>
    </g>
    <g id="line2d_17"/>
    <g id="text_17">
     <!-- Training ELBO -->
     <g style="fill:#262626;" transform="translate(283.588636 322.000313)scale(0.1 -0.1)">
      <defs>
       <path d="M -0.296875 72.90625 
L 61.375 72.90625 
L 61.375 64.59375 
L 35.5 64.59375 
L 35.5 0 
L 25.59375 0 
L 25.59375 64.59375 
L -0.296875 64.59375 
z
" id="DejaVuSans-84"/>
       <path d="M 34.28125 27.484375 
Q 23.390625 27.484375 19.1875 25 
Q 14.984375 22.515625 14.984375 16.5 
Q 14.984375 11.71875 18.140625 8.90625 
Q 21.296875 6.109375 26.703125 6.109375 
Q 34.1875 6.109375 38.703125 11.40625 
Q 43.21875 16.703125 43.21875 25.484375 
L 43.21875 27.484375 
z
M 52.203125 31.203125 
L 52.203125 0 
L 43.21875 0 
L 43.21875 8.296875 
Q 40.140625 3.328125 35.546875 0.953125 
Q 30.953125 -1.421875 24.3125 -1.421875 
Q 15.921875 -1.421875 10.953125 3.296875 
Q 6 8.015625 6 15.921875 
Q 6 25.140625 12.171875 29.828125 
Q 18.359375 34.515625 30.609375 34.515625 
L 43.21875 34.515625 
L 43.21875 35.40625 
Q 43.21875 41.609375 39.140625 45 
Q 35.0625 48.390625 27.6875 48.390625 
Q 23 48.390625 18.546875 47.265625 
Q 14.109375 46.140625 10.015625 43.890625 
L 10.015625 52.203125 
Q 14.9375 54.109375 19.578125 55.046875 
Q 24.21875 56 28.609375 56 
Q 40.484375 56 46.34375 49.84375 
Q 52.203125 43.703125 52.203125 31.203125 
z
" id="DejaVuSans-97"/>
       <path d="M 9.421875 54.6875 
L 18.40625 54.6875 
L 18.40625 0 
L 9.421875 0 
z
M 9.421875 75.984375 
L 18.40625 75.984375 
L 18.40625 64.59375 
L 9.421875 64.59375 
z
" id="DejaVuSans-105"/>
       <path d="M 54.890625 33.015625 
L 54.890625 0 
L 45.90625 0 
L 45.90625 32.71875 
Q 45.90625 40.484375 42.875 44.328125 
Q 39.84375 48.1875 33.796875 48.1875 
Q 26.515625 48.1875 22.3125 43.546875 
Q 18.109375 38.921875 18.109375 30.90625 
L 18.109375 0 
L 9.078125 0 
L 9.078125 54.6875 
L 18.109375 54.6875 
L 18.109375 46.1875 
Q 21.34375 51.125 25.703125 53.5625 
Q 30.078125 56 35.796875 56 
Q 45.21875 56 50.046875 50.171875 
Q 54.890625 44.34375 54.890625 33.015625 
z
" id="DejaVuSans-110"/>
       <path d="M 45.40625 27.984375 
Q 45.40625 37.75 41.375 43.109375 
Q 37.359375 48.484375 30.078125 48.484375 
Q 22.859375 48.484375 18.828125 43.109375 
Q 14.796875 37.75 14.796875 27.984375 
Q 14.796875 18.265625 18.828125 12.890625 
Q 22.859375 7.515625 30.078125 7.515625 
Q 37.359375 7.515625 41.375 12.890625 
Q 45.40625 18.265625 45.40625 27.984375 
z
M 54.390625 6.78125 
Q 54.390625 -7.171875 48.1875 -13.984375 
Q 42 -20.796875 29.203125 -20.796875 
Q 24.46875 -20.796875 20.265625 -20.09375 
Q 16.0625 -19.390625 12.109375 -17.921875 
L 12.109375 -9.1875 
Q 16.0625 -11.328125 19.921875 -12.34375 
Q 23.78125 -13.375 27.78125 -13.375 
Q 36.625 -13.375 41.015625 -8.765625 
Q 45.40625 -4.15625 45.40625 5.171875 
L 45.40625 9.625 
Q 42.625 4.78125 38.28125 2.390625 
Q 33.9375 0 27.875 0 
Q 17.828125 0 11.671875 7.65625 
Q 5.515625 15.328125 5.515625 27.984375 
Q 5.515625 40.671875 11.671875 48.328125 
Q 17.828125 56 27.875 56 
Q 33.9375 56 38.28125 53.609375 
Q 42.625 51.21875 45.40625 46.390625 
L 45.40625 54.6875 
L 54.390625 54.6875 
z
" id="DejaVuSans-103"/>
      </defs>
      <use xlink:href="#DejaVuSans-84"/>
      <use x="46.333984" xlink:href="#DejaVuSans-114"/>
      <use x="87.447266" xlink:href="#DejaVuSans-97"/>
      <use x="148.726562" xlink:href="#DejaVuSans-105"/>
      <use x="176.509766" xlink:href="#DejaVuSans-110"/>
      <use x="239.888672" xlink:href="#DejaVuSans-105"/>
      <use x="267.671875" xlink:href="#DejaVuSans-110"/>
      <use x="331.050781" xlink:href="#DejaVuSans-103"/>
      <use x="394.527344" xlink:href="#DejaVuSans-32"/>
      <use x="426.314453" xlink:href="#DejaVuSans-69"/>
      <use x="489.498047" xlink:href="#DejaVuSans-76"/>
      <use x="545.210938" xlink:href="#DejaVuSans-66"/>
      <use x="612.064453" xlink:href="#DejaVuSans-79"/>
     </g>
    </g>
    <g id="line2d_18">
     <path d="M 255.588636 333.178437 
L 275.588636 333.178437 
" style="fill:none;stroke:#ab0000;stroke-linecap:round;stroke-width:1.5;"/>
    </g>
    <g id="line2d_19"/>
    <g id="text_18">
     <!-- Validation ELBO -->
     <g style="fill:#262626;" transform="translate(283.588636 336.678437)scale(0.1 -0.1)">
      <defs>
       <path d="M 28.609375 0 
L 0.78125 72.90625 
L 11.078125 72.90625 
L 34.1875 11.53125 
L 57.328125 72.90625 
L 67.578125 72.90625 
L 39.796875 0 
z
" id="DejaVuSans-86"/>
       <path d="M 9.421875 75.984375 
L 18.40625 75.984375 
L 18.40625 0 
L 9.421875 0 
z
" id="DejaVuSans-108"/>
       <path d="M 45.40625 46.390625 
L 45.40625 75.984375 
L 54.390625 75.984375 
L 54.390625 0 
L 45.40625 0 
L 45.40625 8.203125 
Q 42.578125 3.328125 38.25 0.953125 
Q 33.9375 -1.421875 27.875 -1.421875 
Q 17.96875 -1.421875 11.734375 6.484375 
Q 5.515625 14.40625 5.515625 27.296875 
Q 5.515625 40.1875 11.734375 48.09375 
Q 17.96875 56 27.875 56 
Q 33.9375 56 38.25 53.625 
Q 42.578125 51.265625 45.40625 46.390625 
z
M 14.796875 27.296875 
Q 14.796875 17.390625 18.875 11.75 
Q 22.953125 6.109375 30.078125 6.109375 
Q 37.203125 6.109375 41.296875 11.75 
Q 45.40625 17.390625 45.40625 27.296875 
Q 45.40625 37.203125 41.296875 42.84375 
Q 37.203125 48.484375 30.078125 48.484375 
Q 22.953125 48.484375 18.875 42.84375 
Q 14.796875 37.203125 14.796875 27.296875 
z
" id="DejaVuSans-100"/>
       <path d="M 18.3125 70.21875 
L 18.3125 54.6875 
L 36.8125 54.6875 
L 36.8125 47.703125 
L 18.3125 47.703125 
L 18.3125 18.015625 
Q 18.3125 11.328125 20.140625 9.421875 
Q 21.96875 7.515625 27.59375 7.515625 
L 36.8125 7.515625 
L 36.8125 0 
L 27.59375 0 
Q 17.1875 0 13.234375 3.875 
Q 9.28125 7.765625 9.28125 18.015625 
L 9.28125 47.703125 
L 2.6875 47.703125 
L 2.6875 54.6875 
L 9.28125 54.6875 
L 9.28125 70.21875 
z
" id="DejaVuSans-116"/>
      </defs>
      <use xlink:href="#DejaVuSans-86"/>
      <use x="60.658203" xlink:href="#DejaVuSans-97"/>
      <use x="121.9375" xlink:href="#DejaVuSans-108"/>
      <use x="149.720703" xlink:href="#DejaVuSans-105"/>
      <use x="177.503906" xlink:href="#DejaVuSans-100"/>
      <use x="240.980469" xlink:href="#DejaVuSans-97"/>
      <use x="302.259766" xlink:href="#DejaVuSans-116"/>
      <use x="341.46875" xlink:href="#DejaVuSans-105"/>
      <use x="369.251953" xlink:href="#DejaVuSans-111"/>
      <use x="430.433594" xlink:href="#DejaVuSans-110"/>
      <use x="493.8125" xlink:href="#DejaVuSans-32"/>
      <use x="525.599609" xlink:href="#DejaVuSans-69"/>
      <use x="588.783203" xlink:href="#DejaVuSans-76"/>
      <use x="644.496094" xlink:href="#DejaVuSans-66"/>
      <use x="711.349609" xlink:href="#DejaVuSans-79"/>
     </g>
    </g>
   </g>
  </g>
  <g id="axes_2">
   <g id="patch_8">
    <path d="M 432.469176 347.758125 
L 736.832812 347.758125 
L 736.832812 15.118125 
L 432.469176 15.118125 
z
" style="fill:none;"/>
   </g>
   <g id="matplotlib.axis_3">
    <g id="xtick_7">
     <g id="line2d_20">
      <path clip-path="url(#pbda6bc01f3)" d="M 446.303887 347.758125 
L 446.303887 15.118125 
" style="fill:none;stroke:#cccccc;stroke-linecap:round;stroke-width:0.8;"/>
     </g>
     <g id="text_19">
      <!-- 0 -->
      <g style="fill:#262626;" transform="translate(443.122637 362.356562)scale(0.1 -0.1)">
       <use xlink:href="#DejaVuSans-48"/>
      </g>
     </g>
    </g>
    <g id="xtick_8">
     <g id="line2d_21">
      <path clip-path="url(#pbda6bc01f3)" d="M 502.201708 347.758125 
L 502.201708 15.118125 
" style="fill:none;stroke:#cccccc;stroke-linecap:round;stroke-width:0.8;"/>
     </g>
     <g id="text_20">
      <!-- 20 -->
      <g style="fill:#262626;" transform="translate(495.839208 362.356562)scale(0.1 -0.1)">
       <use xlink:href="#DejaVuSans-50"/>
       <use x="63.623047" xlink:href="#DejaVuSans-48"/>
      </g>
     </g>
    </g>
    <g id="xtick_9">
     <g id="line2d_22">
      <path clip-path="url(#pbda6bc01f3)" d="M 558.099529 347.758125 
L 558.099529 15.118125 
" style="fill:none;stroke:#cccccc;stroke-linecap:round;stroke-width:0.8;"/>
     </g>
     <g id="text_21">
      <!-- 40 -->
      <g style="fill:#262626;" transform="translate(551.737029 362.356562)scale(0.1 -0.1)">
       <use xlink:href="#DejaVuSans-52"/>
       <use x="63.623047" xlink:href="#DejaVuSans-48"/>
      </g>
     </g>
    </g>
    <g id="xtick_10">
     <g id="line2d_23">
      <path clip-path="url(#pbda6bc01f3)" d="M 613.99735 347.758125 
L 613.99735 15.118125 
" style="fill:none;stroke:#cccccc;stroke-linecap:round;stroke-width:0.8;"/>
     </g>
     <g id="text_22">
      <!-- 60 -->
      <g style="fill:#262626;" transform="translate(607.63485 362.356562)scale(0.1 -0.1)">
       <use xlink:href="#DejaVuSans-54"/>
       <use x="63.623047" xlink:href="#DejaVuSans-48"/>
      </g>
     </g>
    </g>
    <g id="xtick_11">
     <g id="line2d_24">
      <path clip-path="url(#pbda6bc01f3)" d="M 669.895172 347.758125 
L 669.895172 15.118125 
" style="fill:none;stroke:#cccccc;stroke-linecap:round;stroke-width:0.8;"/>
     </g>
     <g id="text_23">
      <!-- 80 -->
      <g style="fill:#262626;" transform="translate(663.532672 362.356562)scale(0.1 -0.1)">
       <use xlink:href="#DejaVuSans-56"/>
       <use x="63.623047" xlink:href="#DejaVuSans-48"/>
      </g>
     </g>
    </g>
    <g id="xtick_12">
     <g id="line2d_25">
      <path clip-path="url(#pbda6bc01f3)" d="M 725.792993 347.758125 
L 725.792993 15.118125 
" style="fill:none;stroke:#cccccc;stroke-linecap:round;stroke-width:0.8;"/>
     </g>
     <g id="text_24">
      <!-- 100 -->
      <g style="fill:#262626;" transform="translate(716.249243 362.356562)scale(0.1 -0.1)">
       <use xlink:href="#DejaVuSans-49"/>
       <use x="63.623047" xlink:href="#DejaVuSans-48"/>
       <use x="127.246094" xlink:href="#DejaVuSans-48"/>
      </g>
     </g>
    </g>
    <g id="text_25">
     <!-- Epochs -->
     <g style="fill:#262626;" transform="translate(566.735369 376.034688)scale(0.1 -0.1)">
      <use xlink:href="#DejaVuSans-69"/>
      <use x="63.183594" xlink:href="#DejaVuSans-112"/>
      <use x="126.660156" xlink:href="#DejaVuSans-111"/>
      <use x="187.841797" xlink:href="#DejaVuSans-99"/>
      <use x="242.822266" xlink:href="#DejaVuSans-104"/>
      <use x="306.201172" xlink:href="#DejaVuSans-115"/>
     </g>
    </g>
   </g>
   <g id="matplotlib.axis_4">
    <g id="ytick_8">
     <g id="line2d_26">
      <path clip-path="url(#pbda6bc01f3)" d="M 432.469176 316.36213 
L 736.832812 316.36213 
" style="fill:none;stroke:#cccccc;stroke-linecap:round;stroke-width:0.8;"/>
     </g>
     <g id="text_26">
      <!-- 650 -->
      <g style="fill:#262626;" transform="translate(406.381676 320.161349)scale(0.1 -0.1)">
       <defs>
        <path d="M 10.796875 72.90625 
L 49.515625 72.90625 
L 49.515625 64.59375 
L 19.828125 64.59375 
L 19.828125 46.734375 
Q 21.96875 47.46875 24.109375 47.828125 
Q 26.265625 48.1875 28.421875 48.1875 
Q 40.625 48.1875 47.75 41.5 
Q 54.890625 34.8125 54.890625 23.390625 
Q 54.890625 11.625 47.5625 5.09375 
Q 40.234375 -1.421875 26.90625 -1.421875 
Q 22.3125 -1.421875 17.546875 -0.640625 
Q 12.796875 0.140625 7.71875 1.703125 
L 7.71875 11.625 
Q 12.109375 9.234375 16.796875 8.0625 
Q 21.484375 6.890625 26.703125 6.890625 
Q 35.15625 6.890625 40.078125 11.328125 
Q 45.015625 15.765625 45.015625 23.390625 
Q 45.015625 31 40.078125 35.4375 
Q 35.15625 39.890625 26.703125 39.890625 
Q 22.75 39.890625 18.8125 39.015625 
Q 14.890625 38.140625 10.796875 36.28125 
z
" id="DejaVuSans-53"/>
       </defs>
       <use xlink:href="#DejaVuSans-54"/>
       <use x="63.623047" xlink:href="#DejaVuSans-53"/>
       <use x="127.246094" xlink:href="#DejaVuSans-48"/>
      </g>
     </g>
    </g>
    <g id="ytick_9">
     <g id="line2d_27">
      <path clip-path="url(#pbda6bc01f3)" d="M 432.469176 267.942098 
L 736.832812 267.942098 
" style="fill:none;stroke:#cccccc;stroke-linecap:round;stroke-width:0.8;"/>
     </g>
     <g id="text_27">
      <!-- 700 -->
      <g style="fill:#262626;" transform="translate(406.381676 271.741317)scale(0.1 -0.1)">
       <defs>
        <path d="M 8.203125 72.90625 
L 55.078125 72.90625 
L 55.078125 68.703125 
L 28.609375 0 
L 18.3125 0 
L 43.21875 64.59375 
L 8.203125 64.59375 
z
" id="DejaVuSans-55"/>
       </defs>
       <use xlink:href="#DejaVuSans-55"/>
       <use x="63.623047" xlink:href="#DejaVuSans-48"/>
       <use x="127.246094" xlink:href="#DejaVuSans-48"/>
      </g>
     </g>
    </g>
    <g id="ytick_10">
     <g id="line2d_28">
      <path clip-path="url(#pbda6bc01f3)" d="M 432.469176 219.522066 
L 736.832812 219.522066 
" style="fill:none;stroke:#cccccc;stroke-linecap:round;stroke-width:0.8;"/>
     </g>
     <g id="text_28">
      <!-- 750 -->
      <g style="fill:#262626;" transform="translate(406.381676 223.321285)scale(0.1 -0.1)">
       <use xlink:href="#DejaVuSans-55"/>
       <use x="63.623047" xlink:href="#DejaVuSans-53"/>
       <use x="127.246094" xlink:href="#DejaVuSans-48"/>
      </g>
     </g>
    </g>
    <g id="ytick_11">
     <g id="line2d_29">
      <path clip-path="url(#pbda6bc01f3)" d="M 432.469176 171.102035 
L 736.832812 171.102035 
" style="fill:none;stroke:#cccccc;stroke-linecap:round;stroke-width:0.8;"/>
     </g>
     <g id="text_29">
      <!-- 800 -->
      <g style="fill:#262626;" transform="translate(406.381676 174.901253)scale(0.1 -0.1)">
       <use xlink:href="#DejaVuSans-56"/>
       <use x="63.623047" xlink:href="#DejaVuSans-48"/>
       <use x="127.246094" xlink:href="#DejaVuSans-48"/>
      </g>
     </g>
    </g>
    <g id="ytick_12">
     <g id="line2d_30">
      <path clip-path="url(#pbda6bc01f3)" d="M 432.469176 122.682003 
L 736.832812 122.682003 
" style="fill:none;stroke:#cccccc;stroke-linecap:round;stroke-width:0.8;"/>
     </g>
     <g id="text_30">
      <!-- 850 -->
      <g style="fill:#262626;" transform="translate(406.381676 126.481222)scale(0.1 -0.1)">
       <use xlink:href="#DejaVuSans-56"/>
       <use x="63.623047" xlink:href="#DejaVuSans-53"/>
       <use x="127.246094" xlink:href="#DejaVuSans-48"/>
      </g>
     </g>
    </g>
    <g id="ytick_13">
     <g id="line2d_31">
      <path clip-path="url(#pbda6bc01f3)" d="M 432.469176 74.261971 
L 736.832812 74.261971 
" style="fill:none;stroke:#cccccc;stroke-linecap:round;stroke-width:0.8;"/>
     </g>
     <g id="text_31">
      <!-- 900 -->
      <g style="fill:#262626;" transform="translate(406.381676 78.06119)scale(0.1 -0.1)">
       <use xlink:href="#DejaVuSans-57"/>
       <use x="63.623047" xlink:href="#DejaVuSans-48"/>
       <use x="127.246094" xlink:href="#DejaVuSans-48"/>
      </g>
     </g>
    </g>
    <g id="ytick_14">
     <g id="line2d_32">
      <path clip-path="url(#pbda6bc01f3)" d="M 432.469176 25.841939 
L 736.832812 25.841939 
" style="fill:none;stroke:#cccccc;stroke-linecap:round;stroke-width:0.8;"/>
     </g>
     <g id="text_32">
      <!-- 950 -->
      <g style="fill:#262626;" transform="translate(406.381676 29.641158)scale(0.1 -0.1)">
       <use xlink:href="#DejaVuSans-57"/>
       <use x="63.623047" xlink:href="#DejaVuSans-53"/>
       <use x="127.246094" xlink:href="#DejaVuSans-48"/>
      </g>
     </g>
    </g>
    <g id="text_33">
     <!-- KL Divergence -->
     <g style="fill:#262626;" transform="translate(400.301989 217.580312)rotate(-90)scale(0.1 -0.1)">
      <defs>
       <path d="M 9.8125 72.90625 
L 19.671875 72.90625 
L 19.671875 42.09375 
L 52.390625 72.90625 
L 65.09375 72.90625 
L 28.90625 38.921875 
L 67.671875 0 
L 54.6875 0 
L 19.671875 35.109375 
L 19.671875 0 
L 9.8125 0 
z
" id="DejaVuSans-75"/>
       <path d="M 19.671875 64.796875 
L 19.671875 8.109375 
L 31.59375 8.109375 
Q 46.6875 8.109375 53.6875 14.9375 
Q 60.6875 21.78125 60.6875 36.53125 
Q 60.6875 51.171875 53.6875 57.984375 
Q 46.6875 64.796875 31.59375 64.796875 
z
M 9.8125 72.90625 
L 30.078125 72.90625 
Q 51.265625 72.90625 61.171875 64.09375 
Q 71.09375 55.28125 71.09375 36.53125 
Q 71.09375 17.671875 61.125 8.828125 
Q 51.171875 0 30.078125 0 
L 9.8125 0 
z
" id="DejaVuSans-68"/>
      </defs>
      <use xlink:href="#DejaVuSans-75"/>
      <use x="65.576172" xlink:href="#DejaVuSans-76"/>
      <use x="121.289062" xlink:href="#DejaVuSans-32"/>
      <use x="153.076172" xlink:href="#DejaVuSans-68"/>
      <use x="230.078125" xlink:href="#DejaVuSans-105"/>
      <use x="257.861328" xlink:href="#DejaVuSans-118"/>
      <use x="317.041016" xlink:href="#DejaVuSans-101"/>
      <use x="378.564453" xlink:href="#DejaVuSans-114"/>
      <use x="417.927734" xlink:href="#DejaVuSans-103"/>
      <use x="481.404297" xlink:href="#DejaVuSans-101"/>
      <use x="542.927734" xlink:href="#DejaVuSans-110"/>
      <use x="606.306641" xlink:href="#DejaVuSans-99"/>
      <use x="661.287109" xlink:href="#DejaVuSans-101"/>
     </g>
    </g>
   </g>
   <g id="line2d_33">
    <path clip-path="url(#pbda6bc01f3)" d="M 446.303887 30.238125 
L 449.098778 137.293116 
L 451.893669 128.605412 
L 454.68856 112.870248 
L 457.483451 96.290312 
L 460.278342 78.042457 
L 463.073233 65.569736 
L 465.868124 58.689993 
L 468.663015 54.346828 
L 471.457906 52.356512 
L 474.252797 51.320393 
L 477.047689 50.808001 
L 479.84258 51.196261 
L 482.637471 52.057278 
L 485.432362 54.58151 
L 488.227253 55.745002 
L 491.022144 56.711305 
L 493.817035 60.350227 
L 496.611926 63.635668 
L 499.406817 66.651422 
L 502.201708 70.029773 
L 504.996599 73.376161 
L 507.79149 75.817342 
L 510.586381 82.533636 
L 513.381272 85.77149 
L 516.176163 89.372561 
L 518.971054 91.650872 
L 521.765945 97.717039 
L 524.560837 101.236765 
L 527.355728 106.689776 
L 530.150619 109.148805 
L 532.94551 115.326464 
L 535.740401 118.763591 
L 538.535292 124.819866 
L 541.330183 128.709031 
L 544.125074 132.643746 
L 546.919965 137.223478 
L 549.714856 142.104119 
L 552.509747 145.737235 
L 555.304638 149.603804 
L 558.099529 154.533112 
L 560.89442 158.022103 
L 563.689311 162.947663 
L 566.484202 166.944502 
L 569.279093 170.819627 
L 572.073985 174.988032 
L 574.868876 178.306714 
L 577.663767 183.248223 
L 580.458658 186.205531 
L 583.253549 190.859053 
L 586.04844 194.113506 
L 588.843331 197.519705 
L 591.638222 201.546175 
L 594.433113 203.982308 
L 597.228004 207.944854 
L 600.022895 211.915568 
L 602.817786 214.349344 
L 605.612677 217.826309 
L 608.407568 220.92494 
L 611.202459 224.909973 
L 613.99735 228.055939 
L 616.792242 230.702746 
L 619.587133 234.701996 
L 622.382024 237.567623 
L 625.176915 240.216165 
L 627.971806 242.228143 
L 630.766697 245.956996 
L 633.561588 249.482672 
L 636.356479 252.545536 
L 639.15137 254.41705 
L 641.946261 257.435467 
L 644.741152 260.304504 
L 647.536043 262.569185 
L 650.330934 265.401397 
L 653.125825 267.248638 
L 655.920716 270.060487 
L 658.715607 272.984077 
L 661.510498 275.526522 
L 664.30539 277.942086 
L 667.100281 280.857809 
L 669.895172 282.813756 
L 672.690063 284.969391 
L 675.484954 286.916297 
L 678.279845 289.746309 
L 681.074736 291.048863 
L 683.869627 293.569892 
L 686.664518 296.154628 
L 689.459409 298.153361 
L 692.2543 300.049738 
L 695.049191 302.067517 
L 697.844082 304.572647 
L 700.638973 305.455488 
L 703.433864 307.940946 
L 706.228755 309.808756 
L 709.023646 311.635815 
L 711.818538 313.245585 
L 714.613429 314.991813 
L 717.40832 316.457779 
L 720.203211 318.586163 
L 722.998102 320.004193 
" style="fill:none;stroke:#0047ab;stroke-linecap:round;stroke-width:1.5;"/>
   </g>
   <g id="line2d_34">
    <path clip-path="url(#pbda6bc01f3)" d="M 446.303887 161.793946 
L 449.098778 132.557166 
L 451.893669 129.174489 
L 454.68856 82.489752 
L 457.483451 90.960437 
L 460.278342 50.314263 
L 463.073233 68.510141 
L 465.868124 51.322495 
L 468.663015 46.528859 
L 471.457906 40.70325 
L 474.252797 44.963611 
L 477.047689 91.706824 
L 479.84258 75.352797 
L 482.637471 98.73075 
L 485.432362 59.637072 
L 488.227253 44.227608 
L 491.022144 51.296103 
L 493.817035 80.349995 
L 496.611926 57.509127 
L 499.406817 75.451332 
L 502.201708 65.10818 
L 504.996599 84.803515 
L 507.79149 83.73458 
L 510.586381 72.338311 
L 513.381272 60.913141 
L 516.176163 97.693733 
L 518.971054 79.600035 
L 521.765945 117.271234 
L 524.560837 99.930374 
L 527.355728 117.025954 
L 530.150619 110.94133 
L 532.94551 117.128178 
L 535.740401 130.320552 
L 538.535292 136.337985 
L 541.330183 136.690686 
L 544.125074 138.0661 
L 546.919965 133.528511 
L 549.714856 129.985405 
L 552.509747 175.753386 
L 555.304638 157.394502 
L 558.099529 166.238594 
L 560.89442 152.040933 
L 563.689311 177.642294 
L 566.484202 157.240702 
L 569.279093 180.231706 
L 572.073985 178.572858 
L 574.868876 170.615808 
L 577.663767 195.394003 
L 580.458658 188.759052 
L 583.253549 199.154034 
L 586.04844 200.205065 
L 588.843331 195.273177 
L 591.638222 206.949552 
L 594.433113 209.977421 
L 597.228004 212.109026 
L 600.022895 203.634548 
L 602.817786 231.357937 
L 605.612677 221.590106 
L 608.407568 211.567549 
L 611.202459 231.00457 
L 613.99735 231.706427 
L 616.792242 230.356097 
L 619.587133 237.841926 
L 622.382024 238.148064 
L 625.176915 246.411765 
L 627.971806 247.631031 
L 630.766697 252.961477 
L 633.561588 242.605537 
L 636.356479 240.710558 
L 639.15137 265.25437 
L 641.946261 260.131626 
L 644.741152 273.343346 
L 647.536043 276.642883 
L 650.330934 266.488484 
L 653.125825 269.546608 
L 655.920716 276.727876 
L 658.715607 274.73344 
L 661.510498 264.284634 
L 664.30539 279.205609 
L 667.100281 271.012693 
L 669.895172 287.537775 
L 672.690063 293.602796 
L 675.484954 293.928816 
L 678.279845 292.068932 
L 681.074736 302.802668 
L 683.869627 307.807907 
L 686.664518 286.391771 
L 689.459409 310.317075 
L 692.2543 305.35133 
L 695.049191 306.399462 
L 697.844082 306.713595 
L 700.638973 307.473424 
L 703.433864 303.445175 
L 706.228755 304.604735 
L 709.023646 306.973057 
L 711.818538 323.516395 
L 714.613429 325.267717 
L 717.40832 332.638125 
L 720.203211 318.196233 
L 722.998102 319.214855 
" style="fill:none;stroke:#ab0000;stroke-linecap:round;stroke-width:1.5;"/>
   </g>
   <g id="patch_9">
    <path d="M 432.469176 347.758125 
L 432.469176 15.118125 
" style="fill:none;stroke:#cccccc;stroke-linecap:square;stroke-linejoin:miter;stroke-width:0.8;"/>
   </g>
   <g id="patch_10">
    <path d="M 736.832812 347.758125 
L 736.832812 15.118125 
" style="fill:none;stroke:#cccccc;stroke-linecap:square;stroke-linejoin:miter;stroke-width:0.8;"/>
   </g>
   <g id="patch_11">
    <path d="M 432.469176 347.758125 
L 736.832812 347.758125 
" style="fill:none;stroke:#cccccc;stroke-linecap:square;stroke-linejoin:miter;stroke-width:0.8;"/>
   </g>
   <g id="patch_12">
    <path d="M 432.469176 15.118125 
L 736.832812 15.118125 
" style="fill:none;stroke:#cccccc;stroke-linecap:square;stroke-linejoin:miter;stroke-width:0.8;"/>
   </g>
   <g id="text_34">
    <!-- KL Divergence over Epochs -->
    <g style="fill:#262626;" transform="translate(502.586932 9.118125)scale(0.12 -0.12)">
     <use xlink:href="#DejaVuSans-75"/>
     <use x="65.576172" xlink:href="#DejaVuSans-76"/>
     <use x="121.289062" xlink:href="#DejaVuSans-32"/>
     <use x="153.076172" xlink:href="#DejaVuSans-68"/>
     <use x="230.078125" xlink:href="#DejaVuSans-105"/>
     <use x="257.861328" xlink:href="#DejaVuSans-118"/>
     <use x="317.041016" xlink:href="#DejaVuSans-101"/>
     <use x="378.564453" xlink:href="#DejaVuSans-114"/>
     <use x="417.927734" xlink:href="#DejaVuSans-103"/>
     <use x="481.404297" xlink:href="#DejaVuSans-101"/>
     <use x="542.927734" xlink:href="#DejaVuSans-110"/>
     <use x="606.306641" xlink:href="#DejaVuSans-99"/>
     <use x="661.287109" xlink:href="#DejaVuSans-101"/>
     <use x="722.810547" xlink:href="#DejaVuSans-32"/>
     <use x="754.597656" xlink:href="#DejaVuSans-111"/>
     <use x="815.779297" xlink:href="#DejaVuSans-118"/>
     <use x="874.958984" xlink:href="#DejaVuSans-101"/>
     <use x="936.482422" xlink:href="#DejaVuSans-114"/>
     <use x="977.595703" xlink:href="#DejaVuSans-32"/>
     <use x="1009.382812" xlink:href="#DejaVuSans-69"/>
     <use x="1072.566406" xlink:href="#DejaVuSans-112"/>
     <use x="1136.042969" xlink:href="#DejaVuSans-111"/>
     <use x="1197.224609" xlink:href="#DejaVuSans-99"/>
     <use x="1252.205078" xlink:href="#DejaVuSans-104"/>
     <use x="1315.583984" xlink:href="#DejaVuSans-115"/>
    </g>
   </g>
   <g id="legend_2">
    <g id="patch_13">
     <path d="M 572.989062 52.474375 
L 729.832812 52.474375 
Q 731.832812 52.474375 731.832812 50.474375 
L 731.832812 22.118125 
Q 731.832812 20.118125 729.832812 20.118125 
L 572.989062 20.118125 
Q 570.989062 20.118125 570.989062 22.118125 
L 570.989062 50.474375 
Q 570.989062 52.474375 572.989062 52.474375 
z
" style="fill:#ffffff;opacity:0.8;stroke:#cccccc;stroke-linejoin:miter;"/>
    </g>
    <g id="line2d_35">
     <path d="M 574.989062 28.216562 
L 594.989062 28.216562 
" style="fill:none;stroke:#0047ab;stroke-linecap:round;stroke-width:1.5;"/>
    </g>
    <g id="line2d_36"/>
    <g id="text_35">
     <!-- Training KL Divergence -->
     <g style="fill:#262626;" transform="translate(602.989062 31.716562)scale(0.1 -0.1)">
      <use xlink:href="#DejaVuSans-84"/>
      <use x="46.333984" xlink:href="#DejaVuSans-114"/>
      <use x="87.447266" xlink:href="#DejaVuSans-97"/>
      <use x="148.726562" xlink:href="#DejaVuSans-105"/>
      <use x="176.509766" xlink:href="#DejaVuSans-110"/>
      <use x="239.888672" xlink:href="#DejaVuSans-105"/>
      <use x="267.671875" xlink:href="#DejaVuSans-110"/>
      <use x="331.050781" xlink:href="#DejaVuSans-103"/>
      <use x="394.527344" xlink:href="#DejaVuSans-32"/>
      <use x="426.314453" xlink:href="#DejaVuSans-75"/>
      <use x="491.890625" xlink:href="#DejaVuSans-76"/>
      <use x="547.603516" xlink:href="#DejaVuSans-32"/>
      <use x="579.390625" xlink:href="#DejaVuSans-68"/>
      <use x="656.392578" xlink:href="#DejaVuSans-105"/>
      <use x="684.175781" xlink:href="#DejaVuSans-118"/>
      <use x="743.355469" xlink:href="#DejaVuSans-101"/>
      <use x="804.878906" xlink:href="#DejaVuSans-114"/>
      <use x="844.242188" xlink:href="#DejaVuSans-103"/>
      <use x="907.71875" xlink:href="#DejaVuSans-101"/>
      <use x="969.242188" xlink:href="#DejaVuSans-110"/>
      <use x="1032.621094" xlink:href="#DejaVuSans-99"/>
      <use x="1087.601562" xlink:href="#DejaVuSans-101"/>
     </g>
    </g>
    <g id="line2d_37">
     <path d="M 574.989062 42.894687 
L 594.989062 42.894687 
" style="fill:none;stroke:#ab0000;stroke-linecap:round;stroke-width:1.5;"/>
    </g>
    <g id="line2d_38"/>
    <g id="text_36">
     <!-- Validation KL Divergence -->
     <g style="fill:#262626;" transform="translate(602.989062 46.394687)scale(0.1 -0.1)">
      <use xlink:href="#DejaVuSans-86"/>
      <use x="60.658203" xlink:href="#DejaVuSans-97"/>
      <use x="121.9375" xlink:href="#DejaVuSans-108"/>
      <use x="149.720703" xlink:href="#DejaVuSans-105"/>
      <use x="177.503906" xlink:href="#DejaVuSans-100"/>
      <use x="240.980469" xlink:href="#DejaVuSans-97"/>
      <use x="302.259766" xlink:href="#DejaVuSans-116"/>
      <use x="341.46875" xlink:href="#DejaVuSans-105"/>
      <use x="369.251953" xlink:href="#DejaVuSans-111"/>
      <use x="430.433594" xlink:href="#DejaVuSans-110"/>
      <use x="493.8125" xlink:href="#DejaVuSans-32"/>
      <use x="525.599609" xlink:href="#DejaVuSans-75"/>
      <use x="591.175781" xlink:href="#DejaVuSans-76"/>
      <use x="646.888672" xlink:href="#DejaVuSans-32"/>
      <use x="678.675781" xlink:href="#DejaVuSans-68"/>
      <use x="755.677734" xlink:href="#DejaVuSans-105"/>
      <use x="783.460938" xlink:href="#DejaVuSans-118"/>
      <use x="842.640625" xlink:href="#DejaVuSans-101"/>
      <use x="904.164062" xlink:href="#DejaVuSans-114"/>
      <use x="943.527344" xlink:href="#DejaVuSans-103"/>
      <use x="1007.003906" xlink:href="#DejaVuSans-101"/>
      <use x="1068.527344" xlink:href="#DejaVuSans-110"/>
      <use x="1131.90625" xlink:href="#DejaVuSans-99"/>
      <use x="1186.886719" xlink:href="#DejaVuSans-101"/>
     </g>
    </g>
   </g>
  </g>
 </g>
 <defs>
  <clipPath id="pc403580f0e">
   <rect height="332.64" width="304.363636" x="67.232812" y="15.118125"/>
  </clipPath>
  <clipPath id="pbda6bc01f3">
   <rect height="332.64" width="304.363636" x="432.469176" y="15.118125"/>
  </clipPath>
 </defs>
</svg>
