<?xml version="1.0" encoding="utf-8" standalone="no"?>
<!DOCTYPE svg PUBLIC "-//W3C//DTD SVG 1.1//EN"
  "http://www.w3.org/Graphics/SVG/1.1/DTD/svg11.dtd">
<!-- Created with matplotlib (https://matplotlib.org/) -->
<svg height="378.114375pt" version="1.1" viewBox="0 0 736.832812 378.114375" width="736.832812pt" xmlns="http://www.w3.org/2000/svg" xmlns:xlink="http://www.w3.org/1999/xlink">
 <metadata>
  <rdf:RDF xmlns:cc="http://creativecommons.org/ns#" xmlns:dc="http://purl.org/dc/elements/1.1/" xmlns:rdf="http://www.w3.org/1999/02/22-rdf-syntax-ns#">
   <cc:Work>
    <dc:type rdf:resource="http://purl.org/dc/dcmitype/StillImage"/>
    <dc:date>2023-12-15T12:33:18.288891</dc:date>
    <dc:format>image/svg+xml</dc:format>
    <dc:creator>
     <cc:Agent>
      <dc:title>Matplotlib v3.3.4, https://matplotlib.org/</dc:title>
     </cc:Agent>
    </dc:creator>
   </cc:Work>
  </rdf:RDF>
 </metadata>
 <defs>
  <style type="text/css">*{stroke-linecap:butt;stroke-linejoin:round;}</style>
 </defs>
 <g id="figure_1">
  <g id="patch_1">
   <path d="M 0 378.114375 
L 736.832812 378.114375 
L 736.832812 0 
L 0 0 
z
" style="fill:none;"/>
  </g>
  <g id="axes_1">
   <g id="patch_2">
    <path d="M 67.232812 347.758125 
L 371.596449 347.758125 
L 371.596449 15.118125 
L 67.232812 15.118125 
z
" style="fill:none;"/>
   </g>
   <g id="matplotlib.axis_1">
    <g id="xtick_1">
     <g id="line2d_1">
      <path clip-path="url(#pb691359408)" d="M 81.067523 347.758125 
L 81.067523 15.118125 
" style="fill:none;stroke:#cccccc;stroke-linecap:round;stroke-width:0.8;"/>
     </g>
     <g id="text_1">
      <!-- 0 -->
      <g style="fill:#262626;" transform="translate(77.886273 362.356562)scale(0.1 -0.1)">
       <defs>
        <path d="M 31.78125 66.40625 
Q 24.171875 66.40625 20.328125 58.90625 
Q 16.5 51.421875 16.5 36.375 
Q 16.5 21.390625 20.328125 13.890625 
Q 24.171875 6.390625 31.78125 6.390625 
Q 39.453125 6.390625 43.28125 13.890625 
Q 47.125 21.390625 47.125 36.375 
Q 47.125 51.421875 43.28125 58.90625 
Q 39.453125 66.40625 31.78125 66.40625 
z
M 31.78125 74.21875 
Q 44.046875 74.21875 50.515625 64.515625 
Q 56.984375 54.828125 56.984375 36.375 
Q 56.984375 17.96875 50.515625 8.265625 
Q 44.046875 -1.421875 31.78125 -1.421875 
Q 19.53125 -1.421875 13.0625 8.265625 
Q 6.59375 17.96875 6.59375 36.375 
Q 6.59375 54.828125 13.0625 64.515625 
Q 19.53125 74.21875 31.78125 74.21875 
z
" id="DejaVuSans-48"/>
       </defs>
       <use xlink:href="#DejaVuSans-48"/>
      </g>
     </g>
    </g>
    <g id="xtick_2">
     <g id="line2d_2">
      <path clip-path="url(#pb691359408)" d="M 136.406366 347.758125 
L 136.406366 15.118125 
" style="fill:none;stroke:#cccccc;stroke-linecap:round;stroke-width:0.8;"/>
     </g>
     <g id="text_2">
      <!-- 20 -->
      <g style="fill:#262626;" transform="translate(130.043866 362.356562)scale(0.1 -0.1)">
       <defs>
        <path d="M 19.1875 8.296875 
L 53.609375 8.296875 
L 53.609375 0 
L 7.328125 0 
L 7.328125 8.296875 
Q 12.9375 14.109375 22.625 23.890625 
Q 32.328125 33.6875 34.8125 36.53125 
Q 39.546875 41.84375 41.421875 45.53125 
Q 43.3125 49.21875 43.3125 52.78125 
Q 43.3125 58.59375 39.234375 62.25 
Q 35.15625 65.921875 28.609375 65.921875 
Q 23.96875 65.921875 18.8125 64.3125 
Q 13.671875 62.703125 7.8125 59.421875 
L 7.8125 69.390625 
Q 13.765625 71.78125 18.9375 73 
Q 24.125 74.21875 28.421875 74.21875 
Q 39.75 74.21875 46.484375 68.546875 
Q 53.21875 62.890625 53.21875 53.421875 
Q 53.21875 48.921875 51.53125 44.890625 
Q 49.859375 40.875 45.40625 35.40625 
Q 44.1875 33.984375 37.640625 27.21875 
Q 31.109375 20.453125 19.1875 8.296875 
z
" id="DejaVuSans-50"/>
       </defs>
       <use xlink:href="#DejaVuSans-50"/>
       <use x="63.623047" xlink:href="#DejaVuSans-48"/>
      </g>
     </g>
    </g>
    <g id="xtick_3">
     <g id="line2d_3">
      <path clip-path="url(#pb691359408)" d="M 191.745209 347.758125 
L 191.745209 15.118125 
" style="fill:none;stroke:#cccccc;stroke-linecap:round;stroke-width:0.8;"/>
     </g>
     <g id="text_3">
      <!-- 40 -->
      <g style="fill:#262626;" transform="translate(185.382709 362.356562)scale(0.1 -0.1)">
       <defs>
        <path d="M 37.796875 64.3125 
L 12.890625 25.390625 
L 37.796875 25.390625 
z
M 35.203125 72.90625 
L 47.609375 72.90625 
L 47.609375 25.390625 
L 58.015625 25.390625 
L 58.015625 17.1875 
L 47.609375 17.1875 
L 47.609375 0 
L 37.796875 0 
L 37.796875 17.1875 
L 4.890625 17.1875 
L 4.890625 26.703125 
z
" id="DejaVuSans-52"/>
       </defs>
       <use xlink:href="#DejaVuSans-52"/>
       <use x="63.623047" xlink:href="#DejaVuSans-48"/>
      </g>
     </g>
    </g>
    <g id="xtick_4">
     <g id="line2d_4">
      <path clip-path="url(#pb691359408)" d="M 247.084052 347.758125 
L 247.084052 15.118125 
" style="fill:none;stroke:#cccccc;stroke-linecap:round;stroke-width:0.8;"/>
     </g>
     <g id="text_4">
      <!-- 60 -->
      <g style="fill:#262626;" transform="translate(240.721552 362.356562)scale(0.1 -0.1)">
       <defs>
        <path d="M 33.015625 40.375 
Q 26.375 40.375 22.484375 35.828125 
Q 18.609375 31.296875 18.609375 23.390625 
Q 18.609375 15.53125 22.484375 10.953125 
Q 26.375 6.390625 33.015625 6.390625 
Q 39.65625 6.390625 43.53125 10.953125 
Q 47.40625 15.53125 47.40625 23.390625 
Q 47.40625 31.296875 43.53125 35.828125 
Q 39.65625 40.375 33.015625 40.375 
z
M 52.59375 71.296875 
L 52.59375 62.3125 
Q 48.875 64.0625 45.09375 64.984375 
Q 41.3125 65.921875 37.59375 65.921875 
Q 27.828125 65.921875 22.671875 59.328125 
Q 17.53125 52.734375 16.796875 39.40625 
Q 19.671875 43.65625 24.015625 45.921875 
Q 28.375 48.1875 33.59375 48.1875 
Q 44.578125 48.1875 50.953125 41.515625 
Q 57.328125 34.859375 57.328125 23.390625 
Q 57.328125 12.15625 50.6875 5.359375 
Q 44.046875 -1.421875 33.015625 -1.421875 
Q 20.359375 -1.421875 13.671875 8.265625 
Q 6.984375 17.96875 6.984375 36.375 
Q 6.984375 53.65625 15.1875 63.9375 
Q 23.390625 74.21875 37.203125 74.21875 
Q 40.921875 74.21875 44.703125 73.484375 
Q 48.484375 72.75 52.59375 71.296875 
z
" id="DejaVuSans-54"/>
       </defs>
       <use xlink:href="#DejaVuSans-54"/>
       <use x="63.623047" xlink:href="#DejaVuSans-48"/>
      </g>
     </g>
    </g>
    <g id="xtick_5">
     <g id="line2d_5">
      <path clip-path="url(#pb691359408)" d="M 302.422895 347.758125 
L 302.422895 15.118125 
" style="fill:none;stroke:#cccccc;stroke-linecap:round;stroke-width:0.8;"/>
     </g>
     <g id="text_5">
      <!-- 80 -->
      <g style="fill:#262626;" transform="translate(296.060395 362.356562)scale(0.1 -0.1)">
       <defs>
        <path d="M 31.78125 34.625 
Q 24.75 34.625 20.71875 30.859375 
Q 16.703125 27.09375 16.703125 20.515625 
Q 16.703125 13.921875 20.71875 10.15625 
Q 24.75 6.390625 31.78125 6.390625 
Q 38.8125 6.390625 42.859375 10.171875 
Q 46.921875 13.96875 46.921875 20.515625 
Q 46.921875 27.09375 42.890625 30.859375 
Q 38.875 34.625 31.78125 34.625 
z
M 21.921875 38.8125 
Q 15.578125 40.375 12.03125 44.71875 
Q 8.5 49.078125 8.5 55.328125 
Q 8.5 64.0625 14.71875 69.140625 
Q 20.953125 74.21875 31.78125 74.21875 
Q 42.671875 74.21875 48.875 69.140625 
Q 55.078125 64.0625 55.078125 55.328125 
Q 55.078125 49.078125 51.53125 44.71875 
Q 48 40.375 41.703125 38.8125 
Q 48.828125 37.15625 52.796875 32.3125 
Q 56.78125 27.484375 56.78125 20.515625 
Q 56.78125 9.90625 50.3125 4.234375 
Q 43.84375 -1.421875 31.78125 -1.421875 
Q 19.734375 -1.421875 13.25 4.234375 
Q 6.78125 9.90625 6.78125 20.515625 
Q 6.78125 27.484375 10.78125 32.3125 
Q 14.796875 37.15625 21.921875 38.8125 
z
M 18.3125 54.390625 
Q 18.3125 48.734375 21.84375 45.5625 
Q 25.390625 42.390625 31.78125 42.390625 
Q 38.140625 42.390625 41.71875 45.5625 
Q 45.3125 48.734375 45.3125 54.390625 
Q 45.3125 60.0625 41.71875 63.234375 
Q 38.140625 66.40625 31.78125 66.40625 
Q 25.390625 66.40625 21.84375 63.234375 
Q 18.3125 60.0625 18.3125 54.390625 
z
" id="DejaVuSans-56"/>
       </defs>
       <use xlink:href="#DejaVuSans-56"/>
       <use x="63.623047" xlink:href="#DejaVuSans-48"/>
      </g>
     </g>
    </g>
    <g id="xtick_6">
     <g id="line2d_6">
      <path clip-path="url(#pb691359408)" d="M 357.761738 347.758125 
L 357.761738 15.118125 
" style="fill:none;stroke:#cccccc;stroke-linecap:round;stroke-width:0.8;"/>
     </g>
     <g id="text_6">
      <!-- 100 -->
      <g style="fill:#262626;" transform="translate(348.217988 362.356562)scale(0.1 -0.1)">
       <defs>
        <path d="M 12.40625 8.296875 
L 28.515625 8.296875 
L 28.515625 63.921875 
L 10.984375 60.40625 
L 10.984375 69.390625 
L 28.421875 72.90625 
L 38.28125 72.90625 
L 38.28125 8.296875 
L 54.390625 8.296875 
L 54.390625 0 
L 12.40625 0 
z
" id="DejaVuSans-49"/>
       </defs>
       <use xlink:href="#DejaVuSans-49"/>
       <use x="63.623047" xlink:href="#DejaVuSans-48"/>
       <use x="127.246094" xlink:href="#DejaVuSans-48"/>
      </g>
     </g>
    </g>
    <g id="text_7">
     <!-- Epochs -->
     <g style="fill:#262626;" transform="translate(201.499006 376.034688)scale(0.1 -0.1)">
      <defs>
       <path d="M 9.8125 72.90625 
L 55.90625 72.90625 
L 55.90625 64.59375 
L 19.671875 64.59375 
L 19.671875 43.015625 
L 54.390625 43.015625 
L 54.390625 34.71875 
L 19.671875 34.71875 
L 19.671875 8.296875 
L 56.78125 8.296875 
L 56.78125 0 
L 9.8125 0 
z
" id="DejaVuSans-69"/>
       <path d="M 18.109375 8.203125 
L 18.109375 -20.796875 
L 9.078125 -20.796875 
L 9.078125 54.6875 
L 18.109375 54.6875 
L 18.109375 46.390625 
Q 20.953125 51.265625 25.265625 53.625 
Q 29.59375 56 35.59375 56 
Q 45.5625 56 51.78125 48.09375 
Q 58.015625 40.1875 58.015625 27.296875 
Q 58.015625 14.40625 51.78125 6.484375 
Q 45.5625 -1.421875 35.59375 -1.421875 
Q 29.59375 -1.421875 25.265625 0.953125 
Q 20.953125 3.328125 18.109375 8.203125 
z
M 48.6875 27.296875 
Q 48.6875 37.203125 44.609375 42.84375 
Q 40.53125 48.484375 33.40625 48.484375 
Q 26.265625 48.484375 22.1875 42.84375 
Q 18.109375 37.203125 18.109375 27.296875 
Q 18.109375 17.390625 22.1875 11.75 
Q 26.265625 6.109375 33.40625 6.109375 
Q 40.53125 6.109375 44.609375 11.75 
Q 48.6875 17.390625 48.6875 27.296875 
z
" id="DejaVuSans-112"/>
       <path d="M 30.609375 48.390625 
Q 23.390625 48.390625 19.1875 42.75 
Q 14.984375 37.109375 14.984375 27.296875 
Q 14.984375 17.484375 19.15625 11.84375 
Q 23.34375 6.203125 30.609375 6.203125 
Q 37.796875 6.203125 41.984375 11.859375 
Q 46.1875 17.53125 46.1875 27.296875 
Q 46.1875 37.015625 41.984375 42.703125 
Q 37.796875 48.390625 30.609375 48.390625 
z
M 30.609375 56 
Q 42.328125 56 49.015625 48.375 
Q 55.71875 40.765625 55.71875 27.296875 
Q 55.71875 13.875 49.015625 6.21875 
Q 42.328125 -1.421875 30.609375 -1.421875 
Q 18.84375 -1.421875 12.171875 6.21875 
Q 5.515625 13.875 5.515625 27.296875 
Q 5.515625 40.765625 12.171875 48.375 
Q 18.84375 56 30.609375 56 
z
" id="DejaVuSans-111"/>
       <path d="M 48.78125 52.59375 
L 48.78125 44.1875 
Q 44.96875 46.296875 41.140625 47.34375 
Q 37.3125 48.390625 33.40625 48.390625 
Q 24.65625 48.390625 19.8125 42.84375 
Q 14.984375 37.3125 14.984375 27.296875 
Q 14.984375 17.28125 19.8125 11.734375 
Q 24.65625 6.203125 33.40625 6.203125 
Q 37.3125 6.203125 41.140625 7.25 
Q 44.96875 8.296875 48.78125 10.40625 
L 48.78125 2.09375 
Q 45.015625 0.34375 40.984375 -0.53125 
Q 36.96875 -1.421875 32.421875 -1.421875 
Q 20.0625 -1.421875 12.78125 6.34375 
Q 5.515625 14.109375 5.515625 27.296875 
Q 5.515625 40.671875 12.859375 48.328125 
Q 20.21875 56 33.015625 56 
Q 37.15625 56 41.109375 55.140625 
Q 45.0625 54.296875 48.78125 52.59375 
z
" id="DejaVuSans-99"/>
       <path d="M 54.890625 33.015625 
L 54.890625 0 
L 45.90625 0 
L 45.90625 32.71875 
Q 45.90625 40.484375 42.875 44.328125 
Q 39.84375 48.1875 33.796875 48.1875 
Q 26.515625 48.1875 22.3125 43.546875 
Q 18.109375 38.921875 18.109375 30.90625 
L 18.109375 0 
L 9.078125 0 
L 9.078125 75.984375 
L 18.109375 75.984375 
L 18.109375 46.1875 
Q 21.34375 51.125 25.703125 53.5625 
Q 30.078125 56 35.796875 56 
Q 45.21875 56 50.046875 50.171875 
Q 54.890625 44.34375 54.890625 33.015625 
z
" id="DejaVuSans-104"/>
       <path d="M 44.28125 53.078125 
L 44.28125 44.578125 
Q 40.484375 46.53125 36.375 47.5 
Q 32.28125 48.484375 27.875 48.484375 
Q 21.1875 48.484375 17.84375 46.4375 
Q 14.5 44.390625 14.5 40.28125 
Q 14.5 37.15625 16.890625 35.375 
Q 19.28125 33.59375 26.515625 31.984375 
L 29.59375 31.296875 
Q 39.15625 29.25 43.1875 25.515625 
Q 47.21875 21.78125 47.21875 15.09375 
Q 47.21875 7.46875 41.1875 3.015625 
Q 35.15625 -1.421875 24.609375 -1.421875 
Q 20.21875 -1.421875 15.453125 -0.5625 
Q 10.6875 0.296875 5.421875 2 
L 5.421875 11.28125 
Q 10.40625 8.6875 15.234375 7.390625 
Q 20.0625 6.109375 24.8125 6.109375 
Q 31.15625 6.109375 34.5625 8.28125 
Q 37.984375 10.453125 37.984375 14.40625 
Q 37.984375 18.0625 35.515625 20.015625 
Q 33.0625 21.96875 24.703125 23.78125 
L 21.578125 24.515625 
Q 13.234375 26.265625 9.515625 29.90625 
Q 5.8125 33.546875 5.8125 39.890625 
Q 5.8125 47.609375 11.28125 51.796875 
Q 16.75 56 26.8125 56 
Q 31.78125 56 36.171875 55.265625 
Q 40.578125 54.546875 44.28125 53.078125 
z
" id="DejaVuSans-115"/>
      </defs>
      <use xlink:href="#DejaVuSans-69"/>
      <use x="63.183594" xlink:href="#DejaVuSans-112"/>
      <use x="126.660156" xlink:href="#DejaVuSans-111"/>
      <use x="187.841797" xlink:href="#DejaVuSans-99"/>
      <use x="242.822266" xlink:href="#DejaVuSans-104"/>
      <use x="306.201172" xlink:href="#DejaVuSans-115"/>
     </g>
    </g>
   </g>
   <g id="matplotlib.axis_2">
    <g id="ytick_1">
     <g id="line2d_7">
      <path clip-path="url(#pb691359408)" d="M 67.232812 306.656949 
L 371.596449 306.656949 
" style="fill:none;stroke:#cccccc;stroke-linecap:round;stroke-width:0.8;"/>
     </g>
     <g id="text_8">
      <!-- −400000 -->
      <g style="fill:#262626;" transform="translate(13.678125 310.456168)scale(0.1 -0.1)">
       <defs>
        <path d="M 10.59375 35.5 
L 73.1875 35.5 
L 73.1875 27.203125 
L 10.59375 27.203125 
z
" id="DejaVuSans-8722"/>
       </defs>
       <use xlink:href="#DejaVuSans-8722"/>
       <use x="83.789062" xlink:href="#DejaVuSans-52"/>
       <use x="147.412109" xlink:href="#DejaVuSans-48"/>
       <use x="211.035156" xlink:href="#DejaVuSans-48"/>
       <use x="274.658203" xlink:href="#DejaVuSans-48"/>
       <use x="338.28125" xlink:href="#DejaVuSans-48"/>
       <use x="401.904297" xlink:href="#DejaVuSans-48"/>
      </g>
     </g>
    </g>
    <g id="ytick_2">
     <g id="line2d_8">
      <path clip-path="url(#pb691359408)" d="M 67.232812 254.727493 
L 371.596449 254.727493 
" style="fill:none;stroke:#cccccc;stroke-linecap:round;stroke-width:0.8;"/>
     </g>
     <g id="text_9">
      <!-- −350000 -->
      <g style="fill:#262626;" transform="translate(13.678125 258.526711)scale(0.1 -0.1)">
       <defs>
        <path d="M 40.578125 39.3125 
Q 47.65625 37.796875 51.625 33 
Q 55.609375 28.21875 55.609375 21.1875 
Q 55.609375 10.40625 48.1875 4.484375 
Q 40.765625 -1.421875 27.09375 -1.421875 
Q 22.515625 -1.421875 17.65625 -0.515625 
Q 12.796875 0.390625 7.625 2.203125 
L 7.625 11.71875 
Q 11.71875 9.328125 16.59375 8.109375 
Q 21.484375 6.890625 26.8125 6.890625 
Q 36.078125 6.890625 40.9375 10.546875 
Q 45.796875 14.203125 45.796875 21.1875 
Q 45.796875 27.640625 41.28125 31.265625 
Q 36.765625 34.90625 28.71875 34.90625 
L 20.21875 34.90625 
L 20.21875 43.015625 
L 29.109375 43.015625 
Q 36.375 43.015625 40.234375 45.921875 
Q 44.09375 48.828125 44.09375 54.296875 
Q 44.09375 59.90625 40.109375 62.90625 
Q 36.140625 65.921875 28.71875 65.921875 
Q 24.65625 65.921875 20.015625 65.03125 
Q 15.375 64.15625 9.8125 62.3125 
L 9.8125 71.09375 
Q 15.4375 72.65625 20.34375 73.4375 
Q 25.25 74.21875 29.59375 74.21875 
Q 40.828125 74.21875 47.359375 69.109375 
Q 53.90625 64.015625 53.90625 55.328125 
Q 53.90625 49.265625 50.4375 45.09375 
Q 46.96875 40.921875 40.578125 39.3125 
z
" id="DejaVuSans-51"/>
        <path d="M 10.796875 72.90625 
L 49.515625 72.90625 
L 49.515625 64.59375 
L 19.828125 64.59375 
L 19.828125 46.734375 
Q 21.96875 47.46875 24.109375 47.828125 
Q 26.265625 48.1875 28.421875 48.1875 
Q 40.625 48.1875 47.75 41.5 
Q 54.890625 34.8125 54.890625 23.390625 
Q 54.890625 11.625 47.5625 5.09375 
Q 40.234375 -1.421875 26.90625 -1.421875 
Q 22.3125 -1.421875 17.546875 -0.640625 
Q 12.796875 0.140625 7.71875 1.703125 
L 7.71875 11.625 
Q 12.109375 9.234375 16.796875 8.0625 
Q 21.484375 6.890625 26.703125 6.890625 
Q 35.15625 6.890625 40.078125 11.328125 
Q 45.015625 15.765625 45.015625 23.390625 
Q 45.015625 31 40.078125 35.4375 
Q 35.15625 39.890625 26.703125 39.890625 
Q 22.75 39.890625 18.8125 39.015625 
Q 14.890625 38.140625 10.796875 36.28125 
z
" id="DejaVuSans-53"/>
       </defs>
       <use xlink:href="#DejaVuSans-8722"/>
       <use x="83.789062" xlink:href="#DejaVuSans-51"/>
       <use x="147.412109" xlink:href="#DejaVuSans-53"/>
       <use x="211.035156" xlink:href="#DejaVuSans-48"/>
       <use x="274.658203" xlink:href="#DejaVuSans-48"/>
       <use x="338.28125" xlink:href="#DejaVuSans-48"/>
       <use x="401.904297" xlink:href="#DejaVuSans-48"/>
      </g>
     </g>
    </g>
    <g id="ytick_3">
     <g id="line2d_9">
      <path clip-path="url(#pb691359408)" d="M 67.232812 202.798036 
L 371.596449 202.798036 
" style="fill:none;stroke:#cccccc;stroke-linecap:round;stroke-width:0.8;"/>
     </g>
     <g id="text_10">
      <!-- −300000 -->
      <g style="fill:#262626;" transform="translate(13.678125 206.597255)scale(0.1 -0.1)">
       <use xlink:href="#DejaVuSans-8722"/>
       <use x="83.789062" xlink:href="#DejaVuSans-51"/>
       <use x="147.412109" xlink:href="#DejaVuSans-48"/>
       <use x="211.035156" xlink:href="#DejaVuSans-48"/>
       <use x="274.658203" xlink:href="#DejaVuSans-48"/>
       <use x="338.28125" xlink:href="#DejaVuSans-48"/>
       <use x="401.904297" xlink:href="#DejaVuSans-48"/>
      </g>
     </g>
    </g>
    <g id="ytick_4">
     <g id="line2d_10">
      <path clip-path="url(#pb691359408)" d="M 67.232812 150.86858 
L 371.596449 150.86858 
" style="fill:none;stroke:#cccccc;stroke-linecap:round;stroke-width:0.8;"/>
     </g>
     <g id="text_11">
      <!-- −250000 -->
      <g style="fill:#262626;" transform="translate(13.678125 154.667799)scale(0.1 -0.1)">
       <use xlink:href="#DejaVuSans-8722"/>
       <use x="83.789062" xlink:href="#DejaVuSans-50"/>
       <use x="147.412109" xlink:href="#DejaVuSans-53"/>
       <use x="211.035156" xlink:href="#DejaVuSans-48"/>
       <use x="274.658203" xlink:href="#DejaVuSans-48"/>
       <use x="338.28125" xlink:href="#DejaVuSans-48"/>
       <use x="401.904297" xlink:href="#DejaVuSans-48"/>
      </g>
     </g>
    </g>
    <g id="ytick_5">
     <g id="line2d_11">
      <path clip-path="url(#pb691359408)" d="M 67.232812 98.939123 
L 371.596449 98.939123 
" style="fill:none;stroke:#cccccc;stroke-linecap:round;stroke-width:0.8;"/>
     </g>
     <g id="text_12">
      <!-- −200000 -->
      <g style="fill:#262626;" transform="translate(13.678125 102.738342)scale(0.1 -0.1)">
       <use xlink:href="#DejaVuSans-8722"/>
       <use x="83.789062" xlink:href="#DejaVuSans-50"/>
       <use x="147.412109" xlink:href="#DejaVuSans-48"/>
       <use x="211.035156" xlink:href="#DejaVuSans-48"/>
       <use x="274.658203" xlink:href="#DejaVuSans-48"/>
       <use x="338.28125" xlink:href="#DejaVuSans-48"/>
       <use x="401.904297" xlink:href="#DejaVuSans-48"/>
      </g>
     </g>
    </g>
    <g id="ytick_6">
     <g id="line2d_12">
      <path clip-path="url(#pb691359408)" d="M 67.232812 47.009667 
L 371.596449 47.009667 
" style="fill:none;stroke:#cccccc;stroke-linecap:round;stroke-width:0.8;"/>
     </g>
     <g id="text_13">
      <!-- −150000 -->
      <g style="fill:#262626;" transform="translate(13.678125 50.808886)scale(0.1 -0.1)">
       <use xlink:href="#DejaVuSans-8722"/>
       <use x="83.789062" xlink:href="#DejaVuSans-49"/>
       <use x="147.412109" xlink:href="#DejaVuSans-53"/>
       <use x="211.035156" xlink:href="#DejaVuSans-48"/>
       <use x="274.658203" xlink:href="#DejaVuSans-48"/>
       <use x="338.28125" xlink:href="#DejaVuSans-48"/>
       <use x="401.904297" xlink:href="#DejaVuSans-48"/>
      </g>
     </g>
    </g>
    <g id="text_14">
     <!-- ELBO -->
     <g style="fill:#262626;" transform="translate(7.598437 194.662344)rotate(-90)scale(0.1 -0.1)">
      <defs>
       <path d="M 9.8125 72.90625 
L 19.671875 72.90625 
L 19.671875 8.296875 
L 55.171875 8.296875 
L 55.171875 0 
L 9.8125 0 
z
" id="DejaVuSans-76"/>
       <path d="M 19.671875 34.8125 
L 19.671875 8.109375 
L 35.5 8.109375 
Q 43.453125 8.109375 47.28125 11.40625 
Q 51.125 14.703125 51.125 21.484375 
Q 51.125 28.328125 47.28125 31.5625 
Q 43.453125 34.8125 35.5 34.8125 
z
M 19.671875 64.796875 
L 19.671875 42.828125 
L 34.28125 42.828125 
Q 41.5 42.828125 45.03125 45.53125 
Q 48.578125 48.25 48.578125 53.8125 
Q 48.578125 59.328125 45.03125 62.0625 
Q 41.5 64.796875 34.28125 64.796875 
z
M 9.8125 72.90625 
L 35.015625 72.90625 
Q 46.296875 72.90625 52.390625 68.21875 
Q 58.5 63.53125 58.5 54.890625 
Q 58.5 48.1875 55.375 44.234375 
Q 52.25 40.28125 46.1875 39.3125 
Q 53.46875 37.75 57.5 32.78125 
Q 61.53125 27.828125 61.53125 20.40625 
Q 61.53125 10.640625 54.890625 5.3125 
Q 48.25 0 35.984375 0 
L 9.8125 0 
z
" id="DejaVuSans-66"/>
       <path d="M 39.40625 66.21875 
Q 28.65625 66.21875 22.328125 58.203125 
Q 16.015625 50.203125 16.015625 36.375 
Q 16.015625 22.609375 22.328125 14.59375 
Q 28.65625 6.59375 39.40625 6.59375 
Q 50.140625 6.59375 56.421875 14.59375 
Q 62.703125 22.609375 62.703125 36.375 
Q 62.703125 50.203125 56.421875 58.203125 
Q 50.140625 66.21875 39.40625 66.21875 
z
M 39.40625 74.21875 
Q 54.734375 74.21875 63.90625 63.9375 
Q 73.09375 53.65625 73.09375 36.375 
Q 73.09375 19.140625 63.90625 8.859375 
Q 54.734375 -1.421875 39.40625 -1.421875 
Q 24.03125 -1.421875 14.8125 8.828125 
Q 5.609375 19.09375 5.609375 36.375 
Q 5.609375 53.65625 14.8125 63.9375 
Q 24.03125 74.21875 39.40625 74.21875 
z
" id="DejaVuSans-79"/>
      </defs>
      <use xlink:href="#DejaVuSans-69"/>
      <use x="63.183594" xlink:href="#DejaVuSans-76"/>
      <use x="118.896484" xlink:href="#DejaVuSans-66"/>
      <use x="185.75" xlink:href="#DejaVuSans-79"/>
     </g>
    </g>
   </g>
   <g id="line2d_13">
    <path clip-path="url(#pb691359408)" d="M 81.067523 332.638125 
L 83.834465 229.416051 
L 86.601408 145.513172 
L 89.36835 100.216745 
L 92.135292 80.871063 
L 94.902234 73.582533 
L 97.669176 70.143225 
L 100.436118 68.092046 
L 103.20306 66.573914 
L 105.970003 65.517373 
L 108.736945 64.55465 
L 111.503887 63.716805 
L 114.270829 63.035072 
L 117.037771 62.457316 
L 119.804713 61.956987 
L 122.571655 61.474648 
L 125.338598 61.048868 
L 128.10554 60.678902 
L 130.872482 60.346174 
L 133.639424 60.014002 
L 136.406366 59.727102 
L 139.173308 59.494337 
L 141.940251 59.226057 
L 144.707193 58.952408 
L 147.474135 58.77861 
L 150.241077 58.586825 
L 153.008019 58.407731 
L 155.774961 58.246897 
L 158.541903 58.06025 
L 161.308846 57.909257 
L 164.075788 57.757465 
L 166.84273 57.61855 
L 169.609672 57.481482 
L 172.376614 57.344622 
L 175.143556 57.188128 
L 177.910498 57.04398 
L 180.677441 56.855377 
L 183.444383 56.690584 
L 186.211325 56.477888 
L 188.978267 56.192999 
L 191.745209 55.811169 
L 194.512151 55.193882 
L 197.279093 54.139981 
L 200.046036 52.554525 
L 202.812978 50.546082 
L 205.57992 48.493126 
L 208.346862 46.639847 
L 211.113804 45.383628 
L 213.880746 44.443176 
L 216.647689 43.744875 
L 219.414631 43.24351 
L 222.181573 42.826679 
L 224.948515 42.520579 
L 227.715457 42.231572 
L 230.482399 42.020739 
L 233.249341 41.850806 
L 236.016284 41.687626 
L 238.783226 41.515465 
L 241.550168 41.378347 
L 244.31711 41.229177 
L 247.084052 41.070868 
L 249.850994 40.996618 
L 252.617936 40.857632 
L 255.384879 40.691968 
L 258.151821 40.541037 
L 260.918763 40.412887 
L 263.685705 40.225686 
L 266.452647 40.022188 
L 269.219589 39.777796 
L 271.986532 39.517956 
L 274.753474 39.191233 
L 277.520416 38.7407 
L 280.287358 38.167408 
L 283.0543 37.384198 
L 285.821242 36.497969 
L 288.588184 35.548082 
L 291.355127 34.762332 
L 294.122069 34.106863 
L 296.889011 33.619592 
L 299.655953 33.262352 
L 302.422895 32.947204 
L 305.189837 32.693085 
L 307.956779 32.480691 
L 310.723722 32.308917 
L 313.490664 32.09829 
L 316.257606 31.995082 
L 319.024548 31.861314 
L 321.79149 31.727057 
L 324.558432 31.569038 
L 327.325374 31.465989 
L 330.092317 31.357896 
L 332.859259 31.268985 
L 335.626201 31.160843 
L 338.393143 31.05713 
L 341.160085 30.926379 
L 343.927027 30.830146 
L 346.69397 30.720582 
L 349.460912 30.659421 
L 352.227854 30.548536 
L 354.994796 30.452227 
L 357.761738 30.357563 
" style="fill:none;stroke:#0047ab;stroke-linecap:round;stroke-width:1.5;"/>
   </g>
   <g id="line2d_14">
    <path clip-path="url(#pb691359408)" d="M 81.067523 302.855816 
L 83.834465 201.288951 
L 86.601408 126.02271 
L 89.36835 80.56546 
L 92.135292 66.125017 
L 94.902234 62.036145 
L 97.669176 60.798236 
L 100.436118 60.224837 
L 103.20306 60.075221 
L 105.970003 59.076541 
L 108.736945 59.54592 
L 111.503887 57.802458 
L 114.270829 59.359024 
L 117.037771 59.776916 
L 119.804713 58.869712 
L 122.571655 57.749495 
L 125.338598 59.702488 
L 128.10554 59.194849 
L 130.872482 58.365924 
L 133.639424 59.134224 
L 136.406366 59.113131 
L 139.173308 59.50592 
L 141.940251 58.085309 
L 144.707193 57.980481 
L 147.474135 58.783579 
L 150.241077 59.094448 
L 153.008019 58.821276 
L 155.774961 59.068196 
L 158.541903 59.041191 
L 161.308846 59.654061 
L 164.075788 58.157208 
L 166.84273 59.060554 
L 169.609672 59.475113 
L 172.376614 60.593376 
L 175.143556 59.215295 
L 177.910498 60.92305 
L 180.677441 61.590004 
L 183.444383 61.469911 
L 186.211325 60.532541 
L 188.978267 58.980569 
L 191.745209 58.078221 
L 194.512151 57.926676 
L 197.279093 56.532879 
L 200.046036 53.994658 
L 202.812978 51.394592 
L 205.57992 48.772961 
L 208.346862 47.742962 
L 211.113804 45.412723 
L 213.880746 43.946185 
L 216.647689 44.924534 
L 219.414631 43.958237 
L 222.181573 42.873452 
L 224.948515 43.078466 
L 227.715457 43.261066 
L 230.482399 42.329254 
L 233.249341 42.634829 
L 236.016284 42.206863 
L 238.783226 41.883213 
L 241.550168 43.165335 
L 244.31711 42.889892 
L 247.084052 42.294646 
L 249.850994 42.769036 
L 252.617936 41.597816 
L 255.384879 42.654893 
L 258.151821 43.410193 
L 260.918763 43.705052 
L 263.685705 42.451349 
L 266.452647 42.456142 
L 269.219589 40.850136 
L 271.986532 43.20962 
L 274.753474 40.919785 
L 277.520416 40.192042 
L 280.287358 41.223186 
L 283.0543 38.785517 
L 285.821242 36.922358 
L 288.588184 37.637219 
L 291.355127 36.207195 
L 294.122069 34.803611 
L 296.889011 34.020526 
L 299.655953 34.069446 
L 302.422895 33.147236 
L 305.189837 34.829605 
L 307.956779 31.990895 
L 310.723722 31.202959 
L 313.490664 32.325068 
L 316.257606 31.474775 
L 319.024548 31.638428 
L 321.79149 32.442566 
L 324.558432 31.108896 
L 327.325374 31.655226 
L 330.092317 31.353184 
L 332.859259 32.222259 
L 335.626201 30.238125 
L 338.393143 31.015201 
L 341.160085 30.438751 
L 343.927027 31.335229 
L 346.69397 30.271221 
L 349.460912 32.250901 
L 352.227854 30.292109 
L 354.994796 30.414309 
L 357.761738 30.989705 
" style="fill:none;stroke:#ab0000;stroke-linecap:round;stroke-width:1.5;"/>
   </g>
   <g id="patch_3">
    <path d="M 67.232812 347.758125 
L 67.232812 15.118125 
" style="fill:none;stroke:#cccccc;stroke-linecap:square;stroke-linejoin:miter;stroke-width:0.8;"/>
   </g>
   <g id="patch_4">
    <path d="M 371.596449 347.758125 
L 371.596449 15.118125 
" style="fill:none;stroke:#cccccc;stroke-linecap:square;stroke-linejoin:miter;stroke-width:0.8;"/>
   </g>
   <g id="patch_5">
    <path d="M 67.232812 347.758125 
L 371.596449 347.758125 
" style="fill:none;stroke:#cccccc;stroke-linecap:square;stroke-linejoin:miter;stroke-width:0.8;"/>
   </g>
   <g id="patch_6">
    <path d="M 67.232812 15.118125 
L 371.596449 15.118125 
" style="fill:none;stroke:#cccccc;stroke-linecap:square;stroke-linejoin:miter;stroke-width:0.8;"/>
   </g>
   <g id="text_15">
    <!-- ELBO over Epochs -->
    <g style="fill:#262626;" transform="translate(164.852131 9.118125)scale(0.12 -0.12)">
     <defs>
      <path id="DejaVuSans-32"/>
      <path d="M 2.984375 54.6875 
L 12.5 54.6875 
L 29.59375 8.796875 
L 46.6875 54.6875 
L 56.203125 54.6875 
L 35.6875 0 
L 23.484375 0 
z
" id="DejaVuSans-118"/>
      <path d="M 56.203125 29.59375 
L 56.203125 25.203125 
L 14.890625 25.203125 
Q 15.484375 15.921875 20.484375 11.0625 
Q 25.484375 6.203125 34.421875 6.203125 
Q 39.59375 6.203125 44.453125 7.46875 
Q 49.3125 8.734375 54.109375 11.28125 
L 54.109375 2.78125 
Q 49.265625 0.734375 44.1875 -0.34375 
Q 39.109375 -1.421875 33.890625 -1.421875 
Q 20.796875 -1.421875 13.15625 6.1875 
Q 5.515625 13.8125 5.515625 26.8125 
Q 5.515625 40.234375 12.765625 48.109375 
Q 20.015625 56 32.328125 56 
Q 43.359375 56 49.78125 48.890625 
Q 56.203125 41.796875 56.203125 29.59375 
z
M 47.21875 32.234375 
Q 47.125 39.59375 43.09375 43.984375 
Q 39.0625 48.390625 32.421875 48.390625 
Q 24.90625 48.390625 20.390625 44.140625 
Q 15.875 39.890625 15.1875 32.171875 
z
" id="DejaVuSans-101"/>
      <path d="M 41.109375 46.296875 
Q 39.59375 47.171875 37.8125 47.578125 
Q 36.03125 48 33.890625 48 
Q 26.265625 48 22.1875 43.046875 
Q 18.109375 38.09375 18.109375 28.8125 
L 18.109375 0 
L 9.078125 0 
L 9.078125 54.6875 
L 18.109375 54.6875 
L 18.109375 46.1875 
Q 20.953125 51.171875 25.484375 53.578125 
Q 30.03125 56 36.53125 56 
Q 37.453125 56 38.578125 55.875 
Q 39.703125 55.765625 41.0625 55.515625 
z
" id="DejaVuSans-114"/>
     </defs>
     <use xlink:href="#DejaVuSans-69"/>
     <use x="63.183594" xlink:href="#DejaVuSans-76"/>
     <use x="118.896484" xlink:href="#DejaVuSans-66"/>
     <use x="185.75" xlink:href="#DejaVuSans-79"/>
     <use x="264.460938" xlink:href="#DejaVuSans-32"/>
     <use x="296.248047" xlink:href="#DejaVuSans-111"/>
     <use x="357.429688" xlink:href="#DejaVuSans-118"/>
     <use x="416.609375" xlink:href="#DejaVuSans-101"/>
     <use x="478.132812" xlink:href="#DejaVuSans-114"/>
     <use x="519.246094" xlink:href="#DejaVuSans-32"/>
     <use x="551.033203" xlink:href="#DejaVuSans-69"/>
     <use x="614.216797" xlink:href="#DejaVuSans-112"/>
     <use x="677.693359" xlink:href="#DejaVuSans-111"/>
     <use x="738.875" xlink:href="#DejaVuSans-99"/>
     <use x="793.855469" xlink:href="#DejaVuSans-104"/>
     <use x="857.234375" xlink:href="#DejaVuSans-115"/>
    </g>
   </g>
   <g id="legend_1">
    <g id="patch_7">
     <path d="M 74.232812 52.474375 
L 185.240625 52.474375 
Q 187.240625 52.474375 187.240625 50.474375 
L 187.240625 22.118125 
Q 187.240625 20.118125 185.240625 20.118125 
L 74.232812 20.118125 
Q 72.232812 20.118125 72.232812 22.118125 
L 72.232812 50.474375 
Q 72.232812 52.474375 74.232812 52.474375 
z
" style="fill:#ffffff;opacity:0.8;stroke:#cccccc;stroke-linejoin:miter;"/>
    </g>
    <g id="line2d_15">
     <path d="M 76.232812 28.216562 
L 96.232812 28.216562 
" style="fill:none;stroke:#0047ab;stroke-linecap:round;stroke-width:1.5;"/>
    </g>
    <g id="line2d_16"/>
    <g id="text_16">
     <!-- Training ELBO -->
     <g style="fill:#262626;" transform="translate(104.232812 31.716562)scale(0.1 -0.1)">
      <defs>
       <path d="M -0.296875 72.90625 
L 61.375 72.90625 
L 61.375 64.59375 
L 35.5 64.59375 
L 35.5 0 
L 25.59375 0 
L 25.59375 64.59375 
L -0.296875 64.59375 
z
" id="DejaVuSans-84"/>
       <path d="M 34.28125 27.484375 
Q 23.390625 27.484375 19.1875 25 
Q 14.984375 22.515625 14.984375 16.5 
Q 14.984375 11.71875 18.140625 8.90625 
Q 21.296875 6.109375 26.703125 6.109375 
Q 34.1875 6.109375 38.703125 11.40625 
Q 43.21875 16.703125 43.21875 25.484375 
L 43.21875 27.484375 
z
M 52.203125 31.203125 
L 52.203125 0 
L 43.21875 0 
L 43.21875 8.296875 
Q 40.140625 3.328125 35.546875 0.953125 
Q 30.953125 -1.421875 24.3125 -1.421875 
Q 15.921875 -1.421875 10.953125 3.296875 
Q 6 8.015625 6 15.921875 
Q 6 25.140625 12.171875 29.828125 
Q 18.359375 34.515625 30.609375 34.515625 
L 43.21875 34.515625 
L 43.21875 35.40625 
Q 43.21875 41.609375 39.140625 45 
Q 35.0625 48.390625 27.6875 48.390625 
Q 23 48.390625 18.546875 47.265625 
Q 14.109375 46.140625 10.015625 43.890625 
L 10.015625 52.203125 
Q 14.9375 54.109375 19.578125 55.046875 
Q 24.21875 56 28.609375 56 
Q 40.484375 56 46.34375 49.84375 
Q 52.203125 43.703125 52.203125 31.203125 
z
" id="DejaVuSans-97"/>
       <path d="M 9.421875 54.6875 
L 18.40625 54.6875 
L 18.40625 0 
L 9.421875 0 
z
M 9.421875 75.984375 
L 18.40625 75.984375 
L 18.40625 64.59375 
L 9.421875 64.59375 
z
" id="DejaVuSans-105"/>
       <path d="M 54.890625 33.015625 
L 54.890625 0 
L 45.90625 0 
L 45.90625 32.71875 
Q 45.90625 40.484375 42.875 44.328125 
Q 39.84375 48.1875 33.796875 48.1875 
Q 26.515625 48.1875 22.3125 43.546875 
Q 18.109375 38.921875 18.109375 30.90625 
L 18.109375 0 
L 9.078125 0 
L 9.078125 54.6875 
L 18.109375 54.6875 
L 18.109375 46.1875 
Q 21.34375 51.125 25.703125 53.5625 
Q 30.078125 56 35.796875 56 
Q 45.21875 56 50.046875 50.171875 
Q 54.890625 44.34375 54.890625 33.015625 
z
" id="DejaVuSans-110"/>
       <path d="M 45.40625 27.984375 
Q 45.40625 37.75 41.375 43.109375 
Q 37.359375 48.484375 30.078125 48.484375 
Q 22.859375 48.484375 18.828125 43.109375 
Q 14.796875 37.75 14.796875 27.984375 
Q 14.796875 18.265625 18.828125 12.890625 
Q 22.859375 7.515625 30.078125 7.515625 
Q 37.359375 7.515625 41.375 12.890625 
Q 45.40625 18.265625 45.40625 27.984375 
z
M 54.390625 6.78125 
Q 54.390625 -7.171875 48.1875 -13.984375 
Q 42 -20.796875 29.203125 -20.796875 
Q 24.46875 -20.796875 20.265625 -20.09375 
Q 16.0625 -19.390625 12.109375 -17.921875 
L 12.109375 -9.1875 
Q 16.0625 -11.328125 19.921875 -12.34375 
Q 23.78125 -13.375 27.78125 -13.375 
Q 36.625 -13.375 41.015625 -8.765625 
Q 45.40625 -4.15625 45.40625 5.171875 
L 45.40625 9.625 
Q 42.625 4.78125 38.28125 2.390625 
Q 33.9375 0 27.875 0 
Q 17.828125 0 11.671875 7.65625 
Q 5.515625 15.328125 5.515625 27.984375 
Q 5.515625 40.671875 11.671875 48.328125 
Q 17.828125 56 27.875 56 
Q 33.9375 56 38.28125 53.609375 
Q 42.625 51.21875 45.40625 46.390625 
L 45.40625 54.6875 
L 54.390625 54.6875 
z
" id="DejaVuSans-103"/>
      </defs>
      <use xlink:href="#DejaVuSans-84"/>
      <use x="46.333984" xlink:href="#DejaVuSans-114"/>
      <use x="87.447266" xlink:href="#DejaVuSans-97"/>
      <use x="148.726562" xlink:href="#DejaVuSans-105"/>
      <use x="176.509766" xlink:href="#DejaVuSans-110"/>
      <use x="239.888672" xlink:href="#DejaVuSans-105"/>
      <use x="267.671875" xlink:href="#DejaVuSans-110"/>
      <use x="331.050781" xlink:href="#DejaVuSans-103"/>
      <use x="394.527344" xlink:href="#DejaVuSans-32"/>
      <use x="426.314453" xlink:href="#DejaVuSans-69"/>
      <use x="489.498047" xlink:href="#DejaVuSans-76"/>
      <use x="545.210938" xlink:href="#DejaVuSans-66"/>
      <use x="612.064453" xlink:href="#DejaVuSans-79"/>
     </g>
    </g>
    <g id="line2d_17">
     <path d="M 76.232812 42.894687 
L 96.232812 42.894687 
" style="fill:none;stroke:#ab0000;stroke-linecap:round;stroke-width:1.5;"/>
    </g>
    <g id="line2d_18"/>
    <g id="text_17">
     <!-- Validation ELBO -->
     <g style="fill:#262626;" transform="translate(104.232812 46.394687)scale(0.1 -0.1)">
      <defs>
       <path d="M 28.609375 0 
L 0.78125 72.90625 
L 11.078125 72.90625 
L 34.1875 11.53125 
L 57.328125 72.90625 
L 67.578125 72.90625 
L 39.796875 0 
z
" id="DejaVuSans-86"/>
       <path d="M 9.421875 75.984375 
L 18.40625 75.984375 
L 18.40625 0 
L 9.421875 0 
z
" id="DejaVuSans-108"/>
       <path d="M 45.40625 46.390625 
L 45.40625 75.984375 
L 54.390625 75.984375 
L 54.390625 0 
L 45.40625 0 
L 45.40625 8.203125 
Q 42.578125 3.328125 38.25 0.953125 
Q 33.9375 -1.421875 27.875 -1.421875 
Q 17.96875 -1.421875 11.734375 6.484375 
Q 5.515625 14.40625 5.515625 27.296875 
Q 5.515625 40.1875 11.734375 48.09375 
Q 17.96875 56 27.875 56 
Q 33.9375 56 38.25 53.625 
Q 42.578125 51.265625 45.40625 46.390625 
z
M 14.796875 27.296875 
Q 14.796875 17.390625 18.875 11.75 
Q 22.953125 6.109375 30.078125 6.109375 
Q 37.203125 6.109375 41.296875 11.75 
Q 45.40625 17.390625 45.40625 27.296875 
Q 45.40625 37.203125 41.296875 42.84375 
Q 37.203125 48.484375 30.078125 48.484375 
Q 22.953125 48.484375 18.875 42.84375 
Q 14.796875 37.203125 14.796875 27.296875 
z
" id="DejaVuSans-100"/>
       <path d="M 18.3125 70.21875 
L 18.3125 54.6875 
L 36.8125 54.6875 
L 36.8125 47.703125 
L 18.3125 47.703125 
L 18.3125 18.015625 
Q 18.3125 11.328125 20.140625 9.421875 
Q 21.96875 7.515625 27.59375 7.515625 
L 36.8125 7.515625 
L 36.8125 0 
L 27.59375 0 
Q 17.1875 0 13.234375 3.875 
Q 9.28125 7.765625 9.28125 18.015625 
L 9.28125 47.703125 
L 2.6875 47.703125 
L 2.6875 54.6875 
L 9.28125 54.6875 
L 9.28125 70.21875 
z
" id="DejaVuSans-116"/>
      </defs>
      <use xlink:href="#DejaVuSans-86"/>
      <use x="60.658203" xlink:href="#DejaVuSans-97"/>
      <use x="121.9375" xlink:href="#DejaVuSans-108"/>
      <use x="149.720703" xlink:href="#DejaVuSans-105"/>
      <use x="177.503906" xlink:href="#DejaVuSans-100"/>
      <use x="240.980469" xlink:href="#DejaVuSans-97"/>
      <use x="302.259766" xlink:href="#DejaVuSans-116"/>
      <use x="341.46875" xlink:href="#DejaVuSans-105"/>
      <use x="369.251953" xlink:href="#DejaVuSans-111"/>
      <use x="430.433594" xlink:href="#DejaVuSans-110"/>
      <use x="493.8125" xlink:href="#DejaVuSans-32"/>
      <use x="525.599609" xlink:href="#DejaVuSans-69"/>
      <use x="588.783203" xlink:href="#DejaVuSans-76"/>
      <use x="644.496094" xlink:href="#DejaVuSans-66"/>
      <use x="711.349609" xlink:href="#DejaVuSans-79"/>
     </g>
    </g>
   </g>
  </g>
  <g id="axes_2">
   <g id="patch_8">
    <path d="M 432.469176 347.758125 
L 736.832812 347.758125 
L 736.832812 15.118125 
L 432.469176 15.118125 
z
" style="fill:none;"/>
   </g>
   <g id="matplotlib.axis_3">
    <g id="xtick_7">
     <g id="line2d_19">
      <path clip-path="url(#pdeb5d6e5c6)" d="M 446.303887 347.758125 
L 446.303887 15.118125 
" style="fill:none;stroke:#cccccc;stroke-linecap:round;stroke-width:0.8;"/>
     </g>
     <g id="text_18">
      <!-- 0 -->
      <g style="fill:#262626;" transform="translate(443.122637 362.356562)scale(0.1 -0.1)">
       <use xlink:href="#DejaVuSans-48"/>
      </g>
     </g>
    </g>
    <g id="xtick_8">
     <g id="line2d_20">
      <path clip-path="url(#pdeb5d6e5c6)" d="M 501.64273 347.758125 
L 501.64273 15.118125 
" style="fill:none;stroke:#cccccc;stroke-linecap:round;stroke-width:0.8;"/>
     </g>
     <g id="text_19">
      <!-- 20 -->
      <g style="fill:#262626;" transform="translate(495.28023 362.356562)scale(0.1 -0.1)">
       <use xlink:href="#DejaVuSans-50"/>
       <use x="63.623047" xlink:href="#DejaVuSans-48"/>
      </g>
     </g>
    </g>
    <g id="xtick_9">
     <g id="line2d_21">
      <path clip-path="url(#pdeb5d6e5c6)" d="M 556.981573 347.758125 
L 556.981573 15.118125 
" style="fill:none;stroke:#cccccc;stroke-linecap:round;stroke-width:0.8;"/>
     </g>
     <g id="text_20">
      <!-- 40 -->
      <g style="fill:#262626;" transform="translate(550.619073 362.356562)scale(0.1 -0.1)">
       <use xlink:href="#DejaVuSans-52"/>
       <use x="63.623047" xlink:href="#DejaVuSans-48"/>
      </g>
     </g>
    </g>
    <g id="xtick_10">
     <g id="line2d_22">
      <path clip-path="url(#pdeb5d6e5c6)" d="M 612.320416 347.758125 
L 612.320416 15.118125 
" style="fill:none;stroke:#cccccc;stroke-linecap:round;stroke-width:0.8;"/>
     </g>
     <g id="text_21">
      <!-- 60 -->
      <g style="fill:#262626;" transform="translate(605.957916 362.356562)scale(0.1 -0.1)">
       <use xlink:href="#DejaVuSans-54"/>
       <use x="63.623047" xlink:href="#DejaVuSans-48"/>
      </g>
     </g>
    </g>
    <g id="xtick_11">
     <g id="line2d_23">
      <path clip-path="url(#pdeb5d6e5c6)" d="M 667.659259 347.758125 
L 667.659259 15.118125 
" style="fill:none;stroke:#cccccc;stroke-linecap:round;stroke-width:0.8;"/>
     </g>
     <g id="text_22">
      <!-- 80 -->
      <g style="fill:#262626;" transform="translate(661.296759 362.356562)scale(0.1 -0.1)">
       <use xlink:href="#DejaVuSans-56"/>
       <use x="63.623047" xlink:href="#DejaVuSans-48"/>
      </g>
     </g>
    </g>
    <g id="xtick_12">
     <g id="line2d_24">
      <path clip-path="url(#pdeb5d6e5c6)" d="M 722.998102 347.758125 
L 722.998102 15.118125 
" style="fill:none;stroke:#cccccc;stroke-linecap:round;stroke-width:0.8;"/>
     </g>
     <g id="text_23">
      <!-- 100 -->
      <g style="fill:#262626;" transform="translate(713.454352 362.356562)scale(0.1 -0.1)">
       <use xlink:href="#DejaVuSans-49"/>
       <use x="63.623047" xlink:href="#DejaVuSans-48"/>
       <use x="127.246094" xlink:href="#DejaVuSans-48"/>
      </g>
     </g>
    </g>
    <g id="text_24">
     <!-- Epochs -->
     <g style="fill:#262626;" transform="translate(566.735369 376.034688)scale(0.1 -0.1)">
      <use xlink:href="#DejaVuSans-69"/>
      <use x="63.183594" xlink:href="#DejaVuSans-112"/>
      <use x="126.660156" xlink:href="#DejaVuSans-111"/>
      <use x="187.841797" xlink:href="#DejaVuSans-99"/>
      <use x="242.822266" xlink:href="#DejaVuSans-104"/>
      <use x="306.201172" xlink:href="#DejaVuSans-115"/>
     </g>
    </g>
   </g>
   <g id="matplotlib.axis_4">
    <g id="ytick_7">
     <g id="line2d_25">
      <path clip-path="url(#pdeb5d6e5c6)" d="M 432.469176 335.414309 
L 736.832812 335.414309 
" style="fill:none;stroke:#cccccc;stroke-linecap:round;stroke-width:0.8;"/>
     </g>
     <g id="text_25">
      <!-- 0 -->
      <g style="fill:#262626;" transform="translate(419.106676 339.213528)scale(0.1 -0.1)">
       <use xlink:href="#DejaVuSans-48"/>
      </g>
     </g>
    </g>
    <g id="ytick_8">
     <g id="line2d_26">
      <path clip-path="url(#pdeb5d6e5c6)" d="M 432.469176 262.915038 
L 736.832812 262.915038 
" style="fill:none;stroke:#cccccc;stroke-linecap:round;stroke-width:0.8;"/>
     </g>
     <g id="text_26">
      <!-- 2000 -->
      <g style="fill:#262626;" transform="translate(400.019176 266.714257)scale(0.1 -0.1)">
       <use xlink:href="#DejaVuSans-50"/>
       <use x="63.623047" xlink:href="#DejaVuSans-48"/>
       <use x="127.246094" xlink:href="#DejaVuSans-48"/>
       <use x="190.869141" xlink:href="#DejaVuSans-48"/>
      </g>
     </g>
    </g>
    <g id="ytick_9">
     <g id="line2d_27">
      <path clip-path="url(#pdeb5d6e5c6)" d="M 432.469176 190.415768 
L 736.832812 190.415768 
" style="fill:none;stroke:#cccccc;stroke-linecap:round;stroke-width:0.8;"/>
     </g>
     <g id="text_27">
      <!-- 4000 -->
      <g style="fill:#262626;" transform="translate(400.019176 194.214986)scale(0.1 -0.1)">
       <use xlink:href="#DejaVuSans-52"/>
       <use x="63.623047" xlink:href="#DejaVuSans-48"/>
       <use x="127.246094" xlink:href="#DejaVuSans-48"/>
       <use x="190.869141" xlink:href="#DejaVuSans-48"/>
      </g>
     </g>
    </g>
    <g id="ytick_10">
     <g id="line2d_28">
      <path clip-path="url(#pdeb5d6e5c6)" d="M 432.469176 117.916497 
L 736.832812 117.916497 
" style="fill:none;stroke:#cccccc;stroke-linecap:round;stroke-width:0.8;"/>
     </g>
     <g id="text_28">
      <!-- 6000 -->
      <g style="fill:#262626;" transform="translate(400.019176 121.715715)scale(0.1 -0.1)">
       <use xlink:href="#DejaVuSans-54"/>
       <use x="63.623047" xlink:href="#DejaVuSans-48"/>
       <use x="127.246094" xlink:href="#DejaVuSans-48"/>
       <use x="190.869141" xlink:href="#DejaVuSans-48"/>
      </g>
     </g>
    </g>
    <g id="ytick_11">
     <g id="line2d_29">
      <path clip-path="url(#pdeb5d6e5c6)" d="M 432.469176 45.417226 
L 736.832812 45.417226 
" style="fill:none;stroke:#cccccc;stroke-linecap:round;stroke-width:0.8;"/>
     </g>
     <g id="text_29">
      <!-- 8000 -->
      <g style="fill:#262626;" transform="translate(400.019176 49.216445)scale(0.1 -0.1)">
       <use xlink:href="#DejaVuSans-56"/>
       <use x="63.623047" xlink:href="#DejaVuSans-48"/>
       <use x="127.246094" xlink:href="#DejaVuSans-48"/>
       <use x="190.869141" xlink:href="#DejaVuSans-48"/>
      </g>
     </g>
    </g>
    <g id="text_30">
     <!-- KL Divergence -->
     <g style="fill:#262626;" transform="translate(393.939489 217.580312)rotate(-90)scale(0.1 -0.1)">
      <defs>
       <path d="M 9.8125 72.90625 
L 19.671875 72.90625 
L 19.671875 42.09375 
L 52.390625 72.90625 
L 65.09375 72.90625 
L 28.90625 38.921875 
L 67.671875 0 
L 54.6875 0 
L 19.671875 35.109375 
L 19.671875 0 
L 9.8125 0 
z
" id="DejaVuSans-75"/>
       <path d="M 19.671875 64.796875 
L 19.671875 8.109375 
L 31.59375 8.109375 
Q 46.6875 8.109375 53.6875 14.9375 
Q 60.6875 21.78125 60.6875 36.53125 
Q 60.6875 51.171875 53.6875 57.984375 
Q 46.6875 64.796875 31.59375 64.796875 
z
M 9.8125 72.90625 
L 30.078125 72.90625 
Q 51.265625 72.90625 61.171875 64.09375 
Q 71.09375 55.28125 71.09375 36.53125 
Q 71.09375 17.671875 61.125 8.828125 
Q 51.171875 0 30.078125 0 
L 9.8125 0 
z
" id="DejaVuSans-68"/>
      </defs>
      <use xlink:href="#DejaVuSans-75"/>
      <use x="65.576172" xlink:href="#DejaVuSans-76"/>
      <use x="121.289062" xlink:href="#DejaVuSans-32"/>
      <use x="153.076172" xlink:href="#DejaVuSans-68"/>
      <use x="230.078125" xlink:href="#DejaVuSans-105"/>
      <use x="257.861328" xlink:href="#DejaVuSans-118"/>
      <use x="317.041016" xlink:href="#DejaVuSans-101"/>
      <use x="378.564453" xlink:href="#DejaVuSans-114"/>
      <use x="417.927734" xlink:href="#DejaVuSans-103"/>
      <use x="481.404297" xlink:href="#DejaVuSans-101"/>
      <use x="542.927734" xlink:href="#DejaVuSans-110"/>
      <use x="606.306641" xlink:href="#DejaVuSans-99"/>
      <use x="661.287109" xlink:href="#DejaVuSans-101"/>
     </g>
    </g>
   </g>
   <g id="line2d_30">
    <path clip-path="url(#pdeb5d6e5c6)" d="M 446.303887 183.638754 
L 449.070829 30.238125 
L 451.837771 163.338024 
L 454.604713 271.030437 
L 457.371655 312.729827 
L 460.138598 324.556682 
L 462.90554 328.299896 
L 465.672482 329.940132 
L 468.439424 330.773099 
L 471.206366 331.200702 
L 473.973308 331.464019 
L 476.740251 331.592399 
L 479.507193 331.673011 
L 482.274135 331.708051 
L 485.041077 331.712209 
L 487.808019 331.695735 
L 490.574961 331.673044 
L 493.341903 331.661548 
L 496.108846 331.631423 
L 498.875788 331.583396 
L 501.64273 331.545372 
L 504.409672 331.48327 
L 507.176614 331.443125 
L 509.943556 331.393675 
L 512.710498 331.323929 
L 515.477441 331.241507 
L 518.244383 331.181512 
L 521.011325 331.119451 
L 523.778267 331.075219 
L 526.545209 331.008716 
L 529.312151 330.957404 
L 532.079093 330.904498 
L 534.846036 330.85959 
L 537.612978 330.827773 
L 540.37992 330.795394 
L 543.146862 330.765697 
L 545.913804 330.741391 
L 548.680746 330.737057 
L 551.447689 330.713102 
L 554.214631 330.689202 
L 556.981573 330.637553 
L 559.748515 330.498432 
L 562.515457 330.153757 
L 565.282399 329.599414 
L 568.049341 328.89562 
L 570.816284 328.229395 
L 573.583226 327.708226 
L 576.350168 327.486972 
L 579.11711 327.496959 
L 581.884052 327.632806 
L 584.650994 327.823372 
L 587.417936 327.993303 
L 590.184879 328.184465 
L 592.951821 328.33462 
L 595.718763 328.461063 
L 598.485705 328.58729 
L 601.252647 328.679729 
L 604.019589 328.735184 
L 606.786532 328.805254 
L 609.553474 328.854142 
L 612.320416 328.887483 
L 615.087358 328.911868 
L 617.8543 328.914058 
L 620.621242 328.909368 
L 623.388184 328.910649 
L 626.155127 328.898987 
L 628.922069 328.884935 
L 631.689011 328.874914 
L 634.455953 328.838625 
L 637.222895 328.797223 
L 639.989837 328.735235 
L 642.756779 328.625176 
L 645.523722 328.43145 
L 648.290664 328.161723 
L 651.057606 327.820243 
L 653.824548 327.526828 
L 656.59149 327.346355 
L 659.358432 327.333712 
L 662.125374 327.436141 
L 664.892317 327.588033 
L 667.659259 327.745499 
L 670.426201 327.898531 
L 673.193143 328.070121 
L 675.960085 328.192832 
L 678.727027 328.327324 
L 681.49397 328.423971 
L 684.260912 328.487547 
L 687.027854 328.564072 
L 689.794796 328.619696 
L 692.561738 328.686364 
L 695.32868 328.729564 
L 698.095622 328.765302 
L 700.862565 328.79396 
L 703.629507 328.805428 
L 706.396449 328.820671 
L 709.163391 328.834917 
L 711.930333 328.851992 
L 714.697275 328.862933 
L 717.464217 328.85663 
L 720.23116 328.858111 
L 722.998102 328.86517 
" style="fill:none;stroke:#0047ab;stroke-linecap:round;stroke-width:1.5;"/>
   </g>
   <g id="line2d_31">
    <path clip-path="url(#pdeb5d6e5c6)" d="M 446.303887 280.560993 
L 449.070829 273.034218 
L 451.837771 303.628276 
L 454.604713 319.429704 
L 457.371655 327.154169 
L 460.138598 329.868239 
L 462.90554 331.191578 
L 465.672482 331.883886 
L 468.439424 332.264303 
L 471.206366 332.375521 
L 473.973308 332.526856 
L 476.740251 332.424176 
L 479.507193 332.6057 
L 482.274135 332.638125 
L 485.041077 332.533594 
L 487.808019 332.372116 
L 490.574961 332.52056 
L 493.341903 332.431689 
L 496.108846 332.326819 
L 498.875788 332.342515 
L 501.64273 332.237701 
L 504.409672 332.254735 
L 507.176614 331.991328 
L 509.943556 331.942153 
L 512.710498 331.930974 
L 515.477441 331.851294 
L 518.244383 331.746618 
L 521.011325 331.734918 
L 523.778267 331.627603 
L 526.545209 331.583068 
L 529.312151 331.334739 
L 532.079093 331.364994 
L 534.846036 331.370057 
L 537.612978 331.466693 
L 540.37992 331.282422 
L 543.146862 331.430028 
L 545.913804 331.507415 
L 548.680746 331.471173 
L 551.447689 331.283795 
L 554.214631 331.094916 
L 556.981573 331.015334 
L 559.748515 330.921474 
L 562.515457 330.487036 
L 565.282399 329.880541 
L 568.049341 329.196281 
L 570.816284 328.631507 
L 573.583226 328.388873 
L 576.350168 328.110253 
L 579.11711 328.09451 
L 581.884052 328.563887 
L 584.650994 328.63528 
L 587.417936 328.67424 
L 590.184879 328.889314 
L 592.951821 329.075946 
L 595.718763 329.037141 
L 598.485705 329.231779 
L 601.252647 329.232569 
L 604.019589 329.212779 
L 606.786532 329.513142 
L 609.553474 329.532472 
L 612.320416 329.45617 
L 615.087358 329.563096 
L 617.8543 329.283542 
L 620.621242 329.516248 
L 623.388184 329.662932 
L 626.155127 329.713949 
L 628.922069 329.460657 
L 631.689011 329.487375 
L 634.455953 329.117669 
L 637.222895 329.581509 
L 639.989837 329.155808 
L 642.756779 328.915503 
L 645.523722 329.066448 
L 648.290664 328.494297 
L 651.057606 327.998638 
L 653.824548 328.175759 
L 656.59149 328.025075 
L 659.358432 327.912054 
L 662.125374 328.020383 
L 664.892317 328.269774 
L 667.659259 328.349462 
L 670.426201 328.946208 
L 673.193143 328.547504 
L 675.960085 328.524014 
L 678.727027 328.970411 
L 681.49397 328.87103 
L 684.260912 329.053999 
L 687.027854 329.293308 
L 689.794796 329.123015 
L 692.561738 329.283682 
L 695.32868 329.305749 
L 698.095622 329.528232 
L 700.862565 329.132035 
L 703.629507 329.370409 
L 706.396449 329.277391 
L 709.163391 329.471391 
L 711.930333 329.284611 
L 714.697275 329.619008 
L 717.464217 329.271686 
L 720.23116 329.377446 
L 722.998102 329.44695 
" style="fill:none;stroke:#ab0000;stroke-linecap:round;stroke-width:1.5;"/>
   </g>
   <g id="patch_9">
    <path d="M 432.469176 347.758125 
L 432.469176 15.118125 
" style="fill:none;stroke:#cccccc;stroke-linecap:square;stroke-linejoin:miter;stroke-width:0.8;"/>
   </g>
   <g id="patch_10">
    <path d="M 736.832812 347.758125 
L 736.832812 15.118125 
" style="fill:none;stroke:#cccccc;stroke-linecap:square;stroke-linejoin:miter;stroke-width:0.8;"/>
   </g>
   <g id="patch_11">
    <path d="M 432.469176 347.758125 
L 736.832812 347.758125 
" style="fill:none;stroke:#cccccc;stroke-linecap:square;stroke-linejoin:miter;stroke-width:0.8;"/>
   </g>
   <g id="patch_12">
    <path d="M 432.469176 15.118125 
L 736.832812 15.118125 
" style="fill:none;stroke:#cccccc;stroke-linecap:square;stroke-linejoin:miter;stroke-width:0.8;"/>
   </g>
   <g id="text_31">
    <!-- KL Divergence over Epochs -->
    <g style="fill:#262626;" transform="translate(502.586932 9.118125)scale(0.12 -0.12)">
     <use xlink:href="#DejaVuSans-75"/>
     <use x="65.576172" xlink:href="#DejaVuSans-76"/>
     <use x="121.289062" xlink:href="#DejaVuSans-32"/>
     <use x="153.076172" xlink:href="#DejaVuSans-68"/>
     <use x="230.078125" xlink:href="#DejaVuSans-105"/>
     <use x="257.861328" xlink:href="#DejaVuSans-118"/>
     <use x="317.041016" xlink:href="#DejaVuSans-101"/>
     <use x="378.564453" xlink:href="#DejaVuSans-114"/>
     <use x="417.927734" xlink:href="#DejaVuSans-103"/>
     <use x="481.404297" xlink:href="#DejaVuSans-101"/>
     <use x="542.927734" xlink:href="#DejaVuSans-110"/>
     <use x="606.306641" xlink:href="#DejaVuSans-99"/>
     <use x="661.287109" xlink:href="#DejaVuSans-101"/>
     <use x="722.810547" xlink:href="#DejaVuSans-32"/>
     <use x="754.597656" xlink:href="#DejaVuSans-111"/>
     <use x="815.779297" xlink:href="#DejaVuSans-118"/>
     <use x="874.958984" xlink:href="#DejaVuSans-101"/>
     <use x="936.482422" xlink:href="#DejaVuSans-114"/>
     <use x="977.595703" xlink:href="#DejaVuSans-32"/>
     <use x="1009.382812" xlink:href="#DejaVuSans-69"/>
     <use x="1072.566406" xlink:href="#DejaVuSans-112"/>
     <use x="1136.042969" xlink:href="#DejaVuSans-111"/>
     <use x="1197.224609" xlink:href="#DejaVuSans-99"/>
     <use x="1252.205078" xlink:href="#DejaVuSans-104"/>
     <use x="1315.583984" xlink:href="#DejaVuSans-115"/>
    </g>
   </g>
   <g id="legend_2">
    <g id="patch_13">
     <path d="M 572.989062 52.474375 
L 729.832812 52.474375 
Q 731.832812 52.474375 731.832812 50.474375 
L 731.832812 22.118125 
Q 731.832812 20.118125 729.832812 20.118125 
L 572.989062 20.118125 
Q 570.989062 20.118125 570.989062 22.118125 
L 570.989062 50.474375 
Q 570.989062 52.474375 572.989062 52.474375 
z
" style="fill:#ffffff;opacity:0.8;stroke:#cccccc;stroke-linejoin:miter;"/>
    </g>
    <g id="line2d_32">
     <path d="M 574.989062 28.216562 
L 594.989062 28.216562 
" style="fill:none;stroke:#0047ab;stroke-linecap:round;stroke-width:1.5;"/>
    </g>
    <g id="line2d_33"/>
    <g id="text_32">
     <!-- Training KL Divergence -->
     <g style="fill:#262626;" transform="translate(602.989062 31.716562)scale(0.1 -0.1)">
      <use xlink:href="#DejaVuSans-84"/>
      <use x="46.333984" xlink:href="#DejaVuSans-114"/>
      <use x="87.447266" xlink:href="#DejaVuSans-97"/>
      <use x="148.726562" xlink:href="#DejaVuSans-105"/>
      <use x="176.509766" xlink:href="#DejaVuSans-110"/>
      <use x="239.888672" xlink:href="#DejaVuSans-105"/>
      <use x="267.671875" xlink:href="#DejaVuSans-110"/>
      <use x="331.050781" xlink:href="#DejaVuSans-103"/>
      <use x="394.527344" xlink:href="#DejaVuSans-32"/>
      <use x="426.314453" xlink:href="#DejaVuSans-75"/>
      <use x="491.890625" xlink:href="#DejaVuSans-76"/>
      <use x="547.603516" xlink:href="#DejaVuSans-32"/>
      <use x="579.390625" xlink:href="#DejaVuSans-68"/>
      <use x="656.392578" xlink:href="#DejaVuSans-105"/>
      <use x="684.175781" xlink:href="#DejaVuSans-118"/>
      <use x="743.355469" xlink:href="#DejaVuSans-101"/>
      <use x="804.878906" xlink:href="#DejaVuSans-114"/>
      <use x="844.242188" xlink:href="#DejaVuSans-103"/>
      <use x="907.71875" xlink:href="#DejaVuSans-101"/>
      <use x="969.242188" xlink:href="#DejaVuSans-110"/>
      <use x="1032.621094" xlink:href="#DejaVuSans-99"/>
      <use x="1087.601562" xlink:href="#DejaVuSans-101"/>
     </g>
    </g>
    <g id="line2d_34">
     <path d="M 574.989062 42.894687 
L 594.989062 42.894687 
" style="fill:none;stroke:#ab0000;stroke-linecap:round;stroke-width:1.5;"/>
    </g>
    <g id="line2d_35"/>
    <g id="text_33">
     <!-- Validation KL Divergence -->
     <g style="fill:#262626;" transform="translate(602.989062 46.394687)scale(0.1 -0.1)">
      <use xlink:href="#DejaVuSans-86"/>
      <use x="60.658203" xlink:href="#DejaVuSans-97"/>
      <use x="121.9375" xlink:href="#DejaVuSans-108"/>
      <use x="149.720703" xlink:href="#DejaVuSans-105"/>
      <use x="177.503906" xlink:href="#DejaVuSans-100"/>
      <use x="240.980469" xlink:href="#DejaVuSans-97"/>
      <use x="302.259766" xlink:href="#DejaVuSans-116"/>
      <use x="341.46875" xlink:href="#DejaVuSans-105"/>
      <use x="369.251953" xlink:href="#DejaVuSans-111"/>
      <use x="430.433594" xlink:href="#DejaVuSans-110"/>
      <use x="493.8125" xlink:href="#DejaVuSans-32"/>
      <use x="525.599609" xlink:href="#DejaVuSans-75"/>
      <use x="591.175781" xlink:href="#DejaVuSans-76"/>
      <use x="646.888672" xlink:href="#DejaVuSans-32"/>
      <use x="678.675781" xlink:href="#DejaVuSans-68"/>
      <use x="755.677734" xlink:href="#DejaVuSans-105"/>
      <use x="783.460938" xlink:href="#DejaVuSans-118"/>
      <use x="842.640625" xlink:href="#DejaVuSans-101"/>
      <use x="904.164062" xlink:href="#DejaVuSans-114"/>
      <use x="943.527344" xlink:href="#DejaVuSans-103"/>
      <use x="1007.003906" xlink:href="#DejaVuSans-101"/>
      <use x="1068.527344" xlink:href="#DejaVuSans-110"/>
      <use x="1131.90625" xlink:href="#DejaVuSans-99"/>
      <use x="1186.886719" xlink:href="#DejaVuSans-101"/>
     </g>
    </g>
   </g>
  </g>
 </g>
 <defs>
  <clipPath id="pb691359408">
   <rect height="332.64" width="304.363636" x="67.232812" y="15.118125"/>
  </clipPath>
  <clipPath id="pdeb5d6e5c6">
   <rect height="332.64" width="304.363636" x="432.469176" y="15.118125"/>
  </clipPath>
 </defs>
</svg>
