<?xml version="1.0" encoding="utf-8" standalone="no"?>
<!DOCTYPE svg PUBLIC "-//W3C//DTD SVG 1.1//EN"
  "http://www.w3.org/Graphics/SVG/1.1/DTD/svg11.dtd">
<!-- Created with matplotlib (https://matplotlib.org/) -->
<svg height="696.634375pt" version="1.1" viewBox="0 0 1057.980312 696.634375" width="1057.980312pt" xmlns="http://www.w3.org/2000/svg" xmlns:xlink="http://www.w3.org/1999/xlink">
 <metadata>
  <rdf:RDF xmlns:cc="http://creativecommons.org/ns#" xmlns:dc="http://purl.org/dc/elements/1.1/" xmlns:rdf="http://www.w3.org/1999/02/22-rdf-syntax-ns#">
   <cc:Work>
    <dc:type rdf:resource="http://purl.org/dc/dcmitype/StillImage"/>
    <dc:date>2023-12-05T15:49:23.229363</dc:date>
    <dc:format>image/svg+xml</dc:format>
    <dc:creator>
     <cc:Agent>
      <dc:title>Matplotlib v3.3.4, https://matplotlib.org/</dc:title>
     </cc:Agent>
    </dc:creator>
   </cc:Work>
  </rdf:RDF>
 </metadata>
 <defs>
  <style type="text/css">*{stroke-linecap:butt;stroke-linejoin:round;}</style>
 </defs>
 <g id="figure_1">
  <g id="patch_1">
   <path d="M 0 696.634375 
L 1057.980312 696.634375 
L 1057.980312 0 
L 0 0 
z
" style="fill:none;"/>
  </g>
  <g id="axes_1">
   <g id="patch_2">
    <path d="M 35.420313 311.678125 
L 1057.980313 311.678125 
L 1057.980313 15.118125 
L 35.420313 15.118125 
z
" style="fill:none;"/>
   </g>
   <g id="matplotlib.axis_1">
    <g id="xtick_1">
     <g id="line2d_1">
      <path clip-path="url(#p4b14c1a996)" d="M 81.900312 311.678125 
L 81.900312 15.118125 
" style="fill:none;stroke:#cccccc;stroke-linecap:round;stroke-width:0.8;"/>
     </g>
     <g id="text_1">
      <!-- 0 -->
      <g style="fill:#262626;" transform="translate(78.719062 326.276563)scale(0.1 -0.1)">
       <defs>
        <path d="M 31.78125 66.40625 
Q 24.171875 66.40625 20.328125 58.90625 
Q 16.5 51.421875 16.5 36.375 
Q 16.5 21.390625 20.328125 13.890625 
Q 24.171875 6.390625 31.78125 6.390625 
Q 39.453125 6.390625 43.28125 13.890625 
Q 47.125 21.390625 47.125 36.375 
Q 47.125 51.421875 43.28125 58.90625 
Q 39.453125 66.40625 31.78125 66.40625 
z
M 31.78125 74.21875 
Q 44.046875 74.21875 50.515625 64.515625 
Q 56.984375 54.828125 56.984375 36.375 
Q 56.984375 17.96875 50.515625 8.265625 
Q 44.046875 -1.421875 31.78125 -1.421875 
Q 19.53125 -1.421875 13.0625 8.265625 
Q 6.59375 17.96875 6.59375 36.375 
Q 6.59375 54.828125 13.0625 64.515625 
Q 19.53125 74.21875 31.78125 74.21875 
z
" id="DejaVuSans-48"/>
       </defs>
       <use xlink:href="#DejaVuSans-48"/>
      </g>
     </g>
    </g>
    <g id="xtick_2">
     <g id="line2d_2">
      <path clip-path="url(#p4b14c1a996)" d="M 268.192898 311.678125 
L 268.192898 15.118125 
" style="fill:none;stroke:#cccccc;stroke-linecap:round;stroke-width:0.8;"/>
     </g>
     <g id="text_2">
      <!-- 100 -->
      <g style="fill:#262626;" transform="translate(258.649148 326.276563)scale(0.1 -0.1)">
       <defs>
        <path d="M 12.40625 8.296875 
L 28.515625 8.296875 
L 28.515625 63.921875 
L 10.984375 60.40625 
L 10.984375 69.390625 
L 28.421875 72.90625 
L 38.28125 72.90625 
L 38.28125 8.296875 
L 54.390625 8.296875 
L 54.390625 0 
L 12.40625 0 
z
" id="DejaVuSans-49"/>
       </defs>
       <use xlink:href="#DejaVuSans-49"/>
       <use x="63.623047" xlink:href="#DejaVuSans-48"/>
       <use x="127.246094" xlink:href="#DejaVuSans-48"/>
      </g>
     </g>
    </g>
    <g id="xtick_3">
     <g id="line2d_3">
      <path clip-path="url(#p4b14c1a996)" d="M 454.485483 311.678125 
L 454.485483 15.118125 
" style="fill:none;stroke:#cccccc;stroke-linecap:round;stroke-width:0.8;"/>
     </g>
     <g id="text_3">
      <!-- 200 -->
      <g style="fill:#262626;" transform="translate(444.941733 326.276563)scale(0.1 -0.1)">
       <defs>
        <path d="M 19.1875 8.296875 
L 53.609375 8.296875 
L 53.609375 0 
L 7.328125 0 
L 7.328125 8.296875 
Q 12.9375 14.109375 22.625 23.890625 
Q 32.328125 33.6875 34.8125 36.53125 
Q 39.546875 41.84375 41.421875 45.53125 
Q 43.3125 49.21875 43.3125 52.78125 
Q 43.3125 58.59375 39.234375 62.25 
Q 35.15625 65.921875 28.609375 65.921875 
Q 23.96875 65.921875 18.8125 64.3125 
Q 13.671875 62.703125 7.8125 59.421875 
L 7.8125 69.390625 
Q 13.765625 71.78125 18.9375 73 
Q 24.125 74.21875 28.421875 74.21875 
Q 39.75 74.21875 46.484375 68.546875 
Q 53.21875 62.890625 53.21875 53.421875 
Q 53.21875 48.921875 51.53125 44.890625 
Q 49.859375 40.875 45.40625 35.40625 
Q 44.1875 33.984375 37.640625 27.21875 
Q 31.109375 20.453125 19.1875 8.296875 
z
" id="DejaVuSans-50"/>
       </defs>
       <use xlink:href="#DejaVuSans-50"/>
       <use x="63.623047" xlink:href="#DejaVuSans-48"/>
       <use x="127.246094" xlink:href="#DejaVuSans-48"/>
      </g>
     </g>
    </g>
    <g id="xtick_4">
     <g id="line2d_4">
      <path clip-path="url(#p4b14c1a996)" d="M 640.778068 311.678125 
L 640.778068 15.118125 
" style="fill:none;stroke:#cccccc;stroke-linecap:round;stroke-width:0.8;"/>
     </g>
     <g id="text_4">
      <!-- 300 -->
      <g style="fill:#262626;" transform="translate(631.234318 326.276563)scale(0.1 -0.1)">
       <defs>
        <path d="M 40.578125 39.3125 
Q 47.65625 37.796875 51.625 33 
Q 55.609375 28.21875 55.609375 21.1875 
Q 55.609375 10.40625 48.1875 4.484375 
Q 40.765625 -1.421875 27.09375 -1.421875 
Q 22.515625 -1.421875 17.65625 -0.515625 
Q 12.796875 0.390625 7.625 2.203125 
L 7.625 11.71875 
Q 11.71875 9.328125 16.59375 8.109375 
Q 21.484375 6.890625 26.8125 6.890625 
Q 36.078125 6.890625 40.9375 10.546875 
Q 45.796875 14.203125 45.796875 21.1875 
Q 45.796875 27.640625 41.28125 31.265625 
Q 36.765625 34.90625 28.71875 34.90625 
L 20.21875 34.90625 
L 20.21875 43.015625 
L 29.109375 43.015625 
Q 36.375 43.015625 40.234375 45.921875 
Q 44.09375 48.828125 44.09375 54.296875 
Q 44.09375 59.90625 40.109375 62.90625 
Q 36.140625 65.921875 28.71875 65.921875 
Q 24.65625 65.921875 20.015625 65.03125 
Q 15.375 64.15625 9.8125 62.3125 
L 9.8125 71.09375 
Q 15.4375 72.65625 20.34375 73.4375 
Q 25.25 74.21875 29.59375 74.21875 
Q 40.828125 74.21875 47.359375 69.109375 
Q 53.90625 64.015625 53.90625 55.328125 
Q 53.90625 49.265625 50.4375 45.09375 
Q 46.96875 40.921875 40.578125 39.3125 
z
" id="DejaVuSans-51"/>
       </defs>
       <use xlink:href="#DejaVuSans-51"/>
       <use x="63.623047" xlink:href="#DejaVuSans-48"/>
       <use x="127.246094" xlink:href="#DejaVuSans-48"/>
      </g>
     </g>
    </g>
    <g id="xtick_5">
     <g id="line2d_5">
      <path clip-path="url(#p4b14c1a996)" d="M 827.070653 311.678125 
L 827.070653 15.118125 
" style="fill:none;stroke:#cccccc;stroke-linecap:round;stroke-width:0.8;"/>
     </g>
     <g id="text_5">
      <!-- 400 -->
      <g style="fill:#262626;" transform="translate(817.526903 326.276563)scale(0.1 -0.1)">
       <defs>
        <path d="M 37.796875 64.3125 
L 12.890625 25.390625 
L 37.796875 25.390625 
z
M 35.203125 72.90625 
L 47.609375 72.90625 
L 47.609375 25.390625 
L 58.015625 25.390625 
L 58.015625 17.1875 
L 47.609375 17.1875 
L 47.609375 0 
L 37.796875 0 
L 37.796875 17.1875 
L 4.890625 17.1875 
L 4.890625 26.703125 
z
" id="DejaVuSans-52"/>
       </defs>
       <use xlink:href="#DejaVuSans-52"/>
       <use x="63.623047" xlink:href="#DejaVuSans-48"/>
       <use x="127.246094" xlink:href="#DejaVuSans-48"/>
      </g>
     </g>
    </g>
    <g id="xtick_6">
     <g id="line2d_6">
      <path clip-path="url(#p4b14c1a996)" d="M 1013.363238 311.678125 
L 1013.363238 15.118125 
" style="fill:none;stroke:#cccccc;stroke-linecap:round;stroke-width:0.8;"/>
     </g>
     <g id="text_6">
      <!-- 500 -->
      <g style="fill:#262626;" transform="translate(1003.819488 326.276563)scale(0.1 -0.1)">
       <defs>
        <path d="M 10.796875 72.90625 
L 49.515625 72.90625 
L 49.515625 64.59375 
L 19.828125 64.59375 
L 19.828125 46.734375 
Q 21.96875 47.46875 24.109375 47.828125 
Q 26.265625 48.1875 28.421875 48.1875 
Q 40.625 48.1875 47.75 41.5 
Q 54.890625 34.8125 54.890625 23.390625 
Q 54.890625 11.625 47.5625 5.09375 
Q 40.234375 -1.421875 26.90625 -1.421875 
Q 22.3125 -1.421875 17.546875 -0.640625 
Q 12.796875 0.140625 7.71875 1.703125 
L 7.71875 11.625 
Q 12.109375 9.234375 16.796875 8.0625 
Q 21.484375 6.890625 26.703125 6.890625 
Q 35.15625 6.890625 40.078125 11.328125 
Q 45.015625 15.765625 45.015625 23.390625 
Q 45.015625 31 40.078125 35.4375 
Q 35.15625 39.890625 26.703125 39.890625 
Q 22.75 39.890625 18.8125 39.015625 
Q 14.890625 38.140625 10.796875 36.28125 
z
" id="DejaVuSans-53"/>
       </defs>
       <use xlink:href="#DejaVuSans-53"/>
       <use x="63.623047" xlink:href="#DejaVuSans-48"/>
       <use x="127.246094" xlink:href="#DejaVuSans-48"/>
      </g>
     </g>
    </g>
    <g id="text_7">
     <!-- Latent features -->
     <g style="fill:#262626;" transform="translate(508.441719 339.954688)scale(0.1 -0.1)">
      <defs>
       <path d="M 9.8125 72.90625 
L 19.671875 72.90625 
L 19.671875 8.296875 
L 55.171875 8.296875 
L 55.171875 0 
L 9.8125 0 
z
" id="DejaVuSans-76"/>
       <path d="M 34.28125 27.484375 
Q 23.390625 27.484375 19.1875 25 
Q 14.984375 22.515625 14.984375 16.5 
Q 14.984375 11.71875 18.140625 8.90625 
Q 21.296875 6.109375 26.703125 6.109375 
Q 34.1875 6.109375 38.703125 11.40625 
Q 43.21875 16.703125 43.21875 25.484375 
L 43.21875 27.484375 
z
M 52.203125 31.203125 
L 52.203125 0 
L 43.21875 0 
L 43.21875 8.296875 
Q 40.140625 3.328125 35.546875 0.953125 
Q 30.953125 -1.421875 24.3125 -1.421875 
Q 15.921875 -1.421875 10.953125 3.296875 
Q 6 8.015625 6 15.921875 
Q 6 25.140625 12.171875 29.828125 
Q 18.359375 34.515625 30.609375 34.515625 
L 43.21875 34.515625 
L 43.21875 35.40625 
Q 43.21875 41.609375 39.140625 45 
Q 35.0625 48.390625 27.6875 48.390625 
Q 23 48.390625 18.546875 47.265625 
Q 14.109375 46.140625 10.015625 43.890625 
L 10.015625 52.203125 
Q 14.9375 54.109375 19.578125 55.046875 
Q 24.21875 56 28.609375 56 
Q 40.484375 56 46.34375 49.84375 
Q 52.203125 43.703125 52.203125 31.203125 
z
" id="DejaVuSans-97"/>
       <path d="M 18.3125 70.21875 
L 18.3125 54.6875 
L 36.8125 54.6875 
L 36.8125 47.703125 
L 18.3125 47.703125 
L 18.3125 18.015625 
Q 18.3125 11.328125 20.140625 9.421875 
Q 21.96875 7.515625 27.59375 7.515625 
L 36.8125 7.515625 
L 36.8125 0 
L 27.59375 0 
Q 17.1875 0 13.234375 3.875 
Q 9.28125 7.765625 9.28125 18.015625 
L 9.28125 47.703125 
L 2.6875 47.703125 
L 2.6875 54.6875 
L 9.28125 54.6875 
L 9.28125 70.21875 
z
" id="DejaVuSans-116"/>
       <path d="M 56.203125 29.59375 
L 56.203125 25.203125 
L 14.890625 25.203125 
Q 15.484375 15.921875 20.484375 11.0625 
Q 25.484375 6.203125 34.421875 6.203125 
Q 39.59375 6.203125 44.453125 7.46875 
Q 49.3125 8.734375 54.109375 11.28125 
L 54.109375 2.78125 
Q 49.265625 0.734375 44.1875 -0.34375 
Q 39.109375 -1.421875 33.890625 -1.421875 
Q 20.796875 -1.421875 13.15625 6.1875 
Q 5.515625 13.8125 5.515625 26.8125 
Q 5.515625 40.234375 12.765625 48.109375 
Q 20.015625 56 32.328125 56 
Q 43.359375 56 49.78125 48.890625 
Q 56.203125 41.796875 56.203125 29.59375 
z
M 47.21875 32.234375 
Q 47.125 39.59375 43.09375 43.984375 
Q 39.0625 48.390625 32.421875 48.390625 
Q 24.90625 48.390625 20.390625 44.140625 
Q 15.875 39.890625 15.1875 32.171875 
z
" id="DejaVuSans-101"/>
       <path d="M 54.890625 33.015625 
L 54.890625 0 
L 45.90625 0 
L 45.90625 32.71875 
Q 45.90625 40.484375 42.875 44.328125 
Q 39.84375 48.1875 33.796875 48.1875 
Q 26.515625 48.1875 22.3125 43.546875 
Q 18.109375 38.921875 18.109375 30.90625 
L 18.109375 0 
L 9.078125 0 
L 9.078125 54.6875 
L 18.109375 54.6875 
L 18.109375 46.1875 
Q 21.34375 51.125 25.703125 53.5625 
Q 30.078125 56 35.796875 56 
Q 45.21875 56 50.046875 50.171875 
Q 54.890625 44.34375 54.890625 33.015625 
z
" id="DejaVuSans-110"/>
       <path id="DejaVuSans-32"/>
       <path d="M 37.109375 75.984375 
L 37.109375 68.5 
L 28.515625 68.5 
Q 23.6875 68.5 21.796875 66.546875 
Q 19.921875 64.59375 19.921875 59.515625 
L 19.921875 54.6875 
L 34.71875 54.6875 
L 34.71875 47.703125 
L 19.921875 47.703125 
L 19.921875 0 
L 10.890625 0 
L 10.890625 47.703125 
L 2.296875 47.703125 
L 2.296875 54.6875 
L 10.890625 54.6875 
L 10.890625 58.5 
Q 10.890625 67.625 15.140625 71.796875 
Q 19.390625 75.984375 28.609375 75.984375 
z
" id="DejaVuSans-102"/>
       <path d="M 8.5 21.578125 
L 8.5 54.6875 
L 17.484375 54.6875 
L 17.484375 21.921875 
Q 17.484375 14.15625 20.5 10.265625 
Q 23.53125 6.390625 29.59375 6.390625 
Q 36.859375 6.390625 41.078125 11.03125 
Q 45.3125 15.671875 45.3125 23.6875 
L 45.3125 54.6875 
L 54.296875 54.6875 
L 54.296875 0 
L 45.3125 0 
L 45.3125 8.40625 
Q 42.046875 3.421875 37.71875 1 
Q 33.40625 -1.421875 27.6875 -1.421875 
Q 18.265625 -1.421875 13.375 4.4375 
Q 8.5 10.296875 8.5 21.578125 
z
M 31.109375 56 
z
" id="DejaVuSans-117"/>
       <path d="M 41.109375 46.296875 
Q 39.59375 47.171875 37.8125 47.578125 
Q 36.03125 48 33.890625 48 
Q 26.265625 48 22.1875 43.046875 
Q 18.109375 38.09375 18.109375 28.8125 
L 18.109375 0 
L 9.078125 0 
L 9.078125 54.6875 
L 18.109375 54.6875 
L 18.109375 46.1875 
Q 20.953125 51.171875 25.484375 53.578125 
Q 30.03125 56 36.53125 56 
Q 37.453125 56 38.578125 55.875 
Q 39.703125 55.765625 41.0625 55.515625 
z
" id="DejaVuSans-114"/>
       <path d="M 44.28125 53.078125 
L 44.28125 44.578125 
Q 40.484375 46.53125 36.375 47.5 
Q 32.28125 48.484375 27.875 48.484375 
Q 21.1875 48.484375 17.84375 46.4375 
Q 14.5 44.390625 14.5 40.28125 
Q 14.5 37.15625 16.890625 35.375 
Q 19.28125 33.59375 26.515625 31.984375 
L 29.59375 31.296875 
Q 39.15625 29.25 43.1875 25.515625 
Q 47.21875 21.78125 47.21875 15.09375 
Q 47.21875 7.46875 41.1875 3.015625 
Q 35.15625 -1.421875 24.609375 -1.421875 
Q 20.21875 -1.421875 15.453125 -0.5625 
Q 10.6875 0.296875 5.421875 2 
L 5.421875 11.28125 
Q 10.40625 8.6875 15.234375 7.390625 
Q 20.0625 6.109375 24.8125 6.109375 
Q 31.15625 6.109375 34.5625 8.28125 
Q 37.984375 10.453125 37.984375 14.40625 
Q 37.984375 18.0625 35.515625 20.015625 
Q 33.0625 21.96875 24.703125 23.78125 
L 21.578125 24.515625 
Q 13.234375 26.265625 9.515625 29.90625 
Q 5.8125 33.546875 5.8125 39.890625 
Q 5.8125 47.609375 11.28125 51.796875 
Q 16.75 56 26.8125 56 
Q 31.78125 56 36.171875 55.265625 
Q 40.578125 54.546875 44.28125 53.078125 
z
" id="DejaVuSans-115"/>
      </defs>
      <use xlink:href="#DejaVuSans-76"/>
      <use x="55.712891" xlink:href="#DejaVuSans-97"/>
      <use x="116.992188" xlink:href="#DejaVuSans-116"/>
      <use x="156.201172" xlink:href="#DejaVuSans-101"/>
      <use x="217.724609" xlink:href="#DejaVuSans-110"/>
      <use x="281.103516" xlink:href="#DejaVuSans-116"/>
      <use x="320.3125" xlink:href="#DejaVuSans-32"/>
      <use x="352.099609" xlink:href="#DejaVuSans-102"/>
      <use x="387.304688" xlink:href="#DejaVuSans-101"/>
      <use x="448.828125" xlink:href="#DejaVuSans-97"/>
      <use x="510.107422" xlink:href="#DejaVuSans-116"/>
      <use x="549.316406" xlink:href="#DejaVuSans-117"/>
      <use x="612.695312" xlink:href="#DejaVuSans-114"/>
      <use x="651.558594" xlink:href="#DejaVuSans-101"/>
      <use x="713.082031" xlink:href="#DejaVuSans-115"/>
     </g>
    </g>
   </g>
   <g id="matplotlib.axis_2">
    <g id="ytick_1">
     <g id="line2d_7">
      <path clip-path="url(#p4b14c1a996)" d="M 35.420313 297.977066 
L 1057.980313 297.977066 
" style="fill:none;stroke:#cccccc;stroke-linecap:round;stroke-width:0.8;"/>
     </g>
     <g id="text_8">
      <!-- −6 -->
      <g style="fill:#262626;" transform="translate(13.678125 301.776284)scale(0.1 -0.1)">
       <defs>
        <path d="M 10.59375 35.5 
L 73.1875 35.5 
L 73.1875 27.203125 
L 10.59375 27.203125 
z
" id="DejaVuSans-8722"/>
        <path d="M 33.015625 40.375 
Q 26.375 40.375 22.484375 35.828125 
Q 18.609375 31.296875 18.609375 23.390625 
Q 18.609375 15.53125 22.484375 10.953125 
Q 26.375 6.390625 33.015625 6.390625 
Q 39.65625 6.390625 43.53125 10.953125 
Q 47.40625 15.53125 47.40625 23.390625 
Q 47.40625 31.296875 43.53125 35.828125 
Q 39.65625 40.375 33.015625 40.375 
z
M 52.59375 71.296875 
L 52.59375 62.3125 
Q 48.875 64.0625 45.09375 64.984375 
Q 41.3125 65.921875 37.59375 65.921875 
Q 27.828125 65.921875 22.671875 59.328125 
Q 17.53125 52.734375 16.796875 39.40625 
Q 19.671875 43.65625 24.015625 45.921875 
Q 28.375 48.1875 33.59375 48.1875 
Q 44.578125 48.1875 50.953125 41.515625 
Q 57.328125 34.859375 57.328125 23.390625 
Q 57.328125 12.15625 50.6875 5.359375 
Q 44.046875 -1.421875 33.015625 -1.421875 
Q 20.359375 -1.421875 13.671875 8.265625 
Q 6.984375 17.96875 6.984375 36.375 
Q 6.984375 53.65625 15.1875 63.9375 
Q 23.390625 74.21875 37.203125 74.21875 
Q 40.921875 74.21875 44.703125 73.484375 
Q 48.484375 72.75 52.59375 71.296875 
z
" id="DejaVuSans-54"/>
       </defs>
       <use xlink:href="#DejaVuSans-8722"/>
       <use x="83.789062" xlink:href="#DejaVuSans-54"/>
      </g>
     </g>
    </g>
    <g id="ytick_2">
     <g id="line2d_8">
      <path clip-path="url(#p4b14c1a996)" d="M 35.420313 247.319239 
L 1057.980313 247.319239 
" style="fill:none;stroke:#cccccc;stroke-linecap:round;stroke-width:0.8;"/>
     </g>
     <g id="text_9">
      <!-- −4 -->
      <g style="fill:#262626;" transform="translate(13.678125 251.118458)scale(0.1 -0.1)">
       <use xlink:href="#DejaVuSans-8722"/>
       <use x="83.789062" xlink:href="#DejaVuSans-52"/>
      </g>
     </g>
    </g>
    <g id="ytick_3">
     <g id="line2d_9">
      <path clip-path="url(#p4b14c1a996)" d="M 35.420313 196.661413 
L 1057.980313 196.661413 
" style="fill:none;stroke:#cccccc;stroke-linecap:round;stroke-width:0.8;"/>
     </g>
     <g id="text_10">
      <!-- −2 -->
      <g style="fill:#262626;" transform="translate(13.678125 200.460631)scale(0.1 -0.1)">
       <use xlink:href="#DejaVuSans-8722"/>
       <use x="83.789062" xlink:href="#DejaVuSans-50"/>
      </g>
     </g>
    </g>
    <g id="ytick_4">
     <g id="line2d_10">
      <path clip-path="url(#p4b14c1a996)" d="M 35.420313 146.003586 
L 1057.980313 146.003586 
" style="fill:none;stroke:#cccccc;stroke-linecap:round;stroke-width:0.8;"/>
     </g>
     <g id="text_11">
      <!-- 0 -->
      <g style="fill:#262626;" transform="translate(22.057813 149.802805)scale(0.1 -0.1)">
       <use xlink:href="#DejaVuSans-48"/>
      </g>
     </g>
    </g>
    <g id="ytick_5">
     <g id="line2d_11">
      <path clip-path="url(#p4b14c1a996)" d="M 35.420313 95.34576 
L 1057.980313 95.34576 
" style="fill:none;stroke:#cccccc;stroke-linecap:round;stroke-width:0.8;"/>
     </g>
     <g id="text_12">
      <!-- 2 -->
      <g style="fill:#262626;" transform="translate(22.057813 99.144978)scale(0.1 -0.1)">
       <use xlink:href="#DejaVuSans-50"/>
      </g>
     </g>
    </g>
    <g id="ytick_6">
     <g id="line2d_12">
      <path clip-path="url(#p4b14c1a996)" d="M 35.420313 44.687933 
L 1057.980313 44.687933 
" style="fill:none;stroke:#cccccc;stroke-linecap:round;stroke-width:0.8;"/>
     </g>
     <g id="text_13">
      <!-- 4 -->
      <g style="fill:#262626;" transform="translate(22.057813 48.487152)scale(0.1 -0.1)">
       <use xlink:href="#DejaVuSans-52"/>
      </g>
     </g>
    </g>
    <g id="text_14">
     <!-- Expression Level -->
     <g style="fill:#262626;" transform="translate(7.598437 205.32625)rotate(-90)scale(0.1 -0.1)">
      <defs>
       <path d="M 9.8125 72.90625 
L 55.90625 72.90625 
L 55.90625 64.59375 
L 19.671875 64.59375 
L 19.671875 43.015625 
L 54.390625 43.015625 
L 54.390625 34.71875 
L 19.671875 34.71875 
L 19.671875 8.296875 
L 56.78125 8.296875 
L 56.78125 0 
L 9.8125 0 
z
" id="DejaVuSans-69"/>
       <path d="M 54.890625 54.6875 
L 35.109375 28.078125 
L 55.90625 0 
L 45.3125 0 
L 29.390625 21.484375 
L 13.484375 0 
L 2.875 0 
L 24.125 28.609375 
L 4.6875 54.6875 
L 15.28125 54.6875 
L 29.78125 35.203125 
L 44.28125 54.6875 
z
" id="DejaVuSans-120"/>
       <path d="M 18.109375 8.203125 
L 18.109375 -20.796875 
L 9.078125 -20.796875 
L 9.078125 54.6875 
L 18.109375 54.6875 
L 18.109375 46.390625 
Q 20.953125 51.265625 25.265625 53.625 
Q 29.59375 56 35.59375 56 
Q 45.5625 56 51.78125 48.09375 
Q 58.015625 40.1875 58.015625 27.296875 
Q 58.015625 14.40625 51.78125 6.484375 
Q 45.5625 -1.421875 35.59375 -1.421875 
Q 29.59375 -1.421875 25.265625 0.953125 
Q 20.953125 3.328125 18.109375 8.203125 
z
M 48.6875 27.296875 
Q 48.6875 37.203125 44.609375 42.84375 
Q 40.53125 48.484375 33.40625 48.484375 
Q 26.265625 48.484375 22.1875 42.84375 
Q 18.109375 37.203125 18.109375 27.296875 
Q 18.109375 17.390625 22.1875 11.75 
Q 26.265625 6.109375 33.40625 6.109375 
Q 40.53125 6.109375 44.609375 11.75 
Q 48.6875 17.390625 48.6875 27.296875 
z
" id="DejaVuSans-112"/>
       <path d="M 9.421875 54.6875 
L 18.40625 54.6875 
L 18.40625 0 
L 9.421875 0 
z
M 9.421875 75.984375 
L 18.40625 75.984375 
L 18.40625 64.59375 
L 9.421875 64.59375 
z
" id="DejaVuSans-105"/>
       <path d="M 30.609375 48.390625 
Q 23.390625 48.390625 19.1875 42.75 
Q 14.984375 37.109375 14.984375 27.296875 
Q 14.984375 17.484375 19.15625 11.84375 
Q 23.34375 6.203125 30.609375 6.203125 
Q 37.796875 6.203125 41.984375 11.859375 
Q 46.1875 17.53125 46.1875 27.296875 
Q 46.1875 37.015625 41.984375 42.703125 
Q 37.796875 48.390625 30.609375 48.390625 
z
M 30.609375 56 
Q 42.328125 56 49.015625 48.375 
Q 55.71875 40.765625 55.71875 27.296875 
Q 55.71875 13.875 49.015625 6.21875 
Q 42.328125 -1.421875 30.609375 -1.421875 
Q 18.84375 -1.421875 12.171875 6.21875 
Q 5.515625 13.875 5.515625 27.296875 
Q 5.515625 40.765625 12.171875 48.375 
Q 18.84375 56 30.609375 56 
z
" id="DejaVuSans-111"/>
       <path d="M 2.984375 54.6875 
L 12.5 54.6875 
L 29.59375 8.796875 
L 46.6875 54.6875 
L 56.203125 54.6875 
L 35.6875 0 
L 23.484375 0 
z
" id="DejaVuSans-118"/>
       <path d="M 9.421875 75.984375 
L 18.40625 75.984375 
L 18.40625 0 
L 9.421875 0 
z
" id="DejaVuSans-108"/>
      </defs>
      <use xlink:href="#DejaVuSans-69"/>
      <use x="63.183594" xlink:href="#DejaVuSans-120"/>
      <use x="122.363281" xlink:href="#DejaVuSans-112"/>
      <use x="185.839844" xlink:href="#DejaVuSans-114"/>
      <use x="224.703125" xlink:href="#DejaVuSans-101"/>
      <use x="286.226562" xlink:href="#DejaVuSans-115"/>
      <use x="338.326172" xlink:href="#DejaVuSans-115"/>
      <use x="390.425781" xlink:href="#DejaVuSans-105"/>
      <use x="418.208984" xlink:href="#DejaVuSans-111"/>
      <use x="479.390625" xlink:href="#DejaVuSans-110"/>
      <use x="542.769531" xlink:href="#DejaVuSans-32"/>
      <use x="574.556641" xlink:href="#DejaVuSans-76"/>
      <use x="628.519531" xlink:href="#DejaVuSans-101"/>
      <use x="690.042969" xlink:href="#DejaVuSans-118"/>
      <use x="749.222656" xlink:href="#DejaVuSans-101"/>
      <use x="810.746094" xlink:href="#DejaVuSans-108"/>
     </g>
    </g>
   </g>
   <g id="line2d_13">
    <path clip-path="url(#p4b14c1a996)" d="M 81.900312 171.58327 
L 83.763238 45.954734 
L 85.626164 165.559097 
L 87.48909 136.196566 
L 89.352016 93.650313 
L 91.214942 149.377234 
L 93.077868 178.322018 
L 94.940793 102.110396 
L 96.803719 180.68827 
L 98.666645 156.521377 
L 100.529571 234.606538 
L 102.392497 85.822797 
L 104.255423 128.762773 
L 106.118349 138.4566 
L 107.981274 118.728087 
L 109.8442 132.348467 
L 111.707126 267.348585 
L 113.570052 112.822032 
L 115.432978 167.477859 
L 117.295904 118.866951 
L 119.15883 49.228781 
L 121.021755 151.012225 
L 122.884681 158.867442 
L 124.747607 112.880135 
L 126.610533 151.905151 
L 128.473459 176.119389 
L 130.336385 170.881727 
L 132.19931 122.214956 
L 134.062236 174.214529 
L 135.925162 165.697226 
L 137.788088 150.170944 
L 139.651014 161.996351 
L 141.51394 96.587686 
L 143.376866 108.519333 
L 145.239791 183.508465 
L 147.102717 57.499974 
L 148.965643 186.385084 
L 150.828569 145.71801 
L 152.691495 57.902381 
L 154.554421 197.957019 
L 156.417347 129.328464 
L 158.280272 93.787933 
L 160.143198 135.072532 
L 162.006124 120.887678 
L 163.86905 182.003708 
L 165.731976 132.482218 
L 167.594902 180.975488 
L 169.457828 151.226896 
L 171.320753 105.210584 
L 173.183679 175.713706 
L 175.046605 117.119805 
L 176.909531 157.962658 
L 178.772457 162.312817 
L 180.635383 240.326894 
L 182.498308 191.439868 
L 184.361234 129.495836 
L 186.22416 189.289228 
L 188.087086 143.681917 
L 189.950012 137.521397 
L 191.812938 37.857557 
L 193.675864 169.742528 
L 195.538789 139.520172 
L 197.401715 54.575186 
L 199.264641 162.681297 
L 201.127567 205.061427 
L 202.990493 151.792031 
L 204.853419 137.315864 
L 206.716345 96.212711 
L 208.57927 239.458545 
L 210.442196 68.28882 
L 212.305122 194.850448 
L 214.168048 177.724751 
L 216.030974 113.78979 
L 217.8939 124.404391 
L 219.756826 128.013132 
L 221.619751 103.970617 
L 223.482677 167.21287 
L 225.345603 104.331026 
L 227.208529 153.508759 
L 229.071455 183.962293 
L 230.934381 120.81838 
L 232.797306 154.390998 
L 234.660232 173.085992 
L 236.523158 130.700232 
L 238.386084 165.540351 
L 240.24901 102.298806 
L 242.111936 189.639477 
L 243.974862 122.446774 
L 245.837787 128.966422 
L 247.700713 182.196475 
L 249.563639 95.705016 
L 251.426565 159.896699 
L 253.289491 141.353397 
L 255.152417 160.434008 
L 257.015343 150.505008 
L 258.878268 142.308678 
L 260.741194 112.514577 
L 262.60412 60.764733 
L 264.467046 28.598125 
L 266.329972 141.375425 
L 268.192898 141.073479 
L 270.055824 206.629767 
L 271.918749 127.479051 
L 273.781675 135.162517 
L 275.644601 85.566881 
L 277.507527 162.539562 
L 279.370453 173.527833 
L 281.233379 225.114705 
L 283.096304 176.999074 
L 284.95923 186.907819 
L 286.822156 131.743697 
L 288.685082 112.184742 
L 290.548008 160.708462 
L 292.410934 160.118069 
L 294.27386 117.77462 
L 296.136785 153.378064 
L 297.999711 183.827638 
L 299.862637 127.515833 
L 301.725563 92.81778 
L 303.588489 127.677015 
L 305.451415 164.786102 
L 307.314341 120.698543 
L 309.177266 89.644093 
L 311.040192 115.474077 
L 312.903118 69.345008 
L 314.766044 50.171179 
L 316.62897 175.043819 
L 318.491896 171.529325 
L 320.354822 125.830869 
L 322.217747 199.620248 
L 324.080673 118.913919 
L 325.943599 66.179251 
L 327.806525 35.858288 
L 329.669451 131.069578 
L 331.532377 111.06468 
L 333.395302 155.032261 
L 335.258228 118.606971 
L 337.121154 198.434797 
L 338.98408 167.11757 
L 340.847006 167.988942 
L 342.709932 229.936319 
L 344.572858 219.511129 
L 346.435783 188.258569 
L 348.298709 172.10612 
L 350.161635 140.394316 
L 352.024561 207.076035 
L 353.887487 123.551887 
L 355.750413 161.793959 
L 357.613339 147.788397 
L 359.476264 125.108403 
L 361.33919 250.783614 
L 363.202116 147.478675 
L 365.065042 161.319679 
L 366.927968 163.758763 
L 368.790894 140.063068 
L 370.65382 163.941812 
L 372.516745 103.588612 
L 374.379671 183.255556 
L 376.242597 169.828923 
L 378.105523 77.714279 
L 379.968449 96.064849 
L 381.831375 119.487289 
L 383.6943 165.426299 
L 385.557226 67.005068 
L 387.420152 159.996704 
L 389.283078 120.714457 
L 391.146004 129.451619 
L 393.00893 78.039684 
L 394.871856 145.955823 
L 396.734781 177.519758 
L 398.597707 150.48231 
L 400.460633 107.450273 
L 402.323559 148.102355 
L 404.186485 161.091839 
L 406.049411 134.833022 
L 407.912337 129.77922 
L 409.775262 106.089486 
L 411.638188 159.721225 
L 413.501114 151.314704 
L 415.36404 120.36611 
L 417.226966 129.015952 
L 419.089892 162.529721 
L 420.952818 84.162925 
L 422.815743 83.886422 
L 424.678669 135.342469 
L 426.541595 213.299805 
L 428.404521 134.8549 
L 430.267447 170.335244 
L 432.130373 86.980082 
L 433.993298 175.467078 
L 435.856224 139.441363 
L 437.71915 203.837363 
L 439.582076 163.36468 
L 441.445002 150.307455 
L 443.307928 112.759584 
L 445.170854 138.141324 
L 447.033779 117.788201 
L 448.896705 142.583019 
L 450.759631 131.086594 
L 452.622557 111.013806 
L 454.485483 146.587832 
L 458.211335 172.270066 
L 460.07426 131.082352 
L 461.937186 97.073303 
L 463.800112 146.363297 
L 465.663038 229.651555 
L 467.525964 119.999746 
L 469.38889 166.988745 
L 471.251816 192.110866 
L 473.114741 179.98233 
L 474.977667 220.947906 
L 476.840593 127.522315 
L 478.703519 151.761221 
L 480.566445 227.920177 
L 482.429371 233.512667 
L 484.292296 152.228551 
L 486.155222 101.085465 
L 488.018148 192.213449 
L 489.881074 180.789753 
L 491.744 111.342741 
L 493.606926 143.830565 
L 495.469852 85.370442 
L 497.332777 175.893499 
L 499.195703 239.655135 
L 501.058629 146.304086 
L 502.921555 117.882673 
L 504.784481 159.312099 
L 506.647407 156.162151 
L 508.510333 94.295187 
L 510.373258 211.839192 
L 512.236184 114.716158 
L 514.09911 222.552443 
L 515.962036 184.287619 
L 517.824962 155.787443 
L 519.687888 172.850143 
L 521.550814 90.992316 
L 523.413739 165.760805 
L 525.276665 191.077933 
L 527.139591 133.575289 
L 529.002517 47.610004 
L 530.865443 96.03264 
L 532.728369 120.767857 
L 534.591294 123.562299 
L 536.45422 187.775159 
L 538.317146 141.250061 
L 540.180072 208.179097 
L 542.042998 105.912679 
L 543.905924 146.884504 
L 545.76885 108.979016 
L 547.631775 73.485013 
L 549.494701 164.508896 
L 551.357627 112.674891 
L 553.220553 171.934661 
L 555.083479 121.045838 
L 556.946405 201.316878 
L 558.809331 52.990365 
L 560.672256 258.492514 
L 562.535182 122.697826 
L 564.398108 113.144496 
L 566.261034 127.652431 
L 568.12396 170.681674 
L 569.986886 123.969501 
L 571.849811 158.420273 
L 573.712737 81.75123 
L 575.575663 163.891478 
L 577.438589 169.93539 
L 579.301515 169.239215 
L 581.164441 167.086871 
L 583.027367 132.767078 
L 584.890292 206.484677 
L 586.753218 215.672186 
L 588.616144 135.621033 
L 590.47907 127.256995 
L 592.341996 194.36478 
L 594.204922 130.671247 
L 596.067848 71.526072 
L 597.930773 142.513964 
L 599.793699 159.616561 
L 601.656625 180.283897 
L 603.519551 45.475452 
L 605.382477 178.268821 
L 607.245403 116.215558 
L 609.108329 169.789842 
L 610.971254 83.05819 
L 612.83418 177.520749 
L 614.697106 143.611868 
L 616.560032 98.149876 
L 618.422958 92.713591 
L 620.285884 142.054083 
L 622.148809 251.510562 
L 624.011735 86.910242 
L 625.874661 183.713476 
L 627.737587 162.249994 
L 629.600513 147.776868 
L 631.463439 66.596133 
L 633.326365 85.245346 
L 635.18929 154.165069 
L 637.052216 95.216527 
L 638.915142 76.668217 
L 640.778068 134.913368 
L 642.640994 142.584185 
L 644.50392 208.327612 
L 646.366846 133.856308 
L 648.229771 162.5525 
L 650.092697 48.333734 
L 651.955623 188.525702 
L 653.818549 150.611309 
L 655.681475 156.838536 
L 657.544401 196.333519 
L 659.407327 44.427102 
L 661.270252 205.853107 
L 663.133178 151.493613 
L 664.996104 164.172106 
L 666.85903 157.255237 
L 668.721956 178.090082 
L 670.584882 152.658287 
L 672.447807 133.260304 
L 674.310733 116.357107 
L 676.173659 137.076901 
L 678.036585 127.701939 
L 679.899511 192.359161 
L 681.762437 168.719942 
L 683.625363 172.702185 
L 685.488288 125.613053 
L 687.351214 105.675928 
L 689.21414 124.418048 
L 691.077066 131.167577 
L 692.939992 175.005874 
L 694.802918 100.06608 
L 696.665844 156.372062 
L 698.528769 137.963939 
L 700.391695 130.450505 
L 702.254621 207.535328 
L 704.117547 197.464336 
L 705.980473 298.198125 
L 707.843399 121.974147 
L 709.706325 110.291317 
L 711.56925 175.79688 
L 713.432176 164.410961 
L 715.295102 46.321982 
L 717.158028 76.792576 
L 719.020954 125.204637 
L 720.88388 129.363533 
L 722.746805 190.494396 
L 724.609731 88.809308 
L 726.472657 151.781024 
L 728.335583 143.572663 
L 730.198509 113.19647 
L 732.061435 154.748728 
L 733.924361 162.946817 
L 735.787286 79.603163 
L 737.650212 189.594171 
L 739.513138 97.134818 
L 741.376064 151.214578 
L 743.23899 194.832398 
L 745.101916 59.680349 
L 746.964842 93.773578 
L 748.827767 123.957152 
L 750.690693 98.454821 
L 752.553619 164.349146 
L 754.416545 151.496715 
L 756.279471 145.660385 
L 758.142397 207.397859 
L 760.005323 157.298256 
L 761.868248 131.101623 
L 763.731174 151.175652 
L 765.5941 136.544418 
L 767.457026 134.327609 
L 769.319952 175.05657 
L 771.182878 151.48188 
L 773.045803 60.33837 
L 774.908729 85.372888 
L 776.771655 168.98972 
L 778.634581 117.556435 
L 780.497507 187.630063 
L 782.360433 113.350869 
L 784.223359 128.521722 
L 786.086284 91.066039 
L 787.94921 139.434951 
L 789.812136 106.615808 
L 791.675062 165.179251 
L 793.537988 149.7409 
L 795.400914 156.774403 
L 797.26384 212.524424 
L 799.126765 178.38638 
L 800.989691 53.502662 
L 802.852617 210.117814 
L 804.715543 201.830208 
L 806.578469 112.521428 
L 808.441395 196.501606 
L 810.304321 195.968626 
L 812.167246 155.414579 
L 814.030172 158.306484 
L 815.893098 32.932715 
L 817.756024 76.118486 
L 819.61895 139.007994 
L 821.481876 158.746412 
L 823.344801 187.946799 
L 825.207727 221.094578 
L 827.070653 226.2921 
L 828.933579 219.458524 
L 830.796505 143.371327 
L 832.659431 203.618025 
L 834.522357 107.719969 
L 836.385282 114.497055 
L 838.248208 159.916377 
L 840.111134 155.829986 
L 841.97406 113.506065 
L 843.836986 49.979891 
L 845.699912 196.793423 
L 847.562838 197.019434 
L 849.425763 100.334991 
L 851.288689 71.309167 
L 853.151615 105.595164 
L 855.014541 144.934642 
L 856.877467 147.519245 
L 858.740393 116.92981 
L 860.603319 195.380224 
L 862.466244 88.159265 
L 864.32917 91.679608 
L 866.192096 111.895767 
L 868.055022 68.499015 
L 869.917948 217.531462 
L 871.780874 196.146157 
L 873.643799 114.977318 
L 875.506725 238.912449 
L 877.369651 178.7641 
L 879.232577 173.579758 
L 881.095503 186.545467 
L 882.958429 119.92731 
L 884.821355 181.097465 
L 886.68428 153.424055 
L 890.410132 131.30844 
L 892.273058 185.54679 
L 894.135984 128.732557 
L 895.99891 161.023314 
L 897.861836 99.538798 
L 899.724761 93.148433 
L 901.587687 159.924241 
L 903.450613 119.824316 
L 905.313539 143.767515 
L 907.176465 151.520976 
L 909.039391 118.415756 
L 910.902317 160.68698 
L 912.765242 51.119416 
L 914.628168 222.488274 
L 916.491094 165.022947 
L 918.35402 157.413537 
L 920.216946 208.124367 
L 923.942797 106.355692 
L 925.805723 114.979082 
L 927.668649 174.594417 
L 929.531575 242.179074 
L 931.394501 140.096234 
L 933.257427 213.357772 
L 935.120353 169.155603 
L 936.983278 141.168136 
L 940.70913 68.646551 
L 942.572056 116.465287 
L 944.434982 117.570047 
L 946.297908 133.327231 
L 948.160834 205.349802 
L 950.023759 144.267271 
L 951.886685 148.971352 
L 953.749611 208.510493 
L 955.612537 167.54538 
L 957.475463 185.189255 
L 959.338389 184.441128 
L 961.201315 186.237213 
L 963.06424 228.802923 
L 966.790092 88.706382 
L 968.653018 167.092155 
L 970.515944 160.584943 
L 972.37887 50.301027 
L 974.241795 222.047303 
L 976.104721 120.983337 
L 977.967647 143.467386 
L 979.830573 132.562069 
L 981.693499 94.80633 
L 983.556425 166.921694 
L 985.419351 180.142427 
L 987.282276 137.506655 
L 989.145202 166.12647 
L 991.008128 147.558713 
L 992.871054 149.96641 
L 994.73398 211.834186 
L 996.596906 145.768968 
L 998.459832 128.614037 
L 1000.322757 155.508168 
L 1002.185683 122.567872 
L 1004.048609 129.451517 
L 1005.911535 170.699923 
L 1007.774461 167.736435 
L 1009.637387 184.446276 
L 1011.500312 155.585329 
L 1011.500312 155.585329 
" style="fill:none;stroke:#1f77b4;stroke-linecap:round;"/>
   </g>
   <g id="patch_3">
    <path d="M 35.420313 311.678125 
L 35.420313 15.118125 
" style="fill:none;stroke:#cccccc;stroke-linecap:square;stroke-linejoin:miter;stroke-width:0.8;"/>
   </g>
   <g id="patch_4">
    <path d="M 1057.980313 311.678125 
L 1057.980313 15.118125 
" style="fill:none;stroke:#cccccc;stroke-linecap:square;stroke-linejoin:miter;stroke-width:0.8;"/>
   </g>
   <g id="patch_5">
    <path d="M 35.420312 311.678125 
L 1057.980313 311.678125 
" style="fill:none;stroke:#cccccc;stroke-linecap:square;stroke-linejoin:miter;stroke-width:0.8;"/>
   </g>
   <g id="patch_6">
    <path d="M 35.420312 15.118125 
L 1057.980313 15.118125 
" style="fill:none;stroke:#cccccc;stroke-linecap:square;stroke-linejoin:miter;stroke-width:0.8;"/>
   </g>
   <g id="text_15">
    <!-- Latent Space Sample 1 -->
    <g style="fill:#262626;" transform="translate(477.159375 9.118125)scale(0.12 -0.12)">
     <defs>
      <path d="M 53.515625 70.515625 
L 53.515625 60.890625 
Q 47.90625 63.578125 42.921875 64.890625 
Q 37.9375 66.21875 33.296875 66.21875 
Q 25.25 66.21875 20.875 63.09375 
Q 16.5 59.96875 16.5 54.203125 
Q 16.5 49.359375 19.40625 46.890625 
Q 22.3125 44.4375 30.421875 42.921875 
L 36.375 41.703125 
Q 47.40625 39.59375 52.65625 34.296875 
Q 57.90625 29 57.90625 20.125 
Q 57.90625 9.515625 50.796875 4.046875 
Q 43.703125 -1.421875 29.984375 -1.421875 
Q 24.8125 -1.421875 18.96875 -0.25 
Q 13.140625 0.921875 6.890625 3.21875 
L 6.890625 13.375 
Q 12.890625 10.015625 18.65625 8.296875 
Q 24.421875 6.59375 29.984375 6.59375 
Q 38.421875 6.59375 43.015625 9.90625 
Q 47.609375 13.234375 47.609375 19.390625 
Q 47.609375 24.75 44.3125 27.78125 
Q 41.015625 30.8125 33.5 32.328125 
L 27.484375 33.5 
Q 16.453125 35.6875 11.515625 40.375 
Q 6.59375 45.0625 6.59375 53.421875 
Q 6.59375 63.09375 13.40625 68.65625 
Q 20.21875 74.21875 32.171875 74.21875 
Q 37.3125 74.21875 42.625 73.28125 
Q 47.953125 72.359375 53.515625 70.515625 
z
" id="DejaVuSans-83"/>
      <path d="M 48.78125 52.59375 
L 48.78125 44.1875 
Q 44.96875 46.296875 41.140625 47.34375 
Q 37.3125 48.390625 33.40625 48.390625 
Q 24.65625 48.390625 19.8125 42.84375 
Q 14.984375 37.3125 14.984375 27.296875 
Q 14.984375 17.28125 19.8125 11.734375 
Q 24.65625 6.203125 33.40625 6.203125 
Q 37.3125 6.203125 41.140625 7.25 
Q 44.96875 8.296875 48.78125 10.40625 
L 48.78125 2.09375 
Q 45.015625 0.34375 40.984375 -0.53125 
Q 36.96875 -1.421875 32.421875 -1.421875 
Q 20.0625 -1.421875 12.78125 6.34375 
Q 5.515625 14.109375 5.515625 27.296875 
Q 5.515625 40.671875 12.859375 48.328125 
Q 20.21875 56 33.015625 56 
Q 37.15625 56 41.109375 55.140625 
Q 45.0625 54.296875 48.78125 52.59375 
z
" id="DejaVuSans-99"/>
      <path d="M 52 44.1875 
Q 55.375 50.25 60.0625 53.125 
Q 64.75 56 71.09375 56 
Q 79.640625 56 84.28125 50.015625 
Q 88.921875 44.046875 88.921875 33.015625 
L 88.921875 0 
L 79.890625 0 
L 79.890625 32.71875 
Q 79.890625 40.578125 77.09375 44.375 
Q 74.3125 48.1875 68.609375 48.1875 
Q 61.625 48.1875 57.5625 43.546875 
Q 53.515625 38.921875 53.515625 30.90625 
L 53.515625 0 
L 44.484375 0 
L 44.484375 32.71875 
Q 44.484375 40.625 41.703125 44.40625 
Q 38.921875 48.1875 33.109375 48.1875 
Q 26.21875 48.1875 22.15625 43.53125 
Q 18.109375 38.875 18.109375 30.90625 
L 18.109375 0 
L 9.078125 0 
L 9.078125 54.6875 
L 18.109375 54.6875 
L 18.109375 46.1875 
Q 21.1875 51.21875 25.484375 53.609375 
Q 29.78125 56 35.6875 56 
Q 41.65625 56 45.828125 52.96875 
Q 50 49.953125 52 44.1875 
z
" id="DejaVuSans-109"/>
     </defs>
     <use xlink:href="#DejaVuSans-76"/>
     <use x="55.712891" xlink:href="#DejaVuSans-97"/>
     <use x="116.992188" xlink:href="#DejaVuSans-116"/>
     <use x="156.201172" xlink:href="#DejaVuSans-101"/>
     <use x="217.724609" xlink:href="#DejaVuSans-110"/>
     <use x="281.103516" xlink:href="#DejaVuSans-116"/>
     <use x="320.3125" xlink:href="#DejaVuSans-32"/>
     <use x="352.099609" xlink:href="#DejaVuSans-83"/>
     <use x="415.576172" xlink:href="#DejaVuSans-112"/>
     <use x="479.052734" xlink:href="#DejaVuSans-97"/>
     <use x="540.332031" xlink:href="#DejaVuSans-99"/>
     <use x="595.3125" xlink:href="#DejaVuSans-101"/>
     <use x="656.835938" xlink:href="#DejaVuSans-32"/>
     <use x="688.623047" xlink:href="#DejaVuSans-83"/>
     <use x="752.099609" xlink:href="#DejaVuSans-97"/>
     <use x="813.378906" xlink:href="#DejaVuSans-109"/>
     <use x="910.791016" xlink:href="#DejaVuSans-112"/>
     <use x="974.267578" xlink:href="#DejaVuSans-108"/>
     <use x="1002.050781" xlink:href="#DejaVuSans-101"/>
     <use x="1063.574219" xlink:href="#DejaVuSans-32"/>
     <use x="1095.361328" xlink:href="#DejaVuSans-49"/>
    </g>
   </g>
  </g>
  <g id="axes_2">
   <g id="patch_7">
    <path d="M 35.420313 666.278125 
L 1057.980313 666.278125 
L 1057.980313 369.718125 
L 35.420313 369.718125 
z
" style="fill:none;"/>
   </g>
   <g id="matplotlib.axis_3">
    <g id="xtick_7">
     <g id="line2d_14">
      <path clip-path="url(#p295814a1a0)" d="M 81.900312 666.278125 
L 81.900312 369.718125 
" style="fill:none;stroke:#cccccc;stroke-linecap:round;stroke-width:0.8;"/>
     </g>
     <g id="text_16">
      <!-- 0 -->
      <g style="fill:#262626;" transform="translate(78.719062 680.876562)scale(0.1 -0.1)">
       <use xlink:href="#DejaVuSans-48"/>
      </g>
     </g>
    </g>
    <g id="xtick_8">
     <g id="line2d_15">
      <path clip-path="url(#p295814a1a0)" d="M 268.192898 666.278125 
L 268.192898 369.718125 
" style="fill:none;stroke:#cccccc;stroke-linecap:round;stroke-width:0.8;"/>
     </g>
     <g id="text_17">
      <!-- 100 -->
      <g style="fill:#262626;" transform="translate(258.649148 680.876562)scale(0.1 -0.1)">
       <use xlink:href="#DejaVuSans-49"/>
       <use x="63.623047" xlink:href="#DejaVuSans-48"/>
       <use x="127.246094" xlink:href="#DejaVuSans-48"/>
      </g>
     </g>
    </g>
    <g id="xtick_9">
     <g id="line2d_16">
      <path clip-path="url(#p295814a1a0)" d="M 454.485483 666.278125 
L 454.485483 369.718125 
" style="fill:none;stroke:#cccccc;stroke-linecap:round;stroke-width:0.8;"/>
     </g>
     <g id="text_18">
      <!-- 200 -->
      <g style="fill:#262626;" transform="translate(444.941733 680.876562)scale(0.1 -0.1)">
       <use xlink:href="#DejaVuSans-50"/>
       <use x="63.623047" xlink:href="#DejaVuSans-48"/>
       <use x="127.246094" xlink:href="#DejaVuSans-48"/>
      </g>
     </g>
    </g>
    <g id="xtick_10">
     <g id="line2d_17">
      <path clip-path="url(#p295814a1a0)" d="M 640.778068 666.278125 
L 640.778068 369.718125 
" style="fill:none;stroke:#cccccc;stroke-linecap:round;stroke-width:0.8;"/>
     </g>
     <g id="text_19">
      <!-- 300 -->
      <g style="fill:#262626;" transform="translate(631.234318 680.876562)scale(0.1 -0.1)">
       <use xlink:href="#DejaVuSans-51"/>
       <use x="63.623047" xlink:href="#DejaVuSans-48"/>
       <use x="127.246094" xlink:href="#DejaVuSans-48"/>
      </g>
     </g>
    </g>
    <g id="xtick_11">
     <g id="line2d_18">
      <path clip-path="url(#p295814a1a0)" d="M 827.070653 666.278125 
L 827.070653 369.718125 
" style="fill:none;stroke:#cccccc;stroke-linecap:round;stroke-width:0.8;"/>
     </g>
     <g id="text_20">
      <!-- 400 -->
      <g style="fill:#262626;" transform="translate(817.526903 680.876562)scale(0.1 -0.1)">
       <use xlink:href="#DejaVuSans-52"/>
       <use x="63.623047" xlink:href="#DejaVuSans-48"/>
       <use x="127.246094" xlink:href="#DejaVuSans-48"/>
      </g>
     </g>
    </g>
    <g id="xtick_12">
     <g id="line2d_19">
      <path clip-path="url(#p295814a1a0)" d="M 1013.363238 666.278125 
L 1013.363238 369.718125 
" style="fill:none;stroke:#cccccc;stroke-linecap:round;stroke-width:0.8;"/>
     </g>
     <g id="text_21">
      <!-- 500 -->
      <g style="fill:#262626;" transform="translate(1003.819488 680.876562)scale(0.1 -0.1)">
       <use xlink:href="#DejaVuSans-53"/>
       <use x="63.623047" xlink:href="#DejaVuSans-48"/>
       <use x="127.246094" xlink:href="#DejaVuSans-48"/>
      </g>
     </g>
    </g>
    <g id="text_22">
     <!-- Latent features -->
     <g style="fill:#262626;" transform="translate(508.441719 694.554688)scale(0.1 -0.1)">
      <use xlink:href="#DejaVuSans-76"/>
      <use x="55.712891" xlink:href="#DejaVuSans-97"/>
      <use x="116.992188" xlink:href="#DejaVuSans-116"/>
      <use x="156.201172" xlink:href="#DejaVuSans-101"/>
      <use x="217.724609" xlink:href="#DejaVuSans-110"/>
      <use x="281.103516" xlink:href="#DejaVuSans-116"/>
      <use x="320.3125" xlink:href="#DejaVuSans-32"/>
      <use x="352.099609" xlink:href="#DejaVuSans-102"/>
      <use x="387.304688" xlink:href="#DejaVuSans-101"/>
      <use x="448.828125" xlink:href="#DejaVuSans-97"/>
      <use x="510.107422" xlink:href="#DejaVuSans-116"/>
      <use x="549.316406" xlink:href="#DejaVuSans-117"/>
      <use x="612.695312" xlink:href="#DejaVuSans-114"/>
      <use x="651.558594" xlink:href="#DejaVuSans-101"/>
      <use x="713.082031" xlink:href="#DejaVuSans-115"/>
     </g>
    </g>
   </g>
   <g id="matplotlib.axis_4">
    <g id="ytick_7">
     <g id="line2d_20">
      <path clip-path="url(#p295814a1a0)" d="M 35.420313 641.721192 
L 1057.980313 641.721192 
" style="fill:none;stroke:#cccccc;stroke-linecap:round;stroke-width:0.8;"/>
     </g>
     <g id="text_23">
      <!-- −3 -->
      <g style="fill:#262626;" transform="translate(13.678125 645.52041)scale(0.1 -0.1)">
       <use xlink:href="#DejaVuSans-8722"/>
       <use x="83.789062" xlink:href="#DejaVuSans-51"/>
      </g>
     </g>
    </g>
    <g id="ytick_8">
     <g id="line2d_21">
      <path clip-path="url(#p295814a1a0)" d="M 35.420313 604.853715 
L 1057.980313 604.853715 
" style="fill:none;stroke:#cccccc;stroke-linecap:round;stroke-width:0.8;"/>
     </g>
     <g id="text_24">
      <!-- −2 -->
      <g style="fill:#262626;" transform="translate(13.678125 608.652933)scale(0.1 -0.1)">
       <use xlink:href="#DejaVuSans-8722"/>
       <use x="83.789062" xlink:href="#DejaVuSans-50"/>
      </g>
     </g>
    </g>
    <g id="ytick_9">
     <g id="line2d_22">
      <path clip-path="url(#p295814a1a0)" d="M 35.420313 567.986238 
L 1057.980313 567.986238 
" style="fill:none;stroke:#cccccc;stroke-linecap:round;stroke-width:0.8;"/>
     </g>
     <g id="text_25">
      <!-- −1 -->
      <g style="fill:#262626;" transform="translate(13.678125 571.785457)scale(0.1 -0.1)">
       <use xlink:href="#DejaVuSans-8722"/>
       <use x="83.789062" xlink:href="#DejaVuSans-49"/>
      </g>
     </g>
    </g>
    <g id="ytick_10">
     <g id="line2d_23">
      <path clip-path="url(#p295814a1a0)" d="M 35.420313 531.118761 
L 1057.980313 531.118761 
" style="fill:none;stroke:#cccccc;stroke-linecap:round;stroke-width:0.8;"/>
     </g>
     <g id="text_26">
      <!-- 0 -->
      <g style="fill:#262626;" transform="translate(22.057813 534.91798)scale(0.1 -0.1)">
       <use xlink:href="#DejaVuSans-48"/>
      </g>
     </g>
    </g>
    <g id="ytick_11">
     <g id="line2d_24">
      <path clip-path="url(#p295814a1a0)" d="M 35.420313 494.251284 
L 1057.980313 494.251284 
" style="fill:none;stroke:#cccccc;stroke-linecap:round;stroke-width:0.8;"/>
     </g>
     <g id="text_27">
      <!-- 1 -->
      <g style="fill:#262626;" transform="translate(22.057813 498.050503)scale(0.1 -0.1)">
       <use xlink:href="#DejaVuSans-49"/>
      </g>
     </g>
    </g>
    <g id="ytick_12">
     <g id="line2d_25">
      <path clip-path="url(#p295814a1a0)" d="M 35.420313 457.383807 
L 1057.980313 457.383807 
" style="fill:none;stroke:#cccccc;stroke-linecap:round;stroke-width:0.8;"/>
     </g>
     <g id="text_28">
      <!-- 2 -->
      <g style="fill:#262626;" transform="translate(22.057813 461.183026)scale(0.1 -0.1)">
       <use xlink:href="#DejaVuSans-50"/>
      </g>
     </g>
    </g>
    <g id="ytick_13">
     <g id="line2d_26">
      <path clip-path="url(#p295814a1a0)" d="M 35.420313 420.51633 
L 1057.980313 420.51633 
" style="fill:none;stroke:#cccccc;stroke-linecap:round;stroke-width:0.8;"/>
     </g>
     <g id="text_29">
      <!-- 3 -->
      <g style="fill:#262626;" transform="translate(22.057813 424.315549)scale(0.1 -0.1)">
       <use xlink:href="#DejaVuSans-51"/>
      </g>
     </g>
    </g>
    <g id="ytick_14">
     <g id="line2d_27">
      <path clip-path="url(#p295814a1a0)" d="M 35.420313 383.648853 
L 1057.980313 383.648853 
" style="fill:none;stroke:#cccccc;stroke-linecap:round;stroke-width:0.8;"/>
     </g>
     <g id="text_30">
      <!-- 4 -->
      <g style="fill:#262626;" transform="translate(22.057813 387.448072)scale(0.1 -0.1)">
       <use xlink:href="#DejaVuSans-52"/>
      </g>
     </g>
    </g>
    <g id="text_31">
     <!-- Expression Level -->
     <g style="fill:#262626;" transform="translate(7.598437 559.92625)rotate(-90)scale(0.1 -0.1)">
      <use xlink:href="#DejaVuSans-69"/>
      <use x="63.183594" xlink:href="#DejaVuSans-120"/>
      <use x="122.363281" xlink:href="#DejaVuSans-112"/>
      <use x="185.839844" xlink:href="#DejaVuSans-114"/>
      <use x="224.703125" xlink:href="#DejaVuSans-101"/>
      <use x="286.226562" xlink:href="#DejaVuSans-115"/>
      <use x="338.326172" xlink:href="#DejaVuSans-115"/>
      <use x="390.425781" xlink:href="#DejaVuSans-105"/>
      <use x="418.208984" xlink:href="#DejaVuSans-111"/>
      <use x="479.390625" xlink:href="#DejaVuSans-110"/>
      <use x="542.769531" xlink:href="#DejaVuSans-32"/>
      <use x="574.556641" xlink:href="#DejaVuSans-76"/>
      <use x="628.519531" xlink:href="#DejaVuSans-101"/>
      <use x="690.042969" xlink:href="#DejaVuSans-118"/>
      <use x="749.222656" xlink:href="#DejaVuSans-101"/>
      <use x="810.746094" xlink:href="#DejaVuSans-108"/>
     </g>
    </g>
   </g>
   <g id="line2d_28">
    <path clip-path="url(#p295814a1a0)" d="M 81.900312 555.087481 
L 83.763238 424.387671 
L 85.626164 546.461932 
L 87.48909 500.387169 
L 89.352016 494.053889 
L 93.077868 572.993505 
L 94.940793 441.486532 
L 96.803719 511.778765 
L 98.666645 533.834277 
L 100.529571 597.215607 
L 102.392497 463.054038 
L 104.255423 554.83769 
L 106.118349 536.974555 
L 107.981274 545.920571 
L 109.8442 529.101865 
L 111.707126 614.146036 
L 113.570052 485.401441 
L 115.432978 491.701372 
L 117.295904 517.216253 
L 119.15883 407.975511 
L 121.021755 485.860774 
L 122.884681 573.359151 
L 124.747607 523.632434 
L 126.610533 534.907481 
L 128.473459 536.567086 
L 130.336385 554.881035 
L 132.19931 530.617653 
L 134.062236 571.109537 
L 135.925162 562.937487 
L 137.788088 543.388967 
L 139.651014 549.09924 
L 141.51394 483.017324 
L 143.376866 516.415919 
L 145.239791 619.385559 
L 147.102717 469.038588 
L 148.965643 579.299958 
L 150.828569 529.513675 
L 152.691495 485.713829 
L 154.554421 493.760377 
L 156.417347 465.171989 
L 158.280272 587.309337 
L 160.143198 507.600442 
L 162.006124 567.297425 
L 163.86905 548.547561 
L 165.731976 470.351411 
L 167.594902 492.861158 
L 169.457828 491.367162 
L 171.320753 531.923163 
L 173.183679 515.924642 
L 175.046605 513.662421 
L 178.772457 553.479467 
L 180.635383 596.031204 
L 182.498308 590.224536 
L 184.361234 558.911088 
L 186.22416 583.739459 
L 188.087086 534.198694 
L 189.950012 552.446624 
L 191.812938 383.198125 
L 193.675864 526.063771 
L 195.538789 545.594024 
L 197.401715 420.437212 
L 201.127567 628.154785 
L 202.990493 534.638013 
L 204.853419 522.948252 
L 206.716345 473.832832 
L 208.57927 614.171993 
L 210.442196 475.442969 
L 212.305122 599.00355 
L 214.168048 603.636038 
L 216.030974 545.886978 
L 217.8939 496.571455 
L 219.756826 519.469069 
L 221.619751 473.708095 
L 223.482677 538.148734 
L 225.345603 502.718118 
L 227.208529 548.126498 
L 229.071455 499.58495 
L 230.934381 490.575193 
L 232.797306 538.718188 
L 234.660232 568.751433 
L 236.523158 481.816198 
L 238.386084 559.686646 
L 240.24901 419.299176 
L 242.111936 634.100215 
L 243.974862 450.07554 
L 245.837787 495.925328 
L 247.700713 525.89005 
L 249.563639 476.206709 
L 251.426565 524.915415 
L 253.289491 569.599868 
L 255.152417 517.138313 
L 257.015343 564.226364 
L 258.878268 553.386626 
L 260.741194 480.03781 
L 262.60412 421.379278 
L 264.467046 466.732612 
L 266.329972 481.574586 
L 268.192898 524.908761 
L 270.055824 574.603466 
L 271.918749 560.865551 
L 273.781675 526.091468 
L 275.644601 498.038004 
L 277.507527 591.451741 
L 279.370453 525.634439 
L 281.233379 571.82005 
L 283.096304 551.016135 
L 284.95923 525.266369 
L 286.822156 519.766728 
L 288.685082 529.49847 
L 290.548008 544.07527 
L 292.410934 561.09664 
L 294.27386 540.722813 
L 296.136785 597.934013 
L 297.999711 588.275821 
L 299.862637 484.518813 
L 301.725563 506.659312 
L 303.588489 469.88708 
L 305.451415 513.242475 
L 307.314341 510.451933 
L 309.177266 476.321584 
L 311.040192 426.016947 
L 312.903118 471.229059 
L 314.766044 423.157552 
L 316.62897 564.193705 
L 318.491896 530.724402 
L 320.354822 532.158532 
L 322.217747 580.378482 
L 324.080673 520.19416 
L 325.943599 436.361815 
L 327.806525 435.273688 
L 329.669451 498.138121 
L 331.532377 456.047787 
L 333.395302 492.240253 
L 335.258228 458.360817 
L 337.121154 570.027822 
L 338.98408 534.425113 
L 340.847006 598.568538 
L 342.709932 617.324022 
L 344.572858 565.012776 
L 346.435783 599.459134 
L 348.298709 585.553003 
L 350.161635 569.730482 
L 352.024561 580.406047 
L 353.887487 543.260253 
L 355.750413 525.490293 
L 357.613339 581.360862 
L 359.476264 468.135312 
L 361.33919 613.307226 
L 363.202116 493.510894 
L 365.065042 582.780328 
L 366.927968 541.430141 
L 368.790894 530.42167 
L 370.65382 537.398943 
L 372.516745 463.956136 
L 374.379671 574.870942 
L 376.242597 572.845426 
L 378.105523 500.044392 
L 379.968449 436.464226 
L 381.831375 460.9226 
L 383.6943 533.328555 
L 385.557226 426.839567 
L 387.420152 520.911742 
L 389.283078 555.747465 
L 391.146004 466.673694 
L 393.00893 448.82472 
L 394.871856 556.651411 
L 396.734781 554.517415 
L 398.597707 572.946264 
L 400.460633 484.454422 
L 402.323559 558.720589 
L 404.186485 523.189423 
L 406.049411 504.884583 
L 407.912337 521.066076 
L 409.775262 430.558658 
L 411.638188 559.987648 
L 413.501114 505.061248 
L 415.36404 485.833934 
L 417.226966 489.133972 
L 419.089892 589.387338 
L 420.952818 458.006114 
L 422.815743 520.044686 
L 424.678669 521.640803 
L 426.541595 564.445832 
L 428.404521 567.565925 
L 430.267447 555.224564 
L 432.130373 471.798315 
L 433.993298 498.113819 
L 435.856224 473.260452 
L 437.71915 631.93879 
L 439.582076 518.781739 
L 441.445002 557.139121 
L 443.307928 491.379679 
L 445.170854 542.213751 
L 447.033779 476.003614 
L 448.896705 485.343814 
L 450.759631 480.281347 
L 452.622557 544.652377 
L 454.485483 578.84745 
L 456.348409 550.846272 
L 458.211335 529.274008 
L 460.07426 491.93215 
L 461.937186 432.754698 
L 463.800112 569.771645 
L 465.663038 563.820695 
L 467.525964 487.978382 
L 469.38889 542.917931 
L 471.251816 545.166584 
L 473.114741 589.48411 
L 474.977667 572.771894 
L 478.703519 544.881158 
L 480.566445 607.849881 
L 482.429371 584.287118 
L 484.292296 528.479711 
L 486.155222 504.740892 
L 488.018148 557.450933 
L 489.881074 578.727054 
L 491.744 451.518014 
L 493.606926 560.75159 
L 495.469852 489.480592 
L 497.332777 502.828139 
L 499.195703 578.313393 
L 501.058629 579.743416 
L 502.921555 471.127743 
L 504.784481 578.653276 
L 506.647407 526.131207 
L 508.510333 438.447339 
L 510.373258 611.972806 
L 512.236184 487.983599 
L 514.09911 595.143886 
L 515.962036 576.97918 
L 517.824962 570.383865 
L 521.550814 511.18726 
L 523.413739 468.062949 
L 525.276665 550.823487 
L 527.139591 493.129386 
L 529.002517 445.673861 
L 530.865443 475.27658 
L 532.728369 539.529271 
L 534.591294 538.355116 
L 536.45422 551.829984 
L 538.317146 478.089939 
L 540.180072 573.576363 
L 542.042998 503.89049 
L 543.905924 497.265553 
L 545.76885 493.839706 
L 547.631775 457.577567 
L 549.494701 530.919749 
L 551.357627 478.583201 
L 553.220553 565.840621 
L 555.083479 505.40029 
L 556.946405 555.445355 
L 558.809331 498.683888 
L 560.672256 589.901103 
L 562.535182 546.269644 
L 564.398108 531.831632 
L 566.261034 508.557509 
L 568.12396 595.324813 
L 569.986886 515.553758 
L 571.849811 532.427874 
L 573.712737 457.754283 
L 575.575663 543.423741 
L 577.438589 529.00649 
L 579.301515 497.48574 
L 581.164441 628.197056 
L 583.027367 503.417016 
L 584.890292 582.603889 
L 586.753218 599.284554 
L 588.616144 494.531466 
L 590.47907 519.841466 
L 592.341996 506.164534 
L 594.204922 535.795903 
L 596.067848 443.937778 
L 597.930773 512.078458 
L 599.793699 529.982982 
L 601.656625 545.628336 
L 603.519551 478.173245 
L 605.382477 560.380982 
L 607.245403 508.695691 
L 609.108329 574.59512 
L 610.971254 527.622374 
L 612.83418 575.249861 
L 614.697106 516.569177 
L 616.560032 509.995823 
L 618.422958 471.967854 
L 620.285884 499.722741 
L 622.148809 605.844125 
L 624.011735 479.201052 
L 625.874661 584.758291 
L 627.737587 565.820833 
L 629.600513 540.545027 
L 631.463439 410.443325 
L 633.326365 509.84327 
L 635.18929 516.878603 
L 637.052216 471.887945 
L 638.915142 432.105266 
L 640.778068 518.701885 
L 642.640994 630.048374 
L 644.50392 577.924924 
L 646.366846 585.706079 
L 648.229771 597.975673 
L 650.092697 487.549018 
L 651.955623 603.319703 
L 653.818549 547.53622 
L 655.681475 544.00105 
L 657.544401 574.2396 
L 659.407327 470.086725 
L 661.270252 563.832285 
L 663.133178 579.030543 
L 664.996104 571.877685 
L 666.85903 517.088084 
L 668.721956 505.989995 
L 670.584882 506.50712 
L 672.447807 505.541218 
L 674.310733 483.335689 
L 676.173659 522.387134 
L 678.036585 477.57145 
L 679.899511 570.1949 
L 681.762437 503.780388 
L 683.625363 564.715099 
L 685.488288 528.850888 
L 687.351214 523.005871 
L 689.21414 552.924699 
L 691.077066 513.594926 
L 692.939992 612.203752 
L 694.802918 540.869517 
L 696.665844 512.178667 
L 698.528769 533.283611 
L 700.391695 473.782611 
L 702.254621 532.672029 
L 704.117547 552.449287 
L 705.980473 652.798125 
L 707.843399 447.41752 
L 709.706325 494.196905 
L 711.56925 565.190389 
L 713.432176 579.590683 
L 715.295102 420.359149 
L 717.158028 460.746028 
L 719.020954 568.431727 
L 720.88388 501.477865 
L 722.746805 603.834966 
L 724.609731 536.368504 
L 726.472657 545.067115 
L 728.335583 560.323984 
L 730.198509 513.158336 
L 732.061435 556.055782 
L 733.924361 585.850985 
L 735.787286 425.27211 
L 737.650212 560.603067 
L 739.513138 530.779424 
L 741.376064 531.0495 
L 743.23899 597.444465 
L 745.101916 449.505867 
L 746.964842 501.594263 
L 748.827767 503.748445 
L 750.690693 470.775857 
L 752.553619 555.3255 
L 754.416545 566.776839 
L 756.279471 514.9983 
L 758.142397 598.978802 
L 760.005323 546.469219 
L 761.868248 539.530551 
L 763.731174 495.655511 
L 765.5941 505.300158 
L 767.457026 452.562015 
L 769.319952 526.360811 
L 771.182878 564.808797 
L 773.045803 486.192215 
L 774.908729 433.738436 
L 776.771655 557.887835 
L 778.634581 512.500065 
L 780.497507 579.073051 
L 782.360433 465.563012 
L 784.223359 566.737693 
L 786.086284 529.369932 
L 787.94921 534.868316 
L 789.812136 497.78103 
L 791.675062 526.200762 
L 793.537988 524.102035 
L 795.400914 542.304009 
L 797.26384 608.76011 
L 799.126765 559.753643 
L 800.989691 458.810191 
L 802.852617 558.758278 
L 804.715543 517.361431 
L 806.578469 544.018206 
L 808.441395 583.750618 
L 810.304321 589.351286 
L 812.167246 559.201972 
L 814.030172 532.380582 
L 815.893098 471.571289 
L 817.756024 469.758344 
L 819.61895 518.253852 
L 821.481876 592.096488 
L 823.344801 538.461134 
L 825.207727 565.897729 
L 827.070653 639.417853 
L 828.933579 591.948598 
L 830.796505 523.637786 
L 832.659431 543.827333 
L 834.522357 473.864273 
L 836.385282 507.569424 
L 838.248208 546.738821 
L 840.111134 596.022836 
L 841.97406 514.261584 
L 843.836986 425.481599 
L 845.699912 587.509356 
L 847.562838 593.366663 
L 849.425763 482.62464 
L 851.288689 502.054558 
L 853.151615 512.324523 
L 855.014541 572.30861 
L 856.877467 512.833454 
L 858.740393 474.686994 
L 860.603319 597.945884 
L 862.466244 491.801603 
L 864.32917 445.981604 
L 866.192096 447.525803 
L 868.055022 456.868834 
L 869.917948 585.058927 
L 871.780874 552.122901 
L 873.643799 527.245081 
L 875.506725 577.446895 
L 877.369651 569.75675 
L 879.232577 531.529168 
L 881.095503 526.381717 
L 882.958429 471.027964 
L 884.821355 572.720065 
L 886.68428 530.250736 
L 888.547206 527.630197 
L 890.410132 467.880629 
L 892.273058 566.121875 
L 894.135984 479.990762 
L 895.99891 561.485397 
L 897.861836 524.120405 
L 899.724761 528.333426 
L 901.587687 518.541404 
L 903.450613 477.810662 
L 905.313539 475.552086 
L 907.176465 518.929902 
L 909.039391 497.96858 
L 910.902317 528.410445 
L 912.765242 473.461881 
L 914.628168 602.633366 
L 916.491094 612.034186 
L 918.35402 500.453014 
L 920.216946 611.437959 
L 922.079872 598.393703 
L 923.942797 505.098438 
L 925.805723 479.064716 
L 927.668649 603.764238 
L 929.531575 594.60682 
L 931.394501 562.463529 
L 933.257427 606.044807 
L 935.120353 527.178576 
L 936.983278 517.237269 
L 938.846204 461.420094 
L 940.70913 453.60621 
L 942.572056 489.853952 
L 944.434982 529.69931 
L 946.297908 554.530813 
L 948.160834 562.649884 
L 950.023759 558.701392 
L 951.886685 500.722435 
L 953.749611 568.287336 
L 955.612537 554.159442 
L 957.475463 513.383214 
L 959.338389 573.073194 
L 961.201315 572.465584 
L 963.06424 582.492899 
L 964.927166 545.807631 
L 966.790092 492.534807 
L 968.653018 570.083005 
L 970.515944 547.8534 
L 972.37887 475.984325 
L 974.241795 607.974513 
L 976.104721 477.299205 
L 977.967647 522.298307 
L 979.830573 490.706765 
L 981.693499 547.218983 
L 983.556425 517.086106 
L 985.419351 500.236053 
L 987.282276 528.336456 
L 989.145202 525.568329 
L 991.008128 527.827438 
L 992.871054 535.779815 
L 994.73398 599.786224 
L 996.596906 579.276497 
L 998.459832 457.804658 
L 1000.322757 550.857761 
L 1002.185683 500.850996 
L 1004.048609 489.529033 
L 1005.911535 560.962022 
L 1007.774461 566.316664 
L 1009.637387 496.466016 
L 1011.500312 475.985727 
L 1011.500312 475.985727 
" style="fill:none;stroke:#1f77b4;stroke-linecap:round;"/>
   </g>
   <g id="patch_8">
    <path d="M 35.420313 666.278125 
L 35.420313 369.718125 
" style="fill:none;stroke:#cccccc;stroke-linecap:square;stroke-linejoin:miter;stroke-width:0.8;"/>
   </g>
   <g id="patch_9">
    <path d="M 1057.980313 666.278125 
L 1057.980313 369.718125 
" style="fill:none;stroke:#cccccc;stroke-linecap:square;stroke-linejoin:miter;stroke-width:0.8;"/>
   </g>
   <g id="patch_10">
    <path d="M 35.420312 666.278125 
L 1057.980313 666.278125 
" style="fill:none;stroke:#cccccc;stroke-linecap:square;stroke-linejoin:miter;stroke-width:0.8;"/>
   </g>
   <g id="patch_11">
    <path d="M 35.420312 369.718125 
L 1057.980313 369.718125 
" style="fill:none;stroke:#cccccc;stroke-linecap:square;stroke-linejoin:miter;stroke-width:0.8;"/>
   </g>
   <g id="text_32">
    <!-- Latent Space Sample 2 -->
    <g style="fill:#262626;" transform="translate(477.159375 363.718125)scale(0.12 -0.12)">
     <use xlink:href="#DejaVuSans-76"/>
     <use x="55.712891" xlink:href="#DejaVuSans-97"/>
     <use x="116.992188" xlink:href="#DejaVuSans-116"/>
     <use x="156.201172" xlink:href="#DejaVuSans-101"/>
     <use x="217.724609" xlink:href="#DejaVuSans-110"/>
     <use x="281.103516" xlink:href="#DejaVuSans-116"/>
     <use x="320.3125" xlink:href="#DejaVuSans-32"/>
     <use x="352.099609" xlink:href="#DejaVuSans-83"/>
     <use x="415.576172" xlink:href="#DejaVuSans-112"/>
     <use x="479.052734" xlink:href="#DejaVuSans-97"/>
     <use x="540.332031" xlink:href="#DejaVuSans-99"/>
     <use x="595.3125" xlink:href="#DejaVuSans-101"/>
     <use x="656.835938" xlink:href="#DejaVuSans-32"/>
     <use x="688.623047" xlink:href="#DejaVuSans-83"/>
     <use x="752.099609" xlink:href="#DejaVuSans-97"/>
     <use x="813.378906" xlink:href="#DejaVuSans-109"/>
     <use x="910.791016" xlink:href="#DejaVuSans-112"/>
     <use x="974.267578" xlink:href="#DejaVuSans-108"/>
     <use x="1002.050781" xlink:href="#DejaVuSans-101"/>
     <use x="1063.574219" xlink:href="#DejaVuSans-32"/>
     <use x="1095.361328" xlink:href="#DejaVuSans-50"/>
    </g>
   </g>
  </g>
 </g>
 <defs>
  <clipPath id="p4b14c1a996">
   <rect height="296.56" width="1022.56" x="35.420313" y="15.118125"/>
  </clipPath>
  <clipPath id="p295814a1a0">
   <rect height="296.56" width="1022.56" x="35.420313" y="369.718125"/>
  </clipPath>
 </defs>
</svg>
