<?xml version="1.0" encoding="utf-8" standalone="no"?>
<!DOCTYPE svg PUBLIC "-//W3C//DTD SVG 1.1//EN"
  "http://www.w3.org/Graphics/SVG/1.1/DTD/svg11.dtd">
<!-- Created with matplotlib (https://matplotlib.org/) -->
<svg height="696.634375pt" version="1.1" viewBox="0 0 1057.980312 696.634375" width="1057.980312pt" xmlns="http://www.w3.org/2000/svg" xmlns:xlink="http://www.w3.org/1999/xlink">
 <metadata>
  <rdf:RDF xmlns:cc="http://creativecommons.org/ns#" xmlns:dc="http://purl.org/dc/elements/1.1/" xmlns:rdf="http://www.w3.org/1999/02/22-rdf-syntax-ns#">
   <cc:Work>
    <dc:type rdf:resource="http://purl.org/dc/dcmitype/StillImage"/>
    <dc:date>2023-12-06T00:52:08.278245</dc:date>
    <dc:format>image/svg+xml</dc:format>
    <dc:creator>
     <cc:Agent>
      <dc:title>Matplotlib v3.3.4, https://matplotlib.org/</dc:title>
     </cc:Agent>
    </dc:creator>
   </cc:Work>
  </rdf:RDF>
 </metadata>
 <defs>
  <style type="text/css">*{stroke-linecap:butt;stroke-linejoin:round;}</style>
 </defs>
 <g id="figure_1">
  <g id="patch_1">
   <path d="M 0 696.634375 
L 1057.980312 696.634375 
L 1057.980312 0 
L 0 0 
z
" style="fill:none;"/>
  </g>
  <g id="axes_1">
   <g id="patch_2">
    <path d="M 35.420313 311.678125 
L 1057.980313 311.678125 
L 1057.980313 15.118125 
L 35.420313 15.118125 
z
" style="fill:none;"/>
   </g>
   <g id="matplotlib.axis_1">
    <g id="xtick_1">
     <g id="line2d_1">
      <path clip-path="url(#p1133055c8b)" d="M 81.900312 311.678125 
L 81.900312 15.118125 
" style="fill:none;stroke:#cccccc;stroke-linecap:round;stroke-width:0.8;"/>
     </g>
     <g id="text_1">
      <!-- 0 -->
      <g style="fill:#262626;" transform="translate(78.719062 326.276563)scale(0.1 -0.1)">
       <defs>
        <path d="M 31.78125 66.40625 
Q 24.171875 66.40625 20.328125 58.90625 
Q 16.5 51.421875 16.5 36.375 
Q 16.5 21.390625 20.328125 13.890625 
Q 24.171875 6.390625 31.78125 6.390625 
Q 39.453125 6.390625 43.28125 13.890625 
Q 47.125 21.390625 47.125 36.375 
Q 47.125 51.421875 43.28125 58.90625 
Q 39.453125 66.40625 31.78125 66.40625 
z
M 31.78125 74.21875 
Q 44.046875 74.21875 50.515625 64.515625 
Q 56.984375 54.828125 56.984375 36.375 
Q 56.984375 17.96875 50.515625 8.265625 
Q 44.046875 -1.421875 31.78125 -1.421875 
Q 19.53125 -1.421875 13.0625 8.265625 
Q 6.59375 17.96875 6.59375 36.375 
Q 6.59375 54.828125 13.0625 64.515625 
Q 19.53125 74.21875 31.78125 74.21875 
z
" id="DejaVuSans-48"/>
       </defs>
       <use xlink:href="#DejaVuSans-48"/>
      </g>
     </g>
    </g>
    <g id="xtick_2">
     <g id="line2d_2">
      <path clip-path="url(#p1133055c8b)" d="M 268.192898 311.678125 
L 268.192898 15.118125 
" style="fill:none;stroke:#cccccc;stroke-linecap:round;stroke-width:0.8;"/>
     </g>
     <g id="text_2">
      <!-- 100 -->
      <g style="fill:#262626;" transform="translate(258.649148 326.276563)scale(0.1 -0.1)">
       <defs>
        <path d="M 12.40625 8.296875 
L 28.515625 8.296875 
L 28.515625 63.921875 
L 10.984375 60.40625 
L 10.984375 69.390625 
L 28.421875 72.90625 
L 38.28125 72.90625 
L 38.28125 8.296875 
L 54.390625 8.296875 
L 54.390625 0 
L 12.40625 0 
z
" id="DejaVuSans-49"/>
       </defs>
       <use xlink:href="#DejaVuSans-49"/>
       <use x="63.623047" xlink:href="#DejaVuSans-48"/>
       <use x="127.246094" xlink:href="#DejaVuSans-48"/>
      </g>
     </g>
    </g>
    <g id="xtick_3">
     <g id="line2d_3">
      <path clip-path="url(#p1133055c8b)" d="M 454.485483 311.678125 
L 454.485483 15.118125 
" style="fill:none;stroke:#cccccc;stroke-linecap:round;stroke-width:0.8;"/>
     </g>
     <g id="text_3">
      <!-- 200 -->
      <g style="fill:#262626;" transform="translate(444.941733 326.276563)scale(0.1 -0.1)">
       <defs>
        <path d="M 19.1875 8.296875 
L 53.609375 8.296875 
L 53.609375 0 
L 7.328125 0 
L 7.328125 8.296875 
Q 12.9375 14.109375 22.625 23.890625 
Q 32.328125 33.6875 34.8125 36.53125 
Q 39.546875 41.84375 41.421875 45.53125 
Q 43.3125 49.21875 43.3125 52.78125 
Q 43.3125 58.59375 39.234375 62.25 
Q 35.15625 65.921875 28.609375 65.921875 
Q 23.96875 65.921875 18.8125 64.3125 
Q 13.671875 62.703125 7.8125 59.421875 
L 7.8125 69.390625 
Q 13.765625 71.78125 18.9375 73 
Q 24.125 74.21875 28.421875 74.21875 
Q 39.75 74.21875 46.484375 68.546875 
Q 53.21875 62.890625 53.21875 53.421875 
Q 53.21875 48.921875 51.53125 44.890625 
Q 49.859375 40.875 45.40625 35.40625 
Q 44.1875 33.984375 37.640625 27.21875 
Q 31.109375 20.453125 19.1875 8.296875 
z
" id="DejaVuSans-50"/>
       </defs>
       <use xlink:href="#DejaVuSans-50"/>
       <use x="63.623047" xlink:href="#DejaVuSans-48"/>
       <use x="127.246094" xlink:href="#DejaVuSans-48"/>
      </g>
     </g>
    </g>
    <g id="xtick_4">
     <g id="line2d_4">
      <path clip-path="url(#p1133055c8b)" d="M 640.778068 311.678125 
L 640.778068 15.118125 
" style="fill:none;stroke:#cccccc;stroke-linecap:round;stroke-width:0.8;"/>
     </g>
     <g id="text_4">
      <!-- 300 -->
      <g style="fill:#262626;" transform="translate(631.234318 326.276563)scale(0.1 -0.1)">
       <defs>
        <path d="M 40.578125 39.3125 
Q 47.65625 37.796875 51.625 33 
Q 55.609375 28.21875 55.609375 21.1875 
Q 55.609375 10.40625 48.1875 4.484375 
Q 40.765625 -1.421875 27.09375 -1.421875 
Q 22.515625 -1.421875 17.65625 -0.515625 
Q 12.796875 0.390625 7.625 2.203125 
L 7.625 11.71875 
Q 11.71875 9.328125 16.59375 8.109375 
Q 21.484375 6.890625 26.8125 6.890625 
Q 36.078125 6.890625 40.9375 10.546875 
Q 45.796875 14.203125 45.796875 21.1875 
Q 45.796875 27.640625 41.28125 31.265625 
Q 36.765625 34.90625 28.71875 34.90625 
L 20.21875 34.90625 
L 20.21875 43.015625 
L 29.109375 43.015625 
Q 36.375 43.015625 40.234375 45.921875 
Q 44.09375 48.828125 44.09375 54.296875 
Q 44.09375 59.90625 40.109375 62.90625 
Q 36.140625 65.921875 28.71875 65.921875 
Q 24.65625 65.921875 20.015625 65.03125 
Q 15.375 64.15625 9.8125 62.3125 
L 9.8125 71.09375 
Q 15.4375 72.65625 20.34375 73.4375 
Q 25.25 74.21875 29.59375 74.21875 
Q 40.828125 74.21875 47.359375 69.109375 
Q 53.90625 64.015625 53.90625 55.328125 
Q 53.90625 49.265625 50.4375 45.09375 
Q 46.96875 40.921875 40.578125 39.3125 
z
" id="DejaVuSans-51"/>
       </defs>
       <use xlink:href="#DejaVuSans-51"/>
       <use x="63.623047" xlink:href="#DejaVuSans-48"/>
       <use x="127.246094" xlink:href="#DejaVuSans-48"/>
      </g>
     </g>
    </g>
    <g id="xtick_5">
     <g id="line2d_5">
      <path clip-path="url(#p1133055c8b)" d="M 827.070653 311.678125 
L 827.070653 15.118125 
" style="fill:none;stroke:#cccccc;stroke-linecap:round;stroke-width:0.8;"/>
     </g>
     <g id="text_5">
      <!-- 400 -->
      <g style="fill:#262626;" transform="translate(817.526903 326.276563)scale(0.1 -0.1)">
       <defs>
        <path d="M 37.796875 64.3125 
L 12.890625 25.390625 
L 37.796875 25.390625 
z
M 35.203125 72.90625 
L 47.609375 72.90625 
L 47.609375 25.390625 
L 58.015625 25.390625 
L 58.015625 17.1875 
L 47.609375 17.1875 
L 47.609375 0 
L 37.796875 0 
L 37.796875 17.1875 
L 4.890625 17.1875 
L 4.890625 26.703125 
z
" id="DejaVuSans-52"/>
       </defs>
       <use xlink:href="#DejaVuSans-52"/>
       <use x="63.623047" xlink:href="#DejaVuSans-48"/>
       <use x="127.246094" xlink:href="#DejaVuSans-48"/>
      </g>
     </g>
    </g>
    <g id="xtick_6">
     <g id="line2d_6">
      <path clip-path="url(#p1133055c8b)" d="M 1013.363238 311.678125 
L 1013.363238 15.118125 
" style="fill:none;stroke:#cccccc;stroke-linecap:round;stroke-width:0.8;"/>
     </g>
     <g id="text_6">
      <!-- 500 -->
      <g style="fill:#262626;" transform="translate(1003.819488 326.276563)scale(0.1 -0.1)">
       <defs>
        <path d="M 10.796875 72.90625 
L 49.515625 72.90625 
L 49.515625 64.59375 
L 19.828125 64.59375 
L 19.828125 46.734375 
Q 21.96875 47.46875 24.109375 47.828125 
Q 26.265625 48.1875 28.421875 48.1875 
Q 40.625 48.1875 47.75 41.5 
Q 54.890625 34.8125 54.890625 23.390625 
Q 54.890625 11.625 47.5625 5.09375 
Q 40.234375 -1.421875 26.90625 -1.421875 
Q 22.3125 -1.421875 17.546875 -0.640625 
Q 12.796875 0.140625 7.71875 1.703125 
L 7.71875 11.625 
Q 12.109375 9.234375 16.796875 8.0625 
Q 21.484375 6.890625 26.703125 6.890625 
Q 35.15625 6.890625 40.078125 11.328125 
Q 45.015625 15.765625 45.015625 23.390625 
Q 45.015625 31 40.078125 35.4375 
Q 35.15625 39.890625 26.703125 39.890625 
Q 22.75 39.890625 18.8125 39.015625 
Q 14.890625 38.140625 10.796875 36.28125 
z
" id="DejaVuSans-53"/>
       </defs>
       <use xlink:href="#DejaVuSans-53"/>
       <use x="63.623047" xlink:href="#DejaVuSans-48"/>
       <use x="127.246094" xlink:href="#DejaVuSans-48"/>
      </g>
     </g>
    </g>
    <g id="text_7">
     <!-- Latent features -->
     <g style="fill:#262626;" transform="translate(508.441719 339.954688)scale(0.1 -0.1)">
      <defs>
       <path d="M 9.8125 72.90625 
L 19.671875 72.90625 
L 19.671875 8.296875 
L 55.171875 8.296875 
L 55.171875 0 
L 9.8125 0 
z
" id="DejaVuSans-76"/>
       <path d="M 34.28125 27.484375 
Q 23.390625 27.484375 19.1875 25 
Q 14.984375 22.515625 14.984375 16.5 
Q 14.984375 11.71875 18.140625 8.90625 
Q 21.296875 6.109375 26.703125 6.109375 
Q 34.1875 6.109375 38.703125 11.40625 
Q 43.21875 16.703125 43.21875 25.484375 
L 43.21875 27.484375 
z
M 52.203125 31.203125 
L 52.203125 0 
L 43.21875 0 
L 43.21875 8.296875 
Q 40.140625 3.328125 35.546875 0.953125 
Q 30.953125 -1.421875 24.3125 -1.421875 
Q 15.921875 -1.421875 10.953125 3.296875 
Q 6 8.015625 6 15.921875 
Q 6 25.140625 12.171875 29.828125 
Q 18.359375 34.515625 30.609375 34.515625 
L 43.21875 34.515625 
L 43.21875 35.40625 
Q 43.21875 41.609375 39.140625 45 
Q 35.0625 48.390625 27.6875 48.390625 
Q 23 48.390625 18.546875 47.265625 
Q 14.109375 46.140625 10.015625 43.890625 
L 10.015625 52.203125 
Q 14.9375 54.109375 19.578125 55.046875 
Q 24.21875 56 28.609375 56 
Q 40.484375 56 46.34375 49.84375 
Q 52.203125 43.703125 52.203125 31.203125 
z
" id="DejaVuSans-97"/>
       <path d="M 18.3125 70.21875 
L 18.3125 54.6875 
L 36.8125 54.6875 
L 36.8125 47.703125 
L 18.3125 47.703125 
L 18.3125 18.015625 
Q 18.3125 11.328125 20.140625 9.421875 
Q 21.96875 7.515625 27.59375 7.515625 
L 36.8125 7.515625 
L 36.8125 0 
L 27.59375 0 
Q 17.1875 0 13.234375 3.875 
Q 9.28125 7.765625 9.28125 18.015625 
L 9.28125 47.703125 
L 2.6875 47.703125 
L 2.6875 54.6875 
L 9.28125 54.6875 
L 9.28125 70.21875 
z
" id="DejaVuSans-116"/>
       <path d="M 56.203125 29.59375 
L 56.203125 25.203125 
L 14.890625 25.203125 
Q 15.484375 15.921875 20.484375 11.0625 
Q 25.484375 6.203125 34.421875 6.203125 
Q 39.59375 6.203125 44.453125 7.46875 
Q 49.3125 8.734375 54.109375 11.28125 
L 54.109375 2.78125 
Q 49.265625 0.734375 44.1875 -0.34375 
Q 39.109375 -1.421875 33.890625 -1.421875 
Q 20.796875 -1.421875 13.15625 6.1875 
Q 5.515625 13.8125 5.515625 26.8125 
Q 5.515625 40.234375 12.765625 48.109375 
Q 20.015625 56 32.328125 56 
Q 43.359375 56 49.78125 48.890625 
Q 56.203125 41.796875 56.203125 29.59375 
z
M 47.21875 32.234375 
Q 47.125 39.59375 43.09375 43.984375 
Q 39.0625 48.390625 32.421875 48.390625 
Q 24.90625 48.390625 20.390625 44.140625 
Q 15.875 39.890625 15.1875 32.171875 
z
" id="DejaVuSans-101"/>
       <path d="M 54.890625 33.015625 
L 54.890625 0 
L 45.90625 0 
L 45.90625 32.71875 
Q 45.90625 40.484375 42.875 44.328125 
Q 39.84375 48.1875 33.796875 48.1875 
Q 26.515625 48.1875 22.3125 43.546875 
Q 18.109375 38.921875 18.109375 30.90625 
L 18.109375 0 
L 9.078125 0 
L 9.078125 54.6875 
L 18.109375 54.6875 
L 18.109375 46.1875 
Q 21.34375 51.125 25.703125 53.5625 
Q 30.078125 56 35.796875 56 
Q 45.21875 56 50.046875 50.171875 
Q 54.890625 44.34375 54.890625 33.015625 
z
" id="DejaVuSans-110"/>
       <path id="DejaVuSans-32"/>
       <path d="M 37.109375 75.984375 
L 37.109375 68.5 
L 28.515625 68.5 
Q 23.6875 68.5 21.796875 66.546875 
Q 19.921875 64.59375 19.921875 59.515625 
L 19.921875 54.6875 
L 34.71875 54.6875 
L 34.71875 47.703125 
L 19.921875 47.703125 
L 19.921875 0 
L 10.890625 0 
L 10.890625 47.703125 
L 2.296875 47.703125 
L 2.296875 54.6875 
L 10.890625 54.6875 
L 10.890625 58.5 
Q 10.890625 67.625 15.140625 71.796875 
Q 19.390625 75.984375 28.609375 75.984375 
z
" id="DejaVuSans-102"/>
       <path d="M 8.5 21.578125 
L 8.5 54.6875 
L 17.484375 54.6875 
L 17.484375 21.921875 
Q 17.484375 14.15625 20.5 10.265625 
Q 23.53125 6.390625 29.59375 6.390625 
Q 36.859375 6.390625 41.078125 11.03125 
Q 45.3125 15.671875 45.3125 23.6875 
L 45.3125 54.6875 
L 54.296875 54.6875 
L 54.296875 0 
L 45.3125 0 
L 45.3125 8.40625 
Q 42.046875 3.421875 37.71875 1 
Q 33.40625 -1.421875 27.6875 -1.421875 
Q 18.265625 -1.421875 13.375 4.4375 
Q 8.5 10.296875 8.5 21.578125 
z
M 31.109375 56 
z
" id="DejaVuSans-117"/>
       <path d="M 41.109375 46.296875 
Q 39.59375 47.171875 37.8125 47.578125 
Q 36.03125 48 33.890625 48 
Q 26.265625 48 22.1875 43.046875 
Q 18.109375 38.09375 18.109375 28.8125 
L 18.109375 0 
L 9.078125 0 
L 9.078125 54.6875 
L 18.109375 54.6875 
L 18.109375 46.1875 
Q 20.953125 51.171875 25.484375 53.578125 
Q 30.03125 56 36.53125 56 
Q 37.453125 56 38.578125 55.875 
Q 39.703125 55.765625 41.0625 55.515625 
z
" id="DejaVuSans-114"/>
       <path d="M 44.28125 53.078125 
L 44.28125 44.578125 
Q 40.484375 46.53125 36.375 47.5 
Q 32.28125 48.484375 27.875 48.484375 
Q 21.1875 48.484375 17.84375 46.4375 
Q 14.5 44.390625 14.5 40.28125 
Q 14.5 37.15625 16.890625 35.375 
Q 19.28125 33.59375 26.515625 31.984375 
L 29.59375 31.296875 
Q 39.15625 29.25 43.1875 25.515625 
Q 47.21875 21.78125 47.21875 15.09375 
Q 47.21875 7.46875 41.1875 3.015625 
Q 35.15625 -1.421875 24.609375 -1.421875 
Q 20.21875 -1.421875 15.453125 -0.5625 
Q 10.6875 0.296875 5.421875 2 
L 5.421875 11.28125 
Q 10.40625 8.6875 15.234375 7.390625 
Q 20.0625 6.109375 24.8125 6.109375 
Q 31.15625 6.109375 34.5625 8.28125 
Q 37.984375 10.453125 37.984375 14.40625 
Q 37.984375 18.0625 35.515625 20.015625 
Q 33.0625 21.96875 24.703125 23.78125 
L 21.578125 24.515625 
Q 13.234375 26.265625 9.515625 29.90625 
Q 5.8125 33.546875 5.8125 39.890625 
Q 5.8125 47.609375 11.28125 51.796875 
Q 16.75 56 26.8125 56 
Q 31.78125 56 36.171875 55.265625 
Q 40.578125 54.546875 44.28125 53.078125 
z
" id="DejaVuSans-115"/>
      </defs>
      <use xlink:href="#DejaVuSans-76"/>
      <use x="55.712891" xlink:href="#DejaVuSans-97"/>
      <use x="116.992188" xlink:href="#DejaVuSans-116"/>
      <use x="156.201172" xlink:href="#DejaVuSans-101"/>
      <use x="217.724609" xlink:href="#DejaVuSans-110"/>
      <use x="281.103516" xlink:href="#DejaVuSans-116"/>
      <use x="320.3125" xlink:href="#DejaVuSans-32"/>
      <use x="352.099609" xlink:href="#DejaVuSans-102"/>
      <use x="387.304688" xlink:href="#DejaVuSans-101"/>
      <use x="448.828125" xlink:href="#DejaVuSans-97"/>
      <use x="510.107422" xlink:href="#DejaVuSans-116"/>
      <use x="549.316406" xlink:href="#DejaVuSans-117"/>
      <use x="612.695312" xlink:href="#DejaVuSans-114"/>
      <use x="651.558594" xlink:href="#DejaVuSans-101"/>
      <use x="713.082031" xlink:href="#DejaVuSans-115"/>
     </g>
    </g>
   </g>
   <g id="matplotlib.axis_2">
    <g id="ytick_1">
     <g id="line2d_7">
      <path clip-path="url(#p1133055c8b)" d="M 35.420313 296.947454 
L 1057.980313 296.947454 
" style="fill:none;stroke:#cccccc;stroke-linecap:round;stroke-width:0.8;"/>
     </g>
     <g id="text_8">
      <!-- −3 -->
      <g style="fill:#262626;" transform="translate(13.678125 300.746673)scale(0.1 -0.1)">
       <defs>
        <path d="M 10.59375 35.5 
L 73.1875 35.5 
L 73.1875 27.203125 
L 10.59375 27.203125 
z
" id="DejaVuSans-8722"/>
       </defs>
       <use xlink:href="#DejaVuSans-8722"/>
       <use x="83.789062" xlink:href="#DejaVuSans-51"/>
      </g>
     </g>
    </g>
    <g id="ytick_2">
     <g id="line2d_8">
      <path clip-path="url(#p1133055c8b)" d="M 35.420313 258.593599 
L 1057.980313 258.593599 
" style="fill:none;stroke:#cccccc;stroke-linecap:round;stroke-width:0.8;"/>
     </g>
     <g id="text_9">
      <!-- −2 -->
      <g style="fill:#262626;" transform="translate(13.678125 262.392818)scale(0.1 -0.1)">
       <use xlink:href="#DejaVuSans-8722"/>
       <use x="83.789062" xlink:href="#DejaVuSans-50"/>
      </g>
     </g>
    </g>
    <g id="ytick_3">
     <g id="line2d_9">
      <path clip-path="url(#p1133055c8b)" d="M 35.420313 220.239744 
L 1057.980313 220.239744 
" style="fill:none;stroke:#cccccc;stroke-linecap:round;stroke-width:0.8;"/>
     </g>
     <g id="text_10">
      <!-- −1 -->
      <g style="fill:#262626;" transform="translate(13.678125 224.038963)scale(0.1 -0.1)">
       <use xlink:href="#DejaVuSans-8722"/>
       <use x="83.789062" xlink:href="#DejaVuSans-49"/>
      </g>
     </g>
    </g>
    <g id="ytick_4">
     <g id="line2d_10">
      <path clip-path="url(#p1133055c8b)" d="M 35.420313 181.88589 
L 1057.980313 181.88589 
" style="fill:none;stroke:#cccccc;stroke-linecap:round;stroke-width:0.8;"/>
     </g>
     <g id="text_11">
      <!-- 0 -->
      <g style="fill:#262626;" transform="translate(22.057813 185.685109)scale(0.1 -0.1)">
       <use xlink:href="#DejaVuSans-48"/>
      </g>
     </g>
    </g>
    <g id="ytick_5">
     <g id="line2d_11">
      <path clip-path="url(#p1133055c8b)" d="M 35.420313 143.532035 
L 1057.980313 143.532035 
" style="fill:none;stroke:#cccccc;stroke-linecap:round;stroke-width:0.8;"/>
     </g>
     <g id="text_12">
      <!-- 1 -->
      <g style="fill:#262626;" transform="translate(22.057813 147.331254)scale(0.1 -0.1)">
       <use xlink:href="#DejaVuSans-49"/>
      </g>
     </g>
    </g>
    <g id="ytick_6">
     <g id="line2d_12">
      <path clip-path="url(#p1133055c8b)" d="M 35.420313 105.17818 
L 1057.980313 105.17818 
" style="fill:none;stroke:#cccccc;stroke-linecap:round;stroke-width:0.8;"/>
     </g>
     <g id="text_13">
      <!-- 2 -->
      <g style="fill:#262626;" transform="translate(22.057813 108.977399)scale(0.1 -0.1)">
       <use xlink:href="#DejaVuSans-50"/>
      </g>
     </g>
    </g>
    <g id="ytick_7">
     <g id="line2d_13">
      <path clip-path="url(#p1133055c8b)" d="M 35.420313 66.824326 
L 1057.980313 66.824326 
" style="fill:none;stroke:#cccccc;stroke-linecap:round;stroke-width:0.8;"/>
     </g>
     <g id="text_14">
      <!-- 3 -->
      <g style="fill:#262626;" transform="translate(22.057813 70.623544)scale(0.1 -0.1)">
       <use xlink:href="#DejaVuSans-51"/>
      </g>
     </g>
    </g>
    <g id="ytick_8">
     <g id="line2d_14">
      <path clip-path="url(#p1133055c8b)" d="M 35.420313 28.470471 
L 1057.980313 28.470471 
" style="fill:none;stroke:#cccccc;stroke-linecap:round;stroke-width:0.8;"/>
     </g>
     <g id="text_15">
      <!-- 4 -->
      <g style="fill:#262626;" transform="translate(22.057813 32.26969)scale(0.1 -0.1)">
       <use xlink:href="#DejaVuSans-52"/>
      </g>
     </g>
    </g>
    <g id="text_16">
     <!-- Expression Level -->
     <g style="fill:#262626;" transform="translate(7.598437 205.32625)rotate(-90)scale(0.1 -0.1)">
      <defs>
       <path d="M 9.8125 72.90625 
L 55.90625 72.90625 
L 55.90625 64.59375 
L 19.671875 64.59375 
L 19.671875 43.015625 
L 54.390625 43.015625 
L 54.390625 34.71875 
L 19.671875 34.71875 
L 19.671875 8.296875 
L 56.78125 8.296875 
L 56.78125 0 
L 9.8125 0 
z
" id="DejaVuSans-69"/>
       <path d="M 54.890625 54.6875 
L 35.109375 28.078125 
L 55.90625 0 
L 45.3125 0 
L 29.390625 21.484375 
L 13.484375 0 
L 2.875 0 
L 24.125 28.609375 
L 4.6875 54.6875 
L 15.28125 54.6875 
L 29.78125 35.203125 
L 44.28125 54.6875 
z
" id="DejaVuSans-120"/>
       <path d="M 18.109375 8.203125 
L 18.109375 -20.796875 
L 9.078125 -20.796875 
L 9.078125 54.6875 
L 18.109375 54.6875 
L 18.109375 46.390625 
Q 20.953125 51.265625 25.265625 53.625 
Q 29.59375 56 35.59375 56 
Q 45.5625 56 51.78125 48.09375 
Q 58.015625 40.1875 58.015625 27.296875 
Q 58.015625 14.40625 51.78125 6.484375 
Q 45.5625 -1.421875 35.59375 -1.421875 
Q 29.59375 -1.421875 25.265625 0.953125 
Q 20.953125 3.328125 18.109375 8.203125 
z
M 48.6875 27.296875 
Q 48.6875 37.203125 44.609375 42.84375 
Q 40.53125 48.484375 33.40625 48.484375 
Q 26.265625 48.484375 22.1875 42.84375 
Q 18.109375 37.203125 18.109375 27.296875 
Q 18.109375 17.390625 22.1875 11.75 
Q 26.265625 6.109375 33.40625 6.109375 
Q 40.53125 6.109375 44.609375 11.75 
Q 48.6875 17.390625 48.6875 27.296875 
z
" id="DejaVuSans-112"/>
       <path d="M 9.421875 54.6875 
L 18.40625 54.6875 
L 18.40625 0 
L 9.421875 0 
z
M 9.421875 75.984375 
L 18.40625 75.984375 
L 18.40625 64.59375 
L 9.421875 64.59375 
z
" id="DejaVuSans-105"/>
       <path d="M 30.609375 48.390625 
Q 23.390625 48.390625 19.1875 42.75 
Q 14.984375 37.109375 14.984375 27.296875 
Q 14.984375 17.484375 19.15625 11.84375 
Q 23.34375 6.203125 30.609375 6.203125 
Q 37.796875 6.203125 41.984375 11.859375 
Q 46.1875 17.53125 46.1875 27.296875 
Q 46.1875 37.015625 41.984375 42.703125 
Q 37.796875 48.390625 30.609375 48.390625 
z
M 30.609375 56 
Q 42.328125 56 49.015625 48.375 
Q 55.71875 40.765625 55.71875 27.296875 
Q 55.71875 13.875 49.015625 6.21875 
Q 42.328125 -1.421875 30.609375 -1.421875 
Q 18.84375 -1.421875 12.171875 6.21875 
Q 5.515625 13.875 5.515625 27.296875 
Q 5.515625 40.765625 12.171875 48.375 
Q 18.84375 56 30.609375 56 
z
" id="DejaVuSans-111"/>
       <path d="M 2.984375 54.6875 
L 12.5 54.6875 
L 29.59375 8.796875 
L 46.6875 54.6875 
L 56.203125 54.6875 
L 35.6875 0 
L 23.484375 0 
z
" id="DejaVuSans-118"/>
       <path d="M 9.421875 75.984375 
L 18.40625 75.984375 
L 18.40625 0 
L 9.421875 0 
z
" id="DejaVuSans-108"/>
      </defs>
      <use xlink:href="#DejaVuSans-69"/>
      <use x="63.183594" xlink:href="#DejaVuSans-120"/>
      <use x="122.363281" xlink:href="#DejaVuSans-112"/>
      <use x="185.839844" xlink:href="#DejaVuSans-114"/>
      <use x="224.703125" xlink:href="#DejaVuSans-101"/>
      <use x="286.226562" xlink:href="#DejaVuSans-115"/>
      <use x="338.326172" xlink:href="#DejaVuSans-115"/>
      <use x="390.425781" xlink:href="#DejaVuSans-105"/>
      <use x="418.208984" xlink:href="#DejaVuSans-111"/>
      <use x="479.390625" xlink:href="#DejaVuSans-110"/>
      <use x="542.769531" xlink:href="#DejaVuSans-32"/>
      <use x="574.556641" xlink:href="#DejaVuSans-76"/>
      <use x="628.519531" xlink:href="#DejaVuSans-101"/>
      <use x="690.042969" xlink:href="#DejaVuSans-118"/>
      <use x="749.222656" xlink:href="#DejaVuSans-101"/>
      <use x="810.746094" xlink:href="#DejaVuSans-108"/>
     </g>
    </g>
   </g>
   <g id="line2d_15">
    <path clip-path="url(#p1133055c8b)" d="M 81.900312 205.769586 
L 83.763238 277.378256 
L 85.626164 217.448894 
L 87.48909 227.156563 
L 89.352016 232.64746 
L 91.214942 260.962633 
L 93.077868 209.868981 
L 94.940793 206.961375 
L 96.803719 170.525442 
L 98.666645 249.038992 
L 100.529571 215.736792 
L 102.392497 188.638059 
L 104.255423 124.506295 
L 106.118349 156.236702 
L 107.981274 156.913872 
L 109.8442 181.928871 
L 111.707126 197.73558 
L 113.570052 161.611901 
L 115.432978 155.663002 
L 117.295904 144.327109 
L 119.15883 203.097838 
L 121.021755 157.228192 
L 122.884681 216.144354 
L 124.747607 222.721436 
L 126.610533 156.891226 
L 128.473459 181.546618 
L 130.336385 198.520371 
L 132.19931 251.559857 
L 134.062236 178.095722 
L 135.925162 137.278291 
L 137.788088 163.644273 
L 139.651014 240.475309 
L 141.51394 184.444367 
L 143.376866 216.465803 
L 145.239791 221.778904 
L 147.102717 183.500839 
L 148.965643 180.107422 
L 150.828569 191.595323 
L 152.691495 160.650438 
L 154.554421 141.501554 
L 156.417347 182.162191 
L 158.280272 298.198125 
L 160.143198 195.880576 
L 162.006124 197.620218 
L 163.86905 238.70859 
L 165.731976 206.91134 
L 167.594902 145.193837 
L 169.457828 42.242393 
L 171.320753 191.593411 
L 173.183679 197.594029 
L 175.046605 165.580722 
L 176.909531 176.107683 
L 178.772457 207.36864 
L 180.635383 151.495699 
L 182.498308 208.317471 
L 184.361234 163.638534 
L 186.22416 201.574855 
L 188.087086 117.73343 
L 189.950012 140.302201 
L 191.812938 225.010146 
L 193.675864 263.852232 
L 195.538789 229.466223 
L 197.401715 145.587075 
L 199.264641 155.016003 
L 201.127567 189.441422 
L 202.990493 161.588652 
L 204.853419 177.42864 
L 206.716345 187.347989 
L 208.57927 238.066735 
L 210.442196 198.993169 
L 212.305122 228.593265 
L 214.168048 200.532221 
L 216.030974 211.522021 
L 217.8939 185.650432 
L 219.756826 237.245808 
L 221.619751 211.107333 
L 223.482677 168.687551 
L 225.345603 166.035693 
L 227.208529 194.664413 
L 229.071455 184.377189 
L 230.934381 203.414735 
L 232.797306 175.335622 
L 234.660232 202.442473 
L 236.523158 193.318195 
L 238.386084 181.684332 
L 240.24901 156.57199 
L 242.111936 208.145065 
L 243.974862 171.334305 
L 245.837787 161.498885 
L 247.700713 176.870139 
L 249.563639 231.035627 
L 251.426565 173.486852 
L 253.289491 138.079384 
L 255.152417 214.934044 
L 257.015343 168.081832 
L 258.878268 205.448122 
L 260.741194 163.523049 
L 262.60412 196.766919 
L 264.467046 220.250713 
L 266.329972 131.138132 
L 268.192898 219.985127 
L 270.055824 126.364712 
L 271.918749 180.074262 
L 273.781675 165.130384 
L 275.644601 170.103711 
L 277.507527 185.991201 
L 279.370453 178.206879 
L 281.233379 152.203159 
L 283.096304 178.756186 
L 284.95923 120.998497 
L 286.822156 296.698062 
L 288.685082 164.898447 
L 290.548008 211.880033 
L 292.410934 216.055136 
L 294.27386 146.296609 
L 296.136785 201.444634 
L 297.999711 230.281092 
L 299.862637 189.885597 
L 301.725563 174.011404 
L 303.588489 171.733972 
L 305.451415 178.083622 
L 307.314341 207.3979 
L 309.177266 187.743884 
L 311.040192 84.542568 
L 312.903118 196.037633 
L 314.766044 232.900409 
L 316.62897 162.512971 
L 318.491896 218.776428 
L 320.354822 215.698045 
L 322.217747 185.683711 
L 324.080673 220.167438 
L 325.943599 182.231376 
L 327.806525 190.854375 
L 329.669451 178.262923 
L 331.532377 168.803537 
L 333.395302 142.765791 
L 335.258228 176.697205 
L 337.121154 152.767276 
L 338.98408 180.15436 
L 340.847006 219.155778 
L 342.709932 147.463455 
L 344.572858 187.971614 
L 346.435783 170.179231 
L 348.298709 265.557227 
L 350.161635 169.384635 
L 352.024561 233.036421 
L 353.887487 189.730897 
L 355.750413 186.565194 
L 357.613339 195.146309 
L 359.476264 180.524914 
L 361.33919 264.86923 
L 363.202116 149.384163 
L 365.065042 72.91206 
L 366.927968 146.052807 
L 368.790894 209.994569 
L 370.65382 174.207478 
L 372.516745 166.652986 
L 374.379671 230.486202 
L 376.242597 213.738131 
L 378.105523 158.271549 
L 379.968449 121.108644 
L 381.831375 203.915313 
L 383.6943 199.835074 
L 385.557226 178.129879 
L 387.420152 244.726613 
L 389.283078 110.909919 
L 391.146004 77.197368 
L 393.00893 185.000664 
L 394.871856 204.677671 
L 396.734781 176.651475 
L 398.597707 205.901684 
L 400.460633 146.09605 
L 402.323559 189.774815 
L 404.186485 150.803878 
L 406.049411 149.95579 
L 407.912337 129.077648 
L 409.775262 186.064758 
L 411.638188 163.489383 
L 413.501114 163.641271 
L 415.36404 201.172809 
L 417.226966 222.949919 
L 419.089892 156.260159 
L 420.952818 28.598125 
L 422.815743 242.965989 
L 424.678669 182.657809 
L 426.541595 79.13385 
L 428.404521 173.930374 
L 430.267447 187.496875 
L 433.993298 89.645812 
L 435.856224 160.617629 
L 437.71915 190.889519 
L 439.582076 164.101398 
L 441.445002 217.073131 
L 443.307928 146.735859 
L 445.170854 188.947382 
L 447.033779 174.184847 
L 448.896705 223.649058 
L 450.759631 197.152855 
L 452.622557 63.677379 
L 454.485483 216.827745 
L 456.348409 222.666108 
L 458.211335 155.13709 
L 460.07426 172.633043 
L 461.937186 261.732361 
L 463.800112 146.987388 
L 465.663038 170.276167 
L 467.525964 214.547593 
L 469.38889 207.192339 
L 471.251816 243.917062 
L 473.114741 241.687908 
L 474.977667 180.761603 
L 476.840593 190.951342 
L 478.703519 215.183849 
L 480.566445 176.055414 
L 482.429371 184.176625 
L 484.292296 147.32694 
L 486.155222 203.085557 
L 488.018148 223.936842 
L 489.881074 233.906325 
L 491.744 150.684241 
L 493.606926 172.591525 
L 495.469852 179.88339 
L 497.332777 137.114037 
L 499.195703 167.627563 
L 501.058629 184.729549 
L 502.921555 197.318489 
L 504.784481 185.353288 
L 506.647407 220.033996 
L 508.510333 218.599395 
L 510.373258 165.042131 
L 512.236184 199.585423 
L 514.09911 169.725083 
L 515.962036 226.066447 
L 517.824962 177.245257 
L 519.687888 194.297427 
L 521.550814 145.428607 
L 523.413739 266.789683 
L 525.276665 169.965717 
L 527.139591 165.590606 
L 529.002517 176.538623 
L 530.865443 124.74095 
L 532.728369 233.787938 
L 534.591294 181.375755 
L 536.45422 143.787878 
L 538.317146 207.5841 
L 540.180072 232.622629 
L 542.042998 161.889185 
L 543.905924 183.883318 
L 545.76885 213.135619 
L 547.631775 206.463506 
L 549.494701 185.133822 
L 551.357627 217.298096 
L 553.220553 184.926106 
L 556.946405 143.249857 
L 558.809331 184.774459 
L 560.672256 130.229534 
L 562.535182 172.706331 
L 564.398108 235.666432 
L 566.261034 169.64171 
L 568.12396 269.025768 
L 569.986886 146.315227 
L 571.849811 120.254396 
L 573.712737 201.338044 
L 575.575663 217.460992 
L 577.438589 162.978297 
L 579.301515 188.170733 
L 581.164441 178.47764 
L 583.027367 253.829754 
L 584.890292 141.494737 
L 586.753218 242.894586 
L 588.616144 175.274399 
L 590.47907 194.347798 
L 592.341996 136.970952 
L 594.204922 74.791099 
L 596.067848 223.954129 
L 597.930773 143.456897 
L 599.793699 212.936302 
L 601.656625 139.977172 
L 603.519551 214.127229 
L 605.382477 211.01824 
L 607.245403 186.561463 
L 609.108329 217.940493 
L 610.971254 238.437133 
L 612.83418 202.216506 
L 614.697106 128.697311 
L 616.560032 146.994305 
L 618.422958 235.350077 
L 620.285884 171.089056 
L 622.148809 257.459485 
L 624.011735 184.515023 
L 625.874661 136.341318 
L 627.737587 168.775204 
L 629.600513 203.39336 
L 631.463439 191.333884 
L 633.326365 182.314908 
L 635.18929 227.293123 
L 637.052216 170.725275 
L 638.915142 252.500108 
L 640.778068 211.679966 
L 642.640994 219.424313 
L 644.50392 166.873012 
L 646.366846 211.355477 
L 648.229771 236.900776 
L 650.092697 249.764659 
L 651.955623 168.935288 
L 653.818549 191.105021 
L 655.681475 179.798622 
L 657.544401 164.672577 
L 659.407327 178.574118 
L 661.270252 252.395388 
L 663.133178 259.0362 
L 664.996104 156.811515 
L 666.85903 227.242985 
L 668.721956 166.148354 
L 670.584882 132.932082 
L 672.447807 236.486385 
L 674.310733 207.121295 
L 676.173659 237.860929 
L 678.036585 193.669829 
L 679.899511 184.02011 
L 681.762437 168.120085 
L 683.625363 203.965783 
L 685.488288 188.232851 
L 687.351214 291.319045 
L 689.21414 144.614703 
L 691.077066 277.086672 
L 692.939992 147.960475 
L 694.802918 150.521578 
L 696.665844 222.240589 
L 698.528769 189.936535 
L 700.391695 165.635604 
L 702.254621 163.735575 
L 704.117547 87.517062 
L 705.980473 178.024048 
L 707.843399 238.890405 
L 709.706325 164.445325 
L 711.56925 159.016951 
L 713.432176 113.135425 
L 715.295102 209.046146 
L 717.158028 227.907733 
L 719.020954 143.807749 
L 720.88388 241.669807 
L 722.746805 142.253364 
L 724.609731 106.398799 
L 726.472657 188.165332 
L 728.335583 196.186265 
L 730.198509 198.167364 
L 732.061435 176.058155 
L 733.924361 196.195918 
L 735.787286 252.809811 
L 737.650212 170.005564 
L 739.513138 217.440139 
L 741.376064 172.93316 
L 743.23899 250.726106 
L 745.101916 218.965358 
L 746.964842 159.585954 
L 748.827767 128.550934 
L 750.690693 216.38697 
L 752.553619 247.65219 
L 754.416545 161.477382 
L 756.279471 230.777466 
L 758.142397 166.226412 
L 760.005323 185.66461 
L 761.868248 116.303636 
L 763.731174 212.405328 
L 765.5941 157.434085 
L 767.457026 253.747222 
L 769.319952 148.371572 
L 771.182878 247.89952 
L 773.045803 200.660204 
L 774.908729 200.08755 
L 776.771655 188.164007 
L 778.634581 159.130978 
L 780.497507 153.335757 
L 782.360433 214.81472 
L 784.223359 123.058194 
L 786.086284 156.418078 
L 787.94921 192.644278 
L 789.812136 180.954977 
L 791.675062 211.170351 
L 793.537988 102.090974 
L 795.400914 219.619164 
L 797.26384 176.502119 
L 799.126765 168.96856 
L 800.989691 192.999318 
L 802.852617 242.904146 
L 804.715543 171.158611 
L 806.578469 135.550165 
L 808.441395 205.645812 
L 810.304321 234.882201 
L 812.167246 236.093127 
L 814.030172 176.572163 
L 815.893098 172.10643 
L 817.756024 119.871109 
L 819.61895 182.563373 
L 821.481876 141.969366 
L 823.344801 203.294957 
L 825.207727 236.793368 
L 827.070653 222.951794 
L 828.933579 229.068534 
L 830.796505 144.094396 
L 832.659431 146.143852 
L 834.522357 146.4731 
L 836.385282 219.742442 
L 838.248208 179.582152 
L 840.111134 212.829476 
L 841.97406 168.182824 
L 843.836986 139.821911 
L 845.699912 164.248394 
L 847.562838 137.268204 
L 849.425763 199.876046 
L 851.288689 166.937174 
L 853.151615 96.408495 
L 855.014541 187.61478 
L 856.877467 205.376593 
L 858.740393 291.55387 
L 860.603319 188.083051 
L 862.466244 161.519736 
L 864.32917 235.811209 
L 866.192096 189.641016 
L 868.055022 183.917613 
L 869.917948 191.93594 
L 871.780874 176.198027 
L 873.643799 217.485353 
L 875.506725 207.582312 
L 877.369651 140.501125 
L 879.232577 197.678074 
L 881.095503 181.899517 
L 882.958429 182.015198 
L 884.821355 175.246914 
L 886.68428 179.508701 
L 888.547206 190.672234 
L 890.410132 152.868231 
L 892.273058 150.370892 
L 894.135984 178.577829 
L 895.99891 226.619666 
L 897.861836 140.994687 
L 899.724761 211.458871 
L 901.587687 182.057833 
L 903.450613 158.776585 
L 905.313539 247.501643 
L 907.176465 165.687058 
L 909.039391 61.240614 
L 910.902317 121.976056 
L 912.765242 130.927146 
L 914.628168 176.586412 
L 916.491094 158.078141 
L 918.35402 113.63873 
L 920.216946 171.4956 
L 922.079872 214.07274 
L 923.942797 219.393554 
L 925.805723 236.510092 
L 927.668649 178.734747 
L 929.531575 190.484677 
L 931.394501 164.370563 
L 933.257427 131.002591 
L 935.120353 144.733579 
L 936.983278 124.698768 
L 938.846204 181.760364 
L 940.70913 140.202213 
L 942.572056 131.533516 
L 944.434982 200.368707 
L 946.297908 193.159445 
L 948.160834 144.763403 
L 950.023759 181.735558 
L 951.886685 89.178092 
L 953.749611 126.789157 
L 955.612537 191.609351 
L 957.475463 121.630202 
L 959.338389 145.685104 
L 961.201315 183.837397 
L 963.06424 201.051611 
L 964.927166 198.951704 
L 966.790092 144.74908 
L 968.653018 154.746407 
L 970.515944 211.089157 
L 972.37887 165.134336 
L 974.241795 244.034556 
L 976.104721 207.365417 
L 977.967647 145.441565 
L 979.830573 150.550876 
L 981.693499 182.607276 
L 983.556425 190.689679 
L 985.419351 206.8059 
L 987.282276 229.832172 
L 989.145202 236.440422 
L 991.008128 143.905908 
L 992.871054 207.807072 
L 994.73398 190.018659 
L 996.596906 134.070265 
L 998.459832 275.155978 
L 1000.322757 212.966096 
L 1002.185683 89.129728 
L 1004.048609 193.583599 
L 1005.911535 167.540408 
L 1007.774461 249.019492 
L 1009.637387 186.697505 
L 1011.500312 208.734392 
L 1011.500312 208.734392 
" style="fill:none;stroke:#1f77b4;stroke-linecap:round;"/>
   </g>
   <g id="patch_3">
    <path d="M 35.420313 311.678125 
L 35.420313 15.118125 
" style="fill:none;stroke:#cccccc;stroke-linecap:square;stroke-linejoin:miter;stroke-width:0.8;"/>
   </g>
   <g id="patch_4">
    <path d="M 1057.980313 311.678125 
L 1057.980313 15.118125 
" style="fill:none;stroke:#cccccc;stroke-linecap:square;stroke-linejoin:miter;stroke-width:0.8;"/>
   </g>
   <g id="patch_5">
    <path d="M 35.420312 311.678125 
L 1057.980313 311.678125 
" style="fill:none;stroke:#cccccc;stroke-linecap:square;stroke-linejoin:miter;stroke-width:0.8;"/>
   </g>
   <g id="patch_6">
    <path d="M 35.420312 15.118125 
L 1057.980313 15.118125 
" style="fill:none;stroke:#cccccc;stroke-linecap:square;stroke-linejoin:miter;stroke-width:0.8;"/>
   </g>
   <g id="text_17">
    <!-- Latent Space Sample 1 -->
    <g style="fill:#262626;" transform="translate(477.159375 9.118125)scale(0.12 -0.12)">
     <defs>
      <path d="M 53.515625 70.515625 
L 53.515625 60.890625 
Q 47.90625 63.578125 42.921875 64.890625 
Q 37.9375 66.21875 33.296875 66.21875 
Q 25.25 66.21875 20.875 63.09375 
Q 16.5 59.96875 16.5 54.203125 
Q 16.5 49.359375 19.40625 46.890625 
Q 22.3125 44.4375 30.421875 42.921875 
L 36.375 41.703125 
Q 47.40625 39.59375 52.65625 34.296875 
Q 57.90625 29 57.90625 20.125 
Q 57.90625 9.515625 50.796875 4.046875 
Q 43.703125 -1.421875 29.984375 -1.421875 
Q 24.8125 -1.421875 18.96875 -0.25 
Q 13.140625 0.921875 6.890625 3.21875 
L 6.890625 13.375 
Q 12.890625 10.015625 18.65625 8.296875 
Q 24.421875 6.59375 29.984375 6.59375 
Q 38.421875 6.59375 43.015625 9.90625 
Q 47.609375 13.234375 47.609375 19.390625 
Q 47.609375 24.75 44.3125 27.78125 
Q 41.015625 30.8125 33.5 32.328125 
L 27.484375 33.5 
Q 16.453125 35.6875 11.515625 40.375 
Q 6.59375 45.0625 6.59375 53.421875 
Q 6.59375 63.09375 13.40625 68.65625 
Q 20.21875 74.21875 32.171875 74.21875 
Q 37.3125 74.21875 42.625 73.28125 
Q 47.953125 72.359375 53.515625 70.515625 
z
" id="DejaVuSans-83"/>
      <path d="M 48.78125 52.59375 
L 48.78125 44.1875 
Q 44.96875 46.296875 41.140625 47.34375 
Q 37.3125 48.390625 33.40625 48.390625 
Q 24.65625 48.390625 19.8125 42.84375 
Q 14.984375 37.3125 14.984375 27.296875 
Q 14.984375 17.28125 19.8125 11.734375 
Q 24.65625 6.203125 33.40625 6.203125 
Q 37.3125 6.203125 41.140625 7.25 
Q 44.96875 8.296875 48.78125 10.40625 
L 48.78125 2.09375 
Q 45.015625 0.34375 40.984375 -0.53125 
Q 36.96875 -1.421875 32.421875 -1.421875 
Q 20.0625 -1.421875 12.78125 6.34375 
Q 5.515625 14.109375 5.515625 27.296875 
Q 5.515625 40.671875 12.859375 48.328125 
Q 20.21875 56 33.015625 56 
Q 37.15625 56 41.109375 55.140625 
Q 45.0625 54.296875 48.78125 52.59375 
z
" id="DejaVuSans-99"/>
      <path d="M 52 44.1875 
Q 55.375 50.25 60.0625 53.125 
Q 64.75 56 71.09375 56 
Q 79.640625 56 84.28125 50.015625 
Q 88.921875 44.046875 88.921875 33.015625 
L 88.921875 0 
L 79.890625 0 
L 79.890625 32.71875 
Q 79.890625 40.578125 77.09375 44.375 
Q 74.3125 48.1875 68.609375 48.1875 
Q 61.625 48.1875 57.5625 43.546875 
Q 53.515625 38.921875 53.515625 30.90625 
L 53.515625 0 
L 44.484375 0 
L 44.484375 32.71875 
Q 44.484375 40.625 41.703125 44.40625 
Q 38.921875 48.1875 33.109375 48.1875 
Q 26.21875 48.1875 22.15625 43.53125 
Q 18.109375 38.875 18.109375 30.90625 
L 18.109375 0 
L 9.078125 0 
L 9.078125 54.6875 
L 18.109375 54.6875 
L 18.109375 46.1875 
Q 21.1875 51.21875 25.484375 53.609375 
Q 29.78125 56 35.6875 56 
Q 41.65625 56 45.828125 52.96875 
Q 50 49.953125 52 44.1875 
z
" id="DejaVuSans-109"/>
     </defs>
     <use xlink:href="#DejaVuSans-76"/>
     <use x="55.712891" xlink:href="#DejaVuSans-97"/>
     <use x="116.992188" xlink:href="#DejaVuSans-116"/>
     <use x="156.201172" xlink:href="#DejaVuSans-101"/>
     <use x="217.724609" xlink:href="#DejaVuSans-110"/>
     <use x="281.103516" xlink:href="#DejaVuSans-116"/>
     <use x="320.3125" xlink:href="#DejaVuSans-32"/>
     <use x="352.099609" xlink:href="#DejaVuSans-83"/>
     <use x="415.576172" xlink:href="#DejaVuSans-112"/>
     <use x="479.052734" xlink:href="#DejaVuSans-97"/>
     <use x="540.332031" xlink:href="#DejaVuSans-99"/>
     <use x="595.3125" xlink:href="#DejaVuSans-101"/>
     <use x="656.835938" xlink:href="#DejaVuSans-32"/>
     <use x="688.623047" xlink:href="#DejaVuSans-83"/>
     <use x="752.099609" xlink:href="#DejaVuSans-97"/>
     <use x="813.378906" xlink:href="#DejaVuSans-109"/>
     <use x="910.791016" xlink:href="#DejaVuSans-112"/>
     <use x="974.267578" xlink:href="#DejaVuSans-108"/>
     <use x="1002.050781" xlink:href="#DejaVuSans-101"/>
     <use x="1063.574219" xlink:href="#DejaVuSans-32"/>
     <use x="1095.361328" xlink:href="#DejaVuSans-49"/>
    </g>
   </g>
  </g>
  <g id="axes_2">
   <g id="patch_7">
    <path d="M 35.420313 666.278125 
L 1057.980313 666.278125 
L 1057.980313 369.718125 
L 35.420313 369.718125 
z
" style="fill:none;"/>
   </g>
   <g id="matplotlib.axis_3">
    <g id="xtick_7">
     <g id="line2d_16">
      <path clip-path="url(#pdf9b4b79ee)" d="M 81.900312 666.278125 
L 81.900312 369.718125 
" style="fill:none;stroke:#cccccc;stroke-linecap:round;stroke-width:0.8;"/>
     </g>
     <g id="text_18">
      <!-- 0 -->
      <g style="fill:#262626;" transform="translate(78.719062 680.876562)scale(0.1 -0.1)">
       <use xlink:href="#DejaVuSans-48"/>
      </g>
     </g>
    </g>
    <g id="xtick_8">
     <g id="line2d_17">
      <path clip-path="url(#pdf9b4b79ee)" d="M 268.192898 666.278125 
L 268.192898 369.718125 
" style="fill:none;stroke:#cccccc;stroke-linecap:round;stroke-width:0.8;"/>
     </g>
     <g id="text_19">
      <!-- 100 -->
      <g style="fill:#262626;" transform="translate(258.649148 680.876562)scale(0.1 -0.1)">
       <use xlink:href="#DejaVuSans-49"/>
       <use x="63.623047" xlink:href="#DejaVuSans-48"/>
       <use x="127.246094" xlink:href="#DejaVuSans-48"/>
      </g>
     </g>
    </g>
    <g id="xtick_9">
     <g id="line2d_18">
      <path clip-path="url(#pdf9b4b79ee)" d="M 454.485483 666.278125 
L 454.485483 369.718125 
" style="fill:none;stroke:#cccccc;stroke-linecap:round;stroke-width:0.8;"/>
     </g>
     <g id="text_20">
      <!-- 200 -->
      <g style="fill:#262626;" transform="translate(444.941733 680.876562)scale(0.1 -0.1)">
       <use xlink:href="#DejaVuSans-50"/>
       <use x="63.623047" xlink:href="#DejaVuSans-48"/>
       <use x="127.246094" xlink:href="#DejaVuSans-48"/>
      </g>
     </g>
    </g>
    <g id="xtick_10">
     <g id="line2d_19">
      <path clip-path="url(#pdf9b4b79ee)" d="M 640.778068 666.278125 
L 640.778068 369.718125 
" style="fill:none;stroke:#cccccc;stroke-linecap:round;stroke-width:0.8;"/>
     </g>
     <g id="text_21">
      <!-- 300 -->
      <g style="fill:#262626;" transform="translate(631.234318 680.876562)scale(0.1 -0.1)">
       <use xlink:href="#DejaVuSans-51"/>
       <use x="63.623047" xlink:href="#DejaVuSans-48"/>
       <use x="127.246094" xlink:href="#DejaVuSans-48"/>
      </g>
     </g>
    </g>
    <g id="xtick_11">
     <g id="line2d_20">
      <path clip-path="url(#pdf9b4b79ee)" d="M 827.070653 666.278125 
L 827.070653 369.718125 
" style="fill:none;stroke:#cccccc;stroke-linecap:round;stroke-width:0.8;"/>
     </g>
     <g id="text_22">
      <!-- 400 -->
      <g style="fill:#262626;" transform="translate(817.526903 680.876562)scale(0.1 -0.1)">
       <use xlink:href="#DejaVuSans-52"/>
       <use x="63.623047" xlink:href="#DejaVuSans-48"/>
       <use x="127.246094" xlink:href="#DejaVuSans-48"/>
      </g>
     </g>
    </g>
    <g id="xtick_12">
     <g id="line2d_21">
      <path clip-path="url(#pdf9b4b79ee)" d="M 1013.363238 666.278125 
L 1013.363238 369.718125 
" style="fill:none;stroke:#cccccc;stroke-linecap:round;stroke-width:0.8;"/>
     </g>
     <g id="text_23">
      <!-- 500 -->
      <g style="fill:#262626;" transform="translate(1003.819488 680.876562)scale(0.1 -0.1)">
       <use xlink:href="#DejaVuSans-53"/>
       <use x="63.623047" xlink:href="#DejaVuSans-48"/>
       <use x="127.246094" xlink:href="#DejaVuSans-48"/>
      </g>
     </g>
    </g>
    <g id="text_24">
     <!-- Latent features -->
     <g style="fill:#262626;" transform="translate(508.441719 694.554688)scale(0.1 -0.1)">
      <use xlink:href="#DejaVuSans-76"/>
      <use x="55.712891" xlink:href="#DejaVuSans-97"/>
      <use x="116.992188" xlink:href="#DejaVuSans-116"/>
      <use x="156.201172" xlink:href="#DejaVuSans-101"/>
      <use x="217.724609" xlink:href="#DejaVuSans-110"/>
      <use x="281.103516" xlink:href="#DejaVuSans-116"/>
      <use x="320.3125" xlink:href="#DejaVuSans-32"/>
      <use x="352.099609" xlink:href="#DejaVuSans-102"/>
      <use x="387.304688" xlink:href="#DejaVuSans-101"/>
      <use x="448.828125" xlink:href="#DejaVuSans-97"/>
      <use x="510.107422" xlink:href="#DejaVuSans-116"/>
      <use x="549.316406" xlink:href="#DejaVuSans-117"/>
      <use x="612.695312" xlink:href="#DejaVuSans-114"/>
      <use x="651.558594" xlink:href="#DejaVuSans-101"/>
      <use x="713.082031" xlink:href="#DejaVuSans-115"/>
     </g>
    </g>
   </g>
   <g id="matplotlib.axis_4">
    <g id="ytick_9">
     <g id="line2d_22">
      <path clip-path="url(#pdf9b4b79ee)" d="M 35.420313 638.322839 
L 1057.980313 638.322839 
" style="fill:none;stroke:#cccccc;stroke-linecap:round;stroke-width:0.8;"/>
     </g>
     <g id="text_25">
      <!-- −4 -->
      <g style="fill:#262626;" transform="translate(13.678125 642.122058)scale(0.1 -0.1)">
       <use xlink:href="#DejaVuSans-8722"/>
       <use x="83.789062" xlink:href="#DejaVuSans-52"/>
      </g>
     </g>
    </g>
    <g id="ytick_10">
     <g id="line2d_23">
      <path clip-path="url(#pdf9b4b79ee)" d="M 35.420313 603.014704 
L 1057.980313 603.014704 
" style="fill:none;stroke:#cccccc;stroke-linecap:round;stroke-width:0.8;"/>
     </g>
     <g id="text_26">
      <!-- −3 -->
      <g style="fill:#262626;" transform="translate(13.678125 606.813923)scale(0.1 -0.1)">
       <use xlink:href="#DejaVuSans-8722"/>
       <use x="83.789062" xlink:href="#DejaVuSans-51"/>
      </g>
     </g>
    </g>
    <g id="ytick_11">
     <g id="line2d_24">
      <path clip-path="url(#pdf9b4b79ee)" d="M 35.420313 567.70657 
L 1057.980313 567.70657 
" style="fill:none;stroke:#cccccc;stroke-linecap:round;stroke-width:0.8;"/>
     </g>
     <g id="text_27">
      <!-- −2 -->
      <g style="fill:#262626;" transform="translate(13.678125 571.505788)scale(0.1 -0.1)">
       <use xlink:href="#DejaVuSans-8722"/>
       <use x="83.789062" xlink:href="#DejaVuSans-50"/>
      </g>
     </g>
    </g>
    <g id="ytick_12">
     <g id="line2d_25">
      <path clip-path="url(#pdf9b4b79ee)" d="M 35.420313 532.398435 
L 1057.980313 532.398435 
" style="fill:none;stroke:#cccccc;stroke-linecap:round;stroke-width:0.8;"/>
     </g>
     <g id="text_28">
      <!-- −1 -->
      <g style="fill:#262626;" transform="translate(13.678125 536.197654)scale(0.1 -0.1)">
       <use xlink:href="#DejaVuSans-8722"/>
       <use x="83.789062" xlink:href="#DejaVuSans-49"/>
      </g>
     </g>
    </g>
    <g id="ytick_13">
     <g id="line2d_26">
      <path clip-path="url(#pdf9b4b79ee)" d="M 35.420313 497.0903 
L 1057.980313 497.0903 
" style="fill:none;stroke:#cccccc;stroke-linecap:round;stroke-width:0.8;"/>
     </g>
     <g id="text_29">
      <!-- 0 -->
      <g style="fill:#262626;" transform="translate(22.057813 500.889519)scale(0.1 -0.1)">
       <use xlink:href="#DejaVuSans-48"/>
      </g>
     </g>
    </g>
    <g id="ytick_14">
     <g id="line2d_27">
      <path clip-path="url(#pdf9b4b79ee)" d="M 35.420313 461.782166 
L 1057.980313 461.782166 
" style="fill:none;stroke:#cccccc;stroke-linecap:round;stroke-width:0.8;"/>
     </g>
     <g id="text_30">
      <!-- 1 -->
      <g style="fill:#262626;" transform="translate(22.057813 465.581384)scale(0.1 -0.1)">
       <use xlink:href="#DejaVuSans-49"/>
      </g>
     </g>
    </g>
    <g id="ytick_15">
     <g id="line2d_28">
      <path clip-path="url(#pdf9b4b79ee)" d="M 35.420313 426.474031 
L 1057.980313 426.474031 
" style="fill:none;stroke:#cccccc;stroke-linecap:round;stroke-width:0.8;"/>
     </g>
     <g id="text_31">
      <!-- 2 -->
      <g style="fill:#262626;" transform="translate(22.057813 430.27325)scale(0.1 -0.1)">
       <use xlink:href="#DejaVuSans-50"/>
      </g>
     </g>
    </g>
    <g id="ytick_16">
     <g id="line2d_29">
      <path clip-path="url(#pdf9b4b79ee)" d="M 35.420313 391.165896 
L 1057.980313 391.165896 
" style="fill:none;stroke:#cccccc;stroke-linecap:round;stroke-width:0.8;"/>
     </g>
     <g id="text_32">
      <!-- 3 -->
      <g style="fill:#262626;" transform="translate(22.057813 394.965115)scale(0.1 -0.1)">
       <use xlink:href="#DejaVuSans-51"/>
      </g>
     </g>
    </g>
    <g id="text_33">
     <!-- Expression Level -->
     <g style="fill:#262626;" transform="translate(7.598437 559.92625)rotate(-90)scale(0.1 -0.1)">
      <use xlink:href="#DejaVuSans-69"/>
      <use x="63.183594" xlink:href="#DejaVuSans-120"/>
      <use x="122.363281" xlink:href="#DejaVuSans-112"/>
      <use x="185.839844" xlink:href="#DejaVuSans-114"/>
      <use x="224.703125" xlink:href="#DejaVuSans-101"/>
      <use x="286.226562" xlink:href="#DejaVuSans-115"/>
      <use x="338.326172" xlink:href="#DejaVuSans-115"/>
      <use x="390.425781" xlink:href="#DejaVuSans-105"/>
      <use x="418.208984" xlink:href="#DejaVuSans-111"/>
      <use x="479.390625" xlink:href="#DejaVuSans-110"/>
      <use x="542.769531" xlink:href="#DejaVuSans-32"/>
      <use x="574.556641" xlink:href="#DejaVuSans-76"/>
      <use x="628.519531" xlink:href="#DejaVuSans-101"/>
      <use x="690.042969" xlink:href="#DejaVuSans-118"/>
      <use x="749.222656" xlink:href="#DejaVuSans-101"/>
      <use x="810.746094" xlink:href="#DejaVuSans-108"/>
     </g>
    </g>
   </g>
   <g id="line2d_30">
    <path clip-path="url(#pdf9b4b79ee)" d="M 81.900312 475.920382 
L 83.763238 527.894005 
L 85.626164 477.632174 
L 87.48909 422.497532 
L 89.352016 480.522851 
L 91.214942 513.391578 
L 93.077868 497.999343 
L 94.940793 501.561576 
L 98.666645 479.044182 
L 100.529571 438.795833 
L 102.392497 466.152809 
L 104.255423 508.057529 
L 106.118349 444.060871 
L 107.981274 544.18809 
L 109.8442 516.400828 
L 111.707126 507.949727 
L 113.570052 492.083315 
L 115.432978 454.230628 
L 117.295904 521.778633 
L 119.15883 561.305599 
L 121.021755 489.767268 
L 122.884681 495.569029 
L 124.747607 515.696141 
L 126.610533 511.279878 
L 128.473459 476.375747 
L 130.336385 431.104908 
L 132.19931 465.866425 
L 134.062236 522.055404 
L 135.925162 445.368516 
L 137.788088 505.503636 
L 139.651014 440.065373 
L 141.51394 552.13131 
L 143.376866 492.736059 
L 145.239791 491.431586 
L 147.102717 492.15365 
L 148.965643 523.02374 
L 150.828569 511.528338 
L 152.691495 547.396814 
L 154.554421 439.207142 
L 156.417347 521.310439 
L 158.280272 509.522009 
L 160.143198 442.927793 
L 162.006124 487.606449 
L 163.86905 481.486755 
L 165.731976 510.383368 
L 167.594902 488.444042 
L 169.457828 553.754781 
L 171.320753 425.526437 
L 173.183679 468.942381 
L 175.046605 442.647625 
L 176.909531 506.011717 
L 178.772457 453.879298 
L 180.635383 474.158988 
L 182.498308 470.616262 
L 184.361234 478.876279 
L 186.22416 513.972757 
L 188.087086 470.966555 
L 189.950012 546.336123 
L 191.812938 514.341472 
L 193.675864 536.723978 
L 195.538789 489.792751 
L 197.401715 489.302987 
L 199.264641 610.288722 
L 201.127567 475.082072 
L 202.990493 451.099321 
L 204.853419 495.220179 
L 206.716345 494.36472 
L 208.57927 473.90268 
L 210.442196 488.273545 
L 212.305122 479.268079 
L 214.168048 485.607013 
L 216.030974 513.106109 
L 217.8939 542.473707 
L 219.756826 488.23767 
L 221.619751 447.923103 
L 223.482677 424.55614 
L 225.345603 526.306258 
L 227.208529 469.41442 
L 230.934381 506.620559 
L 232.797306 549.567451 
L 234.660232 504.70906 
L 236.523158 505.106584 
L 238.386084 479.155247 
L 240.24901 559.173497 
L 242.111936 521.427129 
L 243.974862 529.910141 
L 245.837787 523.012681 
L 247.700713 500.866531 
L 249.563639 501.001666 
L 251.426565 455.939998 
L 253.289491 524.34848 
L 255.152417 532.699576 
L 257.015343 521.823283 
L 258.878268 479.289074 
L 260.741194 467.133825 
L 262.60412 451.908247 
L 264.467046 495.921518 
L 266.329972 545.10936 
L 268.192898 481.876496 
L 270.055824 532.254351 
L 271.918749 512.914819 
L 273.781675 480.662449 
L 275.644601 498.018252 
L 277.507527 489.680949 
L 279.370453 546.319304 
L 281.233379 500.986018 
L 283.096304 515.279263 
L 284.95923 486.773119 
L 286.822156 442.185551 
L 288.685082 475.893095 
L 290.548008 464.666999 
L 292.410934 539.286453 
L 294.27386 468.313815 
L 296.136785 558.430901 
L 297.999711 573.124241 
L 299.862637 518.993893 
L 301.725563 500.547846 
L 303.588489 491.315773 
L 305.451415 503.321634 
L 307.314341 536.450516 
L 309.177266 476.177905 
L 311.040192 507.643553 
L 312.903118 498.874606 
L 314.766044 503.841228 
L 316.62897 473.907754 
L 318.491896 510.435073 
L 320.354822 514.883069 
L 322.217747 487.295088 
L 324.080673 490.751371 
L 325.943599 424.322394 
L 327.806525 499.233571 
L 329.669451 499.236317 
L 331.532377 504.896776 
L 333.395302 493.795158 
L 335.258228 561.748758 
L 337.121154 473.340234 
L 338.98408 537.491496 
L 340.847006 510.821891 
L 342.709932 476.732583 
L 344.572858 479.723056 
L 346.435783 506.536773 
L 348.298709 549.420188 
L 350.161635 557.441895 
L 352.024561 502.533515 
L 353.887487 469.076926 
L 355.750413 423.759063 
L 357.613339 525.593296 
L 359.476264 495.585972 
L 361.33919 545.711634 
L 363.202116 504.408949 
L 365.065042 442.662892 
L 366.927968 469.556874 
L 368.790894 513.760787 
L 370.65382 498.032561 
L 372.516745 519.262562 
L 374.379671 500.420438 
L 376.242597 483.550181 
L 378.105523 495.025772 
L 379.968449 456.453469 
L 381.831375 433.798158 
L 383.6943 537.798614 
L 385.557226 522.119708 
L 387.420152 532.255979 
L 389.283078 476.871921 
L 391.146004 471.50309 
L 393.00893 513.377433 
L 394.871856 506.160178 
L 396.734781 432.573158 
L 398.597707 498.459949 
L 400.460633 528.679316 
L 402.323559 463.452892 
L 404.186485 491.976427 
L 406.049411 438.394061 
L 407.912337 499.832323 
L 409.775262 492.930421 
L 411.638188 503.299318 
L 413.501114 508.918672 
L 415.36404 590.471578 
L 417.226966 521.913393 
L 419.089892 485.487973 
L 420.952818 430.461785 
L 422.815743 491.207765 
L 424.678669 512.243059 
L 426.541595 492.510228 
L 428.404521 509.827657 
L 430.267447 460.414702 
L 432.130373 462.46457 
L 433.993298 475.854495 
L 435.856224 427.479057 
L 437.71915 470.477048 
L 439.582076 484.250838 
L 441.445002 441.42928 
L 443.307928 383.198125 
L 445.170854 470.803601 
L 447.033779 469.485781 
L 448.896705 515.719901 
L 450.759631 529.764655 
L 452.622557 487.663228 
L 454.485483 484.760255 
L 456.348409 501.317585 
L 458.211335 549.903872 
L 460.07426 501.171012 
L 463.800112 569.578287 
L 465.663038 528.691989 
L 467.525964 483.159431 
L 469.38889 474.692023 
L 471.251816 533.657907 
L 473.114741 489.462481 
L 474.977667 465.039492 
L 476.840593 474.378596 
L 478.703519 468.046885 
L 480.566445 450.707529 
L 482.429371 472.826161 
L 484.292296 492.42132 
L 486.155222 465.691328 
L 488.018148 462.576598 
L 489.881074 439.800556 
L 491.744 548.354569 
L 493.606926 473.03771 
L 495.469852 507.224568 
L 497.332777 472.511075 
L 499.195703 488.681872 
L 501.058629 479.421676 
L 502.921555 432.836156 
L 504.784481 490.15451 
L 506.647407 524.633829 
L 508.510333 453.255511 
L 510.373258 482.365097 
L 512.236184 496.09747 
L 514.09911 505.605622 
L 515.962036 459.037443 
L 517.824962 497.09194 
L 519.687888 566.663877 
L 521.550814 518.728761 
L 523.413739 498.368148 
L 525.276665 532.027487 
L 527.139591 513.129707 
L 529.002517 528.350363 
L 530.865443 496.515117 
L 532.728369 551.491466 
L 534.591294 501.259351 
L 536.45422 485.60941 
L 538.317146 570.94038 
L 540.180072 563.789503 
L 542.042998 437.060337 
L 543.905924 495.902173 
L 545.76885 514.166871 
L 547.631775 419.455057 
L 549.494701 435.278976 
L 551.357627 472.219452 
L 553.220553 500.786425 
L 555.083479 508.600035 
L 556.946405 477.185957 
L 558.809331 492.669845 
L 560.672256 533.811778 
L 562.535182 470.771143 
L 564.398108 524.627075 
L 566.261034 475.495707 
L 568.12396 502.880602 
L 569.986886 497.13946 
L 571.849811 462.277044 
L 573.712737 489.599149 
L 575.575663 489.008732 
L 577.438589 502.25422 
L 579.301515 488.980977 
L 581.164441 503.481993 
L 583.027367 491.954299 
L 584.890292 483.478938 
L 586.753218 474.2077 
L 588.616144 508.007395 
L 590.47907 457.812385 
L 592.341996 545.323887 
L 594.204922 456.417772 
L 596.067848 491.379713 
L 597.930773 482.430857 
L 599.793699 453.453219 
L 601.656625 541.29017 
L 603.519551 475.606525 
L 605.382477 495.902974 
L 607.245403 512.00361 
L 609.108329 652.798125 
L 610.971254 412.689106 
L 612.83418 499.27966 
L 614.697106 533.55388 
L 616.560032 533.04599 
L 618.422958 401.876475 
L 620.285884 524.761233 
L 622.148809 556.064981 
L 624.011735 505.007725 
L 625.874661 509.759998 
L 627.737587 550.756998 
L 629.600513 481.810657 
L 631.463439 517.668419 
L 633.326365 587.176475 
L 635.18929 497.781038 
L 637.052216 485.720653 
L 638.915142 503.40274 
L 640.778068 527.985899 
L 642.640994 554.154301 
L 644.50392 492.121439 
L 646.366846 496.971444 
L 648.229771 527.316076 
L 650.092697 460.390836 
L 651.955623 498.821743 
L 653.818549 521.083213 
L 655.681475 493.814962 
L 657.544401 510.771445 
L 659.407327 524.500595 
L 661.270252 509.358544 
L 663.133178 481.356409 
L 664.996104 490.785219 
L 666.85903 532.726001 
L 668.721956 621.058446 
L 670.584882 564.269436 
L 672.447807 471.246886 
L 674.310733 483.434669 
L 676.173659 489.794526 
L 678.036585 495.326426 
L 679.899511 484.732294 
L 681.762437 506.431535 
L 683.625363 497.585389 
L 685.488288 515.606747 
L 687.351214 496.750546 
L 689.21414 512.72538 
L 691.077066 449.559622 
L 692.939992 489.846461 
L 694.802918 520.660215 
L 696.665844 533.992784 
L 698.528769 481.920373 
L 700.391695 531.647851 
L 702.254621 524.087832 
L 704.117547 505.139397 
L 705.980473 500.996773 
L 707.843399 481.163289 
L 709.706325 494.742147 
L 711.56925 505.031403 
L 713.432176 541.546906 
L 715.295102 456.173803 
L 717.158028 510.076926 
L 719.020954 551.469065 
L 720.88388 560.193444 
L 722.746805 505.831789 
L 724.609731 469.812484 
L 726.472657 548.484729 
L 728.335583 501.668312 
L 730.198509 482.883549 
L 732.061435 506.11633 
L 733.924361 551.274312 
L 735.787286 506.263574 
L 737.650212 391.936196 
L 739.513138 538.174403 
L 741.376064 455.077566 
L 743.23899 546.16117 
L 745.101916 481.355724 
L 746.964842 510.112846 
L 748.827767 522.633962 
L 750.690693 493.579585 
L 752.553619 471.418694 
L 754.416545 459.829024 
L 756.279471 470.561262 
L 758.142397 497.835526 
L 760.005323 482.205578 
L 761.868248 527.582627 
L 763.731174 507.293797 
L 765.5941 473.220234 
L 767.457026 512.978862 
L 769.319952 525.651339 
L 771.182878 510.855244 
L 773.045803 485.283854 
L 774.908729 507.734176 
L 776.771655 545.635753 
L 778.634581 468.137275 
L 780.497507 509.812598 
L 782.360433 467.903487 
L 784.223359 537.120623 
L 786.086284 479.697536 
L 787.94921 514.424297 
L 789.812136 529.678601 
L 791.675062 456.420386 
L 793.537988 474.515239 
L 795.400914 497.254333 
L 797.26384 494.386876 
L 799.126765 580.51107 
L 800.989691 473.829055 
L 802.852617 526.601525 
L 804.715543 535.794484 
L 806.578469 483.182531 
L 808.441395 478.540062 
L 810.304321 445.981111 
L 812.167246 470.001384 
L 814.030172 503.841582 
L 815.893098 493.14457 
L 817.756024 457.802674 
L 819.61895 513.08975 
L 821.481876 495.073006 
L 823.344801 511.547197 
L 825.207727 460.787574 
L 827.070653 497.702821 
L 828.933579 596.348214 
L 830.796505 498.502747 
L 832.659431 488.312601 
L 834.522357 486.143309 
L 836.385282 452.132476 
L 838.248208 448.011379 
L 840.111134 488.754888 
L 841.97406 438.703132 
L 843.836986 439.520578 
L 845.699912 523.326935 
L 847.562838 489.563052 
L 849.425763 458.58502 
L 851.288689 486.712167 
L 853.151615 453.285131 
L 855.014541 491.028457 
L 856.877467 599.994133 
L 858.740393 459.60623 
L 860.603319 491.128254 
L 862.466244 486.27758 
L 864.32917 528.548263 
L 866.192096 557.221933 
L 868.055022 466.18628 
L 869.917948 474.558186 
L 871.780874 429.051258 
L 873.643799 535.03533 
L 875.506725 467.431578 
L 877.369651 488.359647 
L 879.232577 506.827109 
L 881.095503 490.176691 
L 882.958429 484.351743 
L 884.821355 474.032232 
L 886.68428 512.177132 
L 888.547206 388.687191 
L 890.410132 404.823245 
L 892.273058 507.894499 
L 894.135984 603.907866 
L 895.99891 480.183168 
L 897.861836 454.43244 
L 899.724761 485.788085 
L 901.587687 489.123016 
L 903.450613 577.163884 
L 905.313539 444.225824 
L 907.176465 478.358281 
L 909.039391 472.825146 
L 910.902317 495.629296 
L 912.765242 436.655329 
L 914.628168 499.569935 
L 916.491094 490.019458 
L 918.35402 490.044478 
L 920.216946 520.808736 
L 922.079872 460.079467 
L 923.942797 489.641187 
L 925.805723 501.171527 
L 927.668649 509.901861 
L 929.531575 515.108935 
L 931.394501 507.552936 
L 933.257427 508.290113 
L 935.120353 484.205309 
L 936.983278 409.215236 
L 938.846204 479.944428 
L 940.70913 493.880662 
L 942.572056 544.932849 
L 944.434982 517.759427 
L 946.297908 456.790611 
L 948.160834 411.656608 
L 950.023759 544.258086 
L 951.886685 492.476954 
L 953.749611 458.928997 
L 955.612537 471.46516 
L 957.475463 469.730754 
L 959.338389 476.553365 
L 961.201315 543.239099 
L 963.06424 468.740929 
L 964.927166 473.402309 
L 966.790092 477.486896 
L 968.653018 492.786329 
L 970.515944 531.286261 
L 972.37887 489.652447 
L 974.241795 571.978115 
L 976.104721 493.816254 
L 977.967647 499.195724 
L 979.830573 500.067885 
L 981.693499 506.839402 
L 983.556425 548.78039 
L 985.419351 558.876375 
L 987.282276 582.311949 
L 989.145202 478.881561 
L 991.008128 531.261941 
L 992.871054 516.916915 
L 994.73398 461.47349 
L 996.596906 514.517825 
L 998.459832 485.491893 
L 1000.322757 511.02218 
L 1002.185683 498.977913 
L 1004.048609 499.392729 
L 1005.911535 544.686038 
L 1007.774461 473.318298 
L 1009.637387 450.289894 
L 1011.500312 515.611966 
L 1011.500312 515.611966 
" style="fill:none;stroke:#1f77b4;stroke-linecap:round;"/>
   </g>
   <g id="patch_8">
    <path d="M 35.420313 666.278125 
L 35.420313 369.718125 
" style="fill:none;stroke:#cccccc;stroke-linecap:square;stroke-linejoin:miter;stroke-width:0.8;"/>
   </g>
   <g id="patch_9">
    <path d="M 1057.980313 666.278125 
L 1057.980313 369.718125 
" style="fill:none;stroke:#cccccc;stroke-linecap:square;stroke-linejoin:miter;stroke-width:0.8;"/>
   </g>
   <g id="patch_10">
    <path d="M 35.420312 666.278125 
L 1057.980313 666.278125 
" style="fill:none;stroke:#cccccc;stroke-linecap:square;stroke-linejoin:miter;stroke-width:0.8;"/>
   </g>
   <g id="patch_11">
    <path d="M 35.420312 369.718125 
L 1057.980313 369.718125 
" style="fill:none;stroke:#cccccc;stroke-linecap:square;stroke-linejoin:miter;stroke-width:0.8;"/>
   </g>
   <g id="text_34">
    <!-- Latent Space Sample 2 -->
    <g style="fill:#262626;" transform="translate(477.159375 363.718125)scale(0.12 -0.12)">
     <use xlink:href="#DejaVuSans-76"/>
     <use x="55.712891" xlink:href="#DejaVuSans-97"/>
     <use x="116.992188" xlink:href="#DejaVuSans-116"/>
     <use x="156.201172" xlink:href="#DejaVuSans-101"/>
     <use x="217.724609" xlink:href="#DejaVuSans-110"/>
     <use x="281.103516" xlink:href="#DejaVuSans-116"/>
     <use x="320.3125" xlink:href="#DejaVuSans-32"/>
     <use x="352.099609" xlink:href="#DejaVuSans-83"/>
     <use x="415.576172" xlink:href="#DejaVuSans-112"/>
     <use x="479.052734" xlink:href="#DejaVuSans-97"/>
     <use x="540.332031" xlink:href="#DejaVuSans-99"/>
     <use x="595.3125" xlink:href="#DejaVuSans-101"/>
     <use x="656.835938" xlink:href="#DejaVuSans-32"/>
     <use x="688.623047" xlink:href="#DejaVuSans-83"/>
     <use x="752.099609" xlink:href="#DejaVuSans-97"/>
     <use x="813.378906" xlink:href="#DejaVuSans-109"/>
     <use x="910.791016" xlink:href="#DejaVuSans-112"/>
     <use x="974.267578" xlink:href="#DejaVuSans-108"/>
     <use x="1002.050781" xlink:href="#DejaVuSans-101"/>
     <use x="1063.574219" xlink:href="#DejaVuSans-32"/>
     <use x="1095.361328" xlink:href="#DejaVuSans-50"/>
    </g>
   </g>
  </g>
 </g>
 <defs>
  <clipPath id="p1133055c8b">
   <rect height="296.56" width="1022.56" x="35.420313" y="15.118125"/>
  </clipPath>
  <clipPath id="pdf9b4b79ee">
   <rect height="296.56" width="1022.56" x="35.420313" y="369.718125"/>
  </clipPath>
 </defs>
</svg>
